%TF.GenerationSoftware,Altium Limited,Altium Designer,21.3.2 (30)*%
G04 Layer_Physical_Order=2*
G04 Layer_Color=16711680*
%FSLAX24Y24*%
%MOIN*%
%TF.SameCoordinates,B2232A1B-76E2-43D3-9B88-882A457EFEF9*%
%TF.FilePolarity,Positive*%
%TF.FileFunction,Copper,L2,Bot,Signal*%
%TF.Part,Single*%
G01*
G75*
%TA.AperFunction,SMDPad,CuDef*%
%ADD15R,0.0550X0.0394*%
%ADD16R,0.0550X0.0500*%
%TA.AperFunction,Conductor*%
%ADD20C,0.0100*%
%ADD21C,0.0315*%
%ADD22C,0.0394*%
%ADD23C,0.0197*%
%TA.AperFunction,ComponentPad*%
%ADD24R,0.0787X0.0984*%
%ADD25C,0.1575*%
%ADD26O,0.0620X0.0900*%
%ADD27R,0.0620X0.0900*%
%ADD28O,0.0591X0.0512*%
%ADD29R,0.0591X0.0512*%
%ADD30O,0.1200X0.1000*%
%ADD31C,0.0650*%
%ADD32R,0.0650X0.0650*%
%ADD33O,0.1063X0.2126*%
%ADD34R,0.0900X0.0750*%
%ADD35O,0.0900X0.0750*%
%ADD36C,0.0709*%
%ADD37R,0.0709X0.0709*%
%ADD38C,0.0750*%
%TA.AperFunction,ViaPad*%
%ADD39C,0.0157*%
%ADD40C,0.1575*%
%TA.AperFunction,SMDPad,CuDef*%
%ADD41R,0.3937X0.2362*%
%ADD42R,0.1299X0.0945*%
%ADD43R,0.0394X0.0945*%
G04:AMPARAMS|DCode=44|XSize=216.5mil|YSize=224.4mil|CornerRadius=27.1mil|HoleSize=0mil|Usage=FLASHONLY|Rotation=0.000|XOffset=0mil|YOffset=0mil|HoleType=Round|Shape=RoundedRectangle|*
%AMROUNDEDRECTD44*
21,1,0.2165,0.1703,0,0,0.0*
21,1,0.1624,0.2244,0,0,0.0*
1,1,0.0541,0.0812,-0.0851*
1,1,0.0541,-0.0812,-0.0851*
1,1,0.0541,-0.0812,0.0851*
1,1,0.0541,0.0812,0.0851*
%
%ADD44ROUNDEDRECTD44*%
G04:AMPARAMS|DCode=45|XSize=39.4mil|YSize=78.7mil|CornerRadius=4.9mil|HoleSize=0mil|Usage=FLASHONLY|Rotation=0.000|XOffset=0mil|YOffset=0mil|HoleType=Round|Shape=RoundedRectangle|*
%AMROUNDEDRECTD45*
21,1,0.0394,0.0689,0,0,0.0*
21,1,0.0295,0.0787,0,0,0.0*
1,1,0.0098,0.0148,-0.0344*
1,1,0.0098,-0.0148,-0.0344*
1,1,0.0098,-0.0148,0.0344*
1,1,0.0098,0.0148,0.0344*
%
%ADD45ROUNDEDRECTD45*%
%ADD46R,0.0394X0.0550*%
%ADD47O,0.0800X0.0217*%
%ADD48R,0.0354X0.0374*%
%ADD49R,0.0394X0.0709*%
G04:AMPARAMS|DCode=50|XSize=55.1mil|YSize=47.2mil|CornerRadius=5.9mil|HoleSize=0mil|Usage=FLASHONLY|Rotation=90.000|XOffset=0mil|YOffset=0mil|HoleType=Round|Shape=RoundedRectangle|*
%AMROUNDEDRECTD50*
21,1,0.0551,0.0354,0,0,90.0*
21,1,0.0433,0.0472,0,0,90.0*
1,1,0.0118,0.0177,0.0217*
1,1,0.0118,0.0177,-0.0217*
1,1,0.0118,-0.0177,-0.0217*
1,1,0.0118,-0.0177,0.0217*
%
%ADD50ROUNDEDRECTD50*%
%ADD51R,0.0551X0.0472*%
G04:AMPARAMS|DCode=52|XSize=11mil|YSize=61.4mil|CornerRadius=2.8mil|HoleSize=0mil|Usage=FLASHONLY|Rotation=315.000|XOffset=0mil|YOffset=0mil|HoleType=Round|Shape=RoundedRectangle|*
%AMROUNDEDRECTD52*
21,1,0.0110,0.0559,0,0,315.0*
21,1,0.0055,0.0614,0,0,315.0*
1,1,0.0055,-0.0178,-0.0217*
1,1,0.0055,-0.0217,-0.0178*
1,1,0.0055,0.0178,0.0217*
1,1,0.0055,0.0217,0.0178*
%
%ADD52ROUNDEDRECTD52*%
G04:AMPARAMS|DCode=53|XSize=11mil|YSize=61.4mil|CornerRadius=2.8mil|HoleSize=0mil|Usage=FLASHONLY|Rotation=225.000|XOffset=0mil|YOffset=0mil|HoleType=Round|Shape=RoundedRectangle|*
%AMROUNDEDRECTD53*
21,1,0.0110,0.0559,0,0,225.0*
21,1,0.0055,0.0614,0,0,225.0*
1,1,0.0055,-0.0217,0.0178*
1,1,0.0055,-0.0178,0.0217*
1,1,0.0055,0.0217,-0.0178*
1,1,0.0055,0.0178,-0.0217*
%
%ADD53ROUNDEDRECTD53*%
%ADD54R,0.0472X0.0551*%
%ADD55O,0.0236X0.0709*%
%TA.AperFunction,Conductor*%
%ADD56C,0.0157*%
%ADD57C,0.0236*%
%ADD58C,0.0354*%
G36*
X19850Y17100D02*
X26710D01*
X30140Y13670D01*
X30124Y13656D01*
X35750Y8030D01*
X40050Y8030D01*
X40161Y2900D01*
X34870D01*
Y6100D01*
X33740D01*
X28950Y10890D01*
X22550D01*
X22240Y11200D01*
X15570Y17870D01*
X11840D01*
X10780Y16810D01*
Y10000D01*
X10210Y9430D01*
Y7240D01*
X12300Y5600D01*
Y3180D01*
X11820Y2700D01*
X10050D01*
X8750Y4000D01*
Y16960D01*
X12490Y20700D01*
X16250D01*
X19850Y17100D01*
D02*
G37*
G36*
X10890Y20921D02*
Y20240D01*
X6160Y15510D01*
Y2960D01*
X5240Y2040D01*
X2820D01*
X1010Y3850D01*
Y7860D01*
X4390Y11240D01*
Y17086D01*
X6403Y19099D01*
X6400Y20220D01*
Y20650D01*
X7490Y21740D01*
X10071D01*
X10890Y20921D01*
D02*
G37*
G36*
X15280Y17220D02*
X15830Y16670D01*
Y15520D01*
X22210Y9140D01*
X28040D01*
X32380Y4800D01*
Y2925D01*
X33405Y1900D01*
X40200D01*
X41490Y3190D01*
Y7510D01*
X42010Y8030D01*
X44560D01*
X45220Y7370D01*
X45220Y1240D01*
X44340Y360D01*
X22290D01*
X18060Y7130D01*
X18080D01*
X14320Y10890D01*
X13580D01*
X11530Y12940D01*
Y16300D01*
X12450Y17220D01*
X15280Y17220D01*
D02*
G37*
G36*
X56565Y-115D02*
X49375Y-115D01*
X45730Y3530D01*
Y8610D01*
X36894D01*
X9090Y35036D01*
X4174Y35036D01*
X600Y38610D01*
X600Y41415D01*
X56565D01*
X56565Y-115D01*
D02*
G37*
%LPC*%
G36*
X26540Y40136D02*
X26437Y40123D01*
X26342Y40083D01*
X26260Y40020D01*
X26197Y39938D01*
X26157Y39843D01*
X26144Y39740D01*
Y39460D01*
X26157Y39357D01*
X26163Y39344D01*
X25219Y38401D01*
X25205Y38378D01*
X25155Y38394D01*
Y38814D01*
X25424Y39083D01*
X25437Y39077D01*
X25540Y39064D01*
X25643Y39077D01*
X25738Y39117D01*
X25820Y39180D01*
X25883Y39262D01*
X25923Y39357D01*
X25936Y39460D01*
Y39740D01*
X25923Y39843D01*
X25883Y39938D01*
X25820Y40020D01*
X25738Y40083D01*
X25643Y40123D01*
X25540Y40136D01*
X25437Y40123D01*
X25342Y40083D01*
X25260Y40020D01*
X25197Y39938D01*
X25157Y39843D01*
X25144Y39740D01*
Y39460D01*
X25157Y39357D01*
X25163Y39344D01*
X24839Y39021D01*
X24799Y38961D01*
X24785Y38890D01*
Y36549D01*
X24774Y36539D01*
X24739Y36520D01*
X24725Y36530D01*
Y39111D01*
X24738Y39117D01*
X24820Y39180D01*
X24883Y39262D01*
X24923Y39357D01*
X24936Y39460D01*
Y39740D01*
X24923Y39843D01*
X24883Y39938D01*
X24820Y40020D01*
X24738Y40083D01*
X24643Y40123D01*
X24540Y40136D01*
X24437Y40123D01*
X24342Y40083D01*
X24260Y40020D01*
X24197Y39938D01*
X24157Y39843D01*
X24144Y39740D01*
Y39460D01*
X24157Y39357D01*
X24197Y39262D01*
X24260Y39180D01*
X24342Y39117D01*
X24355Y39111D01*
Y36430D01*
X24369Y36359D01*
X24409Y36299D01*
X25286Y35423D01*
X25346Y35383D01*
X25417Y35368D01*
X25767D01*
X25817Y35358D01*
X26400D01*
X26475Y35373D01*
X26538Y35415D01*
X26580Y35479D01*
X26595Y35553D01*
X26580Y35628D01*
X26538Y35691D01*
X26475Y35733D01*
X26400Y35748D01*
X25817D01*
X25767Y35738D01*
X25493D01*
X25402Y35829D01*
X25426Y35875D01*
X25462Y35868D01*
X25767D01*
X25817Y35858D01*
X26400D01*
X26475Y35873D01*
X26538Y35915D01*
X26580Y35979D01*
X26595Y36053D01*
X26580Y36128D01*
X26538Y36191D01*
X26475Y36233D01*
X26400Y36248D01*
X25817D01*
X25767Y36238D01*
X25538D01*
X25155Y36621D01*
Y36726D01*
X25205Y36742D01*
X25219Y36719D01*
X25509Y36429D01*
X25569Y36389D01*
X25640Y36375D01*
X25739D01*
X25742Y36373D01*
X25817Y36358D01*
X26400D01*
X26475Y36373D01*
X26538Y36415D01*
X26580Y36479D01*
X26595Y36553D01*
X26580Y36628D01*
X26538Y36691D01*
X26475Y36733D01*
X26400Y36748D01*
X25817D01*
X25799Y36744D01*
X25796Y36745D01*
X25716D01*
X25535Y36926D01*
Y38194D01*
X26424Y39083D01*
X26437Y39077D01*
X26540Y39064D01*
X26643Y39077D01*
X26738Y39117D01*
X26820Y39180D01*
X26883Y39262D01*
X26923Y39357D01*
X26936Y39460D01*
Y39740D01*
X26923Y39843D01*
X26883Y39938D01*
X26820Y40020D01*
X26738Y40083D01*
X26643Y40123D01*
X26540Y40136D01*
D02*
G37*
G36*
X22800Y41155D02*
X16620D01*
X16549Y41141D01*
X16489Y41101D01*
X15974Y40586D01*
X15934Y40526D01*
X15920Y40455D01*
Y40358D01*
X15913Y40356D01*
X15809Y40296D01*
X15724Y40211D01*
X15664Y40107D01*
X15632Y39990D01*
Y39870D01*
X15664Y39753D01*
X15724Y39649D01*
X15809Y39564D01*
X15913Y39504D01*
X16030Y39472D01*
X16150D01*
X16267Y39504D01*
X16371Y39564D01*
X16456Y39649D01*
X16516Y39753D01*
X16548Y39870D01*
Y39990D01*
X16516Y40107D01*
X16456Y40211D01*
X16371Y40296D01*
X16304Y40335D01*
X16300Y40388D01*
X16696Y40785D01*
X22724D01*
X23355Y40154D01*
Y40089D01*
X23342Y40083D01*
X23260Y40020D01*
X23197Y39938D01*
X23157Y39843D01*
X23144Y39740D01*
Y39460D01*
X23157Y39357D01*
X23197Y39262D01*
X23260Y39180D01*
X23342Y39117D01*
X23437Y39077D01*
X23540Y39064D01*
X23643Y39077D01*
X23738Y39117D01*
X23820Y39180D01*
X23883Y39262D01*
X23923Y39357D01*
X23936Y39460D01*
Y39740D01*
X23923Y39843D01*
X23883Y39938D01*
X23820Y40020D01*
X23738Y40083D01*
X23725Y40089D01*
Y40230D01*
X23711Y40301D01*
X23671Y40361D01*
X22931Y41101D01*
X22871Y41141D01*
X22800Y41155D01*
D02*
G37*
G36*
X36540Y40136D02*
X36437Y40123D01*
X36342Y40083D01*
X36260Y40020D01*
X36197Y39938D01*
X36157Y39843D01*
X36144Y39740D01*
Y39460D01*
X36157Y39357D01*
X36197Y39262D01*
X36260Y39180D01*
X36335Y39122D01*
Y38718D01*
X36189D01*
Y38159D01*
X36905D01*
Y38718D01*
X36745D01*
Y39122D01*
X36820Y39180D01*
X36883Y39262D01*
X36923Y39357D01*
X36936Y39460D01*
Y39740D01*
X36923Y39843D01*
X36883Y39938D01*
X36820Y40020D01*
X36738Y40083D01*
X36643Y40123D01*
X36540Y40136D01*
D02*
G37*
G36*
X31540D02*
X31437Y40123D01*
X31342Y40083D01*
X31260Y40020D01*
X31197Y39938D01*
X31157Y39843D01*
X31144Y39740D01*
Y39460D01*
X31157Y39357D01*
X31197Y39262D01*
X31260Y39180D01*
X31342Y39117D01*
X31345Y39116D01*
Y38286D01*
X30797Y37738D01*
X30171D01*
X30121Y37748D01*
X29537D01*
X29463Y37733D01*
X29400Y37691D01*
X29358Y37628D01*
X29343Y37553D01*
X29358Y37479D01*
X29400Y37415D01*
X29463Y37373D01*
X29537Y37358D01*
X30121D01*
X30171Y37369D01*
X30873D01*
X30944Y37383D01*
X31004Y37423D01*
X31661Y38079D01*
X31701Y38139D01*
X31715Y38210D01*
Y39107D01*
X31738Y39117D01*
X31820Y39180D01*
X31883Y39262D01*
X31923Y39357D01*
X31936Y39460D01*
Y39740D01*
X31923Y39843D01*
X31883Y39938D01*
X31820Y40020D01*
X31738Y40083D01*
X31643Y40123D01*
X31540Y40136D01*
D02*
G37*
G36*
X54876Y39370D02*
X54704D01*
X54536Y39337D01*
X54378Y39271D01*
X54235Y39176D01*
X54114Y39055D01*
X54019Y38912D01*
X53953Y38754D01*
X53920Y38586D01*
Y38414D01*
X53953Y38246D01*
X54019Y38088D01*
X54114Y37945D01*
X54235Y37824D01*
X54378Y37729D01*
X54536Y37663D01*
X54704Y37630D01*
X54876D01*
X55044Y37663D01*
X55202Y37729D01*
X55345Y37824D01*
X55466Y37945D01*
X55561Y38088D01*
X55627Y38246D01*
X55660Y38414D01*
Y38586D01*
X55627Y38754D01*
X55561Y38912D01*
X55466Y39055D01*
X55345Y39176D01*
X55202Y39271D01*
X55044Y39337D01*
X54876Y39370D01*
D02*
G37*
G36*
X32540Y40136D02*
X32437Y40123D01*
X32342Y40083D01*
X32260Y40020D01*
X32197Y39938D01*
X32157Y39843D01*
X32144Y39740D01*
Y39460D01*
X32157Y39357D01*
X32197Y39262D01*
X32260Y39180D01*
X32342Y39117D01*
X32355Y39111D01*
Y37816D01*
X31777Y37238D01*
X30171D01*
X30121Y37248D01*
X29537D01*
X29463Y37233D01*
X29400Y37191D01*
X29358Y37128D01*
X29343Y37053D01*
X29358Y36979D01*
X29400Y36915D01*
X29463Y36873D01*
X29537Y36858D01*
X30121D01*
X30171Y36869D01*
X31853D01*
X31924Y36883D01*
X31984Y36923D01*
X32671Y37609D01*
X32711Y37669D01*
X32725Y37740D01*
Y39111D01*
X32738Y39117D01*
X32820Y39180D01*
X32883Y39262D01*
X32923Y39357D01*
X32936Y39460D01*
Y39740D01*
X32923Y39843D01*
X32883Y39938D01*
X32820Y40020D01*
X32738Y40083D01*
X32643Y40123D01*
X32540Y40136D01*
D02*
G37*
G36*
X26400Y37248D02*
X25817D01*
X25742Y37233D01*
X25679Y37191D01*
X25637Y37128D01*
X25622Y37053D01*
X25637Y36979D01*
X25679Y36915D01*
X25742Y36873D01*
X25817Y36858D01*
X26400D01*
X26475Y36873D01*
X26538Y36915D01*
X26580Y36979D01*
X26595Y37053D01*
X26580Y37128D01*
X26538Y37191D01*
X26475Y37233D01*
X26400Y37248D01*
D02*
G37*
G36*
X33540Y40136D02*
X33437Y40123D01*
X33342Y40083D01*
X33260Y40020D01*
X33197Y39938D01*
X33157Y39843D01*
X33144Y39740D01*
Y39460D01*
X33157Y39357D01*
X33197Y39262D01*
X33260Y39180D01*
X33342Y39117D01*
X33355Y39111D01*
Y37736D01*
X32357Y36738D01*
X30171D01*
X30121Y36748D01*
X29537D01*
X29463Y36733D01*
X29400Y36691D01*
X29358Y36628D01*
X29343Y36553D01*
X29358Y36479D01*
X29400Y36415D01*
X29463Y36373D01*
X29537Y36358D01*
X30121D01*
X30171Y36369D01*
X32433D01*
X32504Y36383D01*
X32564Y36423D01*
X33671Y37529D01*
X33711Y37589D01*
X33725Y37660D01*
Y39111D01*
X33738Y39117D01*
X33820Y39180D01*
X33883Y39262D01*
X33923Y39357D01*
X33936Y39460D01*
Y39740D01*
X33923Y39843D01*
X33883Y39938D01*
X33820Y40020D01*
X33738Y40083D01*
X33643Y40123D01*
X33540Y40136D01*
D02*
G37*
G36*
X36905Y37818D02*
X36189D01*
Y37259D01*
X36236D01*
X36283Y37253D01*
Y36714D01*
X36803D01*
Y37253D01*
X36850Y37259D01*
X36905D01*
Y37818D01*
D02*
G37*
G36*
X34540Y40136D02*
X34437Y40123D01*
X34342Y40083D01*
X34260Y40020D01*
X34197Y39938D01*
X34157Y39843D01*
X34144Y39740D01*
Y39460D01*
X34157Y39357D01*
X34197Y39262D01*
X34260Y39180D01*
X34342Y39117D01*
X34355Y39111D01*
Y37336D01*
X33257Y36238D01*
X30171D01*
X30121Y36248D01*
X29537D01*
X29463Y36233D01*
X29400Y36191D01*
X29358Y36128D01*
X29343Y36053D01*
X29358Y35979D01*
X29400Y35915D01*
X29463Y35873D01*
X29537Y35858D01*
X30121D01*
X30171Y35868D01*
X33333D01*
X33404Y35883D01*
X33464Y35923D01*
X34671Y37129D01*
X34711Y37189D01*
X34725Y37260D01*
Y39111D01*
X34738Y39117D01*
X34820Y39180D01*
X34883Y39262D01*
X34923Y39357D01*
X34936Y39460D01*
Y39740D01*
X34923Y39843D01*
X34883Y39938D01*
X34820Y40020D01*
X34738Y40083D01*
X34643Y40123D01*
X34540Y40136D01*
D02*
G37*
G36*
X37177Y36269D02*
X36657D01*
Y35729D01*
X36607Y35728D01*
X36559D01*
Y35654D01*
X36491D01*
Y35728D01*
X35776D01*
Y35169D01*
X36491D01*
Y35244D01*
X36559D01*
Y35169D01*
X37275D01*
Y35728D01*
X37226D01*
X37177Y35729D01*
Y36269D01*
D02*
G37*
G36*
X30121Y35748D02*
X29537D01*
X29463Y35733D01*
X29400Y35691D01*
X29358Y35628D01*
X29343Y35553D01*
X29358Y35479D01*
X29400Y35415D01*
X29463Y35373D01*
X29537Y35358D01*
X30121D01*
X30195Y35373D01*
X30259Y35415D01*
X30301Y35479D01*
X30316Y35553D01*
X30301Y35628D01*
X30259Y35691D01*
X30195Y35733D01*
X30121Y35748D01*
D02*
G37*
G36*
X35540Y40136D02*
X35437Y40123D01*
X35342Y40083D01*
X35260Y40020D01*
X35197Y39938D01*
X35157Y39843D01*
X35144Y39740D01*
Y39460D01*
X35157Y39357D01*
X35197Y39262D01*
X35260Y39180D01*
X35342Y39117D01*
X35355Y39111D01*
Y36476D01*
X34037Y35158D01*
X32269D01*
Y35331D01*
X31709D01*
Y34615D01*
X31784D01*
Y34557D01*
X31709D01*
Y33842D01*
X31784D01*
Y33393D01*
X31766Y33375D01*
X30264D01*
X30034Y33557D01*
Y33858D01*
X30121D01*
X30195Y33873D01*
X30259Y33915D01*
X30301Y33979D01*
X30316Y34053D01*
X30301Y34128D01*
X30259Y34191D01*
X30195Y34233D01*
X30121Y34248D01*
X29880D01*
X29829Y34258D01*
X29779Y34248D01*
X29537D01*
X29463Y34233D01*
X29400Y34191D01*
X29358Y34128D01*
X29343Y34053D01*
X29358Y33979D01*
X29400Y33915D01*
X29463Y33873D01*
X29537Y33858D01*
X29624D01*
Y33553D01*
X29405Y33375D01*
X28030D01*
X27952Y33359D01*
X27885Y33315D01*
X27841Y33248D01*
X27825Y33170D01*
X27841Y33092D01*
X27885Y33025D01*
X27952Y32981D01*
X28030Y32965D01*
X29741D01*
X29785Y32974D01*
X29829Y32965D01*
X31851D01*
X31851Y32965D01*
X31929Y32981D01*
X31995Y33025D01*
X32134Y33164D01*
X32134Y33164D01*
X32178Y33230D01*
X32194Y33308D01*
X32194Y33308D01*
Y33842D01*
X32269D01*
Y34557D01*
X32194D01*
Y34615D01*
X32269D01*
Y34788D01*
X34113D01*
X34184Y34803D01*
X34244Y34843D01*
X35671Y36269D01*
X35711Y36329D01*
X35725Y36400D01*
Y39111D01*
X35738Y39117D01*
X35820Y39180D01*
X35883Y39262D01*
X35923Y39357D01*
X35936Y39460D01*
Y39740D01*
X35923Y39843D01*
X35883Y39938D01*
X35820Y40020D01*
X35738Y40083D01*
X35643Y40123D01*
X35540Y40136D01*
D02*
G37*
G36*
X24498Y35711D02*
X23939D01*
Y34995D01*
X24498D01*
Y35148D01*
X24882D01*
X25122Y34908D01*
X25189Y34864D01*
X25267Y34848D01*
X25267Y34848D01*
X26109D01*
X26159Y34858D01*
X26400D01*
X26475Y34873D01*
X26538Y34915D01*
X26580Y34979D01*
X26595Y35053D01*
X26580Y35128D01*
X26538Y35191D01*
X26475Y35233D01*
X26400Y35248D01*
X26159D01*
X26109Y35258D01*
X25352D01*
X25112Y35498D01*
X25045Y35542D01*
X24967Y35558D01*
X24967Y35558D01*
X24498D01*
Y35711D01*
D02*
G37*
G36*
X31369Y35331D02*
X30809D01*
Y35258D01*
X29829D01*
X29779Y35248D01*
X29537D01*
X29463Y35233D01*
X29400Y35191D01*
X29398Y35188D01*
X28493D01*
X28441Y35178D01*
X28397Y35149D01*
X28397Y35149D01*
X26794Y33546D01*
X26765Y33502D01*
X26755Y33450D01*
X26755Y33450D01*
Y24970D01*
X26755Y24970D01*
X26765Y24918D01*
X26794Y24874D01*
X29584Y22084D01*
X29584Y22084D01*
X29628Y22055D01*
X29680Y22045D01*
X29680Y22045D01*
X32074D01*
X32074Y22045D01*
X32125Y22055D01*
X32169Y22084D01*
X33049Y22964D01*
X33090Y22956D01*
X33102Y22946D01*
X33146Y22903D01*
X33205Y22878D01*
X33269D01*
X33328Y22903D01*
X33374Y22948D01*
X33398Y23008D01*
Y23010D01*
X33736Y23348D01*
X33736Y23348D01*
X33765Y23391D01*
X33773Y23430D01*
X33950Y23607D01*
X34000Y23597D01*
X34003Y23589D01*
X34040Y23552D01*
X34054Y23495D01*
X34000Y23441D01*
X33998D01*
X33939Y23417D01*
X33893Y23371D01*
X33869Y23312D01*
Y23248D01*
X33893Y23189D01*
X33939Y23143D01*
X33998Y23119D01*
X34062D01*
X34121Y23143D01*
X34167Y23189D01*
X34191Y23248D01*
Y23250D01*
X34296Y23355D01*
X34323Y23373D01*
X34572Y23622D01*
X34572Y23622D01*
X34601Y23666D01*
X34601Y23666D01*
X34697Y23761D01*
X34757Y23751D01*
X34774Y23735D01*
X34784Y23674D01*
X33934Y22825D01*
X33905Y22781D01*
X33895Y22729D01*
X33895Y22729D01*
Y22083D01*
X33893Y22081D01*
X33869Y22022D01*
Y21958D01*
X33893Y21899D01*
X33939Y21853D01*
X33998Y21829D01*
X34062D01*
X34121Y21853D01*
X34167Y21899D01*
X34191Y21958D01*
Y22022D01*
X34167Y22081D01*
X34165Y22083D01*
Y22673D01*
X35063Y23571D01*
X35083Y23584D01*
X35479Y23979D01*
X35503Y24016D01*
X35511Y24059D01*
X35505Y24092D01*
X35536Y24117D01*
X35546Y24121D01*
X35668Y23999D01*
X35681Y23979D01*
X36077Y23584D01*
X36097Y23571D01*
X36363Y23304D01*
Y21675D01*
X36140D01*
Y21638D01*
X27691D01*
X26032Y23297D01*
Y28220D01*
X26022Y28293D01*
X25994Y28361D01*
X25949Y28419D01*
X25891Y28464D01*
X25823Y28492D01*
X25750Y28502D01*
X25677Y28492D01*
X25609Y28464D01*
X25551Y28419D01*
X25506Y28361D01*
X25478Y28293D01*
X25468Y28220D01*
Y27324D01*
X21869D01*
Y24796D01*
X25468D01*
Y23180D01*
X25478Y23107D01*
X25506Y23039D01*
X25551Y22981D01*
X27375Y21156D01*
X27433Y21112D01*
X27501Y21083D01*
X27574Y21074D01*
X36140D01*
Y21037D01*
X36857D01*
Y21074D01*
X39267D01*
X41738Y18603D01*
Y15498D01*
X41467D01*
Y15322D01*
X40610D01*
X40537Y15312D01*
X40469Y15284D01*
X40411Y15239D01*
X39801Y14629D01*
X39756Y14571D01*
X39728Y14503D01*
X39718Y14430D01*
Y10059D01*
X39728Y9986D01*
X39756Y9918D01*
X39801Y9859D01*
X40755Y8905D01*
X40813Y8860D01*
X40881Y8832D01*
X40954Y8822D01*
X48254D01*
X49192Y7884D01*
Y7617D01*
X49908D01*
Y7682D01*
X50209D01*
X50221Y7623D01*
X50265Y7557D01*
X50332Y7512D01*
X50410Y7497D01*
X50488Y7512D01*
X50555Y7557D01*
X50599Y7623D01*
X50615Y7702D01*
Y7740D01*
X50615Y7740D01*
X50665Y7714D01*
Y6031D01*
X50377Y5743D01*
X50324Y5664D01*
X50305Y5570D01*
X50305Y5570D01*
Y5195D01*
X50074D01*
Y4045D01*
X51026D01*
Y5195D01*
X50795D01*
Y5469D01*
X51083Y5757D01*
X51083Y5757D01*
X51136Y5836D01*
X51155Y5930D01*
X51155Y5930D01*
Y7938D01*
X51136Y8031D01*
X51115Y8064D01*
Y8174D01*
X51099Y8252D01*
X51055Y8319D01*
X50988Y8363D01*
X50910Y8379D01*
X50832Y8363D01*
X50765Y8319D01*
X50721Y8252D01*
X50705Y8174D01*
Y8096D01*
X50685Y8075D01*
X50660Y8075D01*
X50624Y8084D01*
X50615Y8096D01*
Y8174D01*
X50599Y8252D01*
X50555Y8319D01*
X50488Y8363D01*
X50410Y8379D01*
X50332Y8363D01*
X50265Y8319D01*
X50221Y8252D01*
X50212Y8206D01*
X49908D01*
Y8283D01*
X49591D01*
X48570Y9304D01*
X48512Y9348D01*
X48444Y9377D01*
X48371Y9386D01*
X41071D01*
X40282Y10175D01*
Y14313D01*
X40727Y14758D01*
X41467D01*
Y14582D01*
X42533D01*
Y15498D01*
X42302D01*
Y18720D01*
X42292Y18793D01*
X42264Y18861D01*
X42219Y18919D01*
X39584Y21555D01*
X39525Y21600D01*
X39457Y21628D01*
X39384Y21638D01*
X36857D01*
Y21675D01*
X36634D01*
Y23360D01*
X36624Y23412D01*
X36594Y23456D01*
X36594Y23456D01*
X36288Y23762D01*
X36275Y23782D01*
X35879Y24177D01*
X35859Y24191D01*
X35770Y24280D01*
X35874Y24385D01*
X35885Y24384D01*
X35927Y24337D01*
X35935Y24294D01*
X35960Y24258D01*
X36355Y23863D01*
X36358Y23861D01*
X37775Y22444D01*
Y22441D01*
X37800Y22382D01*
X37845Y22337D01*
X37904Y22312D01*
X37969D01*
X38028Y22337D01*
X38073Y22382D01*
X38098Y22441D01*
Y22506D01*
X38073Y22565D01*
X38028Y22610D01*
X37969Y22635D01*
X37966D01*
X36648Y23953D01*
X36653Y24002D01*
X36692Y24041D01*
X36717Y24077D01*
X36723Y24110D01*
X36756Y24117D01*
X36793Y24141D01*
X36831Y24180D01*
X36875Y24184D01*
X38455Y22604D01*
X38455Y22604D01*
X38455Y22604D01*
X39245Y21814D01*
X39245Y21814D01*
X39289Y21785D01*
X39341Y21775D01*
X39341Y21775D01*
X40534D01*
X43605Y18704D01*
Y14586D01*
X43194Y14175D01*
X42514D01*
X42475Y14271D01*
X42401Y14366D01*
X42306Y14440D01*
X42194Y14486D01*
X42075Y14502D01*
X41925D01*
X41806Y14486D01*
X41694Y14440D01*
X41599Y14366D01*
X41525Y14271D01*
X41479Y14159D01*
X41463Y14040D01*
X41479Y13921D01*
X41525Y13809D01*
X41599Y13714D01*
X41694Y13640D01*
X41806Y13594D01*
X41925Y13578D01*
X42075D01*
X42194Y13594D01*
X42306Y13640D01*
X42401Y13714D01*
X42475Y13809D01*
X42514Y13905D01*
X43250D01*
X43250Y13905D01*
X43302Y13915D01*
X43346Y13944D01*
X43836Y14434D01*
X43836Y14434D01*
X43865Y14478D01*
X43875Y14530D01*
X43875Y14530D01*
Y18760D01*
X43875Y18760D01*
X43865Y18812D01*
X43836Y18856D01*
X43836Y18856D01*
X40686Y22006D01*
X40642Y22035D01*
X40590Y22045D01*
X40590Y22045D01*
X39397D01*
X39314Y22129D01*
X39333Y22175D01*
X40764D01*
X44115Y18824D01*
Y13826D01*
X43464Y13175D01*
X42514D01*
X42475Y13271D01*
X42401Y13366D01*
X42306Y13440D01*
X42194Y13486D01*
X42075Y13502D01*
X41925D01*
X41806Y13486D01*
X41694Y13440D01*
X41599Y13366D01*
X41525Y13271D01*
X41479Y13159D01*
X41463Y13040D01*
X41479Y12921D01*
X41525Y12809D01*
X41599Y12714D01*
X41694Y12640D01*
X41806Y12594D01*
X41925Y12578D01*
X42075D01*
X42194Y12594D01*
X42306Y12640D01*
X42401Y12714D01*
X42475Y12809D01*
X42514Y12905D01*
X43520D01*
X43520Y12905D01*
X43572Y12915D01*
X43616Y12944D01*
X44346Y13674D01*
X44375Y13718D01*
X44385Y13770D01*
X44385Y13770D01*
Y18880D01*
X44385Y18880D01*
X44375Y18932D01*
X44346Y18976D01*
X44346Y18976D01*
X40963Y22359D01*
X40982Y22405D01*
X44474D01*
X47565Y19314D01*
Y15106D01*
X46634Y14175D01*
X45924D01*
X45885Y14271D01*
X45811Y14366D01*
X45716Y14440D01*
X45604Y14486D01*
X45485Y14502D01*
X45335D01*
X45216Y14486D01*
X45104Y14440D01*
X45009Y14366D01*
X44935Y14271D01*
X44889Y14159D01*
X44873Y14040D01*
X44889Y13921D01*
X44935Y13809D01*
X45009Y13714D01*
X45104Y13640D01*
X45216Y13594D01*
X45335Y13578D01*
X45485D01*
X45604Y13594D01*
X45716Y13640D01*
X45811Y13714D01*
X45885Y13809D01*
X45924Y13905D01*
X46690D01*
X46690Y13905D01*
X46742Y13915D01*
X46786Y13944D01*
X47796Y14954D01*
X47796Y14954D01*
X47825Y14998D01*
X47835Y15050D01*
X47835Y15050D01*
Y19370D01*
X47835Y19370D01*
X47825Y19422D01*
X47796Y19466D01*
X44626Y22636D01*
X44582Y22665D01*
X44530Y22675D01*
X44530Y22675D01*
X39696D01*
X39623Y22749D01*
X39654Y22788D01*
X39688Y22765D01*
X39740Y22755D01*
X45424D01*
X48625Y19554D01*
Y14936D01*
X46864Y13175D01*
X45924D01*
X45885Y13271D01*
X45811Y13366D01*
X45716Y13440D01*
X45604Y13486D01*
X45485Y13502D01*
X45335D01*
X45216Y13486D01*
X45104Y13440D01*
X45009Y13366D01*
X44935Y13271D01*
X44889Y13159D01*
X44873Y13040D01*
X44889Y12921D01*
X44935Y12809D01*
X45009Y12714D01*
X45104Y12640D01*
X45216Y12594D01*
X45335Y12578D01*
X45485D01*
X45604Y12594D01*
X45716Y12640D01*
X45811Y12714D01*
X45885Y12809D01*
X45924Y12905D01*
X46920D01*
X46920Y12905D01*
X46972Y12915D01*
X47016Y12944D01*
X48856Y14784D01*
X48885Y14828D01*
X48895Y14880D01*
X48895Y14880D01*
Y19610D01*
X48885Y19662D01*
X48856Y19706D01*
X48856Y19706D01*
X45576Y22986D01*
X45532Y23015D01*
X45480Y23025D01*
X45480Y23025D01*
X39796D01*
X39441Y23380D01*
Y23382D01*
X39417Y23441D01*
X39371Y23487D01*
X39312Y23511D01*
X39248D01*
X39189Y23487D01*
X39143Y23441D01*
X39119Y23382D01*
Y23323D01*
X39104Y23312D01*
X39072Y23299D01*
X39001Y23370D01*
Y23372D01*
X38977Y23431D01*
X38931Y23477D01*
X38872Y23501D01*
X38808D01*
X38749Y23477D01*
X38703Y23431D01*
X38679Y23372D01*
Y23308D01*
X38703Y23249D01*
X38749Y23203D01*
X38808Y23179D01*
X38810D01*
X39497Y22491D01*
X39478Y22445D01*
X39275D01*
X37206Y24515D01*
X37210Y24559D01*
X37249Y24597D01*
X37273Y24634D01*
X37280Y24667D01*
X37313Y24673D01*
X37349Y24698D01*
X37388Y24737D01*
X37432Y24741D01*
X37989Y24184D01*
X38033Y24155D01*
X38084Y24145D01*
X38084Y24145D01*
X38504D01*
X38599Y24050D01*
Y24048D01*
X38623Y23989D01*
X38669Y23943D01*
X38728Y23919D01*
X38792D01*
X38851Y23943D01*
X38897Y23989D01*
X38921Y24048D01*
Y24112D01*
X38897Y24171D01*
X38851Y24217D01*
X38792Y24241D01*
X38790D01*
X38709Y24322D01*
X38729Y24368D01*
X38780D01*
X39624Y23524D01*
X39624Y23524D01*
X39668Y23495D01*
X39719Y23485D01*
X46734D01*
X50275Y19944D01*
Y10550D01*
X50265Y10543D01*
X50221Y10477D01*
X50205Y10398D01*
Y9926D01*
X50221Y9848D01*
X50265Y9781D01*
X50332Y9737D01*
X50410Y9721D01*
X50488Y9737D01*
X50555Y9781D01*
X50599Y9848D01*
X50615Y9926D01*
Y10398D01*
X50599Y10477D01*
X50555Y10543D01*
X50545Y10550D01*
Y20000D01*
X50545Y20000D01*
X50535Y20052D01*
X50506Y20096D01*
X46886Y23716D01*
X46857Y23735D01*
X46872Y23785D01*
X47284D01*
X50775Y20294D01*
Y10550D01*
X50765Y10543D01*
X50721Y10477D01*
X50705Y10398D01*
Y9926D01*
X50721Y9848D01*
X50765Y9781D01*
X50832Y9737D01*
X50910Y9721D01*
X50988Y9737D01*
X51055Y9781D01*
X51099Y9848D01*
X51115Y9926D01*
Y10398D01*
X51099Y10477D01*
X51055Y10543D01*
X51045Y10550D01*
Y20350D01*
X51035Y20402D01*
X51006Y20446D01*
X51006Y20446D01*
X47436Y24016D01*
X47407Y24035D01*
X47422Y24085D01*
X47784D01*
X51275Y20594D01*
Y10550D01*
X51265Y10543D01*
X51221Y10477D01*
X51205Y10398D01*
Y9926D01*
X51221Y9848D01*
X51265Y9781D01*
X51332Y9737D01*
X51410Y9721D01*
X51488Y9737D01*
X51555Y9781D01*
X51599Y9848D01*
X51615Y9926D01*
Y10398D01*
X51599Y10477D01*
X51555Y10543D01*
X51545Y10550D01*
Y20650D01*
X51535Y20702D01*
X51506Y20746D01*
X51506Y20746D01*
X47936Y24316D01*
X47892Y24345D01*
X47840Y24355D01*
X47840Y24355D01*
X39906D01*
X39521Y24740D01*
Y24742D01*
X39497Y24801D01*
X39451Y24847D01*
X39392Y24871D01*
X39328D01*
X39269Y24847D01*
X39223Y24801D01*
X39205Y24757D01*
X39152Y24739D01*
X39076Y24816D01*
X39032Y24845D01*
X38980Y24855D01*
X38980Y24855D01*
X38257D01*
X37819Y25293D01*
X37806Y25313D01*
X37411Y25709D01*
X37374Y25733D01*
X37331Y25741D01*
X37297Y25735D01*
X37276Y25757D01*
X37267Y25776D01*
X37387Y25896D01*
X37411Y25911D01*
X37806Y26307D01*
X37819Y26327D01*
X38516Y27023D01*
X39685D01*
Y26800D01*
X40323D01*
Y27517D01*
X39685D01*
Y27294D01*
X38460D01*
X38408Y27284D01*
X38364Y27254D01*
X38364Y27254D01*
X37628Y26518D01*
X37608Y26505D01*
X37213Y26109D01*
X37202Y26093D01*
X37101Y25992D01*
X35587Y27421D01*
X35574Y27429D01*
X35562Y27437D01*
X35560Y27437D01*
X35559Y27438D01*
X35544Y27441D01*
X35529Y27444D01*
X35528Y27443D01*
X35527Y27444D01*
X35512Y27440D01*
X35507Y27439D01*
X35483Y27468D01*
X35482Y27469D01*
X35478Y27481D01*
X35479Y27482D01*
X35503Y27518D01*
X35511Y27561D01*
X35503Y27604D01*
X35479Y27641D01*
X35083Y28036D01*
X35047Y28060D01*
X35004Y28069D01*
X34961Y28060D01*
X34924Y28036D01*
X34897Y28008D01*
X34836Y27998D01*
X34625Y28209D01*
X34613Y28238D01*
X34568Y28283D01*
X34508Y28308D01*
X34444D01*
X34385Y28283D01*
X34339Y28238D01*
X34315Y28179D01*
Y28114D01*
X34339Y28055D01*
X34385Y28010D01*
X34444Y27985D01*
X34466D01*
X34645Y27807D01*
X34635Y27746D01*
X34618Y27730D01*
X34557Y27720D01*
X34155Y28122D01*
Y28444D01*
X34316Y28605D01*
X35900D01*
X35900Y28605D01*
X35952Y28615D01*
X35996Y28644D01*
X36316Y28964D01*
X36316Y28964D01*
X36345Y29008D01*
X36355Y29060D01*
Y29585D01*
X36600D01*
Y30223D01*
X35883D01*
Y29585D01*
X36085D01*
Y29116D01*
X35844Y28875D01*
X34260D01*
X34208Y28865D01*
X34164Y28836D01*
X34164Y28836D01*
X33924Y28596D01*
X33895Y28552D01*
X33885Y28500D01*
X33885Y28500D01*
Y28066D01*
X33885Y28066D01*
X33895Y28014D01*
X33924Y27970D01*
X34454Y27440D01*
X34468Y27420D01*
X34863Y27025D01*
X34883Y27012D01*
X34973Y26922D01*
X34868Y26817D01*
X34857Y26819D01*
X34815Y26865D01*
X34807Y26908D01*
X34783Y26945D01*
X34387Y27340D01*
X34369Y27352D01*
X34046Y27675D01*
Y27687D01*
X34021Y27746D01*
X33976Y27791D01*
X33917Y27816D01*
X33852D01*
X33793Y27791D01*
X33752Y27750D01*
X33736Y27741D01*
X33698Y27734D01*
X33625Y27806D01*
Y28794D01*
X33936Y29105D01*
X35210D01*
X35210Y29105D01*
X35262Y29115D01*
X35306Y29144D01*
X35476Y29314D01*
X35476Y29314D01*
X35505Y29358D01*
X35515Y29410D01*
Y29557D01*
X35738D01*
Y30223D01*
X35306D01*
X35286Y30254D01*
X34856Y30683D01*
Y31000D01*
X34845Y31055D01*
X34814Y31102D01*
X34767Y31133D01*
X34712Y31144D01*
X34357D01*
X34302Y31133D01*
X34255Y31102D01*
X34224Y31055D01*
X34213Y31000D01*
Y30567D01*
X34224Y30511D01*
X34255Y30464D01*
X34302Y30433D01*
X34357Y30422D01*
X34595D01*
X35022Y29995D01*
Y29557D01*
X35245D01*
Y29466D01*
X35154Y29375D01*
X33880D01*
X33828Y29365D01*
X33784Y29336D01*
X33784Y29336D01*
X33394Y28946D01*
X33365Y28902D01*
X33355Y28850D01*
X33355Y28850D01*
Y27874D01*
X33309Y27855D01*
X33185Y27978D01*
Y29557D01*
X33408D01*
Y29782D01*
X33544D01*
Y29700D01*
X33555Y29645D01*
X33586Y29598D01*
X33633Y29567D01*
X33688Y29556D01*
X34043D01*
X34098Y29567D01*
X34145Y29598D01*
X34176Y29645D01*
X34187Y29700D01*
Y30133D01*
X34176Y30189D01*
X34145Y30236D01*
X34098Y30267D01*
X34043Y30278D01*
X33688D01*
X33633Y30267D01*
X33586Y30236D01*
X33555Y30189D01*
X33544Y30133D01*
Y30052D01*
X33408D01*
Y30223D01*
X32692D01*
Y29557D01*
X32915D01*
Y28036D01*
X32869Y28017D01*
X32437Y28448D01*
Y29493D01*
X32582D01*
Y30367D01*
X32476D01*
Y30444D01*
X32639D01*
Y31110D01*
X31923D01*
Y30444D01*
X32107D01*
Y30367D01*
X32023D01*
Y29493D01*
X32167D01*
Y28505D01*
X32121Y28486D01*
X31453Y29154D01*
Y29493D01*
X31597D01*
Y30367D01*
X31549D01*
Y30444D01*
X31769D01*
Y31110D01*
X31053D01*
Y30444D01*
X31180D01*
Y30367D01*
X31038D01*
Y29493D01*
X31183D01*
Y29098D01*
X31183Y29098D01*
X31193Y29046D01*
X31222Y29002D01*
X33531Y26693D01*
X33521Y26633D01*
X33505Y26616D01*
X33444Y26606D01*
X33343Y26707D01*
X33299Y26736D01*
X33248Y26747D01*
X33248Y26747D01*
X31055D01*
Y26970D01*
X30981D01*
Y27544D01*
X30981Y27544D01*
X30962Y27638D01*
X30909Y27717D01*
X30233Y28393D01*
X30154Y28446D01*
X30060Y28465D01*
X30060Y28465D01*
X28930D01*
X28836Y28446D01*
X28757Y28393D01*
X28704Y28314D01*
X28685Y28220D01*
X28704Y28126D01*
X28757Y28047D01*
X28836Y27994D01*
X28930Y27975D01*
X29959D01*
X30491Y27443D01*
Y26970D01*
X30417D01*
Y26253D01*
X30491D01*
Y25310D01*
X30417D01*
Y24593D01*
X31055D01*
Y24816D01*
X33190D01*
X33190Y24816D01*
X33242Y24826D01*
X33286Y24856D01*
X33532Y25102D01*
X33552Y25115D01*
X33947Y25511D01*
X33961Y25531D01*
X34050Y25620D01*
X34155Y25516D01*
X34154Y25505D01*
X34107Y25463D01*
X34064Y25454D01*
X34028Y25430D01*
X33633Y25035D01*
X33608Y24998D01*
X33600Y24955D01*
X33608Y24912D01*
X33633Y24876D01*
X33660Y24848D01*
X33670Y24787D01*
X32168Y23285D01*
X30286D01*
X28275Y25296D01*
Y31644D01*
X28986Y32355D01*
X33996D01*
X33996Y32355D01*
X34048Y32365D01*
X34092Y32394D01*
X35967Y34269D01*
X36491D01*
Y34829D01*
X35776D01*
Y34461D01*
X33940Y32625D01*
X28930D01*
X28930Y32625D01*
X28878Y32615D01*
X28834Y32586D01*
X28834Y32586D01*
X28044Y31796D01*
X28015Y31752D01*
X28005Y31700D01*
X28005Y31700D01*
Y25240D01*
X28005Y25240D01*
X28015Y25188D01*
X28044Y25144D01*
X30134Y23054D01*
X30134Y23054D01*
X30178Y23025D01*
X30230Y23015D01*
X32224D01*
X32224Y23015D01*
X32276Y23025D01*
X32320Y23054D01*
X33950Y24684D01*
X33970Y24698D01*
X34365Y25093D01*
X34389Y25129D01*
X34398Y25172D01*
X34440Y25219D01*
X34450Y25220D01*
X34573Y25098D01*
X34571Y25087D01*
X34525Y25045D01*
X34482Y25037D01*
X34445Y25013D01*
X34050Y24617D01*
X34037Y24597D01*
X32195Y22755D01*
X29976D01*
X27615Y25116D01*
Y33214D01*
X28819Y34418D01*
X29398D01*
X29400Y34415D01*
X29463Y34373D01*
X29537Y34358D01*
X29779D01*
X29829Y34348D01*
X30222D01*
X30495Y34075D01*
X30495Y34075D01*
X30562Y34031D01*
X30640Y34015D01*
X30809D01*
Y33842D01*
X31369D01*
Y34557D01*
X30809D01*
Y34425D01*
X30725D01*
X30452Y34698D01*
X30385Y34742D01*
X30307Y34758D01*
X30307Y34758D01*
X29829D01*
X29779Y34748D01*
X29537D01*
X29463Y34733D01*
X29400Y34691D01*
X29398Y34688D01*
X28763D01*
X28763Y34688D01*
X28711Y34678D01*
X28667Y34649D01*
X28667Y34649D01*
X27384Y33366D01*
X27355Y33322D01*
X27345Y33270D01*
X27345Y33270D01*
Y25060D01*
X27345Y25060D01*
X27355Y25008D01*
X27384Y24964D01*
X29824Y22524D01*
X29868Y22495D01*
X29920Y22485D01*
X29920Y22485D01*
X32122D01*
X32141Y22439D01*
X32018Y22315D01*
X29736D01*
X27025Y25026D01*
Y33394D01*
X28549Y34918D01*
X29398D01*
X29400Y34915D01*
X29463Y34873D01*
X29537Y34858D01*
X29779D01*
X29829Y34848D01*
X30809D01*
Y34615D01*
X31369D01*
Y35331D01*
D02*
G37*
G36*
X24498Y34911D02*
X23939D01*
Y34195D01*
X24498D01*
Y34348D01*
X26109D01*
X26159Y34358D01*
X26400D01*
X26475Y34373D01*
X26538Y34415D01*
X26580Y34479D01*
X26595Y34553D01*
X26580Y34628D01*
X26538Y34691D01*
X26475Y34733D01*
X26400Y34748D01*
X26159D01*
X26109Y34758D01*
X24498D01*
Y34911D01*
D02*
G37*
G36*
X25313Y34258D02*
X25235Y34242D01*
X25168Y34198D01*
X24915Y33945D01*
X24498D01*
Y34111D01*
X23939D01*
Y33395D01*
X24498D01*
Y33535D01*
X25000D01*
X25000Y33535D01*
X25078Y33551D01*
X25145Y33595D01*
X25398Y33848D01*
X26109D01*
X26159Y33858D01*
X26400D01*
X26475Y33873D01*
X26538Y33915D01*
X26580Y33979D01*
X26595Y34053D01*
X26580Y34128D01*
X26538Y34191D01*
X26475Y34233D01*
X26400Y34248D01*
X26159D01*
X26109Y34258D01*
X25313D01*
X25313Y34258D01*
D02*
G37*
G36*
X12970Y40964D02*
X11990D01*
X11958Y40958D01*
X11930Y40940D01*
X10780Y39790D01*
X10780Y39789D01*
X10780Y39789D01*
X10771Y39776D01*
X10762Y39762D01*
X10762Y39762D01*
X10762Y39762D01*
X10759Y39746D01*
X10756Y39730D01*
X10756Y39730D01*
X10756Y39730D01*
X10766Y37770D01*
X10769Y37754D01*
X10772Y37738D01*
X10772Y37738D01*
X10772Y37737D01*
X10781Y37724D01*
X10790Y37710D01*
X11366Y37135D01*
Y34710D01*
X11372Y34678D01*
X11390Y34650D01*
X14646Y31395D01*
Y29950D01*
X14652Y29918D01*
X14670Y29890D01*
X14810Y29750D01*
X14838Y29732D01*
X14870Y29726D01*
X17160D01*
X17192Y29732D01*
X17220Y29750D01*
X17238Y29778D01*
X17244Y29810D01*
Y34305D01*
X18405Y35466D01*
X19220D01*
X19252Y35472D01*
X19280Y35490D01*
X20120Y36330D01*
X20138Y36358D01*
X20144Y36390D01*
Y37350D01*
X20138Y37382D01*
X20120Y37410D01*
X19870Y37660D01*
X19842Y37678D01*
X19810Y37684D01*
X19764D01*
X19760Y37734D01*
X19895Y37824D01*
X20016Y37945D01*
X20111Y38088D01*
X20177Y38246D01*
X20210Y38414D01*
Y38586D01*
X20177Y38754D01*
X20111Y38912D01*
X20016Y39055D01*
X19895Y39176D01*
X19752Y39271D01*
X19621Y39325D01*
X19631Y39375D01*
X20164D01*
X21115Y38424D01*
Y37605D01*
X21101Y37602D01*
X21057Y37573D01*
X21028Y37529D01*
X21017Y37478D01*
Y36789D01*
X21028Y36737D01*
X21057Y36694D01*
X21101Y36665D01*
X21152Y36654D01*
X21447D01*
X21499Y36665D01*
X21542Y36694D01*
X21571Y36737D01*
X21582Y36789D01*
Y36851D01*
X22670D01*
X23037Y36484D01*
Y35353D01*
Y34553D01*
Y33753D01*
X23039Y33735D01*
Y33395D01*
X23048D01*
Y32882D01*
X19220D01*
X19147Y32872D01*
X19079Y32844D01*
X19021Y32799D01*
X18311Y32089D01*
X18266Y32031D01*
X18238Y31963D01*
X18228Y31890D01*
Y29620D01*
X18238Y29547D01*
X18266Y29479D01*
X18311Y29421D01*
X18571Y29161D01*
X18629Y29116D01*
X18697Y29088D01*
X18770Y29078D01*
X19048D01*
Y28573D01*
X18356D01*
Y27907D01*
X19071D01*
Y27907D01*
X19110D01*
Y27907D01*
X19815D01*
X19825Y27907D01*
X19865D01*
X19875Y27907D01*
X20580D01*
Y27907D01*
X20619D01*
Y27907D01*
X21334D01*
Y27958D01*
X23620D01*
X23693Y27968D01*
X23761Y27996D01*
X23819Y28041D01*
X24080Y28301D01*
X24125Y28360D01*
X24153Y28428D01*
X24163Y28501D01*
Y28969D01*
X25932D01*
Y31497D01*
X21829D01*
Y28969D01*
X23599D01*
Y28617D01*
X23503Y28522D01*
X21334D01*
Y28573D01*
X20619D01*
Y28573D01*
X20580D01*
Y28573D01*
X20517D01*
Y29360D01*
X20515Y29378D01*
Y29915D01*
X19956D01*
Y29378D01*
X19954Y29360D01*
Y28573D01*
X19875D01*
X19865Y28573D01*
X19825D01*
X19815Y28573D01*
X19612D01*
Y29360D01*
X19610Y29378D01*
Y29915D01*
X19050D01*
Y29642D01*
X18887D01*
X18792Y29737D01*
Y31773D01*
X19337Y32318D01*
X23213D01*
X23351Y32181D01*
X23409Y32136D01*
X23477Y32108D01*
X23550Y32098D01*
X25090D01*
X25163Y32108D01*
X25231Y32136D01*
X25289Y32181D01*
X26079Y32971D01*
X26124Y33029D01*
X26152Y33097D01*
X26162Y33170D01*
X26152Y33243D01*
X26124Y33311D01*
X26079Y33369D01*
X26021Y33414D01*
X25953Y33442D01*
X25880Y33452D01*
X25807Y33442D01*
X25739Y33414D01*
X25681Y33369D01*
X24973Y32662D01*
X23667D01*
X23612Y32717D01*
Y33742D01*
X23602Y33815D01*
X23601Y33819D01*
Y34553D01*
Y35353D01*
Y36601D01*
X23591Y36674D01*
X23563Y36742D01*
X23518Y36800D01*
X22986Y37333D01*
X22928Y37378D01*
X22860Y37406D01*
X22822Y37411D01*
Y39182D01*
X22883Y39262D01*
X22923Y39357D01*
X22936Y39460D01*
Y39740D01*
X22923Y39843D01*
X22883Y39938D01*
X22820Y40020D01*
X22738Y40083D01*
X22643Y40123D01*
X22540Y40136D01*
X22437Y40123D01*
X22342Y40083D01*
X22260Y40020D01*
X22197Y39938D01*
X22157Y39843D01*
X22144Y39740D01*
Y39460D01*
X22157Y39357D01*
X22197Y39262D01*
X22258Y39182D01*
Y37415D01*
X21582D01*
Y37478D01*
X21571Y37529D01*
X21542Y37573D01*
X21499Y37602D01*
X21484Y37605D01*
Y38500D01*
X21470Y38571D01*
X21430Y38631D01*
X20371Y39691D01*
X20311Y39731D01*
X20240Y39745D01*
X17950D01*
X17879Y39731D01*
X17819Y39691D01*
X16989Y38861D01*
X16949Y38801D01*
X16935Y38730D01*
Y38362D01*
X16913Y38356D01*
X16809Y38296D01*
X16724Y38211D01*
X16664Y38107D01*
X16632Y37990D01*
Y37870D01*
X16664Y37753D01*
X16724Y37649D01*
X16809Y37564D01*
X16913Y37504D01*
X17030Y37472D01*
X17150D01*
X17267Y37504D01*
X17371Y37564D01*
X17456Y37649D01*
X17516Y37753D01*
X17548Y37870D01*
Y37990D01*
X17516Y38107D01*
X17456Y38211D01*
X17371Y38296D01*
X17305Y38335D01*
Y38654D01*
X18026Y39375D01*
X19049D01*
X19059Y39325D01*
X18928Y39271D01*
X18785Y39176D01*
X18664Y39055D01*
X18569Y38912D01*
X18503Y38754D01*
X18470Y38586D01*
Y38414D01*
X18503Y38246D01*
X18569Y38088D01*
X18664Y37945D01*
X18785Y37824D01*
X18928Y37729D01*
X18956Y37717D01*
X18962Y37661D01*
X18960Y37660D01*
X18807Y37506D01*
X17999Y37302D01*
X17994Y37299D01*
X17988Y37298D01*
X17979Y37292D01*
X17970Y37288D01*
X17966Y37283D01*
X17960Y37280D01*
X15225Y34544D01*
X13794Y35975D01*
Y40140D01*
X13788Y40172D01*
X13770Y40200D01*
X13030Y40940D01*
X13002Y40958D01*
X12970Y40964D01*
D02*
G37*
G36*
X20968Y32199D02*
X19503D01*
Y31088D01*
X20968D01*
Y32199D01*
D02*
G37*
G36*
X36841Y28718D02*
X36777D01*
X36718Y28693D01*
X36672Y28648D01*
X36648Y28589D01*
Y28586D01*
X36346Y28284D01*
X36316Y28240D01*
X36306Y28189D01*
X36306Y28189D01*
Y28036D01*
X36256Y28016D01*
X36236Y28036D01*
X36199Y28060D01*
X36156Y28069D01*
X36113Y28060D01*
X36077Y28036D01*
X35681Y27641D01*
X35657Y27604D01*
X35649Y27561D01*
X35657Y27518D01*
X35681Y27482D01*
X35720Y27443D01*
X35757Y27418D01*
X35790Y27412D01*
X35796Y27379D01*
X35821Y27342D01*
X35860Y27303D01*
X35896Y27279D01*
X35929Y27273D01*
X35935Y27240D01*
X35960Y27203D01*
X35999Y27164D01*
X36035Y27140D01*
X36068Y27133D01*
X36075Y27100D01*
X36099Y27064D01*
X36138Y27025D01*
X36174Y27001D01*
X36207Y26994D01*
X36214Y26961D01*
X36238Y26925D01*
X36277Y26886D01*
X36314Y26861D01*
X36347Y26855D01*
X36353Y26822D01*
X36377Y26786D01*
X36416Y26747D01*
X36453Y26722D01*
X36486Y26716D01*
X36492Y26683D01*
X36517Y26646D01*
X36556Y26607D01*
X36592Y26583D01*
X36625Y26577D01*
X36631Y26544D01*
X36656Y26507D01*
X36695Y26468D01*
X36731Y26444D01*
X36764Y26437D01*
X36771Y26405D01*
X36795Y26368D01*
X36834Y26329D01*
X36870Y26305D01*
X36903Y26298D01*
X36910Y26265D01*
X36934Y26229D01*
X36973Y26190D01*
X37010Y26165D01*
X37053Y26157D01*
X37096Y26165D01*
X37132Y26190D01*
X37527Y26585D01*
X37552Y26622D01*
X37560Y26665D01*
X37552Y26708D01*
X37527Y26744D01*
X37488Y26783D01*
X37452Y26807D01*
X37419Y26814D01*
X37413Y26847D01*
X37388Y26883D01*
X37349Y26922D01*
X37345Y26966D01*
X37744Y27365D01*
X37746D01*
X37805Y27389D01*
X37851Y27435D01*
X37875Y27494D01*
Y27558D01*
X37851Y27618D01*
X37805Y27663D01*
X37746Y27688D01*
X37682D01*
X37622Y27663D01*
X37577Y27618D01*
X37552Y27558D01*
Y27556D01*
X37494Y27498D01*
X37465Y27503D01*
X37420Y27549D01*
X37411Y27593D01*
X37492Y27675D01*
X37547Y27698D01*
X37592Y27743D01*
X37617Y27802D01*
Y27867D01*
X37592Y27926D01*
X37547Y27971D01*
X37488Y27996D01*
X37423D01*
X37364Y27971D01*
X37319Y27926D01*
X37294Y27867D01*
Y27859D01*
X37238Y27803D01*
X37187Y27823D01*
X37167Y27871D01*
X37121Y27917D01*
X37110Y27921D01*
X37101Y27970D01*
X37142Y28012D01*
X37144D01*
X37204Y28036D01*
X37249Y28082D01*
X37274Y28141D01*
Y28205D01*
X37249Y28265D01*
X37204Y28310D01*
X37144Y28335D01*
X37080D01*
X37021Y28310D01*
X36975Y28265D01*
X36957Y28221D01*
X36915Y28225D01*
X36906Y28229D01*
X36883Y28286D01*
X36837Y28331D01*
X36835Y28332D01*
X36832Y28348D01*
X36841Y28395D01*
X36900Y28420D01*
X36946Y28465D01*
X36970Y28524D01*
Y28589D01*
X36946Y28648D01*
X36900Y28693D01*
X36841Y28718D01*
D02*
G37*
G36*
X54876Y19820D02*
X54704D01*
X54536Y19787D01*
X54378Y19721D01*
X54235Y19626D01*
X54114Y19505D01*
X54019Y19362D01*
X53953Y19204D01*
X53920Y19036D01*
Y18864D01*
X53953Y18696D01*
X54019Y18538D01*
X54114Y18395D01*
X54235Y18274D01*
X54378Y18179D01*
X54536Y18113D01*
X54704Y18080D01*
X54876D01*
X55044Y18113D01*
X55202Y18179D01*
X55345Y18274D01*
X55466Y18395D01*
X55561Y18538D01*
X55627Y18696D01*
X55660Y18864D01*
Y19036D01*
X55627Y19204D01*
X55561Y19362D01*
X55466Y19505D01*
X55345Y19626D01*
X55202Y19721D01*
X55044Y19787D01*
X54876Y19820D01*
D02*
G37*
G36*
X37778Y16930D02*
X37671D01*
X37567Y16902D01*
X37474Y16849D01*
X37398Y16773D01*
X37345Y16680D01*
X37317Y16576D01*
Y16469D01*
X37345Y16365D01*
X37398Y16273D01*
X37474Y16197D01*
X37567Y16143D01*
X37671Y16115D01*
X37778D01*
X37882Y16143D01*
X37974Y16197D01*
X38050Y16273D01*
X38104Y16365D01*
X38132Y16469D01*
Y16576D01*
X38104Y16680D01*
X38050Y16773D01*
X37974Y16849D01*
X37882Y16902D01*
X37778Y16930D01*
D02*
G37*
G36*
X35809D02*
X35702D01*
X35598Y16902D01*
X35506Y16849D01*
X35430Y16773D01*
X35376Y16680D01*
X35348Y16576D01*
Y16469D01*
X35376Y16365D01*
X35430Y16273D01*
X35506Y16197D01*
X35598Y16143D01*
X35702Y16115D01*
X35809D01*
X35913Y16143D01*
X36006Y16197D01*
X36082Y16273D01*
X36135Y16365D01*
X36163Y16469D01*
Y16576D01*
X36135Y16680D01*
X36082Y16773D01*
X36006Y16849D01*
X35913Y16902D01*
X35809Y16930D01*
D02*
G37*
G36*
X45943Y15498D02*
X44877D01*
Y14582D01*
X45943D01*
Y15498D01*
D02*
G37*
G36*
X54736Y16240D02*
X54564D01*
X54396Y16207D01*
X54238Y16141D01*
X54095Y16046D01*
X53974Y15925D01*
X53879Y15782D01*
X53813Y15624D01*
X53780Y15456D01*
Y15284D01*
X53813Y15116D01*
X53879Y14958D01*
X53974Y14815D01*
X54095Y14694D01*
X54238Y14599D01*
X54396Y14533D01*
X54564Y14500D01*
X54736D01*
X54904Y14533D01*
X55062Y14599D01*
X55205Y14694D01*
X55326Y14815D01*
X55421Y14958D01*
X55487Y15116D01*
X55520Y15284D01*
Y15456D01*
X55487Y15624D01*
X55421Y15782D01*
X55326Y15925D01*
X55205Y16046D01*
X55062Y16141D01*
X54904Y16207D01*
X54736Y16240D01*
D02*
G37*
G36*
X38132Y11222D02*
X37317D01*
Y10407D01*
X38132D01*
Y11222D01*
D02*
G37*
G36*
X51910Y10603D02*
X51832Y10588D01*
X51765Y10543D01*
X51721Y10477D01*
X51705Y10398D01*
Y9926D01*
X51721Y9848D01*
X51765Y9781D01*
X51832Y9737D01*
X51910Y9721D01*
X51988Y9737D01*
X52055Y9781D01*
X52099Y9848D01*
X52115Y9926D01*
Y10398D01*
X52099Y10477D01*
X52055Y10543D01*
X51988Y10588D01*
X51910Y10603D01*
D02*
G37*
G36*
X55046Y2300D02*
X54874D01*
X54706Y2267D01*
X54548Y2201D01*
X54405Y2106D01*
X54284Y1985D01*
X54189Y1842D01*
X54123Y1684D01*
X54090Y1516D01*
Y1344D01*
X54123Y1176D01*
X54189Y1018D01*
X54284Y875D01*
X54405Y754D01*
X54548Y659D01*
X54706Y593D01*
X54874Y560D01*
X55046D01*
X55214Y593D01*
X55372Y659D01*
X55515Y754D01*
X55636Y875D01*
X55731Y1018D01*
X55797Y1176D01*
X55830Y1344D01*
Y1516D01*
X55797Y1684D01*
X55731Y1842D01*
X55636Y1985D01*
X55515Y2106D01*
X55372Y2201D01*
X55214Y2267D01*
X55046Y2300D01*
D02*
G37*
%LPD*%
G36*
X30375Y33180D02*
X30380D01*
X30400Y33160D01*
X30375Y33180D01*
X29300D01*
X29829Y33612D01*
X30375Y33180D01*
D02*
G37*
G36*
X37176Y25806D02*
X35580Y24210D01*
X33980Y25810D01*
X35529Y27359D01*
X37176Y25806D01*
D02*
G37*
G36*
X13710Y40140D02*
Y35940D01*
X15225Y34425D01*
X18020Y37220D01*
X18850Y37430D01*
X19020Y37600D01*
X19810D01*
X20060Y37350D01*
Y36390D01*
X19220Y35550D01*
X18370D01*
X17160Y34340D01*
Y29810D01*
X14870D01*
X14730Y29950D01*
Y31430D01*
X11450Y34710D01*
Y37170D01*
X10850Y37770D01*
X10840Y39730D01*
X11990Y40880D01*
X12970D01*
X13710Y40140D01*
D02*
G37*
D15*
X36547Y38439D02*
D03*
Y37539D02*
D03*
X36134Y35449D02*
D03*
Y34549D02*
D03*
X36917Y34549D02*
D03*
Y35449D02*
D03*
D16*
X20977Y27340D02*
D03*
Y28240D02*
D03*
X20222Y27340D02*
D03*
Y28240D02*
D03*
X19468Y27340D02*
D03*
Y28240D02*
D03*
X18713Y27340D02*
D03*
Y28240D02*
D03*
X32281Y31677D02*
D03*
Y30777D02*
D03*
X33050Y30790D02*
D03*
Y29890D02*
D03*
X35380D02*
D03*
Y30790D02*
D03*
X49550Y7950D02*
D03*
Y7050D02*
D03*
X31411Y30777D02*
D03*
Y31677D02*
D03*
D20*
X36441Y28189D02*
X36809Y28556D01*
X36809D01*
X36535Y27182D02*
X37019Y27667D01*
X36819Y27880D02*
X37112Y28173D01*
X36636Y27847D02*
Y28069D01*
X36119Y27600D02*
X36441Y27923D01*
X36117Y27600D02*
X36119D01*
X37019Y27667D02*
Y27769D01*
X36819Y27745D02*
Y27880D01*
X36396Y27322D02*
X36819Y27745D01*
X36636Y28069D02*
X36746Y28179D01*
X36256Y27468D02*
X36636Y27847D01*
X37019Y27769D02*
X37030Y27780D01*
X36746Y28179D02*
Y28194D01*
X36441Y27923D02*
Y28189D01*
X36256Y27461D02*
Y27468D01*
X36674Y27048D02*
X37456Y27830D01*
X36952Y26765D02*
X37714Y27526D01*
X37456Y27830D02*
Y27834D01*
X34228Y23469D02*
X34476Y23717D01*
X34219Y23469D02*
X34228D01*
X34476Y23717D02*
Y23732D01*
X34030Y23280D02*
X34219Y23469D01*
X34148Y23680D02*
X34764Y24296D01*
X34476Y23732D02*
X34904Y24159D01*
X34140Y23680D02*
X34148D01*
X34068Y23881D02*
X34625Y24438D01*
X34033Y23881D02*
X34068D01*
X33973Y24064D02*
X34486Y24577D01*
X29680Y22180D02*
X32074D01*
X33237Y23040D02*
X33640Y23443D01*
Y23488D02*
X34033Y23881D01*
X33640Y23443D02*
Y23488D01*
X33957Y24064D02*
X33973D01*
X32074Y22180D02*
X33957Y24064D01*
X34764Y24296D02*
Y24298D01*
X34141Y27099D02*
X34145D01*
X34339Y26904D01*
X34347D01*
X33490Y27750D02*
X34141Y27099D01*
X33884Y27645D02*
Y27654D01*
X33490Y27750D02*
Y28850D01*
X33884Y27645D02*
X34486Y27044D01*
X33050Y27922D02*
X34208Y26765D01*
X33050Y27922D02*
Y29890D01*
X32302Y28392D02*
Y29930D01*
Y28392D02*
X34068Y26626D01*
X20222Y28240D02*
X20236Y28253D01*
X38560Y24280D02*
X38760Y24080D01*
X37231Y25134D02*
X38084Y24280D01*
X38560D01*
X33651Y25412D02*
X33651D01*
X34206Y25967D01*
X35210Y29240D02*
X35380Y29410D01*
Y29890D01*
X33880Y29240D02*
X35210D01*
X36220Y29060D02*
Y29883D01*
X35900Y28740D02*
X36220Y29060D01*
X34260Y28740D02*
X35900D01*
X34020Y28066D02*
Y28500D01*
X34260Y28740D01*
X34020Y28066D02*
X34764Y27322D01*
X33490Y28850D02*
X33880Y29240D01*
X37508Y26208D02*
X37509D01*
X37008Y25708D02*
X37508Y26208D01*
X37509D02*
X38460Y27159D01*
X35978Y23881D02*
Y23881D01*
X35509Y24349D02*
X35978Y23881D01*
X33190Y24951D02*
X33651Y25412D01*
X36813Y26904D02*
X37318Y27408D01*
X37325D01*
X37328Y27412D01*
X36674Y27043D02*
Y27048D01*
X45480Y22890D02*
X48760Y19610D01*
X39280Y23350D02*
X39740Y22890D01*
X45480D01*
X39640Y22540D02*
X44530D01*
X38840Y23340D02*
X39640Y22540D01*
X44530D02*
X47700Y19370D01*
X48760Y14880D02*
Y19610D01*
X46920Y13040D02*
X48760Y14880D01*
X47700Y15050D02*
Y19370D01*
X46690Y14040D02*
X47700Y15050D01*
X39780Y23920D02*
X47340D01*
X38980Y24720D02*
X39780Y23920D01*
X47340D02*
X50910Y20350D01*
X46790Y23620D02*
X50410Y20000D01*
X38836Y24503D02*
X39719Y23620D01*
X46790D01*
X34030Y21990D02*
Y22729D01*
X40590Y21910D02*
X43740Y18760D01*
X39341Y21910D02*
X40590D01*
X38551Y22700D02*
X39341Y21910D01*
X42000Y14040D02*
X43250D01*
X43740Y14530D01*
Y18760D01*
X36674Y24577D02*
X38551Y22700D01*
X36813Y24716D02*
X39219Y22310D01*
X40820D01*
X38551Y22700D02*
X38551D01*
X43520Y13040D02*
X44250Y13770D01*
Y18880D01*
X42000Y13040D02*
X43520D01*
X40820Y22310D02*
X44250Y18880D01*
X45410Y14040D02*
X46690D01*
X45410Y13040D02*
X46920D01*
X50410Y10162D02*
Y20000D01*
X50910Y10162D02*
Y20350D01*
X39850Y24220D02*
X47840D01*
X51410Y10162D02*
Y20650D01*
X47840Y24220D02*
X51410Y20650D01*
X39360Y24710D02*
X39850Y24220D01*
X39360Y24710D02*
X39360D01*
X33996Y32490D02*
X36055Y34549D01*
X28140Y31700D02*
X28930Y32490D01*
X33996D01*
X37370Y25273D02*
X38139Y24503D01*
X38836D01*
X38201Y24720D02*
X38980D01*
X37509Y25412D02*
X38201Y24720D01*
X49525Y7950D02*
X49550D01*
X34480Y28143D02*
X34500D01*
X34476Y28146D02*
X34480Y28143D01*
X34500D02*
X35043Y27600D01*
X34850Y25700D02*
X35360Y25190D01*
X35839Y25669D02*
Y25680D01*
X35360Y25190D02*
X35839Y25669D01*
X35392Y26126D02*
Y26694D01*
Y26126D02*
X35839Y25680D01*
X34764Y27322D02*
X35392Y26694D01*
X34486Y27043D02*
Y27044D01*
X29920Y22620D02*
X32251D01*
X34347Y24716D01*
X34030Y22729D02*
X35182Y23881D01*
X36256Y24154D02*
X37937Y22473D01*
X36256Y24154D02*
Y24159D01*
X33248Y26611D02*
X33651Y26208D01*
X30736Y26611D02*
X33248D01*
X28140Y25240D02*
Y31700D01*
Y25240D02*
X30230Y23150D01*
X32224D01*
X34068Y24994D01*
X27480Y25060D02*
X29920Y22620D01*
X26890Y24970D02*
X29680Y22180D01*
X26890Y24970D02*
Y33450D01*
X27480Y25060D02*
Y33270D01*
X36055Y34549D02*
X36134D01*
X28763Y34553D02*
X29829D01*
X27480Y33270D02*
X28763Y34553D01*
X28493Y35053D02*
X29829D01*
X26890Y33450D02*
X28493Y35053D01*
X35978Y23881D02*
X36499Y23360D01*
Y21356D02*
Y23360D01*
X38460Y27159D02*
X40004D01*
X36220Y29883D02*
X36241Y29904D01*
X35155Y30090D02*
X35355Y29890D01*
X35380D01*
X34535Y30744D02*
Y30783D01*
X35155Y30090D02*
Y30123D01*
X33077Y29917D02*
X33865D01*
X33050Y29890D02*
X33077Y29917D01*
X31318Y29098D02*
Y29930D01*
Y29098D02*
X33929Y26486D01*
X30736Y24951D02*
X33190D01*
X36543Y36983D02*
X36547Y36987D01*
X36540Y38446D02*
X36547Y38439D01*
D21*
X30060Y28220D02*
X30736Y27544D01*
X28930Y28220D02*
X30060D01*
X30736Y26611D02*
Y27544D01*
Y24951D02*
Y26611D01*
X50550Y4620D02*
Y5570D01*
X50910Y5930D01*
Y7938D01*
D22*
X23620Y28240D02*
X23881Y28501D01*
Y30233D01*
X20977Y28240D02*
X23620D01*
X23330Y32600D02*
X23330D01*
X23550Y32380D02*
X25090D01*
X23330Y32600D02*
X23550Y32380D01*
X19220Y32600D02*
X23330D01*
X23319Y33753D02*
X23330Y33742D01*
Y32600D02*
Y33742D01*
X23319Y33753D02*
Y34553D01*
X18510Y31890D02*
X19220Y32600D01*
X18510Y29620D02*
Y31890D01*
Y29620D02*
X18770Y29360D01*
X19330D01*
X18713Y28240D02*
X19468D01*
X19330Y28378D02*
Y29360D01*
Y28378D02*
X19468Y28240D01*
X20222D02*
X20977D01*
X20236Y28253D02*
Y29360D01*
X25750Y23180D02*
Y28220D01*
Y23180D02*
X27574Y21356D01*
X36499D01*
X25090Y32380D02*
X25880Y33170D01*
X48371Y9104D02*
X49525Y7950D01*
X40954Y9104D02*
X48371D01*
X40000Y10059D02*
Y14430D01*
Y10059D02*
X40954Y9104D01*
X40000Y14430D02*
X40610Y15040D01*
X42000D01*
X39384Y21356D02*
X42020Y18720D01*
Y15060D02*
Y18720D01*
X17090Y37930D02*
X17120Y37960D01*
X22600Y37133D02*
X22787D01*
X21300D02*
X22600D01*
X22540Y37193D02*
X22600Y37133D01*
X22540Y37193D02*
Y39600D01*
X36499Y21356D02*
X39384D01*
X23319Y35353D02*
Y36601D01*
Y34553D02*
Y35353D01*
X22787Y37133D02*
X23319Y36601D01*
D23*
X29741Y33170D02*
X29829D01*
X42000Y15040D02*
X42020Y15060D01*
X17120Y37960D02*
Y38730D01*
X17950Y39560D01*
X20240D01*
X21300Y37133D02*
Y38500D01*
X20240Y39560D02*
X21300Y38500D01*
X16620Y40970D02*
X22800D01*
X23540Y39600D02*
Y40230D01*
X22800Y40970D02*
X23540Y40230D01*
X16105Y39945D02*
Y40455D01*
X16090Y39930D02*
X16105Y39945D01*
Y40455D02*
X16620Y40970D01*
X32281Y30777D02*
X32292Y30766D01*
Y29941D02*
X32302Y29930D01*
X32292Y29941D02*
Y30766D01*
X31318Y29930D02*
X31364Y29977D01*
Y30730D01*
X31411Y30777D01*
X49550Y7950D02*
X49556Y7944D01*
X50404D02*
X50410Y7938D01*
X31989Y34973D02*
X34113D01*
X35540Y36400D02*
Y39600D01*
X34113Y34973D02*
X35540Y36400D01*
X34540Y37260D02*
Y39600D01*
X33333Y36053D02*
X34540Y37260D01*
X29829Y36053D02*
X33333D01*
X33540Y37660D02*
Y39600D01*
X32433Y36553D02*
X33540Y37660D01*
X29829Y36553D02*
X32433D01*
X29829Y37053D02*
X31853D01*
X32540Y37740D01*
Y39600D01*
X31530Y39590D02*
X31540Y39600D01*
X31530Y38210D02*
Y39590D01*
X30873Y37553D02*
X31530Y38210D01*
X29829Y37553D02*
X30873D01*
X25350Y36850D02*
X25640Y36560D01*
X25796D01*
X25350Y36850D02*
Y38270D01*
X25462Y36053D02*
X26109D01*
X24970Y36545D02*
Y38890D01*
X25796Y36560D02*
X25799Y36557D01*
X26105D02*
X26109Y36553D01*
X24970Y36545D02*
X25462Y36053D01*
X25799Y36557D02*
X26105D01*
X25350Y38270D02*
X26540Y39460D01*
Y39600D01*
X24970Y38890D02*
X25540Y39460D01*
Y39600D01*
X25417Y35553D02*
X26109D01*
X24540Y36430D02*
X25417Y35553D01*
X24540Y36430D02*
Y39600D01*
X34535Y30744D02*
X35155Y30123D01*
D24*
X13440Y4480D02*
D03*
X11440D02*
D03*
X52550Y4620D02*
D03*
X50550D02*
D03*
X33920Y4480D02*
D03*
X35920D02*
D03*
X5150D02*
D03*
X7150D02*
D03*
D25*
X19340Y38500D02*
D03*
X19390Y19000D02*
D03*
X54790Y38500D02*
D03*
Y18950D02*
D03*
D26*
X36540Y39600D02*
D03*
X35540D02*
D03*
X34540D02*
D03*
X33540D02*
D03*
X32540D02*
D03*
X31540D02*
D03*
X30540D02*
D03*
X29540D02*
D03*
X28540D02*
D03*
X27540D02*
D03*
X26540D02*
D03*
X25540D02*
D03*
X24540D02*
D03*
X23540D02*
D03*
X22540D02*
D03*
D27*
X21540D02*
D03*
D28*
X16240Y29110D02*
D03*
X10750Y7840D02*
D03*
D29*
X16240Y30110D02*
D03*
X10750Y8840D02*
D03*
D30*
X13440Y15770D02*
D03*
Y7270D02*
D03*
Y9270D02*
D03*
Y13770D02*
D03*
D31*
X35756Y10814D02*
D03*
Y16523D02*
D03*
X36740D02*
D03*
X37724D02*
D03*
D32*
Y10814D02*
D03*
D33*
X34909Y13570D02*
D03*
X38571D02*
D03*
D34*
X42000Y15040D02*
D03*
X45410D02*
D03*
D35*
X42000Y14040D02*
D03*
Y13040D02*
D03*
Y12040D02*
D03*
X45410Y14040D02*
D03*
Y13040D02*
D03*
Y12040D02*
D03*
D36*
X8577Y20101D02*
D03*
X1490Y40180D02*
D03*
X12120D02*
D03*
D37*
X5033Y20101D02*
D03*
D38*
X17090Y37930D02*
D03*
X16090Y39930D02*
D03*
X15090Y37930D02*
D03*
D39*
X36809Y28556D02*
D03*
X37030Y27780D02*
D03*
X37112Y28173D02*
D03*
X36746Y28194D02*
D03*
X38379Y30271D02*
D03*
X37456Y27834D02*
D03*
X37714Y27526D02*
D03*
X34140Y23680D02*
D03*
X33884Y27654D02*
D03*
X56489Y41286D02*
D03*
X56096Y40499D02*
D03*
X56489Y39711D02*
D03*
X56096Y38924D02*
D03*
X56489Y38137D02*
D03*
X56096Y37349D02*
D03*
X56489Y36562D02*
D03*
X56096Y35774D02*
D03*
X56489Y34987D02*
D03*
X56096Y34200D02*
D03*
X56489Y33412D02*
D03*
X56096Y32625D02*
D03*
X56489Y31837D02*
D03*
X56096Y31050D02*
D03*
X56489Y30263D02*
D03*
X56096Y29475D02*
D03*
X56489Y28688D02*
D03*
X56096Y27900D02*
D03*
X56489Y27113D02*
D03*
X56096Y26326D02*
D03*
X56489Y25538D02*
D03*
X56096Y24751D02*
D03*
X56489Y23963D02*
D03*
X56096Y23176D02*
D03*
X56489Y22389D02*
D03*
X56096Y21601D02*
D03*
X56489Y20814D02*
D03*
X56096Y20026D02*
D03*
X56489Y19239D02*
D03*
X56096Y18452D02*
D03*
X56489Y17664D02*
D03*
X56096Y16877D02*
D03*
X56489Y16089D02*
D03*
X56096Y15302D02*
D03*
X56489Y14515D02*
D03*
X56096Y13727D02*
D03*
X56489Y12940D02*
D03*
X56096Y12152D02*
D03*
X56489Y11365D02*
D03*
X56096Y10577D02*
D03*
X56489Y9790D02*
D03*
X56096Y9003D02*
D03*
X56489Y8215D02*
D03*
X56096Y7428D02*
D03*
X56489Y6640D02*
D03*
X56096Y5853D02*
D03*
X56489Y5066D02*
D03*
X56096Y4278D02*
D03*
X56489Y3491D02*
D03*
X56096Y2703D02*
D03*
X56489Y1916D02*
D03*
X56096Y1129D02*
D03*
X56489Y341D02*
D03*
X55702Y41286D02*
D03*
X55308Y40499D02*
D03*
X55702Y39711D02*
D03*
Y38137D02*
D03*
X55308Y37349D02*
D03*
X55702Y36562D02*
D03*
X55308Y35774D02*
D03*
X55702Y34987D02*
D03*
X55308Y34200D02*
D03*
X55702Y33412D02*
D03*
X55308Y32625D02*
D03*
X55702Y31837D02*
D03*
X55308Y31050D02*
D03*
X55702Y30263D02*
D03*
X55308Y29475D02*
D03*
X55702Y28688D02*
D03*
X55308Y27900D02*
D03*
X55702Y27113D02*
D03*
X55308Y26326D02*
D03*
X55702Y25538D02*
D03*
X55308Y24751D02*
D03*
X55702Y23963D02*
D03*
X55308Y23176D02*
D03*
X55702Y22389D02*
D03*
X55308Y21601D02*
D03*
X55702Y20814D02*
D03*
X55308Y20026D02*
D03*
X55702Y19239D02*
D03*
Y17664D02*
D03*
X55308Y16877D02*
D03*
X55702Y16089D02*
D03*
Y14515D02*
D03*
X55308Y13727D02*
D03*
X55702Y12940D02*
D03*
X55308Y12152D02*
D03*
X55702Y11365D02*
D03*
X55308Y10577D02*
D03*
X55702Y9790D02*
D03*
X55308Y9003D02*
D03*
X55702Y8215D02*
D03*
X55308Y7428D02*
D03*
X55702Y6640D02*
D03*
X55308Y5853D02*
D03*
X55702Y5066D02*
D03*
X55308Y4278D02*
D03*
X55702Y3491D02*
D03*
X55308Y2703D02*
D03*
X55702Y341D02*
D03*
X54915Y41286D02*
D03*
X54521Y40499D02*
D03*
X54915Y39711D02*
D03*
X54521Y37349D02*
D03*
X54915Y36562D02*
D03*
X54521Y35774D02*
D03*
X54915Y34987D02*
D03*
X54521Y34200D02*
D03*
X54915Y33412D02*
D03*
X54521Y32625D02*
D03*
X54915Y31837D02*
D03*
X54521Y31050D02*
D03*
X54915Y30263D02*
D03*
X54521Y29475D02*
D03*
X54915Y28688D02*
D03*
X54521Y27900D02*
D03*
X54915Y27113D02*
D03*
X54521Y26326D02*
D03*
X54915Y25538D02*
D03*
X54521Y24751D02*
D03*
X54915Y23963D02*
D03*
X54521Y23176D02*
D03*
X54915Y22389D02*
D03*
X54521Y21601D02*
D03*
X54915Y20814D02*
D03*
X54521Y20026D02*
D03*
X54915Y17664D02*
D03*
X54521Y16877D02*
D03*
Y13727D02*
D03*
X54915Y12940D02*
D03*
X54521Y12152D02*
D03*
X54915Y11365D02*
D03*
X54521Y10577D02*
D03*
X54915Y9790D02*
D03*
X54521Y9003D02*
D03*
X54915Y8215D02*
D03*
X54521Y7428D02*
D03*
X54915Y6640D02*
D03*
X54521Y5853D02*
D03*
X54915Y5066D02*
D03*
X54521Y4278D02*
D03*
X54915Y3491D02*
D03*
X54521Y2703D02*
D03*
X54127Y41286D02*
D03*
X53734Y40499D02*
D03*
X54127Y39711D02*
D03*
X53734Y38924D02*
D03*
Y37349D02*
D03*
X54127Y36562D02*
D03*
X53734Y35774D02*
D03*
X54127Y34987D02*
D03*
X53734Y34200D02*
D03*
X54127Y33412D02*
D03*
X53734Y32625D02*
D03*
X54127Y31837D02*
D03*
X53734Y31050D02*
D03*
X54127Y30263D02*
D03*
X53734Y29475D02*
D03*
X54127Y28688D02*
D03*
X53734Y27900D02*
D03*
X54127Y27113D02*
D03*
X53734Y26326D02*
D03*
X54127Y25538D02*
D03*
X53734Y24751D02*
D03*
X54127Y23963D02*
D03*
X53734Y23176D02*
D03*
X54127Y22389D02*
D03*
X53734Y21601D02*
D03*
X54127Y20814D02*
D03*
X53734Y20026D02*
D03*
Y18452D02*
D03*
X54127Y17664D02*
D03*
X53734Y16877D02*
D03*
Y13727D02*
D03*
X54127Y12940D02*
D03*
X53734Y12152D02*
D03*
X54127Y11365D02*
D03*
X53734Y10577D02*
D03*
X54127Y9790D02*
D03*
X53734Y9003D02*
D03*
X54127Y8215D02*
D03*
X53734Y7428D02*
D03*
X54127Y6640D02*
D03*
X53734Y5853D02*
D03*
X54127Y5066D02*
D03*
X53734Y4278D02*
D03*
X54127Y3491D02*
D03*
X53734Y2703D02*
D03*
Y1129D02*
D03*
X54127Y341D02*
D03*
X53340Y41286D02*
D03*
X52946Y40499D02*
D03*
X53340Y39711D02*
D03*
X52946Y38924D02*
D03*
X53340Y38137D02*
D03*
X52946Y37349D02*
D03*
X53340Y36562D02*
D03*
X52946Y35774D02*
D03*
X53340Y34987D02*
D03*
X52946Y34200D02*
D03*
X53340Y33412D02*
D03*
X52946Y32625D02*
D03*
X53340Y31837D02*
D03*
X52946Y31050D02*
D03*
X53340Y30263D02*
D03*
X52946Y29475D02*
D03*
X53340Y28688D02*
D03*
X52946Y27900D02*
D03*
X53340Y27113D02*
D03*
X52946Y26326D02*
D03*
X53340Y25538D02*
D03*
X52946Y24751D02*
D03*
X53340Y23963D02*
D03*
X52946Y23176D02*
D03*
X53340Y22389D02*
D03*
X52946Y21601D02*
D03*
X53340Y20814D02*
D03*
X52946Y20026D02*
D03*
X53340Y19239D02*
D03*
X52946Y18452D02*
D03*
X53340Y17664D02*
D03*
X52946Y16877D02*
D03*
X53340Y16089D02*
D03*
X52946Y15302D02*
D03*
X53340Y14515D02*
D03*
X52946Y13727D02*
D03*
X53340Y12940D02*
D03*
X52946Y12152D02*
D03*
X53340Y11365D02*
D03*
X52946Y10577D02*
D03*
X53340Y9790D02*
D03*
X52946Y9003D02*
D03*
X53340Y8215D02*
D03*
X52946Y7428D02*
D03*
X53340Y6640D02*
D03*
X52946Y5853D02*
D03*
X53340Y5066D02*
D03*
Y3491D02*
D03*
X52946Y2703D02*
D03*
X53340Y1916D02*
D03*
X52946Y1129D02*
D03*
X53340Y341D02*
D03*
X52552Y41286D02*
D03*
X52159Y40499D02*
D03*
X52552Y39711D02*
D03*
X52159Y38924D02*
D03*
X52552Y38137D02*
D03*
X52159Y37349D02*
D03*
X52552Y36562D02*
D03*
X52159Y35774D02*
D03*
X52552Y34987D02*
D03*
X52159Y34200D02*
D03*
X52552Y33412D02*
D03*
X52159Y32625D02*
D03*
X52552Y31837D02*
D03*
X52159Y31050D02*
D03*
X52552Y30263D02*
D03*
X52159Y29475D02*
D03*
X52552Y28688D02*
D03*
X52159Y27900D02*
D03*
X52552Y27113D02*
D03*
X52159Y26326D02*
D03*
X52552Y25538D02*
D03*
X52159Y24751D02*
D03*
X52552Y23963D02*
D03*
X52159Y23176D02*
D03*
X52552Y22389D02*
D03*
X52159Y21601D02*
D03*
X52552Y20814D02*
D03*
X52159Y20026D02*
D03*
X52552Y19239D02*
D03*
X52159Y18452D02*
D03*
X52552Y17664D02*
D03*
X52159Y16877D02*
D03*
X52552Y16089D02*
D03*
X52159Y15302D02*
D03*
X52552Y14515D02*
D03*
X52159Y13727D02*
D03*
X52552Y12940D02*
D03*
X52159Y12152D02*
D03*
X52552Y11365D02*
D03*
X52159Y10577D02*
D03*
X52552Y9790D02*
D03*
X52159Y9003D02*
D03*
X52552Y8215D02*
D03*
X52159Y7428D02*
D03*
X52552Y6640D02*
D03*
X52159Y5853D02*
D03*
X52552Y3491D02*
D03*
X52159Y2703D02*
D03*
X52552Y1916D02*
D03*
X52159Y1129D02*
D03*
X52552Y341D02*
D03*
X51765Y41286D02*
D03*
X51371Y40499D02*
D03*
X51765Y39711D02*
D03*
X51371Y38924D02*
D03*
X51765Y38137D02*
D03*
X51371Y37349D02*
D03*
X51765Y36562D02*
D03*
X51371Y35774D02*
D03*
X51765Y34987D02*
D03*
X51371Y34200D02*
D03*
X51765Y33412D02*
D03*
X51371Y32625D02*
D03*
X51765Y31837D02*
D03*
X51371Y31050D02*
D03*
X51765Y30263D02*
D03*
X51371Y29475D02*
D03*
X51765Y28688D02*
D03*
X51371Y27900D02*
D03*
X51765Y27113D02*
D03*
X51371Y26326D02*
D03*
X51765Y25538D02*
D03*
X51371Y24751D02*
D03*
X51765Y23963D02*
D03*
X51371Y23176D02*
D03*
X51765Y22389D02*
D03*
X51371Y21601D02*
D03*
X51765Y20814D02*
D03*
Y19239D02*
D03*
Y17664D02*
D03*
Y16089D02*
D03*
Y14515D02*
D03*
Y12940D02*
D03*
Y11365D02*
D03*
X51371Y9003D02*
D03*
Y7428D02*
D03*
X51765Y6640D02*
D03*
X51371Y5853D02*
D03*
X51765Y5066D02*
D03*
X51371Y4278D02*
D03*
X51765Y3491D02*
D03*
X51371Y2703D02*
D03*
X51765Y1916D02*
D03*
X51371Y1129D02*
D03*
X51765Y341D02*
D03*
X50978Y41286D02*
D03*
X50584Y40499D02*
D03*
X50978Y39711D02*
D03*
X50584Y38924D02*
D03*
X50978Y38137D02*
D03*
X50584Y37349D02*
D03*
X50978Y36562D02*
D03*
X50584Y35774D02*
D03*
X50978Y34987D02*
D03*
X50584Y34200D02*
D03*
X50978Y33412D02*
D03*
X50584Y32625D02*
D03*
X50978Y31837D02*
D03*
X50584Y31050D02*
D03*
X50978Y30263D02*
D03*
X50584Y29475D02*
D03*
X50978Y28688D02*
D03*
X50584Y27900D02*
D03*
X50978Y27113D02*
D03*
X50584Y26326D02*
D03*
Y24751D02*
D03*
Y23176D02*
D03*
Y9003D02*
D03*
Y7428D02*
D03*
X50978Y3491D02*
D03*
X50584Y2703D02*
D03*
X50978Y1916D02*
D03*
X50584Y1129D02*
D03*
X50978Y341D02*
D03*
X50190Y41286D02*
D03*
X49797Y40499D02*
D03*
X50190Y39711D02*
D03*
X49797Y38924D02*
D03*
X50190Y38137D02*
D03*
X49797Y37349D02*
D03*
X50190Y36562D02*
D03*
X49797Y35774D02*
D03*
X50190Y34987D02*
D03*
X49797Y34200D02*
D03*
X50190Y33412D02*
D03*
X49797Y32625D02*
D03*
X50190Y31837D02*
D03*
X49797Y31050D02*
D03*
X50190Y30263D02*
D03*
X49797Y29475D02*
D03*
X50190Y28688D02*
D03*
X49797Y27900D02*
D03*
X50190Y27113D02*
D03*
Y25538D02*
D03*
Y23963D02*
D03*
Y22389D02*
D03*
Y19239D02*
D03*
Y17664D02*
D03*
Y16089D02*
D03*
Y11365D02*
D03*
X49797Y10577D02*
D03*
Y9003D02*
D03*
X50190Y6640D02*
D03*
X49797Y5853D02*
D03*
Y4278D02*
D03*
X50190Y3491D02*
D03*
X49797Y2703D02*
D03*
X50190Y1916D02*
D03*
X49797Y1129D02*
D03*
X50190Y341D02*
D03*
X49403Y41286D02*
D03*
X49009Y40499D02*
D03*
X49403Y39711D02*
D03*
X49009Y38924D02*
D03*
X49403Y38137D02*
D03*
X49009Y37349D02*
D03*
X49403Y36562D02*
D03*
X49009Y35774D02*
D03*
X49403Y34987D02*
D03*
X49009Y34200D02*
D03*
X49403Y33412D02*
D03*
X49009Y32625D02*
D03*
X49403Y31837D02*
D03*
X49009Y31050D02*
D03*
X49403Y30263D02*
D03*
X49009Y29475D02*
D03*
X49403Y28688D02*
D03*
X49009Y27900D02*
D03*
X49403Y25538D02*
D03*
Y23963D02*
D03*
Y19239D02*
D03*
Y17664D02*
D03*
Y16089D02*
D03*
Y14515D02*
D03*
Y12940D02*
D03*
Y11365D02*
D03*
X49009Y10577D02*
D03*
X49403Y9790D02*
D03*
X49009Y9003D02*
D03*
Y7428D02*
D03*
X49403Y6640D02*
D03*
X49009Y5853D02*
D03*
X49403Y5066D02*
D03*
Y3491D02*
D03*
Y1916D02*
D03*
Y341D02*
D03*
X48615Y41286D02*
D03*
X48222Y40499D02*
D03*
X48615Y39711D02*
D03*
X48222Y38924D02*
D03*
X48615Y38137D02*
D03*
X48222Y37349D02*
D03*
X48615Y36562D02*
D03*
X48222Y35774D02*
D03*
X48615Y34987D02*
D03*
X48222Y34200D02*
D03*
X48615Y33412D02*
D03*
X48222Y32625D02*
D03*
X48615Y31837D02*
D03*
X48222Y31050D02*
D03*
X48615Y30263D02*
D03*
X48222Y29475D02*
D03*
X48615Y28688D02*
D03*
Y27113D02*
D03*
X48222Y26326D02*
D03*
Y24751D02*
D03*
Y21601D02*
D03*
Y18452D02*
D03*
Y16877D02*
D03*
Y15302D02*
D03*
X48615Y11365D02*
D03*
X48222Y10577D02*
D03*
X48615Y9790D02*
D03*
Y8215D02*
D03*
X48222Y7428D02*
D03*
X48615Y6640D02*
D03*
X48222Y5853D02*
D03*
X47828Y41286D02*
D03*
X47434Y40499D02*
D03*
X47828Y39711D02*
D03*
X47434Y38924D02*
D03*
X47828Y38137D02*
D03*
X47434Y37349D02*
D03*
X47828Y36562D02*
D03*
X47434Y35774D02*
D03*
X47828Y34987D02*
D03*
X47434Y34200D02*
D03*
X47828Y33412D02*
D03*
X47434Y32625D02*
D03*
X47828Y31837D02*
D03*
X47434Y31050D02*
D03*
X47828Y30263D02*
D03*
X47434Y29475D02*
D03*
X47828Y27113D02*
D03*
X47434Y26326D02*
D03*
Y24751D02*
D03*
Y21601D02*
D03*
Y20026D02*
D03*
Y18452D02*
D03*
Y16877D02*
D03*
Y15302D02*
D03*
X47828Y11365D02*
D03*
X47434Y10577D02*
D03*
X47828Y9790D02*
D03*
Y8215D02*
D03*
X47434Y7428D02*
D03*
X47828Y6640D02*
D03*
X47041Y41286D02*
D03*
X46647Y40499D02*
D03*
X47041Y39711D02*
D03*
X46647Y38924D02*
D03*
X47041Y38137D02*
D03*
X46647Y37349D02*
D03*
X47041Y36562D02*
D03*
X46647Y35774D02*
D03*
X47041Y34987D02*
D03*
X46647Y34200D02*
D03*
X47041Y33412D02*
D03*
X46647Y32625D02*
D03*
X47041Y31837D02*
D03*
X46647Y31050D02*
D03*
X47041Y30263D02*
D03*
Y28688D02*
D03*
X46647Y26326D02*
D03*
X47041Y25538D02*
D03*
X46647Y24751D02*
D03*
Y23176D02*
D03*
X47041Y22389D02*
D03*
Y20814D02*
D03*
X46647Y20026D02*
D03*
X47041Y19239D02*
D03*
X46647Y18452D02*
D03*
X47041Y17664D02*
D03*
X46647Y16877D02*
D03*
X47041Y16089D02*
D03*
X46647Y15302D02*
D03*
Y13727D02*
D03*
Y12152D02*
D03*
X47041Y11365D02*
D03*
X46647Y10577D02*
D03*
X47041Y9790D02*
D03*
Y8215D02*
D03*
X46647Y7428D02*
D03*
X46253Y41286D02*
D03*
X45860Y40499D02*
D03*
X46253Y39711D02*
D03*
X45860Y38924D02*
D03*
X46253Y38137D02*
D03*
X45860Y37349D02*
D03*
X46253Y36562D02*
D03*
X45860Y35774D02*
D03*
X46253Y34987D02*
D03*
X45860Y34200D02*
D03*
X46253Y33412D02*
D03*
X45860Y32625D02*
D03*
X46253Y31837D02*
D03*
X45860Y31050D02*
D03*
X46253Y28688D02*
D03*
X45860Y27900D02*
D03*
X46253Y27113D02*
D03*
X45860Y26326D02*
D03*
X46253Y25538D02*
D03*
X45860Y24751D02*
D03*
Y23176D02*
D03*
Y21601D02*
D03*
Y20026D02*
D03*
X46253Y19239D02*
D03*
X45860Y18452D02*
D03*
X46253Y17664D02*
D03*
X45860Y16877D02*
D03*
X46253Y16089D02*
D03*
Y14515D02*
D03*
Y11365D02*
D03*
X45860Y10577D02*
D03*
X46253Y9790D02*
D03*
Y8215D02*
D03*
X45466Y41286D02*
D03*
X45072Y40499D02*
D03*
X45466Y39711D02*
D03*
X45072Y38924D02*
D03*
X45466Y38137D02*
D03*
X45072Y37349D02*
D03*
X45466Y36562D02*
D03*
X45072Y35774D02*
D03*
X45466Y34987D02*
D03*
X45072Y34200D02*
D03*
X45466Y33412D02*
D03*
X45072Y32625D02*
D03*
X45466Y31837D02*
D03*
X45072Y31050D02*
D03*
Y27900D02*
D03*
X45466Y27113D02*
D03*
X45072Y26326D02*
D03*
X45466Y25538D02*
D03*
X45072Y24751D02*
D03*
Y23176D02*
D03*
X45466Y22389D02*
D03*
X45072Y21601D02*
D03*
X45466Y20814D02*
D03*
X45072Y20026D02*
D03*
X45466Y19239D02*
D03*
X45072Y18452D02*
D03*
X45466Y17664D02*
D03*
X45072Y16877D02*
D03*
X45466Y16089D02*
D03*
Y11365D02*
D03*
X45072Y10577D02*
D03*
X45466Y9790D02*
D03*
X44678Y41286D02*
D03*
X44285Y40499D02*
D03*
X44678Y39711D02*
D03*
X44285Y38924D02*
D03*
X44678Y38137D02*
D03*
X44285Y37349D02*
D03*
X44678Y36562D02*
D03*
X44285Y35774D02*
D03*
X44678Y34987D02*
D03*
X44285Y34200D02*
D03*
X44678Y33412D02*
D03*
X44285Y32625D02*
D03*
X44678Y31837D02*
D03*
X44285Y31050D02*
D03*
X44678Y28688D02*
D03*
X44285Y27900D02*
D03*
X44678Y27113D02*
D03*
X44285Y26326D02*
D03*
X44678Y25538D02*
D03*
X44285Y24751D02*
D03*
Y23176D02*
D03*
Y21601D02*
D03*
X44678Y20814D02*
D03*
X44285Y20026D02*
D03*
X44678Y19239D02*
D03*
Y17664D02*
D03*
Y16089D02*
D03*
Y14515D02*
D03*
Y12940D02*
D03*
X44285Y12152D02*
D03*
X44678Y11365D02*
D03*
X44285Y10577D02*
D03*
X44678Y9790D02*
D03*
X43891Y41286D02*
D03*
X43497Y40499D02*
D03*
X43891Y39711D02*
D03*
X43497Y38924D02*
D03*
X43891Y38137D02*
D03*
X43497Y37349D02*
D03*
X43891Y36562D02*
D03*
X43497Y35774D02*
D03*
X43891Y34987D02*
D03*
X43497Y34200D02*
D03*
X43891Y33412D02*
D03*
X43497Y32625D02*
D03*
X43891Y31837D02*
D03*
X43497Y31050D02*
D03*
X43891Y28688D02*
D03*
X43497Y27900D02*
D03*
X43891Y27113D02*
D03*
X43497Y26326D02*
D03*
X43891Y25538D02*
D03*
X43497Y24751D02*
D03*
Y23176D02*
D03*
Y21601D02*
D03*
X43891Y20814D02*
D03*
X43497Y20026D02*
D03*
Y18452D02*
D03*
Y16877D02*
D03*
Y13727D02*
D03*
X43891Y12940D02*
D03*
X43497Y12152D02*
D03*
X43891Y11365D02*
D03*
X43497Y10577D02*
D03*
X43891Y9790D02*
D03*
X43104Y41286D02*
D03*
X42710Y40499D02*
D03*
X43104Y39711D02*
D03*
X42710Y38924D02*
D03*
X43104Y38137D02*
D03*
X42710Y37349D02*
D03*
X43104Y36562D02*
D03*
X42710Y35774D02*
D03*
X43104Y34987D02*
D03*
X42710Y34200D02*
D03*
X43104Y33412D02*
D03*
X42710Y32625D02*
D03*
X43104Y31837D02*
D03*
X42710Y31050D02*
D03*
X43104Y28688D02*
D03*
X42710Y27900D02*
D03*
X43104Y27113D02*
D03*
X42710Y26326D02*
D03*
X43104Y25538D02*
D03*
X42710Y24751D02*
D03*
Y23176D02*
D03*
Y21601D02*
D03*
X43104Y20814D02*
D03*
X42710Y18452D02*
D03*
X43104Y17664D02*
D03*
X42710Y16877D02*
D03*
X43104Y16089D02*
D03*
Y14515D02*
D03*
X42710Y13727D02*
D03*
Y12152D02*
D03*
X43104Y11365D02*
D03*
X42710Y10577D02*
D03*
X43104Y9790D02*
D03*
X42316Y41286D02*
D03*
X41923Y40499D02*
D03*
X42316Y39711D02*
D03*
X41923Y38924D02*
D03*
X42316Y38137D02*
D03*
X41923Y37349D02*
D03*
X42316Y36562D02*
D03*
X41923Y35774D02*
D03*
X42316Y34987D02*
D03*
X41923Y34200D02*
D03*
X42316Y33412D02*
D03*
X41923Y32625D02*
D03*
X42316Y31837D02*
D03*
X41923Y31050D02*
D03*
X42316Y28688D02*
D03*
X41923Y27900D02*
D03*
X42316Y27113D02*
D03*
X41923Y26326D02*
D03*
X42316Y25538D02*
D03*
X41923Y24751D02*
D03*
Y23176D02*
D03*
Y21601D02*
D03*
Y20026D02*
D03*
X42316Y19239D02*
D03*
Y11365D02*
D03*
X41923Y10577D02*
D03*
X42316Y9790D02*
D03*
X41529Y41286D02*
D03*
X41135Y40499D02*
D03*
X41529Y39711D02*
D03*
X41135Y38924D02*
D03*
X41529Y38137D02*
D03*
X41135Y37349D02*
D03*
X41529Y36562D02*
D03*
X41135Y35774D02*
D03*
X41529Y34987D02*
D03*
X41135Y34200D02*
D03*
X41529Y33412D02*
D03*
X41135Y32625D02*
D03*
X41529Y31837D02*
D03*
X41135Y31050D02*
D03*
X41529Y28688D02*
D03*
X41135Y27900D02*
D03*
X41529Y27113D02*
D03*
X41135Y26326D02*
D03*
X41529Y25538D02*
D03*
X41135Y24751D02*
D03*
Y23176D02*
D03*
Y18452D02*
D03*
X41529Y17664D02*
D03*
X41135Y16877D02*
D03*
X41529Y16089D02*
D03*
X41135Y13727D02*
D03*
Y12152D02*
D03*
X41529Y11365D02*
D03*
X41135Y10577D02*
D03*
X41529Y9790D02*
D03*
X40741Y41286D02*
D03*
X40348Y40499D02*
D03*
X40741Y39711D02*
D03*
X40348Y38924D02*
D03*
X40741Y38137D02*
D03*
X40348Y37349D02*
D03*
X40741Y36562D02*
D03*
X40348Y35774D02*
D03*
X40741Y34987D02*
D03*
X40348Y34200D02*
D03*
X40741Y33412D02*
D03*
X40348Y32625D02*
D03*
X40741Y31837D02*
D03*
X40348Y31050D02*
D03*
Y18452D02*
D03*
X40741Y17664D02*
D03*
X40348Y16877D02*
D03*
X40741Y16089D02*
D03*
X40348Y15302D02*
D03*
X40741Y14515D02*
D03*
Y12940D02*
D03*
Y11365D02*
D03*
X40348Y9003D02*
D03*
X39954Y41286D02*
D03*
X39560Y40499D02*
D03*
X39954Y39711D02*
D03*
X39560Y38924D02*
D03*
X39954Y38137D02*
D03*
X39560Y37349D02*
D03*
X39954Y36562D02*
D03*
X39560Y35774D02*
D03*
X39954Y34987D02*
D03*
X39560Y34200D02*
D03*
X39954Y33412D02*
D03*
X39560Y32625D02*
D03*
X39954Y31837D02*
D03*
X39560Y31050D02*
D03*
Y27900D02*
D03*
Y26326D02*
D03*
X39954Y25538D02*
D03*
X39560Y20026D02*
D03*
Y18452D02*
D03*
Y16877D02*
D03*
X39954Y16089D02*
D03*
X39560Y15302D02*
D03*
Y13727D02*
D03*
Y12152D02*
D03*
Y9003D02*
D03*
X39167Y41286D02*
D03*
X38773Y40499D02*
D03*
X39167Y39711D02*
D03*
X38773Y38924D02*
D03*
X39167Y38137D02*
D03*
X38773Y37349D02*
D03*
X39167Y36562D02*
D03*
X38773Y35774D02*
D03*
X39167Y34987D02*
D03*
X38773Y34200D02*
D03*
X39167Y33412D02*
D03*
X38773Y32625D02*
D03*
X39167Y31837D02*
D03*
X38773Y31050D02*
D03*
Y27900D02*
D03*
Y26326D02*
D03*
X39167Y25538D02*
D03*
Y20814D02*
D03*
X38773Y20026D02*
D03*
Y18452D02*
D03*
Y16877D02*
D03*
X39167Y16089D02*
D03*
X38773Y15302D02*
D03*
X39167Y14515D02*
D03*
X38773Y12152D02*
D03*
X39167Y11365D02*
D03*
X38773Y10577D02*
D03*
X39167Y9790D02*
D03*
X38773Y9003D02*
D03*
X38379Y41286D02*
D03*
X37986Y40499D02*
D03*
X38379Y39711D02*
D03*
X37986Y38924D02*
D03*
X38379Y38137D02*
D03*
X37986Y37349D02*
D03*
X38379Y36562D02*
D03*
X37986Y35774D02*
D03*
X38379Y34987D02*
D03*
X37986Y34200D02*
D03*
X38379Y33412D02*
D03*
X37986Y32625D02*
D03*
X38379Y31837D02*
D03*
X37986Y31050D02*
D03*
Y26326D02*
D03*
X38379Y25538D02*
D03*
Y23963D02*
D03*
Y20814D02*
D03*
X37986Y20026D02*
D03*
X38379Y16089D02*
D03*
X37986Y15302D02*
D03*
Y12152D02*
D03*
X38379Y11365D02*
D03*
Y9790D02*
D03*
X37986Y9003D02*
D03*
X37592Y41286D02*
D03*
X37198Y40499D02*
D03*
X37592Y39711D02*
D03*
X37198Y38924D02*
D03*
X37592Y38137D02*
D03*
X37198Y37349D02*
D03*
X37592Y36562D02*
D03*
Y34987D02*
D03*
X37198Y34200D02*
D03*
X37592Y33412D02*
D03*
X37198Y32625D02*
D03*
X37592Y31837D02*
D03*
X37198Y31050D02*
D03*
X37592Y30263D02*
D03*
X37198Y29475D02*
D03*
X37592Y27113D02*
D03*
Y22389D02*
D03*
Y20814D02*
D03*
X37198Y20026D02*
D03*
Y18452D02*
D03*
Y16877D02*
D03*
Y15302D02*
D03*
X37592Y14515D02*
D03*
X37198Y12152D02*
D03*
Y10577D02*
D03*
X37592Y9790D02*
D03*
X37198Y9003D02*
D03*
X36804Y41286D02*
D03*
X36411Y40499D02*
D03*
X36804Y36562D02*
D03*
Y34987D02*
D03*
Y33412D02*
D03*
X36411Y32625D02*
D03*
X36804Y31837D02*
D03*
X36411Y31050D02*
D03*
X36804Y30263D02*
D03*
Y23963D02*
D03*
Y22389D02*
D03*
X36411Y20026D02*
D03*
Y16877D02*
D03*
Y15302D02*
D03*
X36804Y14515D02*
D03*
X36411Y13727D02*
D03*
X36804Y12940D02*
D03*
X36411Y12152D02*
D03*
X36804Y11365D02*
D03*
X36411Y10577D02*
D03*
X36804Y9790D02*
D03*
X36017Y41286D02*
D03*
X35623Y40499D02*
D03*
X36017Y39711D02*
D03*
Y38137D02*
D03*
Y36562D02*
D03*
X35623Y35774D02*
D03*
X36017Y34987D02*
D03*
Y33412D02*
D03*
X35623Y32625D02*
D03*
X36017Y31837D02*
D03*
X35623Y29475D02*
D03*
Y27900D02*
D03*
Y23176D02*
D03*
X36017Y22389D02*
D03*
Y20814D02*
D03*
X35623Y20026D02*
D03*
Y18452D02*
D03*
X36017Y16089D02*
D03*
X35623Y13727D02*
D03*
X36017Y12940D02*
D03*
X35623Y12152D02*
D03*
X36017Y11365D02*
D03*
X35230Y41286D02*
D03*
X34836Y40499D02*
D03*
Y38924D02*
D03*
X35230Y38137D02*
D03*
X34836Y37349D02*
D03*
X35230Y36562D02*
D03*
Y34987D02*
D03*
X34836Y34200D02*
D03*
X35230Y33412D02*
D03*
X34836Y32625D02*
D03*
X35230Y31837D02*
D03*
X34836Y29475D02*
D03*
Y23176D02*
D03*
X35230Y22389D02*
D03*
Y20814D02*
D03*
X34836Y20026D02*
D03*
X35230Y19239D02*
D03*
X34836Y18452D02*
D03*
X35230Y17664D02*
D03*
Y16089D02*
D03*
X34836Y15302D02*
D03*
Y12152D02*
D03*
X35230Y11365D02*
D03*
X34442Y41286D02*
D03*
X34049Y40499D02*
D03*
Y38924D02*
D03*
Y37349D02*
D03*
X34442Y36562D02*
D03*
X34049Y35774D02*
D03*
Y34200D02*
D03*
X34442Y33412D02*
D03*
Y31837D02*
D03*
X34049Y29475D02*
D03*
X34442Y22389D02*
D03*
Y20814D02*
D03*
X34049Y20026D02*
D03*
X34442Y19239D02*
D03*
X34049Y18452D02*
D03*
X34442Y17664D02*
D03*
X34049Y16877D02*
D03*
X34442Y16089D02*
D03*
X34049Y15302D02*
D03*
Y13727D02*
D03*
Y12152D02*
D03*
X33655Y41286D02*
D03*
X33261Y40499D02*
D03*
Y38924D02*
D03*
Y35774D02*
D03*
Y34200D02*
D03*
X33655Y33412D02*
D03*
Y31837D02*
D03*
X33261Y24751D02*
D03*
X33655Y20814D02*
D03*
Y19239D02*
D03*
Y17664D02*
D03*
Y16089D02*
D03*
Y14515D02*
D03*
X33261Y13727D02*
D03*
X33655Y12940D02*
D03*
X32867Y41286D02*
D03*
X32474Y40499D02*
D03*
X32867Y38137D02*
D03*
Y36562D02*
D03*
X32474Y35774D02*
D03*
Y34200D02*
D03*
X32867Y33412D02*
D03*
Y31837D02*
D03*
Y27113D02*
D03*
Y22389D02*
D03*
Y20814D02*
D03*
X32474Y20026D02*
D03*
X32867Y19239D02*
D03*
X32474Y18452D02*
D03*
X32867Y17664D02*
D03*
X32474Y16877D02*
D03*
X32867Y16089D02*
D03*
X32474Y15302D02*
D03*
Y13727D02*
D03*
X32080Y41286D02*
D03*
X31686Y40499D02*
D03*
X32080Y38137D02*
D03*
X31686Y37349D02*
D03*
Y35774D02*
D03*
Y29475D02*
D03*
X32080Y28688D02*
D03*
X31686Y27900D02*
D03*
X32080Y27113D02*
D03*
Y23963D02*
D03*
Y20814D02*
D03*
X31686Y20026D02*
D03*
X32080Y19239D02*
D03*
X31686Y18452D02*
D03*
X32080Y17664D02*
D03*
X31686Y16877D02*
D03*
X32080Y16089D02*
D03*
X31686Y15302D02*
D03*
Y13727D02*
D03*
X31293Y41286D02*
D03*
X30899Y40499D02*
D03*
Y38924D02*
D03*
Y35774D02*
D03*
Y31050D02*
D03*
Y29475D02*
D03*
X31293Y28688D02*
D03*
X30899Y27900D02*
D03*
X31293Y27113D02*
D03*
Y23963D02*
D03*
Y20814D02*
D03*
X30899Y20026D02*
D03*
X31293Y19239D02*
D03*
X30899Y18452D02*
D03*
X31293Y17664D02*
D03*
X30899Y16877D02*
D03*
X31293Y16089D02*
D03*
X30899Y15302D02*
D03*
X31293Y14515D02*
D03*
X30505Y41286D02*
D03*
X30112Y40499D02*
D03*
Y38924D02*
D03*
X30505Y38137D02*
D03*
Y31837D02*
D03*
X30112Y31050D02*
D03*
X30505Y30263D02*
D03*
X30112Y29475D02*
D03*
X30505Y28688D02*
D03*
Y23963D02*
D03*
Y20814D02*
D03*
X30112Y20026D02*
D03*
X30505Y19239D02*
D03*
X30112Y18452D02*
D03*
X30505Y17664D02*
D03*
X30112Y16877D02*
D03*
X30505Y16089D02*
D03*
X29718Y41286D02*
D03*
X29324Y40499D02*
D03*
Y38924D02*
D03*
X29718Y38137D02*
D03*
X29324Y37349D02*
D03*
Y35774D02*
D03*
X29718Y31837D02*
D03*
X29324Y31050D02*
D03*
X29718Y30263D02*
D03*
X29324Y29475D02*
D03*
X29718Y28688D02*
D03*
X29324Y27900D02*
D03*
X29718Y27113D02*
D03*
X29324Y26326D02*
D03*
X29718Y25538D02*
D03*
X29324Y24751D02*
D03*
X29718Y23963D02*
D03*
Y20814D02*
D03*
X29324Y20026D02*
D03*
X29718Y19239D02*
D03*
X29324Y18452D02*
D03*
X29718Y17664D02*
D03*
X29324Y16877D02*
D03*
X29718Y16089D02*
D03*
X28930Y41286D02*
D03*
X28537Y40499D02*
D03*
Y38924D02*
D03*
X28930Y38137D02*
D03*
X28537Y37349D02*
D03*
X28930Y36562D02*
D03*
X28537Y35774D02*
D03*
Y32625D02*
D03*
X28930Y31837D02*
D03*
X28537Y31050D02*
D03*
X28930Y30263D02*
D03*
X28537Y29475D02*
D03*
X28930Y28688D02*
D03*
Y27113D02*
D03*
X28537Y26326D02*
D03*
X28930Y25538D02*
D03*
Y23963D02*
D03*
Y22389D02*
D03*
X28537Y20026D02*
D03*
Y18452D02*
D03*
Y16877D02*
D03*
X28143Y41286D02*
D03*
X27749Y40499D02*
D03*
Y38924D02*
D03*
X28143Y38137D02*
D03*
X27749Y37349D02*
D03*
X28143Y36562D02*
D03*
X27749Y35774D02*
D03*
Y32625D02*
D03*
Y31050D02*
D03*
Y29475D02*
D03*
Y26326D02*
D03*
X28143Y22389D02*
D03*
Y20814D02*
D03*
X27749Y20026D02*
D03*
X28143Y19239D02*
D03*
X27749Y18452D02*
D03*
X28143Y17664D02*
D03*
X27356Y41286D02*
D03*
X26962Y40499D02*
D03*
Y38924D02*
D03*
X27356Y38137D02*
D03*
X26962Y37349D02*
D03*
X27356Y36562D02*
D03*
X26962Y35774D02*
D03*
X27356Y34987D02*
D03*
X26962Y34200D02*
D03*
X27356Y23963D02*
D03*
Y22389D02*
D03*
Y20814D02*
D03*
X26962Y20026D02*
D03*
X27356Y19239D02*
D03*
X26962Y18452D02*
D03*
X26568Y41286D02*
D03*
X26175Y40499D02*
D03*
X26568Y38137D02*
D03*
Y33412D02*
D03*
X26175Y32625D02*
D03*
X26568Y31837D02*
D03*
X26175Y31050D02*
D03*
X26568Y30263D02*
D03*
X26175Y29475D02*
D03*
X26568Y28688D02*
D03*
Y27113D02*
D03*
X26175Y26326D02*
D03*
X26568Y25538D02*
D03*
X26175Y24751D02*
D03*
X26568Y23963D02*
D03*
X26175Y21601D02*
D03*
X26568Y20814D02*
D03*
X26175Y20026D02*
D03*
X26568Y19239D02*
D03*
X25781Y41286D02*
D03*
X25387Y40499D02*
D03*
Y38924D02*
D03*
X25781Y38137D02*
D03*
Y31837D02*
D03*
Y28688D02*
D03*
X25387Y27900D02*
D03*
Y23176D02*
D03*
X25781Y22389D02*
D03*
X25387Y21601D02*
D03*
X25781Y20814D02*
D03*
X25387Y20026D02*
D03*
X24993Y41286D02*
D03*
X24600Y40499D02*
D03*
Y35774D02*
D03*
Y34200D02*
D03*
X24993Y33412D02*
D03*
Y31837D02*
D03*
Y28688D02*
D03*
X24600Y27900D02*
D03*
X24993Y23963D02*
D03*
X24600Y23176D02*
D03*
Y21601D02*
D03*
X24206Y41286D02*
D03*
X23812Y40499D02*
D03*
Y38924D02*
D03*
X24206Y38137D02*
D03*
X23812Y37349D02*
D03*
X24206Y36562D02*
D03*
X23812Y35774D02*
D03*
Y34200D02*
D03*
X24206Y31837D02*
D03*
X23812Y27900D02*
D03*
X24206Y23963D02*
D03*
X23812Y23176D02*
D03*
X24206Y22389D02*
D03*
X23812Y21601D02*
D03*
X24206Y20814D02*
D03*
X23419Y41286D02*
D03*
X23025Y38924D02*
D03*
X23419Y38137D02*
D03*
Y31837D02*
D03*
Y28688D02*
D03*
Y23963D02*
D03*
X23025Y23176D02*
D03*
X23419Y22389D02*
D03*
X22631Y41286D02*
D03*
X22238Y40499D02*
D03*
X22631Y36562D02*
D03*
X22238Y35774D02*
D03*
X22631Y34987D02*
D03*
X22238Y34200D02*
D03*
X22631Y33412D02*
D03*
Y31837D02*
D03*
Y28688D02*
D03*
Y23963D02*
D03*
Y22389D02*
D03*
X21844Y41286D02*
D03*
X21450Y40499D02*
D03*
Y38924D02*
D03*
X21844Y38137D02*
D03*
Y36562D02*
D03*
X21450Y35774D02*
D03*
X21844Y34987D02*
D03*
Y33412D02*
D03*
Y31837D02*
D03*
X21450Y31050D02*
D03*
X21844Y28688D02*
D03*
X21450Y26326D02*
D03*
Y24751D02*
D03*
X21844Y23963D02*
D03*
X21056Y41286D02*
D03*
X20663Y40499D02*
D03*
X21056Y39711D02*
D03*
X20663Y37349D02*
D03*
X21056Y36562D02*
D03*
X20663Y35774D02*
D03*
X21056Y31837D02*
D03*
Y30263D02*
D03*
X20663Y29475D02*
D03*
X21056Y28688D02*
D03*
X20663Y26326D02*
D03*
X21056Y25538D02*
D03*
X20663Y24751D02*
D03*
X21056Y23963D02*
D03*
X20269Y41286D02*
D03*
X19875Y40499D02*
D03*
X20269Y38137D02*
D03*
Y36562D02*
D03*
X19875Y35774D02*
D03*
X20269Y30263D02*
D03*
X19875Y29475D02*
D03*
Y26326D02*
D03*
X20269Y25538D02*
D03*
X19482Y41286D02*
D03*
X19088Y40499D02*
D03*
Y34200D02*
D03*
Y31050D02*
D03*
X19482Y30263D02*
D03*
X19088Y26326D02*
D03*
X19482Y25538D02*
D03*
X18694Y41286D02*
D03*
X18300Y40499D02*
D03*
Y38924D02*
D03*
X18694Y34987D02*
D03*
X18300Y34200D02*
D03*
X18694Y33412D02*
D03*
X18300Y32625D02*
D03*
X18694Y28688D02*
D03*
X17907Y41286D02*
D03*
X17513Y40499D02*
D03*
X17907Y38137D02*
D03*
X17513Y37349D02*
D03*
Y34200D02*
D03*
X17907Y33412D02*
D03*
X17513Y32625D02*
D03*
X17907Y31837D02*
D03*
X17513Y31050D02*
D03*
X17907Y30263D02*
D03*
X17513Y29475D02*
D03*
X17907Y28688D02*
D03*
X17513Y27900D02*
D03*
X17119Y41286D02*
D03*
X16726Y40499D02*
D03*
X17119Y39711D02*
D03*
X16726Y38924D02*
D03*
Y37349D02*
D03*
X17119Y36562D02*
D03*
X16726Y29475D02*
D03*
X17119Y28688D02*
D03*
X16726Y27900D02*
D03*
X16332Y41286D02*
D03*
X15938Y38924D02*
D03*
X16332Y38137D02*
D03*
X15938Y37349D02*
D03*
X16332Y36562D02*
D03*
X15938Y35774D02*
D03*
Y29475D02*
D03*
X16332Y28688D02*
D03*
X15545Y41286D02*
D03*
X15151Y40499D02*
D03*
X15545Y39711D02*
D03*
X15151Y38924D02*
D03*
Y37349D02*
D03*
X15545Y36562D02*
D03*
X15151Y35774D02*
D03*
X15545Y34987D02*
D03*
X14757Y41286D02*
D03*
X14363Y40499D02*
D03*
X14757Y39711D02*
D03*
X14363Y38924D02*
D03*
Y37349D02*
D03*
X14757Y36562D02*
D03*
X14363Y35774D02*
D03*
Y31050D02*
D03*
X13970Y41286D02*
D03*
Y39711D02*
D03*
Y38137D02*
D03*
Y36562D02*
D03*
Y31837D02*
D03*
X13182Y41286D02*
D03*
X12789Y32625D02*
D03*
X12395Y41286D02*
D03*
Y33412D02*
D03*
X11608Y41286D02*
D03*
X11214Y40499D02*
D03*
Y35774D02*
D03*
Y34200D02*
D03*
X10820Y41286D02*
D03*
X10426Y40499D02*
D03*
Y38924D02*
D03*
Y37349D02*
D03*
X10820Y36562D02*
D03*
X10426Y35774D02*
D03*
X10820Y34987D02*
D03*
X10033Y41286D02*
D03*
X9639Y40499D02*
D03*
X10033Y39711D02*
D03*
X9639Y38924D02*
D03*
X10033Y38137D02*
D03*
X9639Y37349D02*
D03*
X10033Y36562D02*
D03*
X9639Y35774D02*
D03*
X9245Y41286D02*
D03*
X8852Y40499D02*
D03*
X9245Y39711D02*
D03*
X8852Y38924D02*
D03*
X9245Y38137D02*
D03*
X8852Y37349D02*
D03*
X9245Y36562D02*
D03*
X8458Y41286D02*
D03*
X8064Y40499D02*
D03*
X8458Y39711D02*
D03*
X8064Y38924D02*
D03*
X8458Y38137D02*
D03*
X8064Y37349D02*
D03*
X8458Y36562D02*
D03*
X7671Y41286D02*
D03*
X7277Y40499D02*
D03*
X7671Y39711D02*
D03*
X7277Y38924D02*
D03*
X7671Y38137D02*
D03*
X7277Y37349D02*
D03*
X7671Y36562D02*
D03*
X6883Y41286D02*
D03*
X6489Y40499D02*
D03*
X6883Y39711D02*
D03*
X6489Y38924D02*
D03*
X6883Y38137D02*
D03*
X6489Y37349D02*
D03*
X6883Y36562D02*
D03*
X6096Y41286D02*
D03*
X5702Y40499D02*
D03*
X6096Y39711D02*
D03*
X5702Y38924D02*
D03*
X6096Y38137D02*
D03*
X5702Y37349D02*
D03*
X6096Y36562D02*
D03*
X5308Y41286D02*
D03*
X4915Y40499D02*
D03*
X5308Y39711D02*
D03*
X4915Y38924D02*
D03*
X5308Y38137D02*
D03*
X4915Y37349D02*
D03*
X5308Y36562D02*
D03*
X4521Y41286D02*
D03*
Y39711D02*
D03*
Y38137D02*
D03*
Y36562D02*
D03*
X11804Y12940D02*
D03*
X11608Y13333D02*
D03*
X11804Y13727D02*
D03*
X11608Y14121D02*
D03*
X11804Y14515D02*
D03*
X11608Y14908D02*
D03*
X11804Y15302D02*
D03*
X11608Y15696D02*
D03*
X11804Y16089D02*
D03*
X12198Y12940D02*
D03*
X12001Y13333D02*
D03*
X12198Y13727D02*
D03*
X12001Y14121D02*
D03*
X12198Y14515D02*
D03*
X12001Y14908D02*
D03*
X12198Y15302D02*
D03*
X12001Y15696D02*
D03*
X12198Y16089D02*
D03*
X12001Y16483D02*
D03*
X12198Y16877D02*
D03*
X12395Y12546D02*
D03*
X12592Y12940D02*
D03*
X12395Y13333D02*
D03*
X12592Y13727D02*
D03*
X12395Y14121D02*
D03*
X12592Y14515D02*
D03*
X12395Y14908D02*
D03*
X12592Y15302D02*
D03*
X12395Y15696D02*
D03*
X12592Y16089D02*
D03*
X12395Y16483D02*
D03*
X12592Y16877D02*
D03*
X12789Y12546D02*
D03*
X12986Y12940D02*
D03*
X12789Y13333D02*
D03*
Y14121D02*
D03*
X12986Y14515D02*
D03*
X12789Y14908D02*
D03*
Y16483D02*
D03*
X12986Y16877D02*
D03*
X13182Y12546D02*
D03*
X13379Y12940D02*
D03*
Y14515D02*
D03*
X13182Y14908D02*
D03*
Y16483D02*
D03*
X13379Y16877D02*
D03*
X13576Y12546D02*
D03*
X44875Y5853D02*
D03*
X44678Y6247D02*
D03*
X45072Y1522D02*
D03*
Y2310D02*
D03*
Y3097D02*
D03*
Y3885D02*
D03*
Y4672D02*
D03*
Y5459D02*
D03*
X43301Y5853D02*
D03*
X43104Y6247D02*
D03*
X43497Y735D02*
D03*
X43694Y1129D02*
D03*
X43497Y1522D02*
D03*
X43694Y1916D02*
D03*
X43497Y2310D02*
D03*
X43694Y2703D02*
D03*
X43497Y3097D02*
D03*
X43694Y3491D02*
D03*
X43497Y3885D02*
D03*
X43694Y4278D02*
D03*
X43497Y4672D02*
D03*
X43694Y5066D02*
D03*
X43497Y5459D02*
D03*
X43694Y5853D02*
D03*
X43497Y6247D02*
D03*
X43891Y735D02*
D03*
X44088Y1129D02*
D03*
X43891Y1522D02*
D03*
X44088Y1916D02*
D03*
X43891Y2310D02*
D03*
X44088Y2703D02*
D03*
X43891Y3097D02*
D03*
X44088Y3491D02*
D03*
X43891Y3885D02*
D03*
X44088Y4278D02*
D03*
X43891Y4672D02*
D03*
X44088Y5066D02*
D03*
X43891Y5459D02*
D03*
X44088Y5853D02*
D03*
X43891Y6247D02*
D03*
X44285Y735D02*
D03*
X44482Y1129D02*
D03*
X44285Y1522D02*
D03*
X44482Y1916D02*
D03*
X44285Y2310D02*
D03*
X44482Y2703D02*
D03*
X44285Y3097D02*
D03*
X44482Y3491D02*
D03*
X44285Y3885D02*
D03*
X44482Y4278D02*
D03*
X44285Y4672D02*
D03*
X44482Y5066D02*
D03*
X44285Y5459D02*
D03*
X44482Y5853D02*
D03*
X44285Y6247D02*
D03*
X44875Y1129D02*
D03*
X44678Y1522D02*
D03*
X44875Y1916D02*
D03*
X44678Y2310D02*
D03*
X44875Y2703D02*
D03*
X44678Y3097D02*
D03*
X44875Y3491D02*
D03*
X44678Y3885D02*
D03*
X44875Y4278D02*
D03*
X44678Y4672D02*
D03*
X44875Y5066D02*
D03*
X44678Y5459D02*
D03*
X41726Y2703D02*
D03*
X41529Y3097D02*
D03*
X41726Y3491D02*
D03*
Y4278D02*
D03*
Y5066D02*
D03*
Y5853D02*
D03*
X41923Y735D02*
D03*
X42119Y1129D02*
D03*
X41923Y1522D02*
D03*
X42119Y1916D02*
D03*
X41923Y2310D02*
D03*
X42119Y2703D02*
D03*
X41923Y3097D02*
D03*
X42119Y3491D02*
D03*
X41923Y3885D02*
D03*
X42119Y4278D02*
D03*
X41923Y4672D02*
D03*
X42119Y5066D02*
D03*
X41923Y5459D02*
D03*
X42119Y5853D02*
D03*
X41923Y6247D02*
D03*
X42316Y735D02*
D03*
X42513Y1129D02*
D03*
X42316Y1522D02*
D03*
X42513Y1916D02*
D03*
X42316Y2310D02*
D03*
X42513Y2703D02*
D03*
X42316Y3097D02*
D03*
X42513Y3491D02*
D03*
X42316Y3885D02*
D03*
X42513Y4278D02*
D03*
X42316Y4672D02*
D03*
X42513Y5066D02*
D03*
X42316Y5459D02*
D03*
X42513Y5853D02*
D03*
X42316Y6247D02*
D03*
X42710Y735D02*
D03*
X42907Y1129D02*
D03*
X42710Y1522D02*
D03*
X42907Y1916D02*
D03*
X42710Y2310D02*
D03*
X42907Y2703D02*
D03*
X42710Y3097D02*
D03*
X42907Y3491D02*
D03*
X42710Y3885D02*
D03*
X42907Y4278D02*
D03*
X42710Y4672D02*
D03*
X42907Y5066D02*
D03*
X42710Y5459D02*
D03*
X42907Y5853D02*
D03*
X42710Y6247D02*
D03*
X43104Y735D02*
D03*
X43301Y1129D02*
D03*
X43104Y1522D02*
D03*
X43301Y1916D02*
D03*
X43104Y2310D02*
D03*
X43301Y2703D02*
D03*
X43104Y3097D02*
D03*
X43301Y3491D02*
D03*
X43104Y3885D02*
D03*
X43301Y4278D02*
D03*
X43104Y4672D02*
D03*
X43301Y5066D02*
D03*
X43104Y5459D02*
D03*
X24993Y7822D02*
D03*
X25190Y8215D02*
D03*
X24993Y8609D02*
D03*
X25190Y9003D02*
D03*
X25387Y735D02*
D03*
X25584Y1129D02*
D03*
X25387Y7822D02*
D03*
Y8609D02*
D03*
X25781Y735D02*
D03*
X25978Y1129D02*
D03*
X26175Y735D02*
D03*
X26371Y1129D02*
D03*
X26568Y735D02*
D03*
X26765Y1129D02*
D03*
X26962Y735D02*
D03*
X27159Y1129D02*
D03*
X27356Y735D02*
D03*
X27552Y1129D02*
D03*
X27749Y735D02*
D03*
Y1522D02*
D03*
X28143Y735D02*
D03*
X28537D02*
D03*
X28930Y5459D02*
D03*
Y6247D02*
D03*
Y7034D02*
D03*
Y7822D02*
D03*
X29521Y5066D02*
D03*
X29324Y5459D02*
D03*
X29915Y5066D02*
D03*
X29718Y5459D02*
D03*
X30308Y5066D02*
D03*
X30112Y5459D02*
D03*
X30702Y5066D02*
D03*
X30505Y5459D02*
D03*
X31096Y5066D02*
D03*
X30899Y5459D02*
D03*
X31489Y5066D02*
D03*
X31293Y5459D02*
D03*
X39167Y1522D02*
D03*
X39757Y1129D02*
D03*
X39560Y1522D02*
D03*
X39954Y735D02*
D03*
X40151Y1129D02*
D03*
X39954Y1522D02*
D03*
X40348Y735D02*
D03*
X40545Y1129D02*
D03*
X40348Y1522D02*
D03*
X40545Y1916D02*
D03*
X40741Y735D02*
D03*
X40938Y1129D02*
D03*
X40741Y1522D02*
D03*
X40938Y1916D02*
D03*
X40741Y2310D02*
D03*
X41135Y735D02*
D03*
X41332Y1129D02*
D03*
X41135Y1522D02*
D03*
X41332Y1916D02*
D03*
X41135Y2310D02*
D03*
X41332Y2703D02*
D03*
X41529Y735D02*
D03*
X41726Y1129D02*
D03*
X41529Y1522D02*
D03*
X41726Y1916D02*
D03*
X41529Y2310D02*
D03*
X15545Y13333D02*
D03*
Y14121D02*
D03*
Y14908D02*
D03*
Y15696D02*
D03*
Y16483D02*
D03*
X22041Y1129D02*
D03*
X22238Y735D02*
D03*
X22434Y1129D02*
D03*
X22631Y735D02*
D03*
X22828Y1129D02*
D03*
Y6640D02*
D03*
X22631Y7034D02*
D03*
X22828Y7428D02*
D03*
X22631Y7822D02*
D03*
X22828Y8215D02*
D03*
X22631Y8609D02*
D03*
X22828Y9003D02*
D03*
X23025Y735D02*
D03*
X23222Y1129D02*
D03*
Y6640D02*
D03*
X23025Y7034D02*
D03*
X23222Y7428D02*
D03*
X23025Y7822D02*
D03*
X23222Y8215D02*
D03*
X23025Y8609D02*
D03*
X23222Y9003D02*
D03*
X23419Y735D02*
D03*
X23615Y1129D02*
D03*
Y6640D02*
D03*
X23419Y7034D02*
D03*
X23615Y7428D02*
D03*
X23419Y7822D02*
D03*
X23615Y8215D02*
D03*
X23419Y8609D02*
D03*
X23615Y9003D02*
D03*
X23812Y735D02*
D03*
X24009Y1129D02*
D03*
Y6640D02*
D03*
X23812Y7034D02*
D03*
X24009Y7428D02*
D03*
X23812Y7822D02*
D03*
X24009Y8215D02*
D03*
X23812Y8609D02*
D03*
X24009Y9003D02*
D03*
X24206Y735D02*
D03*
X24403Y1129D02*
D03*
Y6640D02*
D03*
X24206Y7034D02*
D03*
X24403Y7428D02*
D03*
X24206Y7822D02*
D03*
X24403Y8215D02*
D03*
X24206Y8609D02*
D03*
X24403Y9003D02*
D03*
X24600Y735D02*
D03*
X24797Y1129D02*
D03*
X24600Y7034D02*
D03*
X24797Y7428D02*
D03*
X24600Y7822D02*
D03*
X24797Y8215D02*
D03*
X24600Y8609D02*
D03*
X24797Y9003D02*
D03*
X24993Y735D02*
D03*
X25190Y1129D02*
D03*
Y7428D02*
D03*
X13773Y12940D02*
D03*
Y14515D02*
D03*
X13576Y14908D02*
D03*
Y16483D02*
D03*
X13773Y16877D02*
D03*
X13970Y12546D02*
D03*
X14167Y12940D02*
D03*
Y14515D02*
D03*
X13970Y14908D02*
D03*
X14167Y15302D02*
D03*
Y16089D02*
D03*
X13970Y16483D02*
D03*
X14167Y16877D02*
D03*
X14363Y12546D02*
D03*
X14560Y12940D02*
D03*
X14363Y13333D02*
D03*
X14560Y13727D02*
D03*
X14363Y14121D02*
D03*
X14560Y14515D02*
D03*
X14363Y14908D02*
D03*
X14560Y15302D02*
D03*
X14363Y15696D02*
D03*
X14560Y16089D02*
D03*
X14363Y16483D02*
D03*
X14560Y16877D02*
D03*
X14757Y12546D02*
D03*
X14954Y12940D02*
D03*
X14757Y13333D02*
D03*
X14954Y13727D02*
D03*
X14757Y14121D02*
D03*
X14954Y14515D02*
D03*
X14757Y14908D02*
D03*
X14954Y15302D02*
D03*
X14757Y15696D02*
D03*
X14954Y16089D02*
D03*
X14757Y16483D02*
D03*
X14954Y16877D02*
D03*
X15348Y12940D02*
D03*
X15151Y13333D02*
D03*
X15348Y13727D02*
D03*
X15151Y14121D02*
D03*
X15348Y14515D02*
D03*
X15151Y14908D02*
D03*
X15348Y15302D02*
D03*
X15151Y15696D02*
D03*
X15348Y16089D02*
D03*
X15151Y16483D02*
D03*
X15348Y16877D02*
D03*
X37937Y22473D02*
D03*
X34030Y23280D02*
D03*
X33237Y23040D02*
D03*
X34476Y28146D02*
D03*
X38840Y23340D02*
D03*
X39280Y23350D02*
D03*
X39360Y24710D02*
D03*
X38760Y24080D02*
D03*
X25880Y33170D02*
D03*
X28030D02*
D03*
X34030Y21990D02*
D03*
X37328Y27412D02*
D03*
X25750Y28220D02*
D03*
X28930D02*
D03*
D40*
X54960Y1430D02*
D03*
X990Y1040D02*
D03*
X54650Y15370D02*
D03*
D41*
X23881Y30233D02*
D03*
X23920Y26060D02*
D03*
D42*
X20236Y31643D02*
D03*
D43*
X19330Y29360D02*
D03*
X20236D02*
D03*
X21141D02*
D03*
D44*
X20400Y34220D02*
D03*
D45*
X21300Y37133D02*
D03*
X19500Y37133D02*
D03*
D46*
X23319Y33753D02*
D03*
X24219D02*
D03*
X23319Y34553D02*
D03*
X24219D02*
D03*
X23319Y35353D02*
D03*
X24219D02*
D03*
X31989Y34200D02*
D03*
X31089D02*
D03*
X31989Y34973D02*
D03*
X31089D02*
D03*
D47*
X29829Y37553D02*
D03*
Y37053D02*
D03*
Y36553D02*
D03*
Y36053D02*
D03*
Y35553D02*
D03*
Y35053D02*
D03*
Y34553D02*
D03*
Y34053D02*
D03*
X26109Y37553D02*
D03*
Y37053D02*
D03*
Y36553D02*
D03*
Y36053D02*
D03*
Y35553D02*
D03*
Y35053D02*
D03*
Y34553D02*
D03*
Y34053D02*
D03*
D48*
X36169Y35999D02*
D03*
X36543Y36983D02*
D03*
X36917Y35999D02*
D03*
D49*
X32302Y29930D02*
D03*
X31318D02*
D03*
D50*
X34535Y29917D02*
D03*
Y30783D02*
D03*
X33865D02*
D03*
Y29917D02*
D03*
D51*
X36241Y30652D02*
D03*
Y29904D02*
D03*
X36499Y21356D02*
D03*
Y20608D02*
D03*
D52*
X33651Y25412D02*
D03*
X33790Y25273D02*
D03*
X33929Y25134D02*
D03*
X34068Y24994D02*
D03*
X34208Y24855D02*
D03*
X34347Y24716D02*
D03*
X34486Y24577D02*
D03*
X34625Y24438D02*
D03*
X34764Y24298D02*
D03*
X34904Y24159D02*
D03*
X35043Y24020D02*
D03*
X35182Y23881D02*
D03*
X37509Y26208D02*
D03*
X37370Y26347D02*
D03*
X37231Y26486D02*
D03*
X37092Y26626D02*
D03*
X36952Y26765D02*
D03*
X36813Y26904D02*
D03*
X36674Y27043D02*
D03*
X36535Y27182D02*
D03*
X36396Y27322D02*
D03*
X36256Y27461D02*
D03*
X36117Y27600D02*
D03*
X35978Y27739D02*
D03*
D53*
Y23881D02*
D03*
X36117Y24020D02*
D03*
X36256Y24159D02*
D03*
X36396Y24298D02*
D03*
X36535Y24438D02*
D03*
X36674Y24577D02*
D03*
X36813Y24716D02*
D03*
X36952Y24855D02*
D03*
X37092Y24994D02*
D03*
X37231Y25134D02*
D03*
X37370Y25273D02*
D03*
X37509Y25412D02*
D03*
X35182Y27739D02*
D03*
X35043Y27600D02*
D03*
X34904Y27461D02*
D03*
X34764Y27322D02*
D03*
X34625Y27182D02*
D03*
X34486Y27043D02*
D03*
X34347Y26904D02*
D03*
X34208Y26765D02*
D03*
X34068Y26626D02*
D03*
X33929Y26486D02*
D03*
X33790Y26347D02*
D03*
X33651Y26208D02*
D03*
D54*
X29988Y26611D02*
D03*
X30736D02*
D03*
Y24951D02*
D03*
X29988D02*
D03*
X40752Y27159D02*
D03*
X40004D02*
D03*
D55*
X50410Y10162D02*
D03*
X50910D02*
D03*
X51410D02*
D03*
X51910D02*
D03*
X50410Y7938D02*
D03*
X50910D02*
D03*
X51410D02*
D03*
X51910D02*
D03*
D56*
X33865Y30783D02*
X34535Y29917D01*
D57*
X28030Y33170D02*
X29741D01*
X31851D02*
X31989Y33308D01*
Y34200D01*
X29829Y33170D02*
X31851D01*
X29829D02*
Y34053D01*
X36134Y35449D02*
X36134Y35449D01*
X36917D01*
X36917Y35449D02*
Y35999D01*
X36917Y35449D02*
X36917Y35449D01*
X36547Y36987D02*
Y37539D01*
X36540Y38446D02*
Y39600D01*
X30307Y34553D02*
X30640Y34220D01*
X31069D02*
X31089Y34200D01*
X29829Y34553D02*
X30307D01*
X30640Y34220D02*
X31069D01*
X31009Y35053D02*
X31089Y34973D01*
X29829Y35053D02*
X31009D01*
X31989Y34200D02*
Y34973D01*
X24219Y33753D02*
X24232Y33740D01*
X25000D01*
X25313Y34053D01*
X26109D01*
X24219Y34553D02*
X26109D01*
X24967Y35353D02*
X25267Y35053D01*
X26109D01*
X24219Y35353D02*
X24967D01*
D58*
X49556Y7944D02*
X50404D01*
%TF.MD5,22b08e8338483d61a294276db1f7c75d*%
M02*
