M48
;Layer_Color=9474304
;FILE_FORMAT=2:5
INCH,LZ
;TYPE=PLATED
T1F00S00C0.00394
T2F00S00C0.00787
T3F00S00C0.03150
T4F00S00C0.03400
T5F00S00C0.03500
T6F00S00C0.03900
T7F00S00C0.04331
T8F00S00C0.04724
T9F00S00C0.05000
T10F00S00C0.05512
T11F00S00C0.07087
T12F00S00C0.12598
T13F00S00C0.13780
%
T01
X0494029Y0003413
X0501903
X0509777
X0517651
X0525525
X0533399
X0541273
X0537336Y0011287
X0529462
X0521588
X0513714
X050584
X0497966
X0560958
X0564895Y0003413
X0557021
X0285367Y0168767
X0293241
X0301115
X0308989
X0316863
X0324737
X0328674Y0160893
X0336548
X0344422
X0352296
X036017
X0364107Y0168767
X0371981
X0387729
X0395603
X0403477
X0411351
X0415288Y0160893
X0407414
X039954
X0391666
X0383792
X0387729Y0153019
X0395603
X0403477
X0407414Y0145145
X0415288
X0423163
X0431037
X0434974Y0137271
X04271
Y0121523
X0434974
X0442848
X0438911Y0129397
Y0113649
X0431037
X0423163
X0415288
X0407414
X0411351Y0121523
X0403477
X0395603
X0387729
X0379855
X0371981
X0364107
X0356233
X0348359
X0340485
X0336548Y0129397
X0340485Y0137271
X0332611
X0324737
X0316863
X0312926Y0145145
X0316863Y0153019
X0324737
X03208Y0160893
X0312926
X0305052
X0297178
X0308989Y0153019
X0340485
X0348359
X0364107
X0371981
X0379855
X0375918Y0145145
X0368044
X0364107Y0137271
X0356233
X036017Y0129397
X0368044
Y0113649
X036017
X0352296
X0364107Y0105775
X0371981
X0375918Y0097901
X0383792
X0391666
X0395603Y0090027
X0403477
X0387729
X0379855
X0371981
X0368044Y0097901
X0387729Y0105775
X0391666Y0113649
X0383792
X0411351Y0105775
X0419226
X04271
X0434974
X0442848
X0438911Y0097901
X0431037
X0423163
X0415288
X0407414Y0129397
X0411351Y0137271
X0403477
X0395603
X0391666Y0145145
X0431037Y0160893
X0434974Y0168767
X04271
X0340485
X0336548Y0145145
X0446785
X0462533
X046647Y0153019
X0474344
X0482218
Y0168767
X0474344
X046647
X0458596
X0450722
X0454659Y0160893
X0462533
X0470407
X0494029
X0501903
X0517651
X0525525
X0533399
X0537336Y0168767
X054521
X0553084
X0560958
X0564895Y0160893
X0557021
X0560958Y0153019
X0564895Y0145145
X0557021
X0560958Y0137271
X0553084
X054521
X0537336
X0529462
X0521588
X0525525Y0145145
X0533399
X0529462Y0153019
X0521588
X0517651Y0145145
Y0129397
X0525525
X0533399
X0541273
X0549147
X0557021
X0564895
X0560958Y0121523
X0553084
X054521
X0537336
X0529462
X0521588
X0525525Y0113649
X0533399
X0541273
X0549147
X0557021
X0564895
X0560958Y0105775
X0553084
X054521
X0537336
X0529462
X0521588
X0525525Y0097901
X0533399
X0541273
X0549147
X0557021
X0564895
X0560958Y0090027
X0553084
X054521
X0537336
X0529462
X0521588
X0513714
X050584
X0497966
X0490092
X0494029Y0097901
X0486155
X0478281
X0470407
X0462533
X0454659
X0446785
X0450722Y0105775
X0458596
X046647
X0474344
X0482218
X0490092
X0497966
X0501903Y0113649
X0494029
X0486155
X0478281
X0470407
X0462533
X0454659
X0446785
Y0129397
X046647Y0137271
Y0121523
X0494029Y0129397
Y0145145
X0521588Y0168767
X0529462
X0517651Y0113649
X0525525Y0082153
X0533399
X0541273
X0549147
X0557021
X0564895
X0560958Y0074279
X0553084
X054521
X0537336
X0529462
X0521588
X0513714
X050584
X0501903Y0066405
X0494029
X0486155
X0478281
X0482218Y0074279
X0490092
X0486155Y0082153
X0478281
X0470407
X0462533
X046647Y0074279
X0474344
X0482218Y0058531
X0490092
X0497966
X0494029Y0050657
X0497966Y0042783
X0501903Y0034909
X0509777
X0517651
X0525525
X0533399
X0541273
X0549147
X0557021
X0564895
X0560958Y0042783
X0553084
X054521
X0537336
X0541273Y0050657
X0549147
X0557021
X0564895
X0560958Y0058531
X0553084
X054521
X0537336
X0529462
X0521588
X0513714
X0517651Y0066405
X0525525
X0533399
X0541273
X0549147
X0557021
X0564895
X0560958Y0027035
X0553084
X054521
X0537336
X0529462
X0521588
X0513714
X050584
X0497966
X0501903Y0019161
X0509777
X0517651
X0525525
X0533399
X0564895
X0533399Y0050657
X0517651
X0513714Y0042783
X0494029Y0034909
Y0019161
X0446785Y0160893
Y0176641
X0454659
X0462533
X0470407
X0474344Y0184515
X0482218
X046647
X0458596
X0450722
X0454659Y0192389
X0462533
X0470407
X0474344Y0200263
X046647
X0458596
X0450722
X0454659Y0208137
X0446785
X0450722Y0216011
X0458596
X0454659Y0223885
X0458596Y0231759
X046647
X0470407Y0223885
X0474344Y0216011
X0482218
X0486155Y0208137
X0470407
X0494029Y0192389
X0501903
X0517651
X0525525
X0533399
X0537336Y0200263
X054521
X0553084
X0560958
X0564895Y0208137
X0557021
X0549147
X0541273
X0533399
X0525525
X0517651
X0521588Y0216011
X0529462
X0537336
X054521
X0553084
X0560958
X0564895Y0223885
X0557021
X0549147
X0541273
X0533399
X0525525
X0517651
X0521588Y0231759
X0529462
X0537336
X054521
X0553084
X0560958
X0564895Y0239633
X0557021
X0549147
X0541273
X0533399
X0525525
X0517651
X0521588Y0247507
X0529462
X0537336
X054521
X0553084
X0560958
X0564895Y0255381
X0557021
X0549147
X0541273
X0533399
X0525525
X0517651
X0521588Y0263255
X0529462
X0537336
X054521
X0553084
X0560958
X0564895Y0271129
X0557021
X0549147
X0541273
X0533399
X0525525
X0517651
X0509777
X0501903
X050584Y0279004
X0513714
X0521588
X0529462
X0537336
X054521
X0553084
X0560958
X0564895Y0286877
X0557021
X0549147
X0541273
X0533399
X0525525
X0517651
X0509777
X0501903
X0494029
X0486155
X0490092Y0294752
X0497966
X050584
X0513714
X0521588
X0529462
X0537336
X054521
X0553084
X0560958
X0564895Y0302625
X0557021
X0549147
X0541273
X0533399
X0525525
X0517651
X0509777
X0501903
X0494029
X0486155
X0478281
X0470407
X0462533
X0454659
X0446785
X0450722Y03105
X0458596
X046647
X0474344
X0482218
X0490092
X0497966
X050584
X0513714
X0521588
X0529462
X0537336
X054521
X0553084
X0560958
X0564895Y0318374
X0557021
X0549147
X0541273
X0533399
X0525525
X0517651
X0509777
X0501903
X0494029
X0486155
X0478281
X0470407
X0462533
X0454659
X0446785
X0450722Y0326248
X0458596
X046647
X0474344
X0482218
X0490092
X0497966
X050584
X0513714
X0521588
X0529462
X0537336
X054521
X0553084
X0560958
X0513714Y0263255
X050584
X0501903Y0255381
X0494029
X0486155
X0482218Y0263255
X0474344
X046647
X0458596
X0450722
X0454659Y0271129
X0462533
X0458596Y0279004
X0450722
X0446785Y0286877
X0462533
X0470407
X0474344Y0294752
X0482218
X0490092Y0279004
X0497966
X0486155Y0271129
X0478281
X0470407Y0255381
X0462533
X0454659
X0446785
X0450722Y0247507
X0458596
X046647
X0474344
X0482218
X0486155Y0239633
X0494029
X0501903
X050584Y0247507
X0513714
Y0231759
X050584
X0501903Y0223885
X0513714Y0216011
X0521588Y0200263
X0529462
Y0184515
X0537336
X0541273Y0176641
X0549147
X0557021
X0564895
X0560958Y0184515
X0564895Y0192389
X0557021
X0533399Y0176641
X0525525
X0517651
X0521588Y0184515
X0501903Y0176641
X0494029
X0446785Y0192389
X0450722Y0231759
X0446785Y0271129
X0438911
X0431037
X0423163
X0415288
X0419226Y0279004
X04271
X0434974
X0442848
X0438911Y0286877
X0431037
X0423163
X0415288
X0411351Y0279004
Y0263255
X0419226
X04271
X0434974
X0442848
X0438911Y0255381
X0431037
X0423163
X0415288
X0419226Y0247507
X04271
X0434974
X0442848
Y0231759
X0434974
X04271
X0419226
X0411351
Y0247507
X039954Y0255381
X0391666
X0383792
X0387729Y0263255
X0395603
Y0279004
X0387729
X0375918Y0271129
X0379855Y0263255
X0383792Y0239633
X0368044
Y0223885
X0375918
Y0208137
X0383792
X0391666
X0395603Y0200263
X0387729
X0379855
X0371981
X0364107
X0356233
X0348359
X0340485
X0344422Y0208137
X0352296
X036017
Y0223885
X0352296
X0344422
X0348359Y0231759
X0356233
X0328674Y0223885
Y0208137
X0336548
Y0192389
X0344422
X0352296
X0356233Y0184515
X0348359
X0340485
X0344422Y0176641
X0352296
X0336548
X0328674
X03208
X0312926
X0305052
X0297178
X0301115Y0184515
X0308989
X0316863
X0324737
X0328674Y0192389
X03208
X0312926
X0305052
X0297178
X0301115Y0200263
X0308989
X0316863
X0324737
X03208Y0208137
X0312926
X0305052
X0297178
X0293241Y0200263
Y0184515
X0305052Y0223885
X0312926
Y0239633
X03208
X0324737Y0247507
X0332611
X0316863
X0305052Y0239633
X0297178
X0293241Y0247507
X0297178Y0255381
X0293241Y0263255
X0297178Y0271129
X0293241Y0279004
X0297178Y0286877
X0305052
X0312926
X03208
X0316863Y0294752
X0308989
X0301115
X0293241
X0297178Y0302625
X0305052
X0308989Y03105
X0301115
X0293241
X0297178Y0318374
X0305052
X0328674
X0336548
X0344422
X0352296
X036017
X0368044
X0375918
X0383792
X0391666
X039954
X0407414
X0415288
X0423163
X0431037
X0438911
X0442848Y0326248
X0434974
X04271
X0419226
X0411351
X0403477
X0395603
X0387729
X0379855
X0371981
X0364107
X0356233
X0348359
X0364107Y03105
X0371981
X0379855
X0387729
X0395603
X0403477
X0411351
X0419226
X04271
X0434974
X0442848
X0438911Y0302625
X0431037
X0423163
X0415288
X0407414
X039954
X0391666
X0383792
X0375918
X0368044
X0371981Y0294752
X0368044Y0286877
X0356233Y0294752
X0348359
X0340485
X0332611
X0328674Y0271129
X03208
X0312926
X0316863Y0279004
X0308989
X0356233
X0371981Y0184515
X0387729
X0395603
X0403477
X0411351
X0415288Y0176641
X0407414
X0431037
X0434974Y0184515
X04271
X0423163Y0192389
X0419226Y0200263
X0434974
X0442848
X0438911Y0208137
X0431037
X0434974Y0216011
X0442848
X04271
X0419226
X0383792Y0176641
X028143
X0285367Y0184515
X0277493
X0269619
X0273556Y0192389
X028143
X0285367Y0200263
X0277493
X0269619
X0261745
X0253871
X0257808Y0208137
X0265682
X0273556
X028143
Y0223885
X0289304
Y0239633
Y0255381
X0285367Y0263255
X0277493
X0261745
X0265682Y0271129
Y0286877
X0257808
X0249934
X0253871Y0279004
X0245997
X0238123
X0234186Y0286877
X0226312
X0218438
X0210564
X0206627Y0294752
X0198753
X020269Y0302625
X0210564
X0214501Y03105
X0218438Y0318374
X0226312
X0234186
X024206
X0249934
X0257808
X0265682
X0261745Y0326248
X0277493
X0285367
X0289304Y0318374
X0285367Y03105
X0277493
Y0294752
X0285367
X0289304Y0302625
Y0286877
Y0271129
X0265682Y0255381
X0261745Y0247507
X0265682Y0239633
X0273556
Y0223885
X0257808
X0261745Y0216011
X0253871
X0245997
X0238123
X024206Y0223885
X0234186
X0226312
X0230249Y0231759
X0238123
X0245997
X0253871
X0249934Y0239633
X024206
X0234186
X0226312
X0218438
X0210564
X0214501Y0247507
X0206627
X0210564Y0255381
X020269
X0194816
X0198753Y0263255
X0206627
X0214501
X0190879
X0186942Y0286877
X0179068
X0171194
X016332
X0167257Y0294752
X0175131
X0179068Y0302625
X0175131Y03105
X0179068Y0318374
X0183005Y0326248
X0175131
X0190879Y03105
X0194816Y0302625
X0210564Y0318374
X0261745Y03105
X0265682Y0302625
X0261745Y0294752
X0175131Y0279004
X0167257
X0159383Y0294752
X0143635Y03105
X0139698Y0318374
X024206Y0208137
X0265682Y0192389
X0127887Y0326248
X012395Y0334122
X0112139Y0341996
X0108202Y034987
X0112139Y0357744
X0104265
X0096391
X0100328Y0365618
X0108202
X0104265Y0373492
X0096391
X0088517
X0080643
X0072769
X0064895
X0057021
X0049147
X0053084Y0381366
X0060958
X0068832
X0076706
X008458
X0092454
X0100328
X0104265Y038924
X0096391
X0088517
X0080643
X0072769
X0064895
X0057021
X0049147
X0053084Y0397114
X0060958
X0068832
X0076706
X008458
X0092454
X0100328
X0104265Y0404988
X0112139
X0116076Y0412862
X012395
X0131824
X0108202
X0100328
X0092454
X008458
X0076706
X0068832
X0060958
X0053084
X004521
X0049147Y0404988
X0057021
X0064895
X0072769
X0080643
X0088517
X0096391
X0092454Y0365618
X008458
X0076706
X0068832
X0060958
X0053084
X004521
Y0381366
Y0397114
X0139698
X0147572
X0155446
X0159383Y038924
X0167257
X0171194Y0397114
X0175131Y0404988
X0183005
X0190879
X0198753
X0206627
X0214501
X0222375
X0226312Y0412862
X0234186
X024206
X0249934
X0257808
X0265682
X0273556
X028143
X0289304
X0285367Y0404988
X0277493
X0269619
X0261745
X0253871
X0245997
X0238123
Y038924
X0230249
X0234186Y0381366
X024206
X0238123Y0373492
X024206Y0365618
X0245997Y0357744
X0238123
Y0341996
X0245997
X0249934Y0334122
X0265682
X0269619Y0341996
X0273556Y034987
X028143
X0285367Y0357744
X0277493
X0269619
X0273556Y0365618
X028143
X0289304
X0285367Y0373492
X0277493
X0269619
X0273556Y0381366
X028143
X0289304
X0285367Y038924
X0277493
X0269619
X0265682Y0381366
X0257808
X0253871Y038924
X0214501
X0218438Y0381366
Y0365618
X0226312
X0222375Y0357744
X0214501
X0206627
X0198753
X020269Y0365618
X0210564
X0206627Y0373492
X020269Y0381366
X0210564Y0397114
Y0412862
X0218438
X020269
X0194816
X0186942
X0179068
X0171194
X016332
X0155446
X0147572
X0139698
X0143635Y0404988
X0151509
X0167257
X016332Y0381366
X0167257Y0373492
X0175131
X0179068Y0381366
X0183005Y038924
X0151509
X0143635
X0139698Y0381366
X0143635Y0373492
X0151509
X0159383
X016332Y0365618
X0171194
X0155446
X0147572
X0139698
X0143635Y0357744
X0151509
X0159383
X0155446Y034987
X0175131Y0341996
X0183005
X0190879
X0186942Y034987
Y0334122
X0179068
X0218438
X0226312
X0222375Y0341996
X0226312Y034987
X0218438
X0135761Y0404988
X0293241
X0301115
X0308989
X0316863
X0324737
X0332611
X0340485
X0348359
X0356233
X0364107
X0371981
X0379855
X0387729
X0395603
X0403477
X0411351
X0419226
X04271
X0434974
X0442848
X0438911Y0412862
X0431037
X0423163
X0415288
X0407414
X039954
X0391666
X0383792
X0375918
X0368044
X036017
X0352296
X0344422
X0336548
X0328674
X03208
X0312926
X0305052
X0297178
X0301115Y038924
X0308989
X0305052Y0381366
X0297178
X0293241Y038924
Y0373492
Y0357744
X0308989
X0316863
X0324737
X0332611
X0340485
X0344422Y0365618
X0352296
X036017
X0368044
X0375918
X0383792
X0391666
X039954
X0407414
X0415288
X0423163
X0431037
X0438911
X0442848Y0373492
X0434974
X04271
X0419226
X0411351
X0403477
X0395603
X0387729
X0379855
X0371981
X0375918Y0381366
X0383792
X0391666
X039954
X0407414
X0415288
X0423163
X0431037
X0438911
X0442848Y038924
X0434974
X04271
X0419226
X0411351
X0403477
X0395603
X0387729
X0379855
X0371981
X0375918Y0397114
X0383792
X0391666
X039954
X0407414
X0415288
X0423163
X0431037
X0438911
X0442848Y0357744
X0434974
X04271
X0419226
X0411351
X0403477
X0395603
X0387729
X0379855
X0383792Y034987
X0391666
X039954
X0407414
X0415288
X0423163
X0431037
X0438911
X0442848Y0341996
X0434974
X04271
X0419226
X0411351
X0403477
X0395603
X0387729
X0379855
X0371981
X0364107
X0368044Y034987
X0375918
Y0334122
X0383792
X0391666
X039954
X0407414
X0415288
X0423163
X0431037
X0438911
X0368044
X036017
X0352296
X0344422
X0336548
X0328674
X0332611Y0341996
X0340485
X0348359
X0352296Y034987
X036017
X0356233Y0357744
X0348359Y0373492
X0340485
Y038924
X0348359
X0352296Y0381366
X036017
Y0397114
X0332611Y038924
X0328674Y0381366
X03208
X0316863Y0373492
X0328674Y0365618
X0324737Y0341996
X0293241
X0450722
X0458596
X046647
X0474344
X0482218
X0490092
X0497966
X050584
X0513714
X0521588
X0529462
X0537336
X054521
X0553084
X0560958
X0564895Y034987
X0557021
X0549147
X0541273
X0533399
X0525525
X0517651
X0509777
X0501903
X0494029
X0486155
X0478281
X0470407
X0462533
X0454659
X0446785
X0450722Y0357744
X0458596
X046647
X0474344
X0482218
X0490092
X0497966
X050584
X0513714
X0521588
X0529462
X0537336
X054521
X0553084
X0560958
X0564895Y0365618
X0557021
X0549147
X0541273
X0533399
X0525525
X0517651
X0509777
X0501903
X0494029
X0486155
X0478281
X0470407
X0462533
X0454659
X0446785
X0450722Y0373492
X0458596
X046647
X0474344
X0482218
X0490092
X0497966
X050584
X0513714
X0521588
X0529462
X0537336
X054521
X0553084
X0560958
X0564895Y0381366
X0557021
X0560958Y038924
X0564895Y0397114
X0557021
X0549147
X0541273
X0533399
X0525525
X0517651
X0509777
X0501903
X0494029
X0486155
X0478281
X0470407
X0462533
X0454659
X0446785
X0450722Y0404988
X0458596
X046647
X0474344
X0482218
X0490092
X0497966
X050584
X0513714
X0521588
X0529462
X0537336
X054521
X0553084
X0560958
X0564895Y0412862
X0557021
X0549147
X0541273
X0533399
X0525525
X0517651
X0509777
X0501903
X0494029
X0486155
X0478281
X0470407
X0462533
X0454659
X0446785
X0450722Y038924
X0458596
X046647
X0474344
X0482218
X0490092
X0497966
X050584
X0513714
X0521588
X0529462
X0537336
X0533399Y0381366
X0525525
X0517651
X0509777
X0501903
X0494029
X0486155
X0478281
X0470407
X0462533
X0454659
X0446785
Y0334122
X0454659
X0462533
X0470407
X0478281
X0486155
X0494029
X0501903
X0509777
X0517651
X0525525
X0533399
X0541273
X0549147
X0557021
X0564895
T02
X0448753Y0011287
X0446785Y0015224
X0450722
X0442848
X0438911
X0434974
X0431037
X04271
X0423163
X0419226
X0415288
X0411351
X0407414
X0403477
X039954
X0395603
X0391666
X0397572Y0011287
X0401509
X0405446
X0409383
X041332
X0417257
X0421194
X0425131
X0429068
X0433005
X0436942
X0440879
X0444816
X0442848Y000735
X0438911
X0434974
X0431037
X04271
X0423163
X0419226
X0415288
X0411351
X0407414
X0403477
X039954
X0285367
X028143
X0277493
X0273556
X0269619
X0265682
X0261745
X0257808
X0253871
X0249934
X0245997
X024206
X0238123
X0234186
X0230249
X0226312
X0222375
X0224343Y0011287
X0220407
X022828
X0232218
X0236155
X0240092
X0244029
X0247966
X0251903
X025584
X0259777
X0263714
X0267651
X0271588
X0275525
X0277493Y0015224
X0131824Y012546
X0127887
X012395
X0125918Y0129397
X0121981
X0118044
X0116076Y0133334
X0120013
X012395
X0127887
X0129855Y0129397
X0125918Y0137271
X0121981
X0118044
X0116076Y0141208
X0120013
X012395
X0127887
X0129855Y0145145
X0125918
X0121981
X0118044
X0116076Y0149082
X0120013
X012395
X0127887
X0131824
X0125918Y0153019
X0121981
X0118044
X0116076Y0156956
X0120013
X012395
X0125918Y0160893
X0121981
X0118044
X0120013Y016483
X012395
X0127887
X0131824
X0129855Y0168767
X0125918
X0121981
X0133792
X0137729
X0141666
X0145603
X014954
X0153477
X0151509Y016483
X0155446
X0153477Y0160893
X014954
X0145603
X0141666
X0139698Y016483
X0135761
X0143635
X0147572
Y0156956
X0143635
X0145603Y0153019
X0141666
X0139698Y0149082
X0135761
X0137729Y0145145
X0133792
X0141666
X0145603
X014954
X0153477
X0151509Y0141208
X0155446
X0153477Y0137271
X014954
X0145603
X0143635Y0133334
X0147572
X0151509
X0155446
X0153477Y0129397
X014954
X0145603
X0141666
X0137729
X0133792
X0135761Y012546
X0139698
X0143635
X0147572
Y0141208
X0143635
Y0149082
X0147572
X0151509
X0155446
X0153477Y0153019
X014954
X0151509Y0156956
X0155446
X022828Y0090027
X0232218
X0236155
X0240092
X0244029
X0247966
X0251903
X0249934Y008609
X0253871
X0251903Y0082153
X0247966
X0244029
X0240092
X0236155
X0232218
X022828
X0226312Y0078216
X0230249
X0234186
X0238123
X024206
X0245997
X0249934
X0253871
X0251903Y0074279
X0247966
X0244029
X0240092
X0236155
X0232218
X022828
X0226312Y0070342
X0230249
X0234186
X0238123
X024206
X0245997
X0244029Y0066405
X0240092
X0236155
X0232218
X022828
X0226312Y008609
X0230249
X0234186
X0238123
X024206
X0245997
X0289304Y0078216
Y0070342
Y0062468
Y0054594
X0293241
X0297178
X0301115
X0305052
X0308989
X0312926
X0314895Y0050657
X0310958
X0307021
X0303084
X0299147
X029521
X0417257
X0421194
X0425131
X0429068
X0433005
X0436942
X0440879
X0444816
X0442848Y004672
X0438911
X0434974
X0431037
X04271
X0423163
X0419226
X0421194Y0042783
X0417257
X0419226Y0038846
X0423163
X04271
X0431037
X0434974
X0438911
X0442848
X0444816Y0034909
X0440879
X0436942
X0433005
X0429068
X0425131
X0421194
X0417257
X0415288Y0030972
X0419226
X0423163
X04271
X0431037
X0434974
X0438911
X0442848
X0444816Y0027035
X0440879
X0436942
X0433005
X0429068
X0425131
X0421194
X0417257
X041332
X0411351Y0023098
X0407414
X0409383Y0019161
X0405446
X041332
X0417257
X0421194
X0425131
X0429068
X0433005
X0436942
X0440879
X0444816
X0442848Y0023098
X0438911
X0434974
X0431037
X04271
X0423163
X0419226
X0415288
X0425131Y0042783
X0429068
X0433005
X0436942
X0440879
X0444816
X0442848Y0054594
X0438911
X0434974
X0431037
X04271
X0423163
X0419226
X0421194Y0058531
X0417257
X0419226Y0062468
X0423163
X04271
X0431037
X0434974
X0438911
X0442848
X0444816Y0058531
X0440879
X0436942
X0433005
X0429068
X0425131
X0448753
X0446785Y0062468
Y0054594
X0450722
X0448753Y0050657
X0446785Y004672
X0450722
X0448753Y0042783
X0446785Y0038846
X0450722
X0448753Y0034909
X0446785Y0030972
X0450722
X0448753Y0027035
X0446785Y0023098
X0450722
X0448753Y0019161
X03928Y02335
X03884Y02334
X03876Y02408
X03936Y02471
X0379365Y0224735
X03403Y02199
Y02328
X03413Y02366
X033237Y0230397
X03388Y02765
X0344761Y0281464
X0368214Y0280186
X0371594Y0280806
X03707Y02772
X0374556Y0278344
X0373282Y0274118
X0377138Y0275262
X0369259Y0283941
X02893Y02822
X02575
X02588Y03317
X02803
T03
X01075Y00784
Y00884
X01624Y02911
Y03011
T04
X042Y01204
Y01304
Y01404
Y01504
X04541
Y01404
Y01304
Y01204
T05
X01509Y03793
X01709
X01609Y03993
T06
X02154Y0396
X02254
X02354
X02454
X02554
X02654
X02754
X02854
X02954
X03054
X03154
X03254
X03354
X03454
X03554
X03654
T07
X0357558Y0108141
X0377242
Y0165228
X03674
X0357558
T08
X0050333Y0201013
X0085766
X0121199Y04018
X00149
T09
X01344Y00727
Y00927
Y01377
Y01577
T10
X00515Y00448
X00715
X01144
X01344
X03392
X03592
X05055Y00462
X05255
T11
X0349093Y01357
X0385707
T12
X05496Y00143
X00099Y00104
X05465Y01537
T13
X05479Y01895
X01939Y019
X01934Y0385
X05479
M30
