%TF.GenerationSoftware,Altium Limited,Altium Designer,21.3.2 (30)*%
G04 Layer_Color=255*
%FSLAX24Y24*%
%MOIN*%
%TF.SameCoordinates,B2232A1B-76E2-43D3-9B88-882A457EFEF9*%
%TF.FilePolarity,Positive*%
%TF.FileFunction,Pads,Top*%
%TF.Part,Single*%
G01*
G75*
%TA.AperFunction,SMDPad,CuDef*%
%ADD10R,0.0500X0.0550*%
%ADD11O,0.0886X0.0630*%
%ADD12R,0.0500X0.0650*%
G04:AMPARAMS|DCode=13|XSize=52.8mil|YSize=129.5mil|CornerRadius=6.6mil|HoleSize=0mil|Usage=FLASHONLY|Rotation=180.000|XOffset=0mil|YOffset=0mil|HoleType=Round|Shape=RoundedRectangle|*
%AMROUNDEDRECTD13*
21,1,0.0528,0.1163,0,0,180.0*
21,1,0.0396,0.1295,0,0,180.0*
1,1,0.0132,-0.0198,0.0582*
1,1,0.0132,0.0198,0.0582*
1,1,0.0132,0.0198,-0.0582*
1,1,0.0132,-0.0198,-0.0582*
%
%ADD13ROUNDEDRECTD13*%
%ADD14R,0.0472X0.0315*%
%ADD15R,0.0550X0.0394*%
%ADD16R,0.0550X0.0500*%
%ADD17R,0.2516X0.3150*%
G04:AMPARAMS|DCode=18|XSize=41.7mil|YSize=148.8mil|CornerRadius=11.1mil|HoleSize=0mil|Usage=FLASHONLY|Rotation=0.000|XOffset=0mil|YOffset=0mil|HoleType=Round|Shape=RoundedRectangle|*
%AMROUNDEDRECTD18*
21,1,0.0417,0.1267,0,0,0.0*
21,1,0.0196,0.1488,0,0,0.0*
1,1,0.0221,0.0098,-0.0634*
1,1,0.0221,-0.0098,-0.0634*
1,1,0.0221,-0.0098,0.0634*
1,1,0.0221,0.0098,0.0634*
%
%ADD18ROUNDEDRECTD18*%
%ADD19R,0.0374X0.0354*%
%TA.AperFunction,ComponentPad*%
%ADD24R,0.0787X0.0984*%
%ADD25C,0.1575*%
%ADD26O,0.0620X0.0900*%
%ADD27R,0.0620X0.0900*%
%ADD28O,0.0591X0.0512*%
%ADD29R,0.0591X0.0512*%
%ADD30O,0.1200X0.1000*%
%ADD31C,0.0650*%
%ADD32R,0.0650X0.0650*%
%ADD33O,0.1063X0.2126*%
%ADD34R,0.0900X0.0750*%
%ADD35O,0.0900X0.0750*%
%ADD36C,0.0709*%
%ADD37R,0.0709X0.0709*%
%ADD38C,0.0750*%
D10*
X39800Y17460D02*
D03*
X38900D02*
D03*
X37170D02*
D03*
X36270D02*
D03*
X39700Y10810D02*
D03*
X40600D02*
D03*
X23819Y14260D02*
D03*
X24719D02*
D03*
X28004D02*
D03*
X28904D02*
D03*
X32189D02*
D03*
X33089D02*
D03*
X19633D02*
D03*
X20533D02*
D03*
D11*
X26323Y5700D02*
D03*
Y4700D02*
D03*
X22977D02*
D03*
Y5700D02*
D03*
D12*
X26320Y6740D02*
D03*
X25020D02*
D03*
X29500Y1330D02*
D03*
X28200D02*
D03*
X24450Y2590D02*
D03*
X25750D02*
D03*
X25750Y3420D02*
D03*
X24450D02*
D03*
D13*
X5394Y9520D02*
D03*
X7086D02*
D03*
D14*
X30368Y15560D02*
D03*
X33124D02*
D03*
X26183D02*
D03*
X28938D02*
D03*
X21997D02*
D03*
X24753D02*
D03*
X17812D02*
D03*
X20568D02*
D03*
D15*
X50853Y12051D02*
D03*
Y12951D02*
D03*
X49845Y12051D02*
D03*
Y12951D02*
D03*
X48836Y12051D02*
D03*
Y12951D02*
D03*
X47828Y12051D02*
D03*
Y12951D02*
D03*
D16*
X49830Y14861D02*
D03*
Y13961D02*
D03*
X47813Y14861D02*
D03*
Y13961D02*
D03*
X48821D02*
D03*
Y14861D02*
D03*
X50838Y13961D02*
D03*
Y14861D02*
D03*
D17*
X30510Y7199D02*
D03*
D18*
X31510Y2990D02*
D03*
X29510D02*
D03*
D19*
X26518Y2606D02*
D03*
X27502Y2980D02*
D03*
X26518Y3354D02*
D03*
D24*
X13440Y4480D02*
D03*
X11440D02*
D03*
X52550Y4620D02*
D03*
X50550D02*
D03*
X33920Y4480D02*
D03*
X35920D02*
D03*
X5150D02*
D03*
X7150D02*
D03*
D25*
X19340Y38500D02*
D03*
X19390Y19000D02*
D03*
X54790Y38500D02*
D03*
Y18950D02*
D03*
D26*
X36540Y39600D02*
D03*
X35540D02*
D03*
X34540D02*
D03*
X33540D02*
D03*
X32540D02*
D03*
X31540D02*
D03*
X30540D02*
D03*
X29540D02*
D03*
X28540D02*
D03*
X27540D02*
D03*
X26540D02*
D03*
X25540D02*
D03*
X24540D02*
D03*
X23540D02*
D03*
X22540D02*
D03*
D27*
X21540D02*
D03*
D28*
X16240Y29110D02*
D03*
X10750Y7840D02*
D03*
D29*
X16240Y30110D02*
D03*
X10750Y8840D02*
D03*
D30*
X13440Y15770D02*
D03*
Y7270D02*
D03*
Y9270D02*
D03*
Y13770D02*
D03*
D31*
X35756Y10814D02*
D03*
Y16523D02*
D03*
X36740D02*
D03*
X37724D02*
D03*
D32*
Y10814D02*
D03*
D33*
X34909Y13570D02*
D03*
X38571D02*
D03*
D34*
X42000Y15040D02*
D03*
X45410D02*
D03*
D35*
X42000Y14040D02*
D03*
Y13040D02*
D03*
Y12040D02*
D03*
X45410Y14040D02*
D03*
Y13040D02*
D03*
Y12040D02*
D03*
D36*
X8577Y20101D02*
D03*
X1490Y40180D02*
D03*
X12120D02*
D03*
D37*
X5033Y20101D02*
D03*
D38*
X17090Y37930D02*
D03*
X16090Y39930D02*
D03*
X15090Y37930D02*
D03*
%TF.MD5,36a8c64cc938ef7ed068c56ca597848b*%
M02*
