%TF.GenerationSoftware,Altium Limited,Altium Designer,21.3.2 (30)*%
G04 Layer_Color=16711935*
%FSLAX24Y24*%
%MOIN*%
%TF.SameCoordinates,B2232A1B-76E2-43D3-9B88-882A457EFEF9*%
%TF.FilePolarity,Negative*%
%TF.FileFunction,Soldermask,Bot*%
%TF.Part,Single*%
G01*
G75*
%TA.AperFunction,SMDPad,CuDef*%
%ADD48R,0.0354X0.0374*%
%ADD66R,0.4017X0.2442*%
%ADD67R,0.0630X0.0580*%
%ADD68R,0.1379X0.1025*%
%ADD69R,0.0474X0.1025*%
G04:AMPARAMS|DCode=70|XSize=224.5mil|YSize=232.4mil|CornerRadius=31.1mil|HoleSize=0mil|Usage=FLASHONLY|Rotation=0.000|XOffset=0mil|YOffset=0mil|HoleType=Round|Shape=RoundedRectangle|*
%AMROUNDEDRECTD70*
21,1,0.2245,0.1703,0,0,0.0*
21,1,0.1624,0.2324,0,0,0.0*
1,1,0.0621,0.0812,-0.0851*
1,1,0.0621,-0.0812,-0.0851*
1,1,0.0621,-0.0812,0.0851*
1,1,0.0621,0.0812,0.0851*
%
%ADD70ROUNDEDRECTD70*%
G04:AMPARAMS|DCode=71|XSize=47.4mil|YSize=86.7mil|CornerRadius=8.9mil|HoleSize=0mil|Usage=FLASHONLY|Rotation=0.000|XOffset=0mil|YOffset=0mil|HoleType=Round|Shape=RoundedRectangle|*
%AMROUNDEDRECTD71*
21,1,0.0474,0.0689,0,0,0.0*
21,1,0.0295,0.0867,0,0,0.0*
1,1,0.0178,0.0148,-0.0344*
1,1,0.0178,-0.0148,-0.0344*
1,1,0.0178,-0.0148,0.0344*
1,1,0.0178,0.0148,0.0344*
%
%ADD71ROUNDEDRECTD71*%
%ADD72R,0.0474X0.0630*%
%ADD73O,0.0880X0.0297*%
%ADD74R,0.0630X0.0474*%
%ADD75R,0.0434X0.0454*%
%ADD76R,0.0474X0.0789*%
G04:AMPARAMS|DCode=77|XSize=63.1mil|YSize=55.2mil|CornerRadius=9.9mil|HoleSize=0mil|Usage=FLASHONLY|Rotation=90.000|XOffset=0mil|YOffset=0mil|HoleType=Round|Shape=RoundedRectangle|*
%AMROUNDEDRECTD77*
21,1,0.0631,0.0354,0,0,90.0*
21,1,0.0433,0.0552,0,0,90.0*
1,1,0.0198,0.0177,0.0217*
1,1,0.0198,0.0177,-0.0217*
1,1,0.0198,-0.0177,-0.0217*
1,1,0.0198,-0.0177,0.0217*
%
%ADD77ROUNDEDRECTD77*%
%ADD78R,0.0631X0.0552*%
G04:AMPARAMS|DCode=79|XSize=19mil|YSize=69.4mil|CornerRadius=6.8mil|HoleSize=0mil|Usage=FLASHONLY|Rotation=315.000|XOffset=0mil|YOffset=0mil|HoleType=Round|Shape=RoundedRectangle|*
%AMROUNDEDRECTD79*
21,1,0.0190,0.0559,0,0,315.0*
21,1,0.0055,0.0694,0,0,315.0*
1,1,0.0135,-0.0178,-0.0217*
1,1,0.0135,-0.0217,-0.0178*
1,1,0.0135,0.0178,0.0217*
1,1,0.0135,0.0217,0.0178*
%
%ADD79ROUNDEDRECTD79*%
G04:AMPARAMS|DCode=80|XSize=19mil|YSize=69.4mil|CornerRadius=6.8mil|HoleSize=0mil|Usage=FLASHONLY|Rotation=225.000|XOffset=0mil|YOffset=0mil|HoleType=Round|Shape=RoundedRectangle|*
%AMROUNDEDRECTD80*
21,1,0.0190,0.0559,0,0,225.0*
21,1,0.0055,0.0694,0,0,225.0*
1,1,0.0135,-0.0217,0.0178*
1,1,0.0135,-0.0178,0.0217*
1,1,0.0135,0.0217,-0.0178*
1,1,0.0135,0.0178,-0.0217*
%
%ADD80ROUNDEDRECTD80*%
%ADD81R,0.0552X0.0631*%
%ADD82O,0.0316X0.0789*%
%TA.AperFunction,ComponentPad*%
%ADD83R,0.0867X0.1064*%
%ADD84C,0.1655*%
%ADD85O,0.0700X0.0980*%
%ADD86R,0.0700X0.0980*%
%ADD87O,0.0671X0.0592*%
%ADD88R,0.0671X0.0592*%
%ADD89O,0.1280X0.1080*%
%ADD90C,0.0730*%
%ADD91R,0.0730X0.0730*%
%ADD92O,0.1143X0.2206*%
%ADD93R,0.0980X0.0830*%
%ADD94O,0.0980X0.0830*%
%ADD95C,0.0789*%
%ADD96R,0.0789X0.0789*%
%ADD97C,0.0830*%
%TA.AperFunction,ViaPad*%
%ADD98C,0.1655*%
G36*
X15280Y17220D02*
X15830Y16670D01*
Y15520D01*
X22210Y9140D01*
X28040D01*
X32380Y4800D01*
Y2925D01*
X33405Y1900D01*
X40200D01*
X41490Y3190D01*
Y7510D01*
X42010Y8030D01*
X44560D01*
X45220Y7370D01*
X45220Y1240D01*
X44340Y360D01*
X22290D01*
X18060Y7130D01*
X18080D01*
X14320Y10890D01*
X13580D01*
X11530Y12940D01*
Y16300D01*
X12450Y17220D01*
X15280Y17220D01*
D02*
G37*
D48*
X36169Y35999D02*
D03*
D66*
X23881Y30233D02*
D03*
X23920Y26060D02*
D03*
D67*
X20977Y27340D02*
D03*
Y28240D02*
D03*
X20222Y27340D02*
D03*
Y28240D02*
D03*
X19468Y27340D02*
D03*
Y28240D02*
D03*
X18713Y27340D02*
D03*
Y28240D02*
D03*
X32281Y31677D02*
D03*
Y30777D02*
D03*
X33050Y30790D02*
D03*
Y29890D02*
D03*
X35380D02*
D03*
Y30790D02*
D03*
X49550Y7950D02*
D03*
Y7050D02*
D03*
X31411Y30777D02*
D03*
Y31677D02*
D03*
D68*
X20236Y31643D02*
D03*
D69*
X19330Y29360D02*
D03*
X20236D02*
D03*
X21141D02*
D03*
D70*
X20400Y34220D02*
D03*
D71*
X21300Y37133D02*
D03*
X19500Y37133D02*
D03*
D72*
X23319Y33753D02*
D03*
X24219D02*
D03*
X23319Y34553D02*
D03*
X24219D02*
D03*
X23319Y35353D02*
D03*
X24219D02*
D03*
X31989Y34200D02*
D03*
X31089D02*
D03*
X31989Y34973D02*
D03*
X31089D02*
D03*
D73*
X29829Y37553D02*
D03*
Y37053D02*
D03*
Y36553D02*
D03*
Y36053D02*
D03*
Y35553D02*
D03*
Y35053D02*
D03*
Y34553D02*
D03*
Y34053D02*
D03*
X26109Y37553D02*
D03*
Y37053D02*
D03*
Y36553D02*
D03*
Y36053D02*
D03*
Y35553D02*
D03*
Y35053D02*
D03*
Y34553D02*
D03*
Y34053D02*
D03*
D74*
X36547Y38439D02*
D03*
Y37539D02*
D03*
X36134Y35449D02*
D03*
Y34549D02*
D03*
X36917Y34549D02*
D03*
Y35449D02*
D03*
D75*
X36543Y36983D02*
D03*
X36917Y35999D02*
D03*
D76*
X32302Y29930D02*
D03*
X31318D02*
D03*
D77*
X34535Y29917D02*
D03*
Y30783D02*
D03*
X33865D02*
D03*
Y29917D02*
D03*
D78*
X36241Y30652D02*
D03*
Y29904D02*
D03*
X36499Y21356D02*
D03*
Y20608D02*
D03*
D79*
X33651Y25412D02*
D03*
X33790Y25273D02*
D03*
X33929Y25134D02*
D03*
X34068Y24994D02*
D03*
X34208Y24855D02*
D03*
X34347Y24716D02*
D03*
X34486Y24577D02*
D03*
X34625Y24438D02*
D03*
X34764Y24298D02*
D03*
X34904Y24159D02*
D03*
X35043Y24020D02*
D03*
X35182Y23881D02*
D03*
X37509Y26208D02*
D03*
X37370Y26347D02*
D03*
X37231Y26486D02*
D03*
X37092Y26626D02*
D03*
X36952Y26765D02*
D03*
X36813Y26904D02*
D03*
X36674Y27043D02*
D03*
X36535Y27182D02*
D03*
X36396Y27322D02*
D03*
X36256Y27461D02*
D03*
X36117Y27600D02*
D03*
X35978Y27739D02*
D03*
D80*
Y23881D02*
D03*
X36117Y24020D02*
D03*
X36256Y24159D02*
D03*
X36396Y24298D02*
D03*
X36535Y24438D02*
D03*
X36674Y24577D02*
D03*
X36813Y24716D02*
D03*
X36952Y24855D02*
D03*
X37092Y24994D02*
D03*
X37231Y25134D02*
D03*
X37370Y25273D02*
D03*
X37509Y25412D02*
D03*
X35182Y27739D02*
D03*
X35043Y27600D02*
D03*
X34904Y27461D02*
D03*
X34764Y27322D02*
D03*
X34625Y27182D02*
D03*
X34486Y27043D02*
D03*
X34347Y26904D02*
D03*
X34208Y26765D02*
D03*
X34068Y26626D02*
D03*
X33929Y26486D02*
D03*
X33790Y26347D02*
D03*
X33651Y26208D02*
D03*
D81*
X29988Y26611D02*
D03*
X30736D02*
D03*
Y24951D02*
D03*
X29988D02*
D03*
X40752Y27159D02*
D03*
X40004D02*
D03*
D82*
X50410Y10162D02*
D03*
X50910D02*
D03*
X51410D02*
D03*
X51910D02*
D03*
X50410Y7938D02*
D03*
X50910D02*
D03*
X51410D02*
D03*
X51910D02*
D03*
D83*
X13440Y4480D02*
D03*
X11440D02*
D03*
X52550Y4620D02*
D03*
X50550D02*
D03*
X33920Y4480D02*
D03*
X35920D02*
D03*
X5150D02*
D03*
X7150D02*
D03*
D84*
X19340Y38500D02*
D03*
X19390Y19000D02*
D03*
X54790Y38500D02*
D03*
Y18950D02*
D03*
D85*
X36540Y39600D02*
D03*
X35540D02*
D03*
X34540D02*
D03*
X33540D02*
D03*
X32540D02*
D03*
X31540D02*
D03*
X30540D02*
D03*
X29540D02*
D03*
X28540D02*
D03*
X27540D02*
D03*
X26540D02*
D03*
X25540D02*
D03*
X24540D02*
D03*
X23540D02*
D03*
X22540D02*
D03*
D86*
X21540D02*
D03*
D87*
X16240Y29110D02*
D03*
X10750Y7840D02*
D03*
D88*
X16240Y30110D02*
D03*
X10750Y8840D02*
D03*
D89*
X13440Y15770D02*
D03*
Y7270D02*
D03*
Y9270D02*
D03*
Y13770D02*
D03*
D90*
X35756Y10814D02*
D03*
Y16523D02*
D03*
X36740D02*
D03*
X37724D02*
D03*
D91*
Y10814D02*
D03*
D92*
X34909Y13570D02*
D03*
X38571D02*
D03*
D93*
X42000Y15040D02*
D03*
X45410D02*
D03*
D94*
X42000Y14040D02*
D03*
Y13040D02*
D03*
Y12040D02*
D03*
X45410Y14040D02*
D03*
Y13040D02*
D03*
Y12040D02*
D03*
D95*
X8577Y20101D02*
D03*
X1490Y40180D02*
D03*
X12120D02*
D03*
D96*
X5033Y20101D02*
D03*
D97*
X17090Y37930D02*
D03*
X16090Y39930D02*
D03*
X15090Y37930D02*
D03*
D98*
X54960Y1430D02*
D03*
X990Y1040D02*
D03*
X54650Y15370D02*
D03*
%TF.MD5,7c993cd829fb81d2cf042a82794a6097*%
M02*
