%TF.GenerationSoftware,Altium Limited,Altium Designer,21.3.2 (30)*%
G04 Layer_Color=32768*
%FSLAX24Y24*%
%MOIN*%
%TF.SameCoordinates,B2232A1B-76E2-43D3-9B88-882A457EFEF9*%
%TF.FilePolarity,Positive*%
%TF.FileFunction,Other,Mechanical_7*%
%TF.Part,Single*%
G01*
G75*
%TA.AperFunction,NonConductor*%
%ADD109C,0.0039*%
%ADD111R,0.0236X0.0098*%
%ADD112R,0.0098X0.0236*%
G36*
X36975Y36745D02*
X36978Y36745D01*
X36981Y36745D01*
X36983Y36744D01*
X36986Y36743D01*
X36988Y36743D01*
X36990Y36742D01*
X36992Y36741D01*
X36994Y36740D01*
X36996Y36739D01*
X36997Y36738D01*
X36998Y36737D01*
X36999Y36737D01*
X36999Y36736D01*
X37000Y36736D01*
X37000Y36736D01*
X37002Y36734D01*
X37003Y36732D01*
X37005Y36730D01*
X37006Y36728D01*
X37009Y36723D01*
X37010Y36719D01*
X37011Y36717D01*
X37011Y36715D01*
X37011Y36713D01*
X37012Y36712D01*
X37012Y36711D01*
Y36710D01*
X37012Y36709D01*
Y36709D01*
X36996Y36707D01*
X36996Y36712D01*
X36995Y36715D01*
X36994Y36719D01*
X36993Y36721D01*
X36992Y36723D01*
X36991Y36725D01*
X36990Y36726D01*
X36990Y36726D01*
X36987Y36728D01*
X36984Y36730D01*
X36981Y36731D01*
X36978Y36732D01*
X36976Y36732D01*
X36973Y36733D01*
X36973Y36733D01*
X36972D01*
X36968Y36733D01*
X36964Y36732D01*
X36961Y36731D01*
X36959Y36730D01*
X36957Y36728D01*
X36956Y36727D01*
X36955Y36727D01*
X36954Y36726D01*
X36952Y36724D01*
X36950Y36721D01*
X36949Y36719D01*
X36948Y36716D01*
X36948Y36714D01*
X36948Y36712D01*
X36948Y36711D01*
Y36711D01*
Y36711D01*
X36948Y36708D01*
X36949Y36704D01*
X36950Y36701D01*
X36951Y36698D01*
X36953Y36696D01*
X36954Y36694D01*
X36954Y36693D01*
X36955Y36693D01*
X36955Y36692D01*
Y36692D01*
X36956Y36690D01*
X36958Y36688D01*
X36960Y36686D01*
X36962Y36684D01*
X36967Y36679D01*
X36972Y36675D01*
X36974Y36673D01*
X36976Y36671D01*
X36978Y36670D01*
X36980Y36668D01*
X36981Y36667D01*
X36982Y36666D01*
X36983Y36666D01*
X36983Y36665D01*
X36987Y36662D01*
X36992Y36658D01*
X36995Y36655D01*
X36998Y36652D01*
X37000Y36650D01*
X37002Y36648D01*
X37003Y36647D01*
X37003Y36647D01*
Y36646D01*
X37006Y36643D01*
X37008Y36640D01*
X37009Y36638D01*
X37011Y36635D01*
X37012Y36633D01*
X37013Y36631D01*
X37013Y36630D01*
X37013Y36630D01*
Y36630D01*
X37014Y36628D01*
X37014Y36626D01*
X37015Y36624D01*
X37015Y36622D01*
X37015Y36621D01*
Y36620D01*
Y36619D01*
Y36619D01*
X36932D01*
Y36634D01*
X36994D01*
X36991Y36637D01*
X36990Y36638D01*
X36989Y36640D01*
X36989Y36641D01*
X36988Y36641D01*
X36987Y36642D01*
X36987Y36642D01*
X36986Y36643D01*
X36985Y36644D01*
X36983Y36646D01*
X36980Y36649D01*
X36977Y36652D01*
X36974Y36654D01*
X36972Y36655D01*
X36971Y36656D01*
X36970Y36657D01*
X36970Y36658D01*
X36969Y36658D01*
X36969Y36658D01*
X36966Y36661D01*
X36963Y36663D01*
X36961Y36665D01*
X36958Y36667D01*
X36956Y36669D01*
X36954Y36671D01*
X36952Y36673D01*
X36951Y36674D01*
X36950Y36676D01*
X36948Y36677D01*
X36948Y36678D01*
X36947Y36679D01*
X36946Y36680D01*
X36945Y36680D01*
X36943Y36683D01*
X36941Y36686D01*
X36939Y36689D01*
X36937Y36691D01*
X36936Y36693D01*
X36936Y36694D01*
X36935Y36695D01*
X36935Y36696D01*
X36934Y36698D01*
X36933Y36701D01*
X36932Y36704D01*
X36932Y36706D01*
X36932Y36708D01*
X36932Y36709D01*
Y36710D01*
Y36711D01*
X36932Y36713D01*
X36932Y36716D01*
X36933Y36718D01*
X36933Y36721D01*
X36935Y36725D01*
X36937Y36728D01*
X36938Y36730D01*
X36939Y36731D01*
X36940Y36733D01*
X36941Y36734D01*
X36942Y36734D01*
X36942Y36735D01*
X36942Y36735D01*
X36942Y36735D01*
X36944Y36737D01*
X36947Y36739D01*
X36949Y36740D01*
X36951Y36741D01*
X36956Y36743D01*
X36961Y36744D01*
X36963Y36745D01*
X36965Y36745D01*
X36967Y36745D01*
X36968Y36745D01*
X36969Y36746D01*
X36971D01*
X36975Y36745D01*
D02*
G37*
G36*
X36750D02*
X36753Y36745D01*
X36756Y36745D01*
X36758Y36744D01*
X36761Y36743D01*
X36763Y36743D01*
X36765Y36742D01*
X36767Y36741D01*
X36769Y36740D01*
X36771Y36739D01*
X36772Y36738D01*
X36773Y36737D01*
X36774Y36737D01*
X36774Y36736D01*
X36775Y36736D01*
X36775Y36736D01*
X36777Y36734D01*
X36778Y36732D01*
X36780Y36730D01*
X36781Y36728D01*
X36784Y36723D01*
X36785Y36719D01*
X36786Y36717D01*
X36786Y36715D01*
X36786Y36713D01*
X36787Y36712D01*
X36787Y36711D01*
Y36710D01*
X36787Y36709D01*
Y36709D01*
X36771Y36707D01*
X36771Y36712D01*
X36770Y36715D01*
X36769Y36719D01*
X36768Y36721D01*
X36767Y36723D01*
X36766Y36725D01*
X36765Y36726D01*
X36765Y36726D01*
X36762Y36728D01*
X36759Y36730D01*
X36756Y36731D01*
X36753Y36732D01*
X36751Y36732D01*
X36748Y36733D01*
X36748Y36733D01*
X36747D01*
X36743Y36733D01*
X36739Y36732D01*
X36736Y36731D01*
X36734Y36730D01*
X36732Y36728D01*
X36731Y36727D01*
X36730Y36727D01*
X36729Y36726D01*
X36727Y36724D01*
X36726Y36721D01*
X36724Y36719D01*
X36724Y36716D01*
X36723Y36714D01*
X36723Y36712D01*
X36723Y36711D01*
Y36711D01*
Y36711D01*
X36723Y36708D01*
X36724Y36704D01*
X36725Y36701D01*
X36726Y36698D01*
X36728Y36696D01*
X36729Y36694D01*
X36729Y36693D01*
X36730Y36693D01*
X36730Y36692D01*
Y36692D01*
X36732Y36690D01*
X36733Y36688D01*
X36735Y36686D01*
X36738Y36684D01*
X36742Y36679D01*
X36747Y36675D01*
X36749Y36673D01*
X36751Y36671D01*
X36753Y36670D01*
X36755Y36668D01*
X36756Y36667D01*
X36757Y36666D01*
X36758Y36666D01*
X36758Y36665D01*
X36762Y36662D01*
X36767Y36658D01*
X36770Y36655D01*
X36773Y36652D01*
X36775Y36650D01*
X36777Y36648D01*
X36778Y36647D01*
X36778Y36647D01*
Y36646D01*
X36781Y36643D01*
X36783Y36640D01*
X36785Y36638D01*
X36786Y36635D01*
X36787Y36633D01*
X36788Y36631D01*
X36788Y36630D01*
X36788Y36630D01*
Y36630D01*
X36789Y36628D01*
X36789Y36626D01*
X36790Y36624D01*
X36790Y36622D01*
X36790Y36621D01*
Y36620D01*
Y36619D01*
Y36619D01*
X36707D01*
Y36634D01*
X36769D01*
X36766Y36637D01*
X36765Y36638D01*
X36764Y36640D01*
X36764Y36641D01*
X36763Y36641D01*
X36762Y36642D01*
X36762Y36642D01*
X36761Y36643D01*
X36760Y36644D01*
X36758Y36646D01*
X36755Y36649D01*
X36752Y36652D01*
X36749Y36654D01*
X36747Y36655D01*
X36746Y36656D01*
X36745Y36657D01*
X36745Y36658D01*
X36744Y36658D01*
X36744Y36658D01*
X36741Y36661D01*
X36738Y36663D01*
X36736Y36665D01*
X36733Y36667D01*
X36731Y36669D01*
X36729Y36671D01*
X36728Y36673D01*
X36726Y36674D01*
X36725Y36676D01*
X36724Y36677D01*
X36723Y36678D01*
X36722Y36679D01*
X36721Y36680D01*
X36720Y36680D01*
X36718Y36683D01*
X36716Y36686D01*
X36714Y36689D01*
X36712Y36691D01*
X36711Y36693D01*
X36711Y36694D01*
X36710Y36695D01*
X36710Y36696D01*
X36709Y36698D01*
X36708Y36701D01*
X36708Y36704D01*
X36707Y36706D01*
X36707Y36708D01*
X36707Y36709D01*
Y36710D01*
Y36711D01*
X36707Y36713D01*
X36707Y36716D01*
X36708Y36718D01*
X36708Y36721D01*
X36710Y36725D01*
X36712Y36728D01*
X36713Y36730D01*
X36714Y36731D01*
X36715Y36733D01*
X36716Y36734D01*
X36717Y36734D01*
X36717Y36735D01*
X36717Y36735D01*
X36718Y36735D01*
X36720Y36737D01*
X36722Y36739D01*
X36724Y36740D01*
X36726Y36741D01*
X36731Y36743D01*
X36736Y36744D01*
X36738Y36745D01*
X36740Y36745D01*
X36742Y36745D01*
X36743Y36745D01*
X36744Y36746D01*
X36746D01*
X36750Y36745D01*
D02*
G37*
G36*
X36652D02*
X36655Y36745D01*
X36658Y36745D01*
X36660Y36744D01*
X36663Y36743D01*
X36665Y36743D01*
X36667Y36742D01*
X36669Y36741D01*
X36671Y36740D01*
X36673Y36739D01*
X36674Y36738D01*
X36675Y36737D01*
X36676Y36737D01*
X36677Y36736D01*
X36677Y36736D01*
X36677Y36736D01*
X36679Y36734D01*
X36681Y36732D01*
X36682Y36730D01*
X36683Y36728D01*
X36686Y36723D01*
X36687Y36719D01*
X36688Y36717D01*
X36688Y36715D01*
X36689Y36713D01*
X36689Y36712D01*
X36689Y36711D01*
Y36710D01*
X36689Y36709D01*
Y36709D01*
X36673Y36707D01*
X36673Y36712D01*
X36672Y36715D01*
X36671Y36719D01*
X36670Y36721D01*
X36669Y36723D01*
X36668Y36725D01*
X36667Y36726D01*
X36667Y36726D01*
X36664Y36728D01*
X36661Y36730D01*
X36658Y36731D01*
X36655Y36732D01*
X36653Y36732D01*
X36651Y36733D01*
X36650Y36733D01*
X36649D01*
X36645Y36733D01*
X36641Y36732D01*
X36639Y36731D01*
X36636Y36730D01*
X36634Y36728D01*
X36633Y36727D01*
X36632Y36727D01*
X36631Y36726D01*
X36629Y36724D01*
X36628Y36721D01*
X36626Y36719D01*
X36626Y36716D01*
X36625Y36714D01*
X36625Y36712D01*
X36625Y36711D01*
Y36711D01*
Y36711D01*
X36625Y36708D01*
X36626Y36704D01*
X36627Y36701D01*
X36628Y36698D01*
X36630Y36696D01*
X36631Y36694D01*
X36631Y36693D01*
X36632Y36693D01*
X36632Y36692D01*
Y36692D01*
X36634Y36690D01*
X36635Y36688D01*
X36637Y36686D01*
X36640Y36684D01*
X36644Y36679D01*
X36649Y36675D01*
X36651Y36673D01*
X36653Y36671D01*
X36655Y36670D01*
X36657Y36668D01*
X36658Y36667D01*
X36659Y36666D01*
X36660Y36666D01*
X36660Y36665D01*
X36665Y36662D01*
X36669Y36658D01*
X36672Y36655D01*
X36675Y36652D01*
X36677Y36650D01*
X36679Y36648D01*
X36680Y36647D01*
X36680Y36647D01*
Y36646D01*
X36683Y36643D01*
X36685Y36640D01*
X36687Y36638D01*
X36688Y36635D01*
X36689Y36633D01*
X36690Y36631D01*
X36690Y36630D01*
X36690Y36630D01*
Y36630D01*
X36691Y36628D01*
X36692Y36626D01*
X36692Y36624D01*
X36692Y36622D01*
X36692Y36621D01*
Y36620D01*
Y36619D01*
Y36619D01*
X36609D01*
Y36634D01*
X36671D01*
X36669Y36637D01*
X36667Y36638D01*
X36667Y36640D01*
X36666Y36641D01*
X36665Y36641D01*
X36664Y36642D01*
X36664Y36642D01*
X36663Y36643D01*
X36662Y36644D01*
X36660Y36646D01*
X36657Y36649D01*
X36654Y36652D01*
X36651Y36654D01*
X36649Y36655D01*
X36648Y36656D01*
X36647Y36657D01*
X36647Y36658D01*
X36646Y36658D01*
X36646Y36658D01*
X36643Y36661D01*
X36640Y36663D01*
X36638Y36665D01*
X36635Y36667D01*
X36633Y36669D01*
X36631Y36671D01*
X36630Y36673D01*
X36628Y36674D01*
X36627Y36676D01*
X36626Y36677D01*
X36625Y36678D01*
X36624Y36679D01*
X36623Y36680D01*
X36623Y36680D01*
X36620Y36683D01*
X36618Y36686D01*
X36616Y36689D01*
X36615Y36691D01*
X36613Y36693D01*
X36613Y36694D01*
X36612Y36695D01*
X36612Y36696D01*
X36611Y36698D01*
X36610Y36701D01*
X36610Y36704D01*
X36609Y36706D01*
X36609Y36708D01*
X36609Y36709D01*
Y36710D01*
Y36711D01*
X36609Y36713D01*
X36609Y36716D01*
X36610Y36718D01*
X36611Y36721D01*
X36612Y36725D01*
X36614Y36728D01*
X36615Y36730D01*
X36616Y36731D01*
X36617Y36733D01*
X36618Y36734D01*
X36619Y36734D01*
X36619Y36735D01*
X36619Y36735D01*
X36620Y36735D01*
X36622Y36737D01*
X36624Y36739D01*
X36626Y36740D01*
X36629Y36741D01*
X36633Y36743D01*
X36638Y36744D01*
X36640Y36745D01*
X36642Y36745D01*
X36644Y36745D01*
X36645Y36745D01*
X36647Y36746D01*
X36648D01*
X36652Y36745D01*
D02*
G37*
G36*
X36554D02*
X36557Y36745D01*
X36560Y36745D01*
X36562Y36744D01*
X36565Y36743D01*
X36567Y36743D01*
X36570Y36742D01*
X36572Y36741D01*
X36573Y36740D01*
X36575Y36739D01*
X36576Y36738D01*
X36577Y36737D01*
X36578Y36737D01*
X36579Y36736D01*
X36579Y36736D01*
X36579Y36736D01*
X36581Y36734D01*
X36583Y36732D01*
X36584Y36730D01*
X36586Y36728D01*
X36588Y36723D01*
X36589Y36719D01*
X36590Y36717D01*
X36590Y36715D01*
X36591Y36713D01*
X36591Y36712D01*
X36591Y36711D01*
Y36710D01*
X36591Y36709D01*
Y36709D01*
X36576Y36707D01*
X36575Y36712D01*
X36574Y36715D01*
X36573Y36719D01*
X36572Y36721D01*
X36571Y36723D01*
X36570Y36725D01*
X36569Y36726D01*
X36569Y36726D01*
X36566Y36728D01*
X36563Y36730D01*
X36560Y36731D01*
X36557Y36732D01*
X36555Y36732D01*
X36553Y36733D01*
X36552Y36733D01*
X36551D01*
X36547Y36733D01*
X36544Y36732D01*
X36541Y36731D01*
X36538Y36730D01*
X36536Y36728D01*
X36535Y36727D01*
X36534Y36727D01*
X36534Y36726D01*
X36531Y36724D01*
X36530Y36721D01*
X36528Y36719D01*
X36528Y36716D01*
X36527Y36714D01*
X36527Y36712D01*
X36527Y36711D01*
Y36711D01*
Y36711D01*
X36527Y36708D01*
X36528Y36704D01*
X36529Y36701D01*
X36530Y36698D01*
X36532Y36696D01*
X36533Y36694D01*
X36534Y36693D01*
X36534Y36693D01*
X36534Y36692D01*
Y36692D01*
X36536Y36690D01*
X36538Y36688D01*
X36540Y36686D01*
X36542Y36684D01*
X36546Y36679D01*
X36551Y36675D01*
X36553Y36673D01*
X36555Y36671D01*
X36557Y36670D01*
X36559Y36668D01*
X36560Y36667D01*
X36561Y36666D01*
X36562Y36666D01*
X36562Y36665D01*
X36567Y36662D01*
X36571Y36658D01*
X36574Y36655D01*
X36577Y36652D01*
X36579Y36650D01*
X36581Y36648D01*
X36582Y36647D01*
X36582Y36647D01*
Y36646D01*
X36585Y36643D01*
X36587Y36640D01*
X36589Y36638D01*
X36590Y36635D01*
X36591Y36633D01*
X36592Y36631D01*
X36592Y36630D01*
X36592Y36630D01*
Y36630D01*
X36593Y36628D01*
X36594Y36626D01*
X36594Y36624D01*
X36594Y36622D01*
X36594Y36621D01*
Y36620D01*
Y36619D01*
Y36619D01*
X36511D01*
Y36634D01*
X36573D01*
X36571Y36637D01*
X36570Y36638D01*
X36569Y36640D01*
X36568Y36641D01*
X36567Y36641D01*
X36566Y36642D01*
X36566Y36642D01*
X36565Y36643D01*
X36564Y36644D01*
X36562Y36646D01*
X36559Y36649D01*
X36556Y36652D01*
X36553Y36654D01*
X36552Y36655D01*
X36550Y36656D01*
X36550Y36657D01*
X36549Y36658D01*
X36548Y36658D01*
X36548Y36658D01*
X36545Y36661D01*
X36542Y36663D01*
X36540Y36665D01*
X36538Y36667D01*
X36535Y36669D01*
X36534Y36671D01*
X36532Y36673D01*
X36530Y36674D01*
X36529Y36676D01*
X36528Y36677D01*
X36527Y36678D01*
X36526Y36679D01*
X36525Y36680D01*
X36525Y36680D01*
X36522Y36683D01*
X36520Y36686D01*
X36518Y36689D01*
X36517Y36691D01*
X36516Y36693D01*
X36515Y36694D01*
X36514Y36695D01*
X36514Y36696D01*
X36513Y36698D01*
X36512Y36701D01*
X36512Y36704D01*
X36511Y36706D01*
X36511Y36708D01*
X36511Y36709D01*
Y36710D01*
Y36711D01*
X36511Y36713D01*
X36511Y36716D01*
X36512Y36718D01*
X36513Y36721D01*
X36514Y36725D01*
X36516Y36728D01*
X36517Y36730D01*
X36518Y36731D01*
X36519Y36733D01*
X36520Y36734D01*
X36521Y36734D01*
X36521Y36735D01*
X36522Y36735D01*
X36522Y36735D01*
X36524Y36737D01*
X36526Y36739D01*
X36528Y36740D01*
X36531Y36741D01*
X36535Y36743D01*
X36540Y36744D01*
X36542Y36745D01*
X36544Y36745D01*
X36546Y36745D01*
X36547Y36745D01*
X36549Y36746D01*
X36550D01*
X36554Y36745D01*
D02*
G37*
G36*
X36909Y36619D02*
X36893D01*
Y36718D01*
X36827Y36619D01*
X36810D01*
Y36745D01*
X36826D01*
Y36646D01*
X36892Y36745D01*
X36909D01*
Y36619D01*
D02*
G37*
G36*
X36845Y36912D02*
X36849Y36912D01*
X36854Y36910D01*
X36857Y36909D01*
X36859Y36908D01*
X36860Y36907D01*
X36861Y36906D01*
X36862Y36906D01*
X36863Y36905D01*
X36864Y36905D01*
X36864Y36904D01*
X36864Y36904D01*
X36868Y36901D01*
X36870Y36897D01*
X36873Y36893D01*
X36874Y36889D01*
X36876Y36886D01*
X36876Y36884D01*
X36876Y36883D01*
X36877Y36882D01*
X36877Y36881D01*
X36877Y36880D01*
Y36880D01*
X36861Y36878D01*
X36861Y36882D01*
X36860Y36885D01*
X36858Y36888D01*
X36857Y36890D01*
X36856Y36892D01*
X36855Y36893D01*
X36854Y36894D01*
X36854Y36894D01*
X36851Y36896D01*
X36849Y36898D01*
X36847Y36899D01*
X36844Y36899D01*
X36842Y36900D01*
X36840Y36900D01*
X36839D01*
X36836Y36900D01*
X36833Y36899D01*
X36830Y36898D01*
X36828Y36897D01*
X36826Y36896D01*
X36825Y36895D01*
X36824Y36895D01*
X36824Y36894D01*
X36822Y36892D01*
X36821Y36890D01*
X36820Y36888D01*
X36819Y36885D01*
X36819Y36883D01*
X36818Y36882D01*
Y36881D01*
Y36881D01*
Y36880D01*
Y36878D01*
X36819Y36877D01*
X36819Y36874D01*
X36821Y36871D01*
X36822Y36868D01*
X36824Y36867D01*
X36825Y36866D01*
X36826Y36865D01*
X36826Y36865D01*
X36826D01*
X36829Y36863D01*
X36832Y36862D01*
X36835Y36861D01*
X36838Y36860D01*
X36840Y36860D01*
X36842Y36860D01*
X36845D01*
X36845Y36860D01*
X36846D01*
X36848Y36846D01*
X36846Y36847D01*
X36844Y36847D01*
X36842Y36847D01*
X36840Y36847D01*
X36839Y36848D01*
X36837D01*
X36833Y36847D01*
X36830Y36847D01*
X36827Y36845D01*
X36824Y36844D01*
X36822Y36843D01*
X36821Y36842D01*
X36820Y36841D01*
X36820Y36841D01*
X36817Y36838D01*
X36815Y36835D01*
X36814Y36832D01*
X36813Y36829D01*
X36813Y36827D01*
X36813Y36825D01*
X36813Y36824D01*
Y36824D01*
Y36823D01*
Y36823D01*
X36813Y36819D01*
X36814Y36815D01*
X36815Y36812D01*
X36816Y36810D01*
X36818Y36807D01*
X36819Y36806D01*
X36820Y36805D01*
X36820Y36804D01*
X36823Y36802D01*
X36826Y36800D01*
X36829Y36799D01*
X36832Y36798D01*
X36835Y36797D01*
X36837Y36797D01*
X36837Y36797D01*
X36839D01*
X36842Y36797D01*
X36845Y36798D01*
X36848Y36799D01*
X36850Y36800D01*
X36852Y36801D01*
X36853Y36802D01*
X36854Y36802D01*
X36854Y36803D01*
X36856Y36805D01*
X36858Y36808D01*
X36860Y36811D01*
X36861Y36814D01*
X36862Y36817D01*
X36862Y36818D01*
X36863Y36819D01*
X36863Y36820D01*
X36863Y36821D01*
X36863Y36821D01*
Y36822D01*
X36879Y36820D01*
X36878Y36817D01*
X36878Y36814D01*
X36876Y36809D01*
X36874Y36805D01*
X36873Y36803D01*
X36872Y36801D01*
X36871Y36799D01*
X36870Y36798D01*
X36869Y36797D01*
X36868Y36796D01*
X36867Y36795D01*
X36867Y36795D01*
X36866Y36794D01*
X36866Y36794D01*
X36864Y36792D01*
X36862Y36791D01*
X36860Y36789D01*
X36857Y36788D01*
X36853Y36787D01*
X36848Y36785D01*
X36846Y36785D01*
X36845Y36785D01*
X36843Y36785D01*
X36841Y36784D01*
X36840Y36784D01*
X36839D01*
X36835Y36784D01*
X36832Y36785D01*
X36829Y36785D01*
X36826Y36786D01*
X36823Y36787D01*
X36821Y36788D01*
X36819Y36789D01*
X36817Y36790D01*
X36815Y36791D01*
X36813Y36792D01*
X36812Y36793D01*
X36811Y36794D01*
X36810Y36795D01*
X36809Y36795D01*
X36809Y36795D01*
X36808Y36796D01*
X36806Y36798D01*
X36804Y36800D01*
X36803Y36803D01*
X36801Y36805D01*
X36800Y36807D01*
X36799Y36809D01*
X36798Y36814D01*
X36797Y36816D01*
X36797Y36818D01*
X36797Y36819D01*
X36796Y36821D01*
X36796Y36822D01*
Y36823D01*
Y36823D01*
Y36823D01*
X36796Y36828D01*
X36797Y36832D01*
X36798Y36835D01*
X36799Y36838D01*
X36800Y36841D01*
X36801Y36842D01*
X36802Y36843D01*
X36802Y36844D01*
X36805Y36847D01*
X36808Y36849D01*
X36811Y36851D01*
X36813Y36852D01*
X36816Y36853D01*
X36818Y36854D01*
X36819Y36854D01*
X36819Y36854D01*
X36820Y36855D01*
X36820D01*
X36817Y36856D01*
X36814Y36858D01*
X36812Y36860D01*
X36810Y36861D01*
X36809Y36863D01*
X36808Y36864D01*
X36807Y36865D01*
X36807Y36865D01*
X36805Y36868D01*
X36804Y36870D01*
X36803Y36873D01*
X36803Y36875D01*
X36803Y36877D01*
X36802Y36879D01*
Y36880D01*
Y36880D01*
X36803Y36883D01*
X36803Y36886D01*
X36804Y36889D01*
X36805Y36891D01*
X36806Y36893D01*
X36806Y36895D01*
X36807Y36896D01*
X36807Y36896D01*
X36809Y36899D01*
X36811Y36901D01*
X36813Y36903D01*
X36815Y36905D01*
X36817Y36906D01*
X36819Y36908D01*
X36820Y36908D01*
X36820Y36908D01*
X36820D01*
X36824Y36910D01*
X36827Y36911D01*
X36830Y36912D01*
X36833Y36912D01*
X36835Y36913D01*
X36837Y36913D01*
X36842D01*
X36845Y36912D01*
D02*
G37*
G36*
X36961Y36914D02*
X36967Y36913D01*
X36973Y36912D01*
X36975Y36911D01*
X36977Y36910D01*
X36979Y36910D01*
X36981Y36909D01*
X36983Y36908D01*
X36984Y36908D01*
X36985Y36907D01*
X36986Y36907D01*
X36986Y36907D01*
X36986Y36906D01*
X36991Y36903D01*
X36995Y36899D01*
X36999Y36896D01*
X37002Y36892D01*
X37005Y36888D01*
X37006Y36887D01*
X37006Y36886D01*
X37007Y36885D01*
X37007Y36884D01*
X37008Y36883D01*
X37008Y36883D01*
X37010Y36877D01*
X37012Y36871D01*
X37013Y36866D01*
X37014Y36860D01*
X37015Y36858D01*
X37015Y36856D01*
X37015Y36854D01*
Y36852D01*
X37015Y36851D01*
Y36850D01*
Y36849D01*
Y36849D01*
X37015Y36842D01*
X37014Y36836D01*
X37013Y36833D01*
X37013Y36830D01*
X37012Y36828D01*
X37011Y36825D01*
X37011Y36823D01*
X37010Y36821D01*
X37009Y36819D01*
X37009Y36818D01*
X37009Y36817D01*
X37008Y36816D01*
X37008Y36816D01*
Y36815D01*
X37005Y36810D01*
X37001Y36806D01*
X36998Y36802D01*
X36994Y36798D01*
X36991Y36796D01*
X36990Y36795D01*
X36989Y36794D01*
X36988Y36793D01*
X36987Y36793D01*
X36987Y36793D01*
X36987Y36792D01*
X36984Y36791D01*
X36981Y36790D01*
X36976Y36788D01*
X36971Y36786D01*
X36966Y36785D01*
X36964Y36785D01*
X36962Y36785D01*
X36960Y36784D01*
X36958D01*
X36957Y36784D01*
X36955D01*
X36952Y36784D01*
X36949Y36785D01*
X36943Y36785D01*
X36938Y36787D01*
X36936Y36787D01*
X36934Y36788D01*
X36932Y36789D01*
X36930Y36789D01*
X36928Y36790D01*
X36927Y36791D01*
X36926Y36791D01*
X36925Y36792D01*
X36925Y36792D01*
X36924D01*
X36919Y36788D01*
X36914Y36785D01*
X36910Y36783D01*
X36906Y36780D01*
X36904Y36779D01*
X36902Y36779D01*
X36901Y36778D01*
X36900Y36777D01*
X36899Y36777D01*
X36898Y36777D01*
X36898Y36777D01*
X36897D01*
X36892Y36788D01*
X36896Y36790D01*
X36900Y36791D01*
X36904Y36793D01*
X36907Y36795D01*
X36910Y36797D01*
X36911Y36798D01*
X36912Y36798D01*
X36913Y36799D01*
X36913Y36799D01*
X36914Y36800D01*
X36914D01*
X36910Y36803D01*
X36908Y36807D01*
X36905Y36811D01*
X36903Y36814D01*
X36902Y36817D01*
X36901Y36818D01*
X36900Y36819D01*
X36900Y36820D01*
X36900Y36821D01*
X36900Y36821D01*
Y36821D01*
X36898Y36826D01*
X36897Y36831D01*
X36896Y36836D01*
X36895Y36840D01*
X36895Y36842D01*
X36895Y36844D01*
Y36845D01*
X36895Y36847D01*
Y36848D01*
Y36849D01*
Y36849D01*
Y36849D01*
X36895Y36856D01*
X36896Y36862D01*
X36896Y36865D01*
X36897Y36868D01*
X36898Y36871D01*
X36898Y36873D01*
X36899Y36875D01*
X36900Y36877D01*
X36900Y36879D01*
X36901Y36880D01*
X36902Y36881D01*
X36902Y36882D01*
X36902Y36883D01*
Y36883D01*
X36905Y36888D01*
X36909Y36893D01*
X36912Y36897D01*
X36916Y36900D01*
X36919Y36903D01*
X36920Y36904D01*
X36921Y36905D01*
X36922Y36905D01*
X36923Y36906D01*
X36923Y36906D01*
X36924Y36906D01*
X36926Y36908D01*
X36929Y36909D01*
X36934Y36911D01*
X36940Y36912D01*
X36944Y36913D01*
X36947Y36914D01*
X36949Y36914D01*
X36950Y36914D01*
X36952D01*
X36953Y36914D01*
X36958D01*
X36961Y36914D01*
D02*
G37*
G36*
X27141Y3452D02*
X27143Y3452D01*
X27145Y3452D01*
X27147Y3451D01*
X27149Y3450D01*
X27149D01*
X27149Y3450D01*
X27150Y3450D01*
X27152Y3449D01*
X27154Y3448D01*
X27157Y3447D01*
X27159Y3445D01*
X27162Y3443D01*
X27165Y3440D01*
X27166D01*
X27166Y3440D01*
X27167Y3439D01*
X27169Y3437D01*
X27171Y3435D01*
X27174Y3432D01*
X27177Y3429D01*
X27181Y3425D01*
X27184Y3420D01*
X27185Y3420D01*
X27185Y3419D01*
X27186Y3418D01*
X27187Y3417D01*
X27189Y3415D01*
X27190Y3413D01*
X27192Y3411D01*
X27194Y3409D01*
X27198Y3404D01*
X27203Y3400D01*
X27205Y3397D01*
X27207Y3395D01*
X27209Y3394D01*
X27211Y3392D01*
X27211D01*
X27211Y3392D01*
X27212Y3391D01*
X27213Y3391D01*
X27215Y3390D01*
X27217Y3388D01*
X27220Y3387D01*
X27223Y3386D01*
X27227Y3385D01*
X27230Y3385D01*
X27230D01*
X27230D01*
X27231Y3385D01*
X27233Y3385D01*
X27235Y3386D01*
X27238Y3386D01*
X27240Y3388D01*
X27243Y3389D01*
X27245Y3391D01*
X27246Y3392D01*
X27246Y3393D01*
X27247Y3394D01*
X27249Y3396D01*
X27250Y3399D01*
X27251Y3401D01*
X27252Y3405D01*
X27252Y3409D01*
Y3410D01*
X27252Y3411D01*
X27251Y3413D01*
X27251Y3415D01*
X27250Y3418D01*
X27249Y3421D01*
X27247Y3424D01*
X27245Y3427D01*
X27245Y3427D01*
X27244Y3428D01*
X27242Y3429D01*
X27240Y3430D01*
X27238Y3431D01*
X27234Y3432D01*
X27231Y3433D01*
X27226Y3434D01*
X27228Y3449D01*
X27228D01*
X27229Y3449D01*
X27230D01*
X27231Y3449D01*
X27232Y3449D01*
X27234Y3448D01*
X27236Y3448D01*
X27238Y3447D01*
X27242Y3446D01*
X27247Y3444D01*
X27249Y3442D01*
X27251Y3441D01*
X27253Y3439D01*
X27255Y3437D01*
X27255Y3437D01*
X27255Y3437D01*
X27256Y3436D01*
X27256Y3435D01*
X27257Y3434D01*
X27258Y3433D01*
X27259Y3431D01*
X27260Y3430D01*
X27261Y3428D01*
X27262Y3425D01*
X27262Y3423D01*
X27263Y3420D01*
X27264Y3418D01*
X27264Y3415D01*
X27264Y3412D01*
X27264Y3408D01*
Y3407D01*
X27264Y3405D01*
X27264Y3404D01*
X27264Y3402D01*
X27264Y3400D01*
X27263Y3398D01*
X27262Y3393D01*
X27260Y3389D01*
X27259Y3386D01*
X27258Y3384D01*
X27256Y3382D01*
X27254Y3380D01*
X27254Y3379D01*
X27254Y3379D01*
X27253Y3379D01*
X27252Y3378D01*
X27252Y3377D01*
X27250Y3376D01*
X27249Y3375D01*
X27247Y3374D01*
X27244Y3372D01*
X27240Y3371D01*
X27237Y3370D01*
X27235Y3369D01*
X27232Y3369D01*
X27229Y3369D01*
X27229D01*
X27228D01*
X27227Y3369D01*
X27225Y3369D01*
X27223Y3370D01*
X27220Y3370D01*
X27217Y3371D01*
X27215Y3372D01*
X27214Y3372D01*
X27213Y3373D01*
X27212Y3373D01*
X27210Y3375D01*
X27208Y3376D01*
X27205Y3378D01*
X27202Y3380D01*
X27199Y3383D01*
X27199Y3383D01*
X27198Y3384D01*
X27197Y3385D01*
X27196Y3386D01*
X27195Y3387D01*
X27193Y3388D01*
X27192Y3390D01*
X27190Y3391D01*
X27188Y3393D01*
X27186Y3395D01*
X27184Y3398D01*
X27182Y3400D01*
X27180Y3403D01*
X27177Y3406D01*
X27177Y3406D01*
X27177Y3407D01*
X27176Y3407D01*
X27175Y3408D01*
X27174Y3409D01*
X27173Y3411D01*
X27171Y3414D01*
X27168Y3417D01*
X27165Y3420D01*
X27163Y3422D01*
X27162Y3423D01*
X27161Y3424D01*
X27161Y3424D01*
X27160Y3425D01*
X27160Y3426D01*
X27159Y3427D01*
X27157Y3428D01*
X27156Y3429D01*
X27153Y3431D01*
Y3369D01*
X27138D01*
Y3452D01*
X27138D01*
X27139D01*
X27140D01*
X27141Y3452D01*
D02*
G37*
G36*
X27264Y3329D02*
X27165Y3263D01*
X27264D01*
Y3247D01*
X27138D01*
Y3264D01*
X27237Y3330D01*
X27138D01*
Y3346D01*
X27264D01*
Y3329D01*
D02*
G37*
G36*
X27141Y3227D02*
X27143Y3227D01*
X27145Y3227D01*
X27147Y3226D01*
X27149Y3225D01*
X27149D01*
X27149Y3225D01*
X27150Y3225D01*
X27152Y3224D01*
X27154Y3223D01*
X27157Y3222D01*
X27159Y3220D01*
X27162Y3218D01*
X27165Y3215D01*
X27166D01*
X27166Y3215D01*
X27167Y3214D01*
X27169Y3212D01*
X27171Y3210D01*
X27174Y3207D01*
X27177Y3204D01*
X27181Y3200D01*
X27184Y3195D01*
X27185Y3195D01*
X27185Y3194D01*
X27186Y3193D01*
X27187Y3192D01*
X27189Y3190D01*
X27190Y3188D01*
X27192Y3186D01*
X27194Y3184D01*
X27198Y3179D01*
X27203Y3175D01*
X27205Y3173D01*
X27207Y3171D01*
X27209Y3169D01*
X27211Y3167D01*
X27211D01*
X27211Y3167D01*
X27212Y3167D01*
X27213Y3166D01*
X27215Y3165D01*
X27217Y3163D01*
X27220Y3162D01*
X27223Y3161D01*
X27227Y3160D01*
X27230Y3160D01*
X27230D01*
X27230D01*
X27231Y3160D01*
X27233Y3160D01*
X27235Y3161D01*
X27238Y3161D01*
X27240Y3163D01*
X27243Y3164D01*
X27245Y3167D01*
X27246Y3167D01*
X27246Y3168D01*
X27247Y3169D01*
X27249Y3171D01*
X27250Y3174D01*
X27251Y3177D01*
X27252Y3180D01*
X27252Y3184D01*
Y3185D01*
X27252Y3186D01*
X27251Y3188D01*
X27251Y3190D01*
X27250Y3193D01*
X27249Y3196D01*
X27247Y3199D01*
X27245Y3202D01*
X27245Y3202D01*
X27244Y3203D01*
X27242Y3204D01*
X27240Y3205D01*
X27238Y3206D01*
X27234Y3207D01*
X27231Y3208D01*
X27226Y3209D01*
X27228Y3224D01*
X27228D01*
X27229Y3224D01*
X27230D01*
X27231Y3224D01*
X27232Y3224D01*
X27234Y3223D01*
X27236Y3223D01*
X27238Y3222D01*
X27242Y3221D01*
X27247Y3219D01*
X27249Y3217D01*
X27251Y3216D01*
X27253Y3214D01*
X27255Y3212D01*
X27255Y3212D01*
X27255Y3212D01*
X27256Y3211D01*
X27256Y3210D01*
X27257Y3209D01*
X27258Y3208D01*
X27259Y3206D01*
X27260Y3205D01*
X27261Y3203D01*
X27262Y3200D01*
X27262Y3198D01*
X27263Y3195D01*
X27264Y3193D01*
X27264Y3190D01*
X27264Y3187D01*
X27264Y3183D01*
Y3182D01*
X27264Y3180D01*
X27264Y3179D01*
X27264Y3177D01*
X27264Y3175D01*
X27263Y3173D01*
X27262Y3168D01*
X27260Y3164D01*
X27259Y3161D01*
X27258Y3159D01*
X27256Y3157D01*
X27254Y3155D01*
X27254Y3155D01*
X27254Y3154D01*
X27253Y3154D01*
X27252Y3153D01*
X27252Y3152D01*
X27250Y3151D01*
X27249Y3150D01*
X27247Y3149D01*
X27244Y3147D01*
X27240Y3146D01*
X27237Y3145D01*
X27235Y3144D01*
X27232Y3144D01*
X27229Y3144D01*
X27229D01*
X27228D01*
X27227Y3144D01*
X27225Y3144D01*
X27223Y3145D01*
X27220Y3145D01*
X27217Y3146D01*
X27215Y3147D01*
X27214Y3147D01*
X27213Y3148D01*
X27212Y3149D01*
X27210Y3150D01*
X27208Y3151D01*
X27205Y3153D01*
X27202Y3155D01*
X27199Y3158D01*
X27199Y3158D01*
X27198Y3159D01*
X27197Y3160D01*
X27196Y3161D01*
X27195Y3162D01*
X27193Y3163D01*
X27192Y3165D01*
X27190Y3167D01*
X27188Y3168D01*
X27186Y3171D01*
X27184Y3173D01*
X27182Y3175D01*
X27180Y3178D01*
X27177Y3181D01*
X27177Y3181D01*
X27177Y3182D01*
X27176Y3183D01*
X27175Y3183D01*
X27174Y3185D01*
X27173Y3186D01*
X27171Y3189D01*
X27168Y3192D01*
X27165Y3195D01*
X27163Y3197D01*
X27162Y3198D01*
X27161Y3199D01*
X27161Y3199D01*
X27160Y3200D01*
X27160Y3201D01*
X27159Y3202D01*
X27157Y3203D01*
X27156Y3204D01*
X27153Y3206D01*
Y3144D01*
X27138D01*
Y3227D01*
X27138D01*
X27139D01*
X27140D01*
X27141Y3227D01*
D02*
G37*
G36*
Y3129D02*
X27143Y3129D01*
X27145Y3129D01*
X27147Y3128D01*
X27149Y3128D01*
X27149D01*
X27149Y3127D01*
X27150Y3127D01*
X27152Y3126D01*
X27154Y3125D01*
X27157Y3124D01*
X27159Y3122D01*
X27162Y3120D01*
X27165Y3117D01*
X27166D01*
X27166Y3117D01*
X27167Y3116D01*
X27169Y3114D01*
X27171Y3112D01*
X27174Y3109D01*
X27177Y3106D01*
X27181Y3102D01*
X27184Y3097D01*
X27185Y3097D01*
X27185Y3096D01*
X27186Y3095D01*
X27187Y3094D01*
X27189Y3092D01*
X27190Y3090D01*
X27192Y3088D01*
X27194Y3086D01*
X27198Y3081D01*
X27203Y3077D01*
X27205Y3075D01*
X27207Y3073D01*
X27209Y3071D01*
X27211Y3069D01*
X27211D01*
X27211Y3069D01*
X27212Y3069D01*
X27213Y3068D01*
X27215Y3067D01*
X27217Y3066D01*
X27220Y3064D01*
X27223Y3063D01*
X27227Y3062D01*
X27230Y3062D01*
X27230D01*
X27230D01*
X27231Y3062D01*
X27233Y3062D01*
X27235Y3063D01*
X27238Y3064D01*
X27240Y3065D01*
X27243Y3066D01*
X27245Y3069D01*
X27246Y3069D01*
X27246Y3070D01*
X27247Y3071D01*
X27249Y3073D01*
X27250Y3076D01*
X27251Y3079D01*
X27252Y3082D01*
X27252Y3086D01*
Y3087D01*
X27252Y3088D01*
X27251Y3090D01*
X27251Y3092D01*
X27250Y3095D01*
X27249Y3098D01*
X27247Y3101D01*
X27245Y3104D01*
X27245Y3104D01*
X27244Y3105D01*
X27242Y3106D01*
X27240Y3107D01*
X27238Y3108D01*
X27234Y3110D01*
X27231Y3110D01*
X27226Y3111D01*
X27228Y3126D01*
X27228D01*
X27229Y3126D01*
X27230D01*
X27231Y3126D01*
X27232Y3126D01*
X27234Y3125D01*
X27236Y3125D01*
X27238Y3124D01*
X27242Y3123D01*
X27247Y3121D01*
X27249Y3119D01*
X27251Y3118D01*
X27253Y3116D01*
X27255Y3114D01*
X27255Y3114D01*
X27255Y3114D01*
X27256Y3113D01*
X27256Y3112D01*
X27257Y3111D01*
X27258Y3110D01*
X27259Y3108D01*
X27260Y3107D01*
X27261Y3105D01*
X27262Y3102D01*
X27262Y3100D01*
X27263Y3098D01*
X27264Y3095D01*
X27264Y3092D01*
X27264Y3089D01*
X27264Y3086D01*
Y3084D01*
X27264Y3082D01*
X27264Y3081D01*
X27264Y3079D01*
X27264Y3077D01*
X27263Y3075D01*
X27262Y3070D01*
X27260Y3066D01*
X27259Y3063D01*
X27258Y3061D01*
X27256Y3059D01*
X27254Y3057D01*
X27254Y3057D01*
X27254Y3056D01*
X27253Y3056D01*
X27252Y3055D01*
X27252Y3054D01*
X27250Y3053D01*
X27249Y3052D01*
X27247Y3051D01*
X27244Y3049D01*
X27240Y3048D01*
X27237Y3047D01*
X27235Y3047D01*
X27232Y3046D01*
X27229Y3046D01*
X27229D01*
X27228D01*
X27227Y3046D01*
X27225Y3046D01*
X27223Y3047D01*
X27220Y3047D01*
X27217Y3048D01*
X27215Y3049D01*
X27214Y3049D01*
X27213Y3050D01*
X27212Y3051D01*
X27210Y3052D01*
X27208Y3053D01*
X27205Y3055D01*
X27202Y3057D01*
X27199Y3060D01*
X27199Y3060D01*
X27198Y3061D01*
X27197Y3062D01*
X27196Y3063D01*
X27195Y3064D01*
X27193Y3065D01*
X27192Y3067D01*
X27190Y3069D01*
X27188Y3070D01*
X27186Y3073D01*
X27184Y3075D01*
X27182Y3078D01*
X27180Y3080D01*
X27177Y3083D01*
X27177Y3084D01*
X27177Y3084D01*
X27176Y3085D01*
X27175Y3086D01*
X27174Y3087D01*
X27173Y3088D01*
X27171Y3091D01*
X27168Y3094D01*
X27165Y3097D01*
X27163Y3099D01*
X27162Y3100D01*
X27161Y3101D01*
X27161Y3102D01*
X27160Y3102D01*
X27160Y3103D01*
X27159Y3104D01*
X27157Y3105D01*
X27156Y3106D01*
X27153Y3108D01*
Y3046D01*
X27138D01*
Y3129D01*
X27138D01*
X27139D01*
X27140D01*
X27141Y3129D01*
D02*
G37*
G36*
Y3031D02*
X27143Y3031D01*
X27145Y3031D01*
X27147Y3030D01*
X27149Y3030D01*
X27149D01*
X27149Y3029D01*
X27150Y3029D01*
X27152Y3028D01*
X27154Y3027D01*
X27157Y3026D01*
X27159Y3024D01*
X27162Y3022D01*
X27165Y3019D01*
X27166D01*
X27166Y3019D01*
X27167Y3018D01*
X27169Y3017D01*
X27171Y3014D01*
X27174Y3011D01*
X27177Y3008D01*
X27181Y3004D01*
X27184Y2999D01*
X27185Y2999D01*
X27185Y2998D01*
X27186Y2997D01*
X27187Y2996D01*
X27189Y2994D01*
X27190Y2992D01*
X27192Y2990D01*
X27194Y2988D01*
X27198Y2983D01*
X27203Y2979D01*
X27205Y2977D01*
X27207Y2975D01*
X27209Y2973D01*
X27211Y2971D01*
X27211D01*
X27211Y2971D01*
X27212Y2971D01*
X27213Y2970D01*
X27215Y2969D01*
X27217Y2968D01*
X27220Y2966D01*
X27223Y2965D01*
X27227Y2964D01*
X27230Y2964D01*
X27230D01*
X27230D01*
X27231Y2964D01*
X27233Y2964D01*
X27235Y2965D01*
X27238Y2966D01*
X27240Y2967D01*
X27243Y2968D01*
X27245Y2971D01*
X27246Y2971D01*
X27246Y2972D01*
X27247Y2973D01*
X27249Y2975D01*
X27250Y2978D01*
X27251Y2981D01*
X27252Y2984D01*
X27252Y2988D01*
Y2989D01*
X27252Y2990D01*
X27251Y2992D01*
X27251Y2995D01*
X27250Y2997D01*
X27249Y3000D01*
X27247Y3003D01*
X27245Y3006D01*
X27245Y3006D01*
X27244Y3007D01*
X27242Y3008D01*
X27240Y3009D01*
X27238Y3011D01*
X27234Y3012D01*
X27231Y3012D01*
X27226Y3013D01*
X27228Y3029D01*
X27228D01*
X27229Y3028D01*
X27230D01*
X27231Y3028D01*
X27232Y3028D01*
X27234Y3027D01*
X27236Y3027D01*
X27238Y3026D01*
X27242Y3025D01*
X27247Y3023D01*
X27249Y3021D01*
X27251Y3020D01*
X27253Y3018D01*
X27255Y3016D01*
X27255Y3016D01*
X27255Y3016D01*
X27256Y3015D01*
X27256Y3014D01*
X27257Y3013D01*
X27258Y3012D01*
X27259Y3011D01*
X27260Y3009D01*
X27261Y3007D01*
X27262Y3005D01*
X27262Y3002D01*
X27263Y3000D01*
X27264Y2997D01*
X27264Y2994D01*
X27264Y2991D01*
X27264Y2988D01*
Y2986D01*
X27264Y2985D01*
X27264Y2983D01*
X27264Y2981D01*
X27264Y2979D01*
X27263Y2977D01*
X27262Y2973D01*
X27260Y2968D01*
X27259Y2965D01*
X27258Y2963D01*
X27256Y2961D01*
X27254Y2959D01*
X27254Y2959D01*
X27254Y2958D01*
X27253Y2958D01*
X27252Y2957D01*
X27252Y2956D01*
X27250Y2955D01*
X27249Y2954D01*
X27247Y2953D01*
X27244Y2952D01*
X27240Y2950D01*
X27237Y2949D01*
X27235Y2949D01*
X27232Y2948D01*
X27229Y2948D01*
X27229D01*
X27228D01*
X27227Y2948D01*
X27225Y2948D01*
X27223Y2949D01*
X27220Y2950D01*
X27217Y2950D01*
X27215Y2951D01*
X27214Y2952D01*
X27213Y2952D01*
X27212Y2953D01*
X27210Y2954D01*
X27208Y2955D01*
X27205Y2957D01*
X27202Y2959D01*
X27199Y2962D01*
X27199Y2962D01*
X27198Y2963D01*
X27197Y2964D01*
X27196Y2965D01*
X27195Y2966D01*
X27193Y2967D01*
X27192Y2969D01*
X27190Y2971D01*
X27188Y2973D01*
X27186Y2975D01*
X27184Y2977D01*
X27182Y2980D01*
X27180Y2983D01*
X27177Y2985D01*
X27177Y2986D01*
X27177Y2986D01*
X27176Y2987D01*
X27175Y2988D01*
X27174Y2989D01*
X27173Y2990D01*
X27171Y2993D01*
X27168Y2996D01*
X27165Y2999D01*
X27163Y3001D01*
X27162Y3003D01*
X27161Y3003D01*
X27161Y3004D01*
X27160Y3004D01*
X27160Y3005D01*
X27159Y3006D01*
X27157Y3007D01*
X27156Y3008D01*
X27153Y3010D01*
Y2948D01*
X27138D01*
Y3031D01*
X27138D01*
X27139D01*
X27140D01*
X27141Y3031D01*
D02*
G37*
G36*
X27371Y3452D02*
X27373D01*
X27375Y3452D01*
X27377Y3452D01*
X27379Y3452D01*
X27385Y3451D01*
X27390Y3449D01*
X27396Y3448D01*
X27402Y3445D01*
X27402Y3445D01*
X27403Y3445D01*
X27404Y3444D01*
X27405Y3444D01*
X27406Y3443D01*
X27407Y3442D01*
X27411Y3439D01*
X27414Y3436D01*
X27418Y3433D01*
X27422Y3428D01*
X27425Y3424D01*
X27426Y3423D01*
X27426Y3423D01*
X27426Y3422D01*
X27427Y3421D01*
X27427Y3420D01*
X27428Y3418D01*
X27429Y3416D01*
X27429Y3414D01*
X27430Y3412D01*
X27431Y3410D01*
X27432Y3404D01*
X27433Y3399D01*
X27433Y3395D01*
Y3391D01*
X27433Y3389D01*
Y3388D01*
X27433Y3386D01*
X27433Y3384D01*
X27432Y3382D01*
X27431Y3377D01*
X27430Y3371D01*
X27428Y3366D01*
X27426Y3363D01*
X27425Y3361D01*
X27425Y3361D01*
X27425Y3360D01*
X27424Y3359D01*
X27424Y3358D01*
X27423Y3357D01*
X27422Y3356D01*
X27419Y3353D01*
X27416Y3349D01*
X27412Y3346D01*
X27407Y3342D01*
X27402Y3339D01*
X27402D01*
X27401Y3339D01*
X27400Y3339D01*
X27399Y3338D01*
X27398Y3338D01*
X27396Y3337D01*
X27394Y3336D01*
X27392Y3336D01*
X27390Y3335D01*
X27387Y3334D01*
X27384Y3334D01*
X27381Y3333D01*
X27375Y3332D01*
X27368Y3332D01*
X27368D01*
X27368D01*
X27367D01*
X27366D01*
X27364Y3332D01*
X27363D01*
X27361Y3332D01*
X27359Y3332D01*
X27355Y3333D01*
X27350Y3334D01*
X27345Y3335D01*
X27340Y3337D01*
X27340D01*
X27340Y3337D01*
X27339Y3337D01*
X27338Y3338D01*
X27337Y3338D01*
X27336Y3339D01*
X27333Y3340D01*
X27329Y3342D01*
X27326Y3345D01*
X27322Y3348D01*
X27319Y3351D01*
Y3351D01*
X27318Y3350D01*
X27318Y3350D01*
X27317Y3349D01*
X27317Y3348D01*
X27316Y3347D01*
X27314Y3344D01*
X27312Y3341D01*
X27310Y3337D01*
X27309Y3333D01*
X27307Y3330D01*
X27295Y3334D01*
Y3335D01*
X27296Y3335D01*
X27296Y3336D01*
X27296Y3337D01*
X27297Y3338D01*
X27298Y3340D01*
X27298Y3341D01*
X27299Y3343D01*
X27301Y3347D01*
X27304Y3352D01*
X27307Y3357D01*
X27311Y3362D01*
Y3362D01*
X27311Y3362D01*
X27310Y3363D01*
X27310Y3364D01*
X27309Y3365D01*
X27308Y3367D01*
X27308Y3369D01*
X27307Y3371D01*
X27306Y3373D01*
X27306Y3375D01*
X27304Y3381D01*
X27303Y3386D01*
X27303Y3389D01*
X27303Y3393D01*
Y3394D01*
X27303Y3395D01*
Y3397D01*
X27303Y3399D01*
X27304Y3401D01*
X27304Y3403D01*
X27305Y3408D01*
X27307Y3413D01*
X27309Y3418D01*
X27310Y3421D01*
X27311Y3424D01*
X27311Y3424D01*
X27312Y3424D01*
X27312Y3425D01*
X27313Y3426D01*
X27314Y3427D01*
X27315Y3428D01*
X27317Y3432D01*
X27321Y3435D01*
X27325Y3438D01*
X27329Y3442D01*
X27334Y3445D01*
X27335D01*
X27335Y3445D01*
X27336Y3446D01*
X27337Y3446D01*
X27338Y3447D01*
X27340Y3447D01*
X27342Y3448D01*
X27344Y3449D01*
X27347Y3449D01*
X27349Y3450D01*
X27352Y3451D01*
X27355Y3451D01*
X27361Y3452D01*
X27368Y3452D01*
X27368D01*
X27369D01*
X27370D01*
X27371Y3452D01*
D02*
G37*
G36*
X27309Y3318D02*
X27310Y3318D01*
X27312Y3317D01*
X27314Y3317D01*
X27316Y3316D01*
X27316D01*
X27316Y3316D01*
X27317Y3316D01*
X27319Y3315D01*
X27321Y3314D01*
X27324Y3312D01*
X27327Y3311D01*
X27330Y3309D01*
X27333Y3306D01*
X27333D01*
X27333Y3306D01*
X27334Y3305D01*
X27336Y3303D01*
X27338Y3301D01*
X27341Y3298D01*
X27344Y3295D01*
X27348Y3290D01*
X27352Y3286D01*
X27352Y3286D01*
X27352Y3285D01*
X27353Y3284D01*
X27354Y3283D01*
X27356Y3281D01*
X27358Y3279D01*
X27359Y3277D01*
X27361Y3275D01*
X27366Y3270D01*
X27370Y3266D01*
X27372Y3263D01*
X27374Y3261D01*
X27376Y3260D01*
X27378Y3258D01*
X27379D01*
X27379Y3258D01*
X27379Y3257D01*
X27380Y3257D01*
X27382Y3256D01*
X27384Y3254D01*
X27387Y3253D01*
X27390Y3252D01*
X27394Y3251D01*
X27397Y3251D01*
X27397D01*
X27398D01*
X27399Y3251D01*
X27400Y3251D01*
X27402Y3252D01*
X27405Y3252D01*
X27408Y3254D01*
X27410Y3255D01*
X27413Y3257D01*
X27413Y3258D01*
X27414Y3259D01*
X27415Y3260D01*
X27416Y3262D01*
X27417Y3264D01*
X27418Y3267D01*
X27419Y3271D01*
X27419Y3275D01*
Y3276D01*
X27419Y3276D01*
X27419Y3279D01*
X27418Y3281D01*
X27417Y3284D01*
X27416Y3287D01*
X27414Y3290D01*
X27412Y3293D01*
X27412Y3293D01*
X27411Y3294D01*
X27410Y3295D01*
X27407Y3296D01*
X27405Y3297D01*
X27402Y3298D01*
X27398Y3299D01*
X27394Y3299D01*
X27395Y3315D01*
X27396D01*
X27396Y3315D01*
X27397D01*
X27398Y3315D01*
X27400Y3314D01*
X27401Y3314D01*
X27403Y3314D01*
X27405Y3313D01*
X27410Y3312D01*
X27414Y3309D01*
X27416Y3308D01*
X27418Y3306D01*
X27420Y3305D01*
X27422Y3303D01*
X27422Y3303D01*
X27423Y3302D01*
X27423Y3302D01*
X27424Y3301D01*
X27424Y3300D01*
X27425Y3299D01*
X27426Y3297D01*
X27427Y3295D01*
X27428Y3293D01*
X27429Y3291D01*
X27430Y3289D01*
X27430Y3286D01*
X27431Y3284D01*
X27431Y3281D01*
X27432Y3278D01*
X27432Y3274D01*
Y3272D01*
X27432Y3271D01*
X27431Y3270D01*
X27431Y3268D01*
X27431Y3266D01*
X27430Y3264D01*
X27429Y3259D01*
X27427Y3254D01*
X27426Y3252D01*
X27425Y3250D01*
X27423Y3248D01*
X27422Y3246D01*
X27421Y3245D01*
X27421Y3245D01*
X27420Y3245D01*
X27420Y3244D01*
X27419Y3243D01*
X27418Y3242D01*
X27416Y3241D01*
X27415Y3240D01*
X27411Y3238D01*
X27407Y3236D01*
X27405Y3236D01*
X27402Y3235D01*
X27400Y3235D01*
X27397Y3235D01*
X27396D01*
X27396D01*
X27394Y3235D01*
X27392Y3235D01*
X27390Y3235D01*
X27387Y3236D01*
X27385Y3237D01*
X27382Y3238D01*
X27382Y3238D01*
X27381Y3239D01*
X27379Y3239D01*
X27377Y3240D01*
X27375Y3242D01*
X27372Y3244D01*
X27370Y3246D01*
X27366Y3248D01*
X27366Y3249D01*
X27365Y3250D01*
X27364Y3251D01*
X27363Y3252D01*
X27362Y3253D01*
X27361Y3254D01*
X27359Y3256D01*
X27358Y3257D01*
X27356Y3259D01*
X27354Y3261D01*
X27352Y3264D01*
X27349Y3266D01*
X27347Y3269D01*
X27344Y3272D01*
X27344Y3272D01*
X27344Y3273D01*
X27343Y3273D01*
X27343Y3274D01*
X27341Y3275D01*
X27340Y3277D01*
X27338Y3280D01*
X27335Y3283D01*
X27333Y3286D01*
X27330Y3288D01*
X27329Y3289D01*
X27328Y3290D01*
X27328Y3290D01*
X27328Y3291D01*
X27327Y3292D01*
X27326Y3292D01*
X27325Y3293D01*
X27323Y3294D01*
X27320Y3297D01*
Y3235D01*
X27305D01*
Y3318D01*
X27305D01*
X27306D01*
X27307D01*
X27309Y3318D01*
D02*
G37*
%LPC*%
G36*
X36957Y36900D02*
X36955D01*
X36950Y36900D01*
X36946Y36899D01*
X36942Y36898D01*
X36939Y36897D01*
X36936Y36896D01*
X36935Y36895D01*
X36934Y36895D01*
X36933Y36894D01*
X36933Y36894D01*
X36933Y36894D01*
X36932D01*
X36929Y36891D01*
X36926Y36888D01*
X36923Y36885D01*
X36921Y36882D01*
X36919Y36880D01*
X36918Y36878D01*
X36918Y36877D01*
X36917Y36876D01*
X36917Y36876D01*
Y36876D01*
X36915Y36872D01*
X36914Y36867D01*
X36913Y36862D01*
X36913Y36858D01*
X36912Y36856D01*
X36912Y36855D01*
Y36853D01*
X36912Y36852D01*
Y36851D01*
Y36850D01*
Y36849D01*
Y36849D01*
X36912Y36844D01*
X36912Y36840D01*
X36913Y36835D01*
X36914Y36831D01*
X36915Y36828D01*
X36917Y36825D01*
X36918Y36822D01*
X36919Y36819D01*
X36921Y36817D01*
X36922Y36815D01*
X36923Y36813D01*
X36924Y36811D01*
X36925Y36810D01*
X36926Y36809D01*
X36926Y36809D01*
X36927Y36809D01*
X36930Y36812D01*
X36934Y36814D01*
X36938Y36816D01*
X36942Y36818D01*
X36945Y36819D01*
X36947Y36820D01*
X36948Y36820D01*
X36949Y36821D01*
X36950Y36821D01*
X36950Y36821D01*
X36950D01*
X36955Y36809D01*
X36951Y36808D01*
X36948Y36807D01*
X36946Y36806D01*
X36943Y36805D01*
X36941Y36803D01*
X36939Y36803D01*
X36938Y36802D01*
X36938Y36802D01*
X36941Y36801D01*
X36944Y36800D01*
X36947Y36799D01*
X36950Y36799D01*
X36952Y36799D01*
X36953Y36798D01*
X36955D01*
X36958Y36799D01*
X36962Y36799D01*
X36965Y36800D01*
X36968Y36800D01*
X36971Y36801D01*
X36973Y36803D01*
X36976Y36804D01*
X36978Y36805D01*
X36980Y36806D01*
X36981Y36807D01*
X36983Y36808D01*
X36984Y36809D01*
X36985Y36810D01*
X36986Y36811D01*
X36986Y36811D01*
X36986Y36811D01*
X36988Y36814D01*
X36990Y36817D01*
X36992Y36820D01*
X36993Y36823D01*
X36994Y36826D01*
X36995Y36829D01*
X36997Y36835D01*
X36997Y36838D01*
X36997Y36841D01*
X36998Y36843D01*
X36998Y36845D01*
X36998Y36847D01*
Y36848D01*
Y36849D01*
Y36849D01*
X36998Y36854D01*
X36998Y36858D01*
X36997Y36862D01*
X36996Y36866D01*
X36995Y36869D01*
X36994Y36872D01*
X36993Y36875D01*
X36992Y36878D01*
X36991Y36880D01*
X36990Y36882D01*
X36989Y36884D01*
X36988Y36885D01*
X36987Y36886D01*
X36987Y36887D01*
X36986Y36887D01*
X36986Y36887D01*
X36984Y36890D01*
X36981Y36891D01*
X36979Y36893D01*
X36976Y36895D01*
X36973Y36896D01*
X36971Y36897D01*
X36968Y36898D01*
X36966Y36898D01*
X36964Y36899D01*
X36962Y36899D01*
X36960Y36900D01*
X36958Y36900D01*
X36957Y36900D01*
D02*
G37*
G36*
X27368Y3435D02*
X27368D01*
X27367D01*
X27366D01*
X27364Y3435D01*
X27362Y3435D01*
X27360Y3435D01*
X27357Y3434D01*
X27354Y3434D01*
X27348Y3432D01*
X27345Y3432D01*
X27342Y3430D01*
X27339Y3429D01*
X27336Y3427D01*
X27333Y3426D01*
X27330Y3423D01*
X27330Y3423D01*
X27330Y3423D01*
X27329Y3422D01*
X27328Y3421D01*
X27327Y3420D01*
X27326Y3418D01*
X27325Y3417D01*
X27324Y3415D01*
X27323Y3413D01*
X27321Y3410D01*
X27320Y3408D01*
X27319Y3405D01*
X27319Y3402D01*
X27318Y3399D01*
X27317Y3396D01*
X27317Y3392D01*
Y3391D01*
X27317Y3389D01*
X27318Y3387D01*
X27318Y3384D01*
X27319Y3381D01*
X27319Y3378D01*
X27321Y3375D01*
X27321Y3376D01*
X27321Y3377D01*
X27322Y3378D01*
X27323Y3380D01*
X27325Y3383D01*
X27326Y3385D01*
X27327Y3389D01*
X27328Y3392D01*
X27340Y3388D01*
Y3387D01*
X27340Y3387D01*
X27339Y3386D01*
X27339Y3385D01*
X27339Y3384D01*
X27338Y3383D01*
X27337Y3379D01*
X27335Y3375D01*
X27333Y3371D01*
X27331Y3368D01*
X27328Y3364D01*
X27328Y3364D01*
X27328Y3363D01*
X27329Y3362D01*
X27330Y3361D01*
X27332Y3360D01*
X27333Y3359D01*
X27335Y3358D01*
X27338Y3356D01*
X27341Y3355D01*
X27344Y3354D01*
X27347Y3353D01*
X27350Y3351D01*
X27354Y3350D01*
X27359Y3350D01*
X27363Y3349D01*
X27368Y3349D01*
X27368D01*
X27369D01*
X27370D01*
X27371D01*
X27372Y3349D01*
X27374D01*
X27375Y3349D01*
X27377Y3350D01*
X27381Y3350D01*
X27386Y3351D01*
X27390Y3353D01*
X27395Y3354D01*
X27395D01*
X27395Y3355D01*
X27396Y3355D01*
X27397Y3355D01*
X27399Y3357D01*
X27401Y3358D01*
X27404Y3360D01*
X27407Y3363D01*
X27410Y3366D01*
X27413Y3370D01*
Y3370D01*
X27413Y3370D01*
X27413Y3371D01*
X27414Y3371D01*
X27414Y3372D01*
X27415Y3373D01*
X27416Y3376D01*
X27417Y3379D01*
X27418Y3383D01*
X27419Y3388D01*
X27419Y3392D01*
Y3394D01*
X27419Y3395D01*
X27419Y3397D01*
X27418Y3399D01*
X27418Y3401D01*
X27417Y3403D01*
X27417Y3405D01*
X27416Y3408D01*
X27415Y3410D01*
X27414Y3413D01*
X27412Y3416D01*
X27410Y3418D01*
X27408Y3421D01*
X27406Y3423D01*
X27406Y3423D01*
X27406Y3424D01*
X27405Y3424D01*
X27404Y3425D01*
X27402Y3426D01*
X27401Y3427D01*
X27399Y3428D01*
X27397Y3429D01*
X27394Y3430D01*
X27391Y3432D01*
X27388Y3432D01*
X27385Y3433D01*
X27381Y3434D01*
X27377Y3435D01*
X27373Y3435D01*
X27368Y3435D01*
D02*
G37*
%LPD*%
D109*
X36031Y35979D02*
Y36983D01*
X37055Y35979D02*
Y36983D01*
X36031D02*
X37055D01*
X36031Y35979D02*
X37055D01*
X26498Y2468D02*
X27502D01*
X26498Y3492D02*
X27502D01*
Y2468D02*
Y3492D01*
X26498Y2468D02*
Y3492D01*
D111*
X36543Y37032D02*
D03*
X36907Y35940D02*
D03*
X36179D02*
D03*
D112*
X27551Y2980D02*
D03*
X26459Y3344D02*
D03*
Y2616D02*
D03*
%TF.MD5,6c1036f90b77cc4987d09ab461aec379*%
M02*
