%TF.GenerationSoftware,Altium Limited,Altium Designer,21.3.2 (30)*%
G04 Layer_Color=8388736*
%FSLAX24Y24*%
%MOIN*%
%TF.SameCoordinates,B2232A1B-76E2-43D3-9B88-882A457EFEF9*%
%TF.FilePolarity,Negative*%
%TF.FileFunction,Soldermask,Top*%
%TF.Part,Single*%
G01*
G75*
%TA.AperFunction,SMDPad,CuDef*%
%ADD19R,0.0374X0.0354*%
%ADD67R,0.0630X0.0580*%
%ADD74R,0.0630X0.0474*%
%TA.AperFunction,ComponentPad*%
%ADD83R,0.0867X0.1064*%
%ADD84C,0.1655*%
%ADD85O,0.0700X0.0980*%
%ADD86R,0.0700X0.0980*%
%ADD87O,0.0671X0.0592*%
%ADD88R,0.0671X0.0592*%
%ADD89O,0.1280X0.1080*%
%ADD90C,0.0730*%
%ADD91R,0.0730X0.0730*%
%ADD92O,0.1143X0.2206*%
%ADD93R,0.0980X0.0830*%
%ADD94O,0.0980X0.0830*%
%ADD95C,0.0789*%
%ADD96R,0.0789X0.0789*%
%ADD97C,0.0830*%
%TA.AperFunction,ViaPad*%
%ADD98C,0.1655*%
%TA.AperFunction,SMDPad,CuDef*%
%ADD102R,0.0580X0.0630*%
%ADD103O,0.0966X0.0710*%
%ADD104R,0.0580X0.0730*%
G04:AMPARAMS|DCode=105|XSize=60.8mil|YSize=137.5mil|CornerRadius=10.6mil|HoleSize=0mil|Usage=FLASHONLY|Rotation=180.000|XOffset=0mil|YOffset=0mil|HoleType=Round|Shape=RoundedRectangle|*
%AMROUNDEDRECTD105*
21,1,0.0608,0.1163,0,0,180.0*
21,1,0.0396,0.1375,0,0,180.0*
1,1,0.0212,-0.0198,0.0582*
1,1,0.0212,0.0198,0.0582*
1,1,0.0212,0.0198,-0.0582*
1,1,0.0212,-0.0198,-0.0582*
%
%ADD105ROUNDEDRECTD105*%
%ADD106R,0.0552X0.0395*%
G04:AMPARAMS|DCode=107|XSize=49.7mil|YSize=156.8mil|CornerRadius=15.1mil|HoleSize=0mil|Usage=FLASHONLY|Rotation=0.000|XOffset=0mil|YOffset=0mil|HoleType=Round|Shape=RoundedRectangle|*
%AMROUNDEDRECTD107*
21,1,0.0497,0.1267,0,0,0.0*
21,1,0.0196,0.1568,0,0,0.0*
1,1,0.0301,0.0098,-0.0634*
1,1,0.0301,-0.0098,-0.0634*
1,1,0.0301,-0.0098,0.0634*
1,1,0.0301,0.0098,0.0634*
%
%ADD107ROUNDEDRECTD107*%
%ADD108R,0.0454X0.0434*%
G36*
X33070Y11500D02*
Y10610D01*
X34140D01*
X38290Y6460D01*
X44820D01*
X47680Y3600D01*
Y470D01*
X47150Y-60D01*
X40590D01*
X37410Y3120D01*
Y4720D01*
X35220Y6910D01*
X33070D01*
Y6450D01*
X31460Y4840D01*
X29380D01*
X28690Y5530D01*
Y9940D01*
X28180Y10450D01*
X26130D01*
X25570Y9890D01*
X25570Y6630D01*
X25310Y6370D01*
X22710Y6370D01*
X22520Y6560D01*
Y11270D01*
X23640Y12390D01*
X32100D01*
X32140Y12430D01*
X33070Y11500D01*
D02*
G37*
D19*
X26518Y2606D02*
D03*
D67*
X49830Y14861D02*
D03*
Y13961D02*
D03*
X47813Y14861D02*
D03*
Y13961D02*
D03*
X48821D02*
D03*
Y14861D02*
D03*
X50838Y13961D02*
D03*
Y14861D02*
D03*
D74*
X50853Y12051D02*
D03*
Y12951D02*
D03*
X49845Y12051D02*
D03*
Y12951D02*
D03*
X48836Y12051D02*
D03*
Y12951D02*
D03*
X47828Y12051D02*
D03*
Y12951D02*
D03*
D83*
X13440Y4480D02*
D03*
X11440D02*
D03*
X52550Y4620D02*
D03*
X50550D02*
D03*
X33920Y4480D02*
D03*
X35920D02*
D03*
X5150D02*
D03*
X7150D02*
D03*
D84*
X19340Y38500D02*
D03*
X19390Y19000D02*
D03*
X54790Y38500D02*
D03*
Y18950D02*
D03*
D85*
X36540Y39600D02*
D03*
X35540D02*
D03*
X34540D02*
D03*
X33540D02*
D03*
X32540D02*
D03*
X31540D02*
D03*
X30540D02*
D03*
X29540D02*
D03*
X28540D02*
D03*
X27540D02*
D03*
X26540D02*
D03*
X25540D02*
D03*
X24540D02*
D03*
X23540D02*
D03*
X22540D02*
D03*
D86*
X21540D02*
D03*
D87*
X16240Y29110D02*
D03*
X10750Y7840D02*
D03*
D88*
X16240Y30110D02*
D03*
X10750Y8840D02*
D03*
D89*
X13440Y15770D02*
D03*
Y7270D02*
D03*
Y9270D02*
D03*
Y13770D02*
D03*
D90*
X35756Y10814D02*
D03*
Y16523D02*
D03*
X36740D02*
D03*
X37724D02*
D03*
D91*
Y10814D02*
D03*
D92*
X34909Y13570D02*
D03*
X38571D02*
D03*
D93*
X42000Y15040D02*
D03*
X45410D02*
D03*
D94*
X42000Y14040D02*
D03*
Y13040D02*
D03*
Y12040D02*
D03*
X45410Y14040D02*
D03*
Y13040D02*
D03*
Y12040D02*
D03*
D95*
X8577Y20101D02*
D03*
X1490Y40180D02*
D03*
X12120D02*
D03*
D96*
X5033Y20101D02*
D03*
D97*
X17090Y37930D02*
D03*
X16090Y39930D02*
D03*
X15090Y37930D02*
D03*
D98*
X54960Y1430D02*
D03*
X990Y1040D02*
D03*
X54650Y15370D02*
D03*
D102*
X39800Y17460D02*
D03*
X38900D02*
D03*
X37170D02*
D03*
X36270D02*
D03*
X39700Y10810D02*
D03*
X40600D02*
D03*
X23819Y14260D02*
D03*
X24719D02*
D03*
X28004D02*
D03*
X28904D02*
D03*
X32189D02*
D03*
X33089D02*
D03*
X19633D02*
D03*
X20533D02*
D03*
D103*
X26323Y5700D02*
D03*
Y4700D02*
D03*
X22977D02*
D03*
Y5700D02*
D03*
D104*
X26320Y6740D02*
D03*
X25020D02*
D03*
X29500Y1330D02*
D03*
X28200D02*
D03*
X24450Y2590D02*
D03*
X25750D02*
D03*
X25750Y3420D02*
D03*
X24450D02*
D03*
D105*
X5394Y9520D02*
D03*
X7086D02*
D03*
D106*
X30368Y15560D02*
D03*
X33124D02*
D03*
X26183D02*
D03*
X28938D02*
D03*
X21997D02*
D03*
X24753D02*
D03*
X17812D02*
D03*
X20568D02*
D03*
D107*
X31510Y2990D02*
D03*
X29510D02*
D03*
D108*
X27502Y2980D02*
D03*
X26518Y3354D02*
D03*
%TF.MD5,0b848644e3e1abe05155191cbb59e2a5*%
M02*
