%TF.GenerationSoftware,Altium Limited,Altium Designer,21.3.2 (30)*%
G04 Layer_Color=32768*
%FSLAX24Y24*%
%MOIN*%
%TF.SameCoordinates,B2232A1B-76E2-43D3-9B88-882A457EFEF9*%
%TF.FilePolarity,Positive*%
%TF.FileFunction,Other,Mechanical_15*%
%TF.Part,Single*%
G01*
G75*
%TA.AperFunction,NonConductor*%
%ADD64C,0.0050*%
%ADD109C,0.0039*%
%ADD110C,0.0020*%
%TA.AperFunction,OtherPad,Pad IC1-0 (2040mil,3567.669mil)*%
%ADD113C,0.0197*%
%TA.AperFunction,OtherPad,Pad XT1-0 (3420mil,3035mil)*%
%ADD114C,0.0200*%
%TA.AperFunction,NonConductor*%
%ADD115C,0.0030*%
D64*
X33500Y29500D02*
X34900D01*
X33500D02*
Y31200D01*
X34900D01*
Y29500D02*
Y31200D01*
D109*
X20039Y30502D02*
X20432D01*
X20236Y30305D02*
Y30699D01*
X18818Y28789D02*
Y32214D01*
X21653Y28789D02*
Y32214D01*
X18818D02*
X21653D01*
X18818Y28789D02*
X21653D01*
X27969Y35606D02*
Y36000D01*
X27772Y35803D02*
X28166D01*
X31810Y29733D02*
Y30127D01*
X31613Y29930D02*
X32007D01*
X50963Y9050D02*
X51357D01*
X51160Y8853D02*
Y9247D01*
D110*
X5031Y8748D02*
Y10292D01*
Y8748D02*
X7449D01*
Y10292D01*
X5031D02*
X7449D01*
X25636Y37929D02*
X30302D01*
X25636Y33677D02*
X30302D01*
Y37929D01*
X25636Y33677D02*
Y37929D01*
X31082Y30324D02*
X32538D01*
X31082Y29536D02*
Y30324D01*
Y29536D02*
X32538D01*
Y30324D01*
X33255Y26386D02*
X35004Y28135D01*
X35382Y27756D01*
X35580Y27954D01*
X35778Y27756D01*
X36156Y28135D01*
X37905Y26386D01*
X37526Y26008D02*
X37905Y26386D01*
X37526Y26008D02*
X37724Y25810D01*
X37526Y25612D02*
X37724Y25810D01*
X37526Y25612D02*
X37905Y25234D01*
X36156Y23485D02*
X37905Y25234D01*
X35778Y23864D02*
X36156Y23485D01*
X35580Y23666D02*
X35778Y23864D01*
X35382D02*
X35580Y23666D01*
X35004Y23485D02*
X35382Y23864D01*
X33255Y25234D02*
X35004Y23485D01*
X33255Y25234D02*
X33634Y25612D01*
X33436Y25810D02*
X33634Y25612D01*
X33436Y25810D02*
X33634Y26008D01*
X33255Y26386D02*
X33634Y26008D01*
X50038Y7500D02*
Y10600D01*
X52282Y7500D02*
Y10600D01*
X50038D02*
X52282D01*
X50038Y7500D02*
X52282D01*
X34279Y10391D02*
Y16946D01*
X39201D01*
Y10391D02*
Y16946D01*
X34279Y10391D02*
X39201D01*
X31817Y4136D02*
X32711D01*
X28309D02*
X29203D01*
X31817Y2147D02*
Y4136D01*
X29203Y2147D02*
Y4136D01*
X28309Y8136D02*
X29152D01*
X31868D02*
X32711D01*
X28309Y4136D02*
Y8136D01*
X32711Y4136D02*
Y8136D01*
X29152D02*
Y8872D01*
X31868Y8136D02*
Y8872D01*
X29203Y2147D02*
X31817D01*
X29152Y8872D02*
X31868D01*
X210Y18822D02*
X13399D01*
Y41460D01*
X210D02*
X13399D01*
X210Y18822D02*
Y41460D01*
D113*
X20400Y35677D02*
D03*
D114*
X34200Y30350D02*
D03*
D115*
X18900Y32977D02*
X21900D01*
Y37577D01*
X18900D02*
X21900D01*
X18900Y32977D02*
Y37577D01*
%TF.MD5,a41e2f894aab0ca20094b19dcb28ca9d*%
M02*
