%TF.GenerationSoftware,Altium Limited,Altium Designer,21.3.2 (30)*%
G04 Layer_Color=0*
%FSLAX24Y24*%
%MOIN*%
%TF.SameCoordinates,B2232A1B-76E2-43D3-9B88-882A457EFEF9*%
%TF.FilePolarity,Positive*%
%TF.FileFunction,Plated,1,2,PTH,Drill*%
%TF.Part,Single*%
G01*
G75*
%TA.AperFunction,ComponentDrill*%
%ADD117C,0.0551*%
%ADD118C,0.1378*%
%ADD119C,0.0390*%
%ADD120C,0.0315*%
%ADD121C,0.0500*%
%ADD122C,0.0433*%
%ADD123C,0.0709*%
%ADD124C,0.0340*%
%ADD125C,0.0472*%
%ADD126C,0.0350*%
%TA.AperFunction,ViaDrill,NotFilled*%
%ADD127C,0.0118*%
%ADD128C,0.1378*%
D117*
X13440Y4480D02*
D03*
X11440D02*
D03*
X52550Y4620D02*
D03*
X50550D02*
D03*
X33920Y4480D02*
D03*
X35920D02*
D03*
X5150D02*
D03*
X7150D02*
D03*
D118*
X19340Y38500D02*
D03*
X19390Y19000D02*
D03*
X54790Y38500D02*
D03*
Y18950D02*
D03*
D119*
X36540Y39600D02*
D03*
X35540D02*
D03*
X34540D02*
D03*
X33540D02*
D03*
X32540D02*
D03*
X31540D02*
D03*
X30540D02*
D03*
X29540D02*
D03*
X28540D02*
D03*
X27540D02*
D03*
X26540D02*
D03*
X25540D02*
D03*
X24540D02*
D03*
X23540D02*
D03*
X22540D02*
D03*
X21540D02*
D03*
D120*
X16240Y29110D02*
D03*
Y30110D02*
D03*
X10750Y7840D02*
D03*
Y8840D02*
D03*
D121*
X13440Y15770D02*
D03*
Y7270D02*
D03*
Y9270D02*
D03*
Y13770D02*
D03*
D122*
X35756Y10814D02*
D03*
X37724D02*
D03*
X35756Y16523D02*
D03*
X36740D02*
D03*
X37724D02*
D03*
D123*
X34909Y13570D02*
D03*
X38571D02*
D03*
D124*
X42000Y15040D02*
D03*
Y14040D02*
D03*
Y13040D02*
D03*
Y12040D02*
D03*
X45410Y15040D02*
D03*
Y14040D02*
D03*
Y13040D02*
D03*
Y12040D02*
D03*
D125*
X8577Y20101D02*
D03*
X5033D02*
D03*
X1490Y40180D02*
D03*
X12120D02*
D03*
D126*
X17090Y37930D02*
D03*
X16090Y39930D02*
D03*
X15090Y37930D02*
D03*
D127*
X36809Y28556D02*
D03*
X37030Y27780D02*
D03*
X37112Y28173D02*
D03*
X36746Y28194D02*
D03*
X38379Y30271D02*
D03*
X37456Y27834D02*
D03*
X37714Y27526D02*
D03*
X34140Y23680D02*
D03*
X33884Y27654D02*
D03*
X56489Y41286D02*
D03*
X56096Y40499D02*
D03*
X56489Y39711D02*
D03*
X56096Y38924D02*
D03*
X56489Y38137D02*
D03*
X56096Y37349D02*
D03*
X56489Y36562D02*
D03*
X56096Y35774D02*
D03*
X56489Y34987D02*
D03*
X56096Y34200D02*
D03*
X56489Y33412D02*
D03*
X56096Y32625D02*
D03*
X56489Y31837D02*
D03*
X56096Y31050D02*
D03*
X56489Y30263D02*
D03*
X56096Y29475D02*
D03*
X56489Y28688D02*
D03*
X56096Y27900D02*
D03*
X56489Y27113D02*
D03*
X56096Y26326D02*
D03*
X56489Y25538D02*
D03*
X56096Y24751D02*
D03*
X56489Y23963D02*
D03*
X56096Y23176D02*
D03*
X56489Y22389D02*
D03*
X56096Y21601D02*
D03*
X56489Y20814D02*
D03*
X56096Y20026D02*
D03*
X56489Y19239D02*
D03*
X56096Y18452D02*
D03*
X56489Y17664D02*
D03*
X56096Y16877D02*
D03*
X56489Y16089D02*
D03*
X56096Y15302D02*
D03*
X56489Y14515D02*
D03*
X56096Y13727D02*
D03*
X56489Y12940D02*
D03*
X56096Y12152D02*
D03*
X56489Y11365D02*
D03*
X56096Y10577D02*
D03*
X56489Y9790D02*
D03*
X56096Y9003D02*
D03*
X56489Y8215D02*
D03*
X56096Y7428D02*
D03*
X56489Y6640D02*
D03*
X56096Y5853D02*
D03*
X56489Y5066D02*
D03*
X56096Y4278D02*
D03*
X56489Y3491D02*
D03*
X56096Y2703D02*
D03*
X56489Y1916D02*
D03*
X56096Y1129D02*
D03*
X56489Y341D02*
D03*
X55702Y41286D02*
D03*
X55308Y40499D02*
D03*
X55702Y39711D02*
D03*
Y38137D02*
D03*
X55308Y37349D02*
D03*
X55702Y36562D02*
D03*
X55308Y35774D02*
D03*
X55702Y34987D02*
D03*
X55308Y34200D02*
D03*
X55702Y33412D02*
D03*
X55308Y32625D02*
D03*
X55702Y31837D02*
D03*
X55308Y31050D02*
D03*
X55702Y30263D02*
D03*
X55308Y29475D02*
D03*
X55702Y28688D02*
D03*
X55308Y27900D02*
D03*
X55702Y27113D02*
D03*
X55308Y26326D02*
D03*
X55702Y25538D02*
D03*
X55308Y24751D02*
D03*
X55702Y23963D02*
D03*
X55308Y23176D02*
D03*
X55702Y22389D02*
D03*
X55308Y21601D02*
D03*
X55702Y20814D02*
D03*
X55308Y20026D02*
D03*
X55702Y19239D02*
D03*
Y17664D02*
D03*
X55308Y16877D02*
D03*
X55702Y16089D02*
D03*
Y14515D02*
D03*
X55308Y13727D02*
D03*
X55702Y12940D02*
D03*
X55308Y12152D02*
D03*
X55702Y11365D02*
D03*
X55308Y10577D02*
D03*
X55702Y9790D02*
D03*
X55308Y9003D02*
D03*
X55702Y8215D02*
D03*
X55308Y7428D02*
D03*
X55702Y6640D02*
D03*
X55308Y5853D02*
D03*
X55702Y5066D02*
D03*
X55308Y4278D02*
D03*
X55702Y3491D02*
D03*
X55308Y2703D02*
D03*
X55702Y341D02*
D03*
X54915Y41286D02*
D03*
X54521Y40499D02*
D03*
X54915Y39711D02*
D03*
X54521Y37349D02*
D03*
X54915Y36562D02*
D03*
X54521Y35774D02*
D03*
X54915Y34987D02*
D03*
X54521Y34200D02*
D03*
X54915Y33412D02*
D03*
X54521Y32625D02*
D03*
X54915Y31837D02*
D03*
X54521Y31050D02*
D03*
X54915Y30263D02*
D03*
X54521Y29475D02*
D03*
X54915Y28688D02*
D03*
X54521Y27900D02*
D03*
X54915Y27113D02*
D03*
X54521Y26326D02*
D03*
X54915Y25538D02*
D03*
X54521Y24751D02*
D03*
X54915Y23963D02*
D03*
X54521Y23176D02*
D03*
X54915Y22389D02*
D03*
X54521Y21601D02*
D03*
X54915Y20814D02*
D03*
X54521Y20026D02*
D03*
X54915Y17664D02*
D03*
X54521Y16877D02*
D03*
Y13727D02*
D03*
X54915Y12940D02*
D03*
X54521Y12152D02*
D03*
X54915Y11365D02*
D03*
X54521Y10577D02*
D03*
X54915Y9790D02*
D03*
X54521Y9003D02*
D03*
X54915Y8215D02*
D03*
X54521Y7428D02*
D03*
X54915Y6640D02*
D03*
X54521Y5853D02*
D03*
X54915Y5066D02*
D03*
X54521Y4278D02*
D03*
X54915Y3491D02*
D03*
X54521Y2703D02*
D03*
X54127Y41286D02*
D03*
X53734Y40499D02*
D03*
X54127Y39711D02*
D03*
X53734Y38924D02*
D03*
Y37349D02*
D03*
X54127Y36562D02*
D03*
X53734Y35774D02*
D03*
X54127Y34987D02*
D03*
X53734Y34200D02*
D03*
X54127Y33412D02*
D03*
X53734Y32625D02*
D03*
X54127Y31837D02*
D03*
X53734Y31050D02*
D03*
X54127Y30263D02*
D03*
X53734Y29475D02*
D03*
X54127Y28688D02*
D03*
X53734Y27900D02*
D03*
X54127Y27113D02*
D03*
X53734Y26326D02*
D03*
X54127Y25538D02*
D03*
X53734Y24751D02*
D03*
X54127Y23963D02*
D03*
X53734Y23176D02*
D03*
X54127Y22389D02*
D03*
X53734Y21601D02*
D03*
X54127Y20814D02*
D03*
X53734Y20026D02*
D03*
Y18452D02*
D03*
X54127Y17664D02*
D03*
X53734Y16877D02*
D03*
Y13727D02*
D03*
X54127Y12940D02*
D03*
X53734Y12152D02*
D03*
X54127Y11365D02*
D03*
X53734Y10577D02*
D03*
X54127Y9790D02*
D03*
X53734Y9003D02*
D03*
X54127Y8215D02*
D03*
X53734Y7428D02*
D03*
X54127Y6640D02*
D03*
X53734Y5853D02*
D03*
X54127Y5066D02*
D03*
X53734Y4278D02*
D03*
X54127Y3491D02*
D03*
X53734Y2703D02*
D03*
Y1129D02*
D03*
X54127Y341D02*
D03*
X53340Y41286D02*
D03*
X52946Y40499D02*
D03*
X53340Y39711D02*
D03*
X52946Y38924D02*
D03*
X53340Y38137D02*
D03*
X52946Y37349D02*
D03*
X53340Y36562D02*
D03*
X52946Y35774D02*
D03*
X53340Y34987D02*
D03*
X52946Y34200D02*
D03*
X53340Y33412D02*
D03*
X52946Y32625D02*
D03*
X53340Y31837D02*
D03*
X52946Y31050D02*
D03*
X53340Y30263D02*
D03*
X52946Y29475D02*
D03*
X53340Y28688D02*
D03*
X52946Y27900D02*
D03*
X53340Y27113D02*
D03*
X52946Y26326D02*
D03*
X53340Y25538D02*
D03*
X52946Y24751D02*
D03*
X53340Y23963D02*
D03*
X52946Y23176D02*
D03*
X53340Y22389D02*
D03*
X52946Y21601D02*
D03*
X53340Y20814D02*
D03*
X52946Y20026D02*
D03*
X53340Y19239D02*
D03*
X52946Y18452D02*
D03*
X53340Y17664D02*
D03*
X52946Y16877D02*
D03*
X53340Y16089D02*
D03*
X52946Y15302D02*
D03*
X53340Y14515D02*
D03*
X52946Y13727D02*
D03*
X53340Y12940D02*
D03*
X52946Y12152D02*
D03*
X53340Y11365D02*
D03*
X52946Y10577D02*
D03*
X53340Y9790D02*
D03*
X52946Y9003D02*
D03*
X53340Y8215D02*
D03*
X52946Y7428D02*
D03*
X53340Y6640D02*
D03*
X52946Y5853D02*
D03*
X53340Y5066D02*
D03*
Y3491D02*
D03*
X52946Y2703D02*
D03*
X53340Y1916D02*
D03*
X52946Y1129D02*
D03*
X53340Y341D02*
D03*
X52552Y41286D02*
D03*
X52159Y40499D02*
D03*
X52552Y39711D02*
D03*
X52159Y38924D02*
D03*
X52552Y38137D02*
D03*
X52159Y37349D02*
D03*
X52552Y36562D02*
D03*
X52159Y35774D02*
D03*
X52552Y34987D02*
D03*
X52159Y34200D02*
D03*
X52552Y33412D02*
D03*
X52159Y32625D02*
D03*
X52552Y31837D02*
D03*
X52159Y31050D02*
D03*
X52552Y30263D02*
D03*
X52159Y29475D02*
D03*
X52552Y28688D02*
D03*
X52159Y27900D02*
D03*
X52552Y27113D02*
D03*
X52159Y26326D02*
D03*
X52552Y25538D02*
D03*
X52159Y24751D02*
D03*
X52552Y23963D02*
D03*
X52159Y23176D02*
D03*
X52552Y22389D02*
D03*
X52159Y21601D02*
D03*
X52552Y20814D02*
D03*
X52159Y20026D02*
D03*
X52552Y19239D02*
D03*
X52159Y18452D02*
D03*
X52552Y17664D02*
D03*
X52159Y16877D02*
D03*
X52552Y16089D02*
D03*
X52159Y15302D02*
D03*
X52552Y14515D02*
D03*
X52159Y13727D02*
D03*
X52552Y12940D02*
D03*
X52159Y12152D02*
D03*
X52552Y11365D02*
D03*
X52159Y10577D02*
D03*
X52552Y9790D02*
D03*
X52159Y9003D02*
D03*
X52552Y8215D02*
D03*
X52159Y7428D02*
D03*
X52552Y6640D02*
D03*
X52159Y5853D02*
D03*
X52552Y3491D02*
D03*
X52159Y2703D02*
D03*
X52552Y1916D02*
D03*
X52159Y1129D02*
D03*
X52552Y341D02*
D03*
X51765Y41286D02*
D03*
X51371Y40499D02*
D03*
X51765Y39711D02*
D03*
X51371Y38924D02*
D03*
X51765Y38137D02*
D03*
X51371Y37349D02*
D03*
X51765Y36562D02*
D03*
X51371Y35774D02*
D03*
X51765Y34987D02*
D03*
X51371Y34200D02*
D03*
X51765Y33412D02*
D03*
X51371Y32625D02*
D03*
X51765Y31837D02*
D03*
X51371Y31050D02*
D03*
X51765Y30263D02*
D03*
X51371Y29475D02*
D03*
X51765Y28688D02*
D03*
X51371Y27900D02*
D03*
X51765Y27113D02*
D03*
X51371Y26326D02*
D03*
X51765Y25538D02*
D03*
X51371Y24751D02*
D03*
X51765Y23963D02*
D03*
X51371Y23176D02*
D03*
X51765Y22389D02*
D03*
X51371Y21601D02*
D03*
X51765Y20814D02*
D03*
Y19239D02*
D03*
Y17664D02*
D03*
Y16089D02*
D03*
Y14515D02*
D03*
Y12940D02*
D03*
Y11365D02*
D03*
X51371Y9003D02*
D03*
Y7428D02*
D03*
X51765Y6640D02*
D03*
X51371Y5853D02*
D03*
X51765Y5066D02*
D03*
X51371Y4278D02*
D03*
X51765Y3491D02*
D03*
X51371Y2703D02*
D03*
X51765Y1916D02*
D03*
X51371Y1129D02*
D03*
X51765Y341D02*
D03*
X50978Y41286D02*
D03*
X50584Y40499D02*
D03*
X50978Y39711D02*
D03*
X50584Y38924D02*
D03*
X50978Y38137D02*
D03*
X50584Y37349D02*
D03*
X50978Y36562D02*
D03*
X50584Y35774D02*
D03*
X50978Y34987D02*
D03*
X50584Y34200D02*
D03*
X50978Y33412D02*
D03*
X50584Y32625D02*
D03*
X50978Y31837D02*
D03*
X50584Y31050D02*
D03*
X50978Y30263D02*
D03*
X50584Y29475D02*
D03*
X50978Y28688D02*
D03*
X50584Y27900D02*
D03*
X50978Y27113D02*
D03*
X50584Y26326D02*
D03*
Y24751D02*
D03*
Y23176D02*
D03*
Y9003D02*
D03*
Y7428D02*
D03*
X50978Y3491D02*
D03*
X50584Y2703D02*
D03*
X50978Y1916D02*
D03*
X50584Y1129D02*
D03*
X50978Y341D02*
D03*
X50190Y41286D02*
D03*
X49797Y40499D02*
D03*
X50190Y39711D02*
D03*
X49797Y38924D02*
D03*
X50190Y38137D02*
D03*
X49797Y37349D02*
D03*
X50190Y36562D02*
D03*
X49797Y35774D02*
D03*
X50190Y34987D02*
D03*
X49797Y34200D02*
D03*
X50190Y33412D02*
D03*
X49797Y32625D02*
D03*
X50190Y31837D02*
D03*
X49797Y31050D02*
D03*
X50190Y30263D02*
D03*
X49797Y29475D02*
D03*
X50190Y28688D02*
D03*
X49797Y27900D02*
D03*
X50190Y27113D02*
D03*
Y25538D02*
D03*
Y23963D02*
D03*
Y22389D02*
D03*
Y19239D02*
D03*
Y17664D02*
D03*
Y16089D02*
D03*
Y11365D02*
D03*
X49797Y10577D02*
D03*
Y9003D02*
D03*
X50190Y6640D02*
D03*
X49797Y5853D02*
D03*
Y4278D02*
D03*
X50190Y3491D02*
D03*
X49797Y2703D02*
D03*
X50190Y1916D02*
D03*
X49797Y1129D02*
D03*
X50190Y341D02*
D03*
X49403Y41286D02*
D03*
X49009Y40499D02*
D03*
X49403Y39711D02*
D03*
X49009Y38924D02*
D03*
X49403Y38137D02*
D03*
X49009Y37349D02*
D03*
X49403Y36562D02*
D03*
X49009Y35774D02*
D03*
X49403Y34987D02*
D03*
X49009Y34200D02*
D03*
X49403Y33412D02*
D03*
X49009Y32625D02*
D03*
X49403Y31837D02*
D03*
X49009Y31050D02*
D03*
X49403Y30263D02*
D03*
X49009Y29475D02*
D03*
X49403Y28688D02*
D03*
X49009Y27900D02*
D03*
X49403Y25538D02*
D03*
Y23963D02*
D03*
Y19239D02*
D03*
Y17664D02*
D03*
Y16089D02*
D03*
Y14515D02*
D03*
Y12940D02*
D03*
Y11365D02*
D03*
X49009Y10577D02*
D03*
X49403Y9790D02*
D03*
X49009Y9003D02*
D03*
Y7428D02*
D03*
X49403Y6640D02*
D03*
X49009Y5853D02*
D03*
X49403Y5066D02*
D03*
Y3491D02*
D03*
Y1916D02*
D03*
Y341D02*
D03*
X48615Y41286D02*
D03*
X48222Y40499D02*
D03*
X48615Y39711D02*
D03*
X48222Y38924D02*
D03*
X48615Y38137D02*
D03*
X48222Y37349D02*
D03*
X48615Y36562D02*
D03*
X48222Y35774D02*
D03*
X48615Y34987D02*
D03*
X48222Y34200D02*
D03*
X48615Y33412D02*
D03*
X48222Y32625D02*
D03*
X48615Y31837D02*
D03*
X48222Y31050D02*
D03*
X48615Y30263D02*
D03*
X48222Y29475D02*
D03*
X48615Y28688D02*
D03*
Y27113D02*
D03*
X48222Y26326D02*
D03*
Y24751D02*
D03*
Y21601D02*
D03*
Y18452D02*
D03*
Y16877D02*
D03*
Y15302D02*
D03*
X48615Y11365D02*
D03*
X48222Y10577D02*
D03*
X48615Y9790D02*
D03*
Y8215D02*
D03*
X48222Y7428D02*
D03*
X48615Y6640D02*
D03*
X48222Y5853D02*
D03*
X47828Y41286D02*
D03*
X47434Y40499D02*
D03*
X47828Y39711D02*
D03*
X47434Y38924D02*
D03*
X47828Y38137D02*
D03*
X47434Y37349D02*
D03*
X47828Y36562D02*
D03*
X47434Y35774D02*
D03*
X47828Y34987D02*
D03*
X47434Y34200D02*
D03*
X47828Y33412D02*
D03*
X47434Y32625D02*
D03*
X47828Y31837D02*
D03*
X47434Y31050D02*
D03*
X47828Y30263D02*
D03*
X47434Y29475D02*
D03*
X47828Y27113D02*
D03*
X47434Y26326D02*
D03*
Y24751D02*
D03*
Y21601D02*
D03*
Y20026D02*
D03*
Y18452D02*
D03*
Y16877D02*
D03*
Y15302D02*
D03*
X47828Y11365D02*
D03*
X47434Y10577D02*
D03*
X47828Y9790D02*
D03*
Y8215D02*
D03*
X47434Y7428D02*
D03*
X47828Y6640D02*
D03*
X47041Y41286D02*
D03*
X46647Y40499D02*
D03*
X47041Y39711D02*
D03*
X46647Y38924D02*
D03*
X47041Y38137D02*
D03*
X46647Y37349D02*
D03*
X47041Y36562D02*
D03*
X46647Y35774D02*
D03*
X47041Y34987D02*
D03*
X46647Y34200D02*
D03*
X47041Y33412D02*
D03*
X46647Y32625D02*
D03*
X47041Y31837D02*
D03*
X46647Y31050D02*
D03*
X47041Y30263D02*
D03*
Y28688D02*
D03*
X46647Y26326D02*
D03*
X47041Y25538D02*
D03*
X46647Y24751D02*
D03*
Y23176D02*
D03*
X47041Y22389D02*
D03*
Y20814D02*
D03*
X46647Y20026D02*
D03*
X47041Y19239D02*
D03*
X46647Y18452D02*
D03*
X47041Y17664D02*
D03*
X46647Y16877D02*
D03*
X47041Y16089D02*
D03*
X46647Y15302D02*
D03*
Y13727D02*
D03*
Y12152D02*
D03*
X47041Y11365D02*
D03*
X46647Y10577D02*
D03*
X47041Y9790D02*
D03*
Y8215D02*
D03*
X46647Y7428D02*
D03*
X46253Y41286D02*
D03*
X45860Y40499D02*
D03*
X46253Y39711D02*
D03*
X45860Y38924D02*
D03*
X46253Y38137D02*
D03*
X45860Y37349D02*
D03*
X46253Y36562D02*
D03*
X45860Y35774D02*
D03*
X46253Y34987D02*
D03*
X45860Y34200D02*
D03*
X46253Y33412D02*
D03*
X45860Y32625D02*
D03*
X46253Y31837D02*
D03*
X45860Y31050D02*
D03*
X46253Y28688D02*
D03*
X45860Y27900D02*
D03*
X46253Y27113D02*
D03*
X45860Y26326D02*
D03*
X46253Y25538D02*
D03*
X45860Y24751D02*
D03*
Y23176D02*
D03*
Y21601D02*
D03*
Y20026D02*
D03*
X46253Y19239D02*
D03*
X45860Y18452D02*
D03*
X46253Y17664D02*
D03*
X45860Y16877D02*
D03*
X46253Y16089D02*
D03*
Y14515D02*
D03*
Y11365D02*
D03*
X45860Y10577D02*
D03*
X46253Y9790D02*
D03*
Y8215D02*
D03*
X45466Y41286D02*
D03*
X45072Y40499D02*
D03*
X45466Y39711D02*
D03*
X45072Y38924D02*
D03*
X45466Y38137D02*
D03*
X45072Y37349D02*
D03*
X45466Y36562D02*
D03*
X45072Y35774D02*
D03*
X45466Y34987D02*
D03*
X45072Y34200D02*
D03*
X45466Y33412D02*
D03*
X45072Y32625D02*
D03*
X45466Y31837D02*
D03*
X45072Y31050D02*
D03*
Y27900D02*
D03*
X45466Y27113D02*
D03*
X45072Y26326D02*
D03*
X45466Y25538D02*
D03*
X45072Y24751D02*
D03*
Y23176D02*
D03*
X45466Y22389D02*
D03*
X45072Y21601D02*
D03*
X45466Y20814D02*
D03*
X45072Y20026D02*
D03*
X45466Y19239D02*
D03*
X45072Y18452D02*
D03*
X45466Y17664D02*
D03*
X45072Y16877D02*
D03*
X45466Y16089D02*
D03*
Y11365D02*
D03*
X45072Y10577D02*
D03*
X45466Y9790D02*
D03*
X44678Y41286D02*
D03*
X44285Y40499D02*
D03*
X44678Y39711D02*
D03*
X44285Y38924D02*
D03*
X44678Y38137D02*
D03*
X44285Y37349D02*
D03*
X44678Y36562D02*
D03*
X44285Y35774D02*
D03*
X44678Y34987D02*
D03*
X44285Y34200D02*
D03*
X44678Y33412D02*
D03*
X44285Y32625D02*
D03*
X44678Y31837D02*
D03*
X44285Y31050D02*
D03*
X44678Y28688D02*
D03*
X44285Y27900D02*
D03*
X44678Y27113D02*
D03*
X44285Y26326D02*
D03*
X44678Y25538D02*
D03*
X44285Y24751D02*
D03*
Y23176D02*
D03*
Y21601D02*
D03*
X44678Y20814D02*
D03*
X44285Y20026D02*
D03*
X44678Y19239D02*
D03*
Y17664D02*
D03*
Y16089D02*
D03*
Y14515D02*
D03*
Y12940D02*
D03*
X44285Y12152D02*
D03*
X44678Y11365D02*
D03*
X44285Y10577D02*
D03*
X44678Y9790D02*
D03*
X43891Y41286D02*
D03*
X43497Y40499D02*
D03*
X43891Y39711D02*
D03*
X43497Y38924D02*
D03*
X43891Y38137D02*
D03*
X43497Y37349D02*
D03*
X43891Y36562D02*
D03*
X43497Y35774D02*
D03*
X43891Y34987D02*
D03*
X43497Y34200D02*
D03*
X43891Y33412D02*
D03*
X43497Y32625D02*
D03*
X43891Y31837D02*
D03*
X43497Y31050D02*
D03*
X43891Y28688D02*
D03*
X43497Y27900D02*
D03*
X43891Y27113D02*
D03*
X43497Y26326D02*
D03*
X43891Y25538D02*
D03*
X43497Y24751D02*
D03*
Y23176D02*
D03*
Y21601D02*
D03*
X43891Y20814D02*
D03*
X43497Y20026D02*
D03*
Y18452D02*
D03*
Y16877D02*
D03*
Y13727D02*
D03*
X43891Y12940D02*
D03*
X43497Y12152D02*
D03*
X43891Y11365D02*
D03*
X43497Y10577D02*
D03*
X43891Y9790D02*
D03*
X43104Y41286D02*
D03*
X42710Y40499D02*
D03*
X43104Y39711D02*
D03*
X42710Y38924D02*
D03*
X43104Y38137D02*
D03*
X42710Y37349D02*
D03*
X43104Y36562D02*
D03*
X42710Y35774D02*
D03*
X43104Y34987D02*
D03*
X42710Y34200D02*
D03*
X43104Y33412D02*
D03*
X42710Y32625D02*
D03*
X43104Y31837D02*
D03*
X42710Y31050D02*
D03*
X43104Y28688D02*
D03*
X42710Y27900D02*
D03*
X43104Y27113D02*
D03*
X42710Y26326D02*
D03*
X43104Y25538D02*
D03*
X42710Y24751D02*
D03*
Y23176D02*
D03*
Y21601D02*
D03*
X43104Y20814D02*
D03*
X42710Y18452D02*
D03*
X43104Y17664D02*
D03*
X42710Y16877D02*
D03*
X43104Y16089D02*
D03*
Y14515D02*
D03*
X42710Y13727D02*
D03*
Y12152D02*
D03*
X43104Y11365D02*
D03*
X42710Y10577D02*
D03*
X43104Y9790D02*
D03*
X42316Y41286D02*
D03*
X41923Y40499D02*
D03*
X42316Y39711D02*
D03*
X41923Y38924D02*
D03*
X42316Y38137D02*
D03*
X41923Y37349D02*
D03*
X42316Y36562D02*
D03*
X41923Y35774D02*
D03*
X42316Y34987D02*
D03*
X41923Y34200D02*
D03*
X42316Y33412D02*
D03*
X41923Y32625D02*
D03*
X42316Y31837D02*
D03*
X41923Y31050D02*
D03*
X42316Y28688D02*
D03*
X41923Y27900D02*
D03*
X42316Y27113D02*
D03*
X41923Y26326D02*
D03*
X42316Y25538D02*
D03*
X41923Y24751D02*
D03*
Y23176D02*
D03*
Y21601D02*
D03*
Y20026D02*
D03*
X42316Y19239D02*
D03*
Y11365D02*
D03*
X41923Y10577D02*
D03*
X42316Y9790D02*
D03*
X41529Y41286D02*
D03*
X41135Y40499D02*
D03*
X41529Y39711D02*
D03*
X41135Y38924D02*
D03*
X41529Y38137D02*
D03*
X41135Y37349D02*
D03*
X41529Y36562D02*
D03*
X41135Y35774D02*
D03*
X41529Y34987D02*
D03*
X41135Y34200D02*
D03*
X41529Y33412D02*
D03*
X41135Y32625D02*
D03*
X41529Y31837D02*
D03*
X41135Y31050D02*
D03*
X41529Y28688D02*
D03*
X41135Y27900D02*
D03*
X41529Y27113D02*
D03*
X41135Y26326D02*
D03*
X41529Y25538D02*
D03*
X41135Y24751D02*
D03*
Y23176D02*
D03*
Y18452D02*
D03*
X41529Y17664D02*
D03*
X41135Y16877D02*
D03*
X41529Y16089D02*
D03*
X41135Y13727D02*
D03*
Y12152D02*
D03*
X41529Y11365D02*
D03*
X41135Y10577D02*
D03*
X41529Y9790D02*
D03*
X40741Y41286D02*
D03*
X40348Y40499D02*
D03*
X40741Y39711D02*
D03*
X40348Y38924D02*
D03*
X40741Y38137D02*
D03*
X40348Y37349D02*
D03*
X40741Y36562D02*
D03*
X40348Y35774D02*
D03*
X40741Y34987D02*
D03*
X40348Y34200D02*
D03*
X40741Y33412D02*
D03*
X40348Y32625D02*
D03*
X40741Y31837D02*
D03*
X40348Y31050D02*
D03*
Y18452D02*
D03*
X40741Y17664D02*
D03*
X40348Y16877D02*
D03*
X40741Y16089D02*
D03*
X40348Y15302D02*
D03*
X40741Y14515D02*
D03*
Y12940D02*
D03*
Y11365D02*
D03*
X40348Y9003D02*
D03*
X39954Y41286D02*
D03*
X39560Y40499D02*
D03*
X39954Y39711D02*
D03*
X39560Y38924D02*
D03*
X39954Y38137D02*
D03*
X39560Y37349D02*
D03*
X39954Y36562D02*
D03*
X39560Y35774D02*
D03*
X39954Y34987D02*
D03*
X39560Y34200D02*
D03*
X39954Y33412D02*
D03*
X39560Y32625D02*
D03*
X39954Y31837D02*
D03*
X39560Y31050D02*
D03*
Y27900D02*
D03*
Y26326D02*
D03*
X39954Y25538D02*
D03*
X39560Y20026D02*
D03*
Y18452D02*
D03*
Y16877D02*
D03*
X39954Y16089D02*
D03*
X39560Y15302D02*
D03*
Y13727D02*
D03*
Y12152D02*
D03*
Y9003D02*
D03*
X39167Y41286D02*
D03*
X38773Y40499D02*
D03*
X39167Y39711D02*
D03*
X38773Y38924D02*
D03*
X39167Y38137D02*
D03*
X38773Y37349D02*
D03*
X39167Y36562D02*
D03*
X38773Y35774D02*
D03*
X39167Y34987D02*
D03*
X38773Y34200D02*
D03*
X39167Y33412D02*
D03*
X38773Y32625D02*
D03*
X39167Y31837D02*
D03*
X38773Y31050D02*
D03*
Y27900D02*
D03*
Y26326D02*
D03*
X39167Y25538D02*
D03*
Y20814D02*
D03*
X38773Y20026D02*
D03*
Y18452D02*
D03*
Y16877D02*
D03*
X39167Y16089D02*
D03*
X38773Y15302D02*
D03*
X39167Y14515D02*
D03*
X38773Y12152D02*
D03*
X39167Y11365D02*
D03*
X38773Y10577D02*
D03*
X39167Y9790D02*
D03*
X38773Y9003D02*
D03*
X38379Y41286D02*
D03*
X37986Y40499D02*
D03*
X38379Y39711D02*
D03*
X37986Y38924D02*
D03*
X38379Y38137D02*
D03*
X37986Y37349D02*
D03*
X38379Y36562D02*
D03*
X37986Y35774D02*
D03*
X38379Y34987D02*
D03*
X37986Y34200D02*
D03*
X38379Y33412D02*
D03*
X37986Y32625D02*
D03*
X38379Y31837D02*
D03*
X37986Y31050D02*
D03*
Y26326D02*
D03*
X38379Y25538D02*
D03*
Y23963D02*
D03*
Y20814D02*
D03*
X37986Y20026D02*
D03*
X38379Y16089D02*
D03*
X37986Y15302D02*
D03*
Y12152D02*
D03*
X38379Y11365D02*
D03*
Y9790D02*
D03*
X37986Y9003D02*
D03*
X37592Y41286D02*
D03*
X37198Y40499D02*
D03*
X37592Y39711D02*
D03*
X37198Y38924D02*
D03*
X37592Y38137D02*
D03*
X37198Y37349D02*
D03*
X37592Y36562D02*
D03*
Y34987D02*
D03*
X37198Y34200D02*
D03*
X37592Y33412D02*
D03*
X37198Y32625D02*
D03*
X37592Y31837D02*
D03*
X37198Y31050D02*
D03*
X37592Y30263D02*
D03*
X37198Y29475D02*
D03*
X37592Y27113D02*
D03*
Y22389D02*
D03*
Y20814D02*
D03*
X37198Y20026D02*
D03*
Y18452D02*
D03*
Y16877D02*
D03*
Y15302D02*
D03*
X37592Y14515D02*
D03*
X37198Y12152D02*
D03*
Y10577D02*
D03*
X37592Y9790D02*
D03*
X37198Y9003D02*
D03*
X36804Y41286D02*
D03*
X36411Y40499D02*
D03*
X36804Y36562D02*
D03*
Y34987D02*
D03*
Y33412D02*
D03*
X36411Y32625D02*
D03*
X36804Y31837D02*
D03*
X36411Y31050D02*
D03*
X36804Y30263D02*
D03*
Y23963D02*
D03*
Y22389D02*
D03*
X36411Y20026D02*
D03*
Y16877D02*
D03*
Y15302D02*
D03*
X36804Y14515D02*
D03*
X36411Y13727D02*
D03*
X36804Y12940D02*
D03*
X36411Y12152D02*
D03*
X36804Y11365D02*
D03*
X36411Y10577D02*
D03*
X36804Y9790D02*
D03*
X36017Y41286D02*
D03*
X35623Y40499D02*
D03*
X36017Y39711D02*
D03*
Y38137D02*
D03*
Y36562D02*
D03*
X35623Y35774D02*
D03*
X36017Y34987D02*
D03*
Y33412D02*
D03*
X35623Y32625D02*
D03*
X36017Y31837D02*
D03*
X35623Y29475D02*
D03*
Y27900D02*
D03*
Y23176D02*
D03*
X36017Y22389D02*
D03*
Y20814D02*
D03*
X35623Y20026D02*
D03*
Y18452D02*
D03*
X36017Y16089D02*
D03*
X35623Y13727D02*
D03*
X36017Y12940D02*
D03*
X35623Y12152D02*
D03*
X36017Y11365D02*
D03*
X35230Y41286D02*
D03*
X34836Y40499D02*
D03*
Y38924D02*
D03*
X35230Y38137D02*
D03*
X34836Y37349D02*
D03*
X35230Y36562D02*
D03*
Y34987D02*
D03*
X34836Y34200D02*
D03*
X35230Y33412D02*
D03*
X34836Y32625D02*
D03*
X35230Y31837D02*
D03*
X34836Y29475D02*
D03*
Y23176D02*
D03*
X35230Y22389D02*
D03*
Y20814D02*
D03*
X34836Y20026D02*
D03*
X35230Y19239D02*
D03*
X34836Y18452D02*
D03*
X35230Y17664D02*
D03*
Y16089D02*
D03*
X34836Y15302D02*
D03*
Y12152D02*
D03*
X35230Y11365D02*
D03*
X34442Y41286D02*
D03*
X34049Y40499D02*
D03*
Y38924D02*
D03*
Y37349D02*
D03*
X34442Y36562D02*
D03*
X34049Y35774D02*
D03*
Y34200D02*
D03*
X34442Y33412D02*
D03*
Y31837D02*
D03*
X34049Y29475D02*
D03*
X34442Y22389D02*
D03*
Y20814D02*
D03*
X34049Y20026D02*
D03*
X34442Y19239D02*
D03*
X34049Y18452D02*
D03*
X34442Y17664D02*
D03*
X34049Y16877D02*
D03*
X34442Y16089D02*
D03*
X34049Y15302D02*
D03*
Y13727D02*
D03*
Y12152D02*
D03*
X33655Y41286D02*
D03*
X33261Y40499D02*
D03*
Y38924D02*
D03*
Y35774D02*
D03*
Y34200D02*
D03*
X33655Y33412D02*
D03*
Y31837D02*
D03*
X33261Y24751D02*
D03*
X33655Y20814D02*
D03*
Y19239D02*
D03*
Y17664D02*
D03*
Y16089D02*
D03*
Y14515D02*
D03*
X33261Y13727D02*
D03*
X33655Y12940D02*
D03*
X32867Y41286D02*
D03*
X32474Y40499D02*
D03*
X32867Y38137D02*
D03*
Y36562D02*
D03*
X32474Y35774D02*
D03*
Y34200D02*
D03*
X32867Y33412D02*
D03*
Y31837D02*
D03*
Y27113D02*
D03*
Y22389D02*
D03*
Y20814D02*
D03*
X32474Y20026D02*
D03*
X32867Y19239D02*
D03*
X32474Y18452D02*
D03*
X32867Y17664D02*
D03*
X32474Y16877D02*
D03*
X32867Y16089D02*
D03*
X32474Y15302D02*
D03*
Y13727D02*
D03*
X32080Y41286D02*
D03*
X31686Y40499D02*
D03*
X32080Y38137D02*
D03*
X31686Y37349D02*
D03*
Y35774D02*
D03*
Y29475D02*
D03*
X32080Y28688D02*
D03*
X31686Y27900D02*
D03*
X32080Y27113D02*
D03*
Y23963D02*
D03*
Y20814D02*
D03*
X31686Y20026D02*
D03*
X32080Y19239D02*
D03*
X31686Y18452D02*
D03*
X32080Y17664D02*
D03*
X31686Y16877D02*
D03*
X32080Y16089D02*
D03*
X31686Y15302D02*
D03*
Y13727D02*
D03*
X31293Y41286D02*
D03*
X30899Y40499D02*
D03*
Y38924D02*
D03*
Y35774D02*
D03*
Y31050D02*
D03*
Y29475D02*
D03*
X31293Y28688D02*
D03*
X30899Y27900D02*
D03*
X31293Y27113D02*
D03*
Y23963D02*
D03*
Y20814D02*
D03*
X30899Y20026D02*
D03*
X31293Y19239D02*
D03*
X30899Y18452D02*
D03*
X31293Y17664D02*
D03*
X30899Y16877D02*
D03*
X31293Y16089D02*
D03*
X30899Y15302D02*
D03*
X31293Y14515D02*
D03*
X30505Y41286D02*
D03*
X30112Y40499D02*
D03*
Y38924D02*
D03*
X30505Y38137D02*
D03*
Y31837D02*
D03*
X30112Y31050D02*
D03*
X30505Y30263D02*
D03*
X30112Y29475D02*
D03*
X30505Y28688D02*
D03*
Y23963D02*
D03*
Y20814D02*
D03*
X30112Y20026D02*
D03*
X30505Y19239D02*
D03*
X30112Y18452D02*
D03*
X30505Y17664D02*
D03*
X30112Y16877D02*
D03*
X30505Y16089D02*
D03*
X29718Y41286D02*
D03*
X29324Y40499D02*
D03*
Y38924D02*
D03*
X29718Y38137D02*
D03*
X29324Y37349D02*
D03*
Y35774D02*
D03*
X29718Y31837D02*
D03*
X29324Y31050D02*
D03*
X29718Y30263D02*
D03*
X29324Y29475D02*
D03*
X29718Y28688D02*
D03*
X29324Y27900D02*
D03*
X29718Y27113D02*
D03*
X29324Y26326D02*
D03*
X29718Y25538D02*
D03*
X29324Y24751D02*
D03*
X29718Y23963D02*
D03*
Y20814D02*
D03*
X29324Y20026D02*
D03*
X29718Y19239D02*
D03*
X29324Y18452D02*
D03*
X29718Y17664D02*
D03*
X29324Y16877D02*
D03*
X29718Y16089D02*
D03*
X28930Y41286D02*
D03*
X28537Y40499D02*
D03*
Y38924D02*
D03*
X28930Y38137D02*
D03*
X28537Y37349D02*
D03*
X28930Y36562D02*
D03*
X28537Y35774D02*
D03*
Y32625D02*
D03*
X28930Y31837D02*
D03*
X28537Y31050D02*
D03*
X28930Y30263D02*
D03*
X28537Y29475D02*
D03*
X28930Y28688D02*
D03*
Y27113D02*
D03*
X28537Y26326D02*
D03*
X28930Y25538D02*
D03*
Y23963D02*
D03*
Y22389D02*
D03*
X28537Y20026D02*
D03*
Y18452D02*
D03*
Y16877D02*
D03*
X28143Y41286D02*
D03*
X27749Y40499D02*
D03*
Y38924D02*
D03*
X28143Y38137D02*
D03*
X27749Y37349D02*
D03*
X28143Y36562D02*
D03*
X27749Y35774D02*
D03*
Y32625D02*
D03*
Y31050D02*
D03*
Y29475D02*
D03*
Y26326D02*
D03*
X28143Y22389D02*
D03*
Y20814D02*
D03*
X27749Y20026D02*
D03*
X28143Y19239D02*
D03*
X27749Y18452D02*
D03*
X28143Y17664D02*
D03*
X27356Y41286D02*
D03*
X26962Y40499D02*
D03*
Y38924D02*
D03*
X27356Y38137D02*
D03*
X26962Y37349D02*
D03*
X27356Y36562D02*
D03*
X26962Y35774D02*
D03*
X27356Y34987D02*
D03*
X26962Y34200D02*
D03*
X27356Y23963D02*
D03*
Y22389D02*
D03*
Y20814D02*
D03*
X26962Y20026D02*
D03*
X27356Y19239D02*
D03*
X26962Y18452D02*
D03*
X26568Y41286D02*
D03*
X26175Y40499D02*
D03*
X26568Y38137D02*
D03*
Y33412D02*
D03*
X26175Y32625D02*
D03*
X26568Y31837D02*
D03*
X26175Y31050D02*
D03*
X26568Y30263D02*
D03*
X26175Y29475D02*
D03*
X26568Y28688D02*
D03*
Y27113D02*
D03*
X26175Y26326D02*
D03*
X26568Y25538D02*
D03*
X26175Y24751D02*
D03*
X26568Y23963D02*
D03*
X26175Y21601D02*
D03*
X26568Y20814D02*
D03*
X26175Y20026D02*
D03*
X26568Y19239D02*
D03*
X25781Y41286D02*
D03*
X25387Y40499D02*
D03*
Y38924D02*
D03*
X25781Y38137D02*
D03*
Y31837D02*
D03*
Y28688D02*
D03*
X25387Y27900D02*
D03*
Y23176D02*
D03*
X25781Y22389D02*
D03*
X25387Y21601D02*
D03*
X25781Y20814D02*
D03*
X25387Y20026D02*
D03*
X24993Y41286D02*
D03*
X24600Y40499D02*
D03*
Y35774D02*
D03*
Y34200D02*
D03*
X24993Y33412D02*
D03*
Y31837D02*
D03*
Y28688D02*
D03*
X24600Y27900D02*
D03*
X24993Y23963D02*
D03*
X24600Y23176D02*
D03*
Y21601D02*
D03*
X24206Y41286D02*
D03*
X23812Y40499D02*
D03*
Y38924D02*
D03*
X24206Y38137D02*
D03*
X23812Y37349D02*
D03*
X24206Y36562D02*
D03*
X23812Y35774D02*
D03*
Y34200D02*
D03*
X24206Y31837D02*
D03*
X23812Y27900D02*
D03*
X24206Y23963D02*
D03*
X23812Y23176D02*
D03*
X24206Y22389D02*
D03*
X23812Y21601D02*
D03*
X24206Y20814D02*
D03*
X23419Y41286D02*
D03*
X23025Y38924D02*
D03*
X23419Y38137D02*
D03*
Y31837D02*
D03*
Y28688D02*
D03*
Y23963D02*
D03*
X23025Y23176D02*
D03*
X23419Y22389D02*
D03*
X22631Y41286D02*
D03*
X22238Y40499D02*
D03*
X22631Y36562D02*
D03*
X22238Y35774D02*
D03*
X22631Y34987D02*
D03*
X22238Y34200D02*
D03*
X22631Y33412D02*
D03*
Y31837D02*
D03*
Y28688D02*
D03*
Y23963D02*
D03*
Y22389D02*
D03*
X21844Y41286D02*
D03*
X21450Y40499D02*
D03*
Y38924D02*
D03*
X21844Y38137D02*
D03*
Y36562D02*
D03*
X21450Y35774D02*
D03*
X21844Y34987D02*
D03*
Y33412D02*
D03*
Y31837D02*
D03*
X21450Y31050D02*
D03*
X21844Y28688D02*
D03*
X21450Y26326D02*
D03*
Y24751D02*
D03*
X21844Y23963D02*
D03*
X21056Y41286D02*
D03*
X20663Y40499D02*
D03*
X21056Y39711D02*
D03*
X20663Y37349D02*
D03*
X21056Y36562D02*
D03*
X20663Y35774D02*
D03*
X21056Y31837D02*
D03*
Y30263D02*
D03*
X20663Y29475D02*
D03*
X21056Y28688D02*
D03*
X20663Y26326D02*
D03*
X21056Y25538D02*
D03*
X20663Y24751D02*
D03*
X21056Y23963D02*
D03*
X20269Y41286D02*
D03*
X19875Y40499D02*
D03*
X20269Y38137D02*
D03*
Y36562D02*
D03*
X19875Y35774D02*
D03*
X20269Y30263D02*
D03*
X19875Y29475D02*
D03*
Y26326D02*
D03*
X20269Y25538D02*
D03*
X19482Y41286D02*
D03*
X19088Y40499D02*
D03*
Y34200D02*
D03*
Y31050D02*
D03*
X19482Y30263D02*
D03*
X19088Y26326D02*
D03*
X19482Y25538D02*
D03*
X18694Y41286D02*
D03*
X18300Y40499D02*
D03*
Y38924D02*
D03*
X18694Y34987D02*
D03*
X18300Y34200D02*
D03*
X18694Y33412D02*
D03*
X18300Y32625D02*
D03*
X18694Y28688D02*
D03*
X17907Y41286D02*
D03*
X17513Y40499D02*
D03*
X17907Y38137D02*
D03*
X17513Y37349D02*
D03*
Y34200D02*
D03*
X17907Y33412D02*
D03*
X17513Y32625D02*
D03*
X17907Y31837D02*
D03*
X17513Y31050D02*
D03*
X17907Y30263D02*
D03*
X17513Y29475D02*
D03*
X17907Y28688D02*
D03*
X17513Y27900D02*
D03*
X17119Y41286D02*
D03*
X16726Y40499D02*
D03*
X17119Y39711D02*
D03*
X16726Y38924D02*
D03*
Y37349D02*
D03*
X17119Y36562D02*
D03*
X16726Y29475D02*
D03*
X17119Y28688D02*
D03*
X16726Y27900D02*
D03*
X16332Y41286D02*
D03*
X15938Y38924D02*
D03*
X16332Y38137D02*
D03*
X15938Y37349D02*
D03*
X16332Y36562D02*
D03*
X15938Y35774D02*
D03*
Y29475D02*
D03*
X16332Y28688D02*
D03*
X15545Y41286D02*
D03*
X15151Y40499D02*
D03*
X15545Y39711D02*
D03*
X15151Y38924D02*
D03*
Y37349D02*
D03*
X15545Y36562D02*
D03*
X15151Y35774D02*
D03*
X15545Y34987D02*
D03*
X14757Y41286D02*
D03*
X14363Y40499D02*
D03*
X14757Y39711D02*
D03*
X14363Y38924D02*
D03*
Y37349D02*
D03*
X14757Y36562D02*
D03*
X14363Y35774D02*
D03*
Y31050D02*
D03*
X13970Y41286D02*
D03*
Y39711D02*
D03*
Y38137D02*
D03*
Y36562D02*
D03*
Y31837D02*
D03*
X13182Y41286D02*
D03*
X12789Y32625D02*
D03*
X12395Y41286D02*
D03*
Y33412D02*
D03*
X11608Y41286D02*
D03*
X11214Y40499D02*
D03*
Y35774D02*
D03*
Y34200D02*
D03*
X10820Y41286D02*
D03*
X10426Y40499D02*
D03*
Y38924D02*
D03*
Y37349D02*
D03*
X10820Y36562D02*
D03*
X10426Y35774D02*
D03*
X10820Y34987D02*
D03*
X10033Y41286D02*
D03*
X9639Y40499D02*
D03*
X10033Y39711D02*
D03*
X9639Y38924D02*
D03*
X10033Y38137D02*
D03*
X9639Y37349D02*
D03*
X10033Y36562D02*
D03*
X9639Y35774D02*
D03*
X9245Y41286D02*
D03*
X8852Y40499D02*
D03*
X9245Y39711D02*
D03*
X8852Y38924D02*
D03*
X9245Y38137D02*
D03*
X8852Y37349D02*
D03*
X9245Y36562D02*
D03*
X8458Y41286D02*
D03*
X8064Y40499D02*
D03*
X8458Y39711D02*
D03*
X8064Y38924D02*
D03*
X8458Y38137D02*
D03*
X8064Y37349D02*
D03*
X8458Y36562D02*
D03*
X7671Y41286D02*
D03*
X7277Y40499D02*
D03*
X7671Y39711D02*
D03*
X7277Y38924D02*
D03*
X7671Y38137D02*
D03*
X7277Y37349D02*
D03*
X7671Y36562D02*
D03*
X6883Y41286D02*
D03*
X6489Y40499D02*
D03*
X6883Y39711D02*
D03*
X6489Y38924D02*
D03*
X6883Y38137D02*
D03*
X6489Y37349D02*
D03*
X6883Y36562D02*
D03*
X6096Y41286D02*
D03*
X5702Y40499D02*
D03*
X6096Y39711D02*
D03*
X5702Y38924D02*
D03*
X6096Y38137D02*
D03*
X5702Y37349D02*
D03*
X6096Y36562D02*
D03*
X5308Y41286D02*
D03*
X4915Y40499D02*
D03*
X5308Y39711D02*
D03*
X4915Y38924D02*
D03*
X5308Y38137D02*
D03*
X4915Y37349D02*
D03*
X5308Y36562D02*
D03*
X4521Y41286D02*
D03*
Y39711D02*
D03*
Y38137D02*
D03*
Y36562D02*
D03*
X11804Y12940D02*
D03*
X11608Y13333D02*
D03*
X11804Y13727D02*
D03*
X11608Y14121D02*
D03*
X11804Y14515D02*
D03*
X11608Y14908D02*
D03*
X11804Y15302D02*
D03*
X11608Y15696D02*
D03*
X11804Y16089D02*
D03*
X12198Y12940D02*
D03*
X12001Y13333D02*
D03*
X12198Y13727D02*
D03*
X12001Y14121D02*
D03*
X12198Y14515D02*
D03*
X12001Y14908D02*
D03*
X12198Y15302D02*
D03*
X12001Y15696D02*
D03*
X12198Y16089D02*
D03*
X12001Y16483D02*
D03*
X12198Y16877D02*
D03*
X12395Y12546D02*
D03*
X12592Y12940D02*
D03*
X12395Y13333D02*
D03*
X12592Y13727D02*
D03*
X12395Y14121D02*
D03*
X12592Y14515D02*
D03*
X12395Y14908D02*
D03*
X12592Y15302D02*
D03*
X12395Y15696D02*
D03*
X12592Y16089D02*
D03*
X12395Y16483D02*
D03*
X12592Y16877D02*
D03*
X12789Y12546D02*
D03*
X12986Y12940D02*
D03*
X12789Y13333D02*
D03*
Y14121D02*
D03*
X12986Y14515D02*
D03*
X12789Y14908D02*
D03*
Y16483D02*
D03*
X12986Y16877D02*
D03*
X13182Y12546D02*
D03*
X13379Y12940D02*
D03*
Y14515D02*
D03*
X13182Y14908D02*
D03*
Y16483D02*
D03*
X13379Y16877D02*
D03*
X13576Y12546D02*
D03*
X44875Y5853D02*
D03*
X44678Y6247D02*
D03*
X45072Y1522D02*
D03*
Y2310D02*
D03*
Y3097D02*
D03*
Y3885D02*
D03*
Y4672D02*
D03*
Y5459D02*
D03*
X43301Y5853D02*
D03*
X43104Y6247D02*
D03*
X43497Y735D02*
D03*
X43694Y1129D02*
D03*
X43497Y1522D02*
D03*
X43694Y1916D02*
D03*
X43497Y2310D02*
D03*
X43694Y2703D02*
D03*
X43497Y3097D02*
D03*
X43694Y3491D02*
D03*
X43497Y3885D02*
D03*
X43694Y4278D02*
D03*
X43497Y4672D02*
D03*
X43694Y5066D02*
D03*
X43497Y5459D02*
D03*
X43694Y5853D02*
D03*
X43497Y6247D02*
D03*
X43891Y735D02*
D03*
X44088Y1129D02*
D03*
X43891Y1522D02*
D03*
X44088Y1916D02*
D03*
X43891Y2310D02*
D03*
X44088Y2703D02*
D03*
X43891Y3097D02*
D03*
X44088Y3491D02*
D03*
X43891Y3885D02*
D03*
X44088Y4278D02*
D03*
X43891Y4672D02*
D03*
X44088Y5066D02*
D03*
X43891Y5459D02*
D03*
X44088Y5853D02*
D03*
X43891Y6247D02*
D03*
X44285Y735D02*
D03*
X44482Y1129D02*
D03*
X44285Y1522D02*
D03*
X44482Y1916D02*
D03*
X44285Y2310D02*
D03*
X44482Y2703D02*
D03*
X44285Y3097D02*
D03*
X44482Y3491D02*
D03*
X44285Y3885D02*
D03*
X44482Y4278D02*
D03*
X44285Y4672D02*
D03*
X44482Y5066D02*
D03*
X44285Y5459D02*
D03*
X44482Y5853D02*
D03*
X44285Y6247D02*
D03*
X44875Y1129D02*
D03*
X44678Y1522D02*
D03*
X44875Y1916D02*
D03*
X44678Y2310D02*
D03*
X44875Y2703D02*
D03*
X44678Y3097D02*
D03*
X44875Y3491D02*
D03*
X44678Y3885D02*
D03*
X44875Y4278D02*
D03*
X44678Y4672D02*
D03*
X44875Y5066D02*
D03*
X44678Y5459D02*
D03*
X41726Y2703D02*
D03*
X41529Y3097D02*
D03*
X41726Y3491D02*
D03*
Y4278D02*
D03*
Y5066D02*
D03*
Y5853D02*
D03*
X41923Y735D02*
D03*
X42119Y1129D02*
D03*
X41923Y1522D02*
D03*
X42119Y1916D02*
D03*
X41923Y2310D02*
D03*
X42119Y2703D02*
D03*
X41923Y3097D02*
D03*
X42119Y3491D02*
D03*
X41923Y3885D02*
D03*
X42119Y4278D02*
D03*
X41923Y4672D02*
D03*
X42119Y5066D02*
D03*
X41923Y5459D02*
D03*
X42119Y5853D02*
D03*
X41923Y6247D02*
D03*
X42316Y735D02*
D03*
X42513Y1129D02*
D03*
X42316Y1522D02*
D03*
X42513Y1916D02*
D03*
X42316Y2310D02*
D03*
X42513Y2703D02*
D03*
X42316Y3097D02*
D03*
X42513Y3491D02*
D03*
X42316Y3885D02*
D03*
X42513Y4278D02*
D03*
X42316Y4672D02*
D03*
X42513Y5066D02*
D03*
X42316Y5459D02*
D03*
X42513Y5853D02*
D03*
X42316Y6247D02*
D03*
X42710Y735D02*
D03*
X42907Y1129D02*
D03*
X42710Y1522D02*
D03*
X42907Y1916D02*
D03*
X42710Y2310D02*
D03*
X42907Y2703D02*
D03*
X42710Y3097D02*
D03*
X42907Y3491D02*
D03*
X42710Y3885D02*
D03*
X42907Y4278D02*
D03*
X42710Y4672D02*
D03*
X42907Y5066D02*
D03*
X42710Y5459D02*
D03*
X42907Y5853D02*
D03*
X42710Y6247D02*
D03*
X43104Y735D02*
D03*
X43301Y1129D02*
D03*
X43104Y1522D02*
D03*
X43301Y1916D02*
D03*
X43104Y2310D02*
D03*
X43301Y2703D02*
D03*
X43104Y3097D02*
D03*
X43301Y3491D02*
D03*
X43104Y3885D02*
D03*
X43301Y4278D02*
D03*
X43104Y4672D02*
D03*
X43301Y5066D02*
D03*
X43104Y5459D02*
D03*
X24993Y7822D02*
D03*
X25190Y8215D02*
D03*
X24993Y8609D02*
D03*
X25190Y9003D02*
D03*
X25387Y735D02*
D03*
X25584Y1129D02*
D03*
X25387Y7822D02*
D03*
Y8609D02*
D03*
X25781Y735D02*
D03*
X25978Y1129D02*
D03*
X26175Y735D02*
D03*
X26371Y1129D02*
D03*
X26568Y735D02*
D03*
X26765Y1129D02*
D03*
X26962Y735D02*
D03*
X27159Y1129D02*
D03*
X27356Y735D02*
D03*
X27552Y1129D02*
D03*
X27749Y735D02*
D03*
Y1522D02*
D03*
X28143Y735D02*
D03*
X28537D02*
D03*
X28930Y5459D02*
D03*
Y6247D02*
D03*
Y7034D02*
D03*
Y7822D02*
D03*
X29521Y5066D02*
D03*
X29324Y5459D02*
D03*
X29915Y5066D02*
D03*
X29718Y5459D02*
D03*
X30308Y5066D02*
D03*
X30112Y5459D02*
D03*
X30702Y5066D02*
D03*
X30505Y5459D02*
D03*
X31096Y5066D02*
D03*
X30899Y5459D02*
D03*
X31489Y5066D02*
D03*
X31293Y5459D02*
D03*
X39167Y1522D02*
D03*
X39757Y1129D02*
D03*
X39560Y1522D02*
D03*
X39954Y735D02*
D03*
X40151Y1129D02*
D03*
X39954Y1522D02*
D03*
X40348Y735D02*
D03*
X40545Y1129D02*
D03*
X40348Y1522D02*
D03*
X40545Y1916D02*
D03*
X40741Y735D02*
D03*
X40938Y1129D02*
D03*
X40741Y1522D02*
D03*
X40938Y1916D02*
D03*
X40741Y2310D02*
D03*
X41135Y735D02*
D03*
X41332Y1129D02*
D03*
X41135Y1522D02*
D03*
X41332Y1916D02*
D03*
X41135Y2310D02*
D03*
X41332Y2703D02*
D03*
X41529Y735D02*
D03*
X41726Y1129D02*
D03*
X41529Y1522D02*
D03*
X41726Y1916D02*
D03*
X41529Y2310D02*
D03*
X15545Y13333D02*
D03*
Y14121D02*
D03*
Y14908D02*
D03*
Y15696D02*
D03*
Y16483D02*
D03*
X22041Y1129D02*
D03*
X22238Y735D02*
D03*
X22434Y1129D02*
D03*
X22631Y735D02*
D03*
X22828Y1129D02*
D03*
Y6640D02*
D03*
X22631Y7034D02*
D03*
X22828Y7428D02*
D03*
X22631Y7822D02*
D03*
X22828Y8215D02*
D03*
X22631Y8609D02*
D03*
X22828Y9003D02*
D03*
X23025Y735D02*
D03*
X23222Y1129D02*
D03*
Y6640D02*
D03*
X23025Y7034D02*
D03*
X23222Y7428D02*
D03*
X23025Y7822D02*
D03*
X23222Y8215D02*
D03*
X23025Y8609D02*
D03*
X23222Y9003D02*
D03*
X23419Y735D02*
D03*
X23615Y1129D02*
D03*
Y6640D02*
D03*
X23419Y7034D02*
D03*
X23615Y7428D02*
D03*
X23419Y7822D02*
D03*
X23615Y8215D02*
D03*
X23419Y8609D02*
D03*
X23615Y9003D02*
D03*
X23812Y735D02*
D03*
X24009Y1129D02*
D03*
Y6640D02*
D03*
X23812Y7034D02*
D03*
X24009Y7428D02*
D03*
X23812Y7822D02*
D03*
X24009Y8215D02*
D03*
X23812Y8609D02*
D03*
X24009Y9003D02*
D03*
X24206Y735D02*
D03*
X24403Y1129D02*
D03*
Y6640D02*
D03*
X24206Y7034D02*
D03*
X24403Y7428D02*
D03*
X24206Y7822D02*
D03*
X24403Y8215D02*
D03*
X24206Y8609D02*
D03*
X24403Y9003D02*
D03*
X24600Y735D02*
D03*
X24797Y1129D02*
D03*
X24600Y7034D02*
D03*
X24797Y7428D02*
D03*
X24600Y7822D02*
D03*
X24797Y8215D02*
D03*
X24600Y8609D02*
D03*
X24797Y9003D02*
D03*
X24993Y735D02*
D03*
X25190Y1129D02*
D03*
Y7428D02*
D03*
X13773Y12940D02*
D03*
Y14515D02*
D03*
X13576Y14908D02*
D03*
Y16483D02*
D03*
X13773Y16877D02*
D03*
X13970Y12546D02*
D03*
X14167Y12940D02*
D03*
Y14515D02*
D03*
X13970Y14908D02*
D03*
X14167Y15302D02*
D03*
Y16089D02*
D03*
X13970Y16483D02*
D03*
X14167Y16877D02*
D03*
X14363Y12546D02*
D03*
X14560Y12940D02*
D03*
X14363Y13333D02*
D03*
X14560Y13727D02*
D03*
X14363Y14121D02*
D03*
X14560Y14515D02*
D03*
X14363Y14908D02*
D03*
X14560Y15302D02*
D03*
X14363Y15696D02*
D03*
X14560Y16089D02*
D03*
X14363Y16483D02*
D03*
X14560Y16877D02*
D03*
X14757Y12546D02*
D03*
X14954Y12940D02*
D03*
X14757Y13333D02*
D03*
X14954Y13727D02*
D03*
X14757Y14121D02*
D03*
X14954Y14515D02*
D03*
X14757Y14908D02*
D03*
X14954Y15302D02*
D03*
X14757Y15696D02*
D03*
X14954Y16089D02*
D03*
X14757Y16483D02*
D03*
X14954Y16877D02*
D03*
X15348Y12940D02*
D03*
X15151Y13333D02*
D03*
X15348Y13727D02*
D03*
X15151Y14121D02*
D03*
X15348Y14515D02*
D03*
X15151Y14908D02*
D03*
X15348Y15302D02*
D03*
X15151Y15696D02*
D03*
X15348Y16089D02*
D03*
X15151Y16483D02*
D03*
X15348Y16877D02*
D03*
X37937Y22473D02*
D03*
X34030Y23280D02*
D03*
X33237Y23040D02*
D03*
X34476Y28146D02*
D03*
X38840Y23340D02*
D03*
X39280Y23350D02*
D03*
X39360Y24710D02*
D03*
X38760Y24080D02*
D03*
X25880Y33170D02*
D03*
X28030D02*
D03*
X34030Y21990D02*
D03*
X37328Y27412D02*
D03*
X25750Y28220D02*
D03*
X28930D02*
D03*
D128*
X54960Y1430D02*
D03*
X990Y1040D02*
D03*
X54650Y15370D02*
D03*
%TF.MD5,cac7b3763132c7c626b2602b5902c739*%
M02*
