%TF.GenerationSoftware,Altium Limited,Altium Designer,21.3.2 (30)*%
G04 Layer_Color=255*
%FSLAX24Y24*%
%MOIN*%
%TF.SameCoordinates,B2232A1B-76E2-43D3-9B88-882A457EFEF9*%
%TF.FilePolarity,Positive*%
%TF.FileFunction,Pads,Bot*%
%TF.Part,Single*%
G01*
G75*
%TA.AperFunction,SMDPad,CuDef*%
%ADD15R,0.0550X0.0394*%
%ADD16R,0.0550X0.0500*%
%TA.AperFunction,ComponentPad*%
%ADD24R,0.0787X0.0984*%
%ADD25C,0.1575*%
%ADD26O,0.0620X0.0900*%
%ADD27R,0.0620X0.0900*%
%ADD28O,0.0591X0.0512*%
%ADD29R,0.0591X0.0512*%
%ADD30O,0.1200X0.1000*%
%ADD31C,0.0650*%
%ADD32R,0.0650X0.0650*%
%ADD33O,0.1063X0.2126*%
%ADD34R,0.0900X0.0750*%
%ADD35O,0.0900X0.0750*%
%ADD36C,0.0709*%
%ADD37R,0.0709X0.0709*%
%ADD38C,0.0750*%
%TA.AperFunction,SMDPad,CuDef*%
%ADD41R,0.3937X0.2362*%
%ADD42R,0.1299X0.0945*%
%ADD43R,0.0394X0.0945*%
G04:AMPARAMS|DCode=44|XSize=216.5mil|YSize=224.4mil|CornerRadius=27.1mil|HoleSize=0mil|Usage=FLASHONLY|Rotation=0.000|XOffset=0mil|YOffset=0mil|HoleType=Round|Shape=RoundedRectangle|*
%AMROUNDEDRECTD44*
21,1,0.2165,0.1703,0,0,0.0*
21,1,0.1624,0.2244,0,0,0.0*
1,1,0.0541,0.0812,-0.0851*
1,1,0.0541,-0.0812,-0.0851*
1,1,0.0541,-0.0812,0.0851*
1,1,0.0541,0.0812,0.0851*
%
%ADD44ROUNDEDRECTD44*%
G04:AMPARAMS|DCode=45|XSize=39.4mil|YSize=78.7mil|CornerRadius=4.9mil|HoleSize=0mil|Usage=FLASHONLY|Rotation=0.000|XOffset=0mil|YOffset=0mil|HoleType=Round|Shape=RoundedRectangle|*
%AMROUNDEDRECTD45*
21,1,0.0394,0.0689,0,0,0.0*
21,1,0.0295,0.0787,0,0,0.0*
1,1,0.0098,0.0148,-0.0344*
1,1,0.0098,-0.0148,-0.0344*
1,1,0.0098,-0.0148,0.0344*
1,1,0.0098,0.0148,0.0344*
%
%ADD45ROUNDEDRECTD45*%
%ADD46R,0.0394X0.0550*%
%ADD47O,0.0800X0.0217*%
%ADD48R,0.0354X0.0374*%
%ADD49R,0.0394X0.0709*%
G04:AMPARAMS|DCode=50|XSize=55.1mil|YSize=47.2mil|CornerRadius=5.9mil|HoleSize=0mil|Usage=FLASHONLY|Rotation=90.000|XOffset=0mil|YOffset=0mil|HoleType=Round|Shape=RoundedRectangle|*
%AMROUNDEDRECTD50*
21,1,0.0551,0.0354,0,0,90.0*
21,1,0.0433,0.0472,0,0,90.0*
1,1,0.0118,0.0177,0.0217*
1,1,0.0118,0.0177,-0.0217*
1,1,0.0118,-0.0177,-0.0217*
1,1,0.0118,-0.0177,0.0217*
%
%ADD50ROUNDEDRECTD50*%
%ADD51R,0.0551X0.0472*%
G04:AMPARAMS|DCode=52|XSize=11mil|YSize=61.4mil|CornerRadius=2.8mil|HoleSize=0mil|Usage=FLASHONLY|Rotation=315.000|XOffset=0mil|YOffset=0mil|HoleType=Round|Shape=RoundedRectangle|*
%AMROUNDEDRECTD52*
21,1,0.0110,0.0559,0,0,315.0*
21,1,0.0055,0.0614,0,0,315.0*
1,1,0.0055,-0.0178,-0.0217*
1,1,0.0055,-0.0217,-0.0178*
1,1,0.0055,0.0178,0.0217*
1,1,0.0055,0.0217,0.0178*
%
%ADD52ROUNDEDRECTD52*%
G04:AMPARAMS|DCode=53|XSize=11mil|YSize=61.4mil|CornerRadius=2.8mil|HoleSize=0mil|Usage=FLASHONLY|Rotation=225.000|XOffset=0mil|YOffset=0mil|HoleType=Round|Shape=RoundedRectangle|*
%AMROUNDEDRECTD53*
21,1,0.0110,0.0559,0,0,225.0*
21,1,0.0055,0.0614,0,0,225.0*
1,1,0.0055,-0.0217,0.0178*
1,1,0.0055,-0.0178,0.0217*
1,1,0.0055,0.0217,-0.0178*
1,1,0.0055,0.0178,-0.0217*
%
%ADD53ROUNDEDRECTD53*%
%ADD54R,0.0472X0.0551*%
%ADD55O,0.0236X0.0709*%
D15*
X36547Y38439D02*
D03*
Y37539D02*
D03*
X36134Y35449D02*
D03*
Y34549D02*
D03*
X36917Y34549D02*
D03*
Y35449D02*
D03*
D16*
X20977Y27340D02*
D03*
Y28240D02*
D03*
X20222Y27340D02*
D03*
Y28240D02*
D03*
X19468Y27340D02*
D03*
Y28240D02*
D03*
X18713Y27340D02*
D03*
Y28240D02*
D03*
X32281Y31677D02*
D03*
Y30777D02*
D03*
X33050Y30790D02*
D03*
Y29890D02*
D03*
X35380D02*
D03*
Y30790D02*
D03*
X49550Y7950D02*
D03*
Y7050D02*
D03*
X31411Y30777D02*
D03*
Y31677D02*
D03*
D24*
X13440Y4480D02*
D03*
X11440D02*
D03*
X52550Y4620D02*
D03*
X50550D02*
D03*
X33920Y4480D02*
D03*
X35920D02*
D03*
X5150D02*
D03*
X7150D02*
D03*
D25*
X19340Y38500D02*
D03*
X19390Y19000D02*
D03*
X54790Y38500D02*
D03*
Y18950D02*
D03*
D26*
X36540Y39600D02*
D03*
X35540D02*
D03*
X34540D02*
D03*
X33540D02*
D03*
X32540D02*
D03*
X31540D02*
D03*
X30540D02*
D03*
X29540D02*
D03*
X28540D02*
D03*
X27540D02*
D03*
X26540D02*
D03*
X25540D02*
D03*
X24540D02*
D03*
X23540D02*
D03*
X22540D02*
D03*
D27*
X21540D02*
D03*
D28*
X16240Y29110D02*
D03*
X10750Y7840D02*
D03*
D29*
X16240Y30110D02*
D03*
X10750Y8840D02*
D03*
D30*
X13440Y15770D02*
D03*
Y7270D02*
D03*
Y9270D02*
D03*
Y13770D02*
D03*
D31*
X35756Y10814D02*
D03*
Y16523D02*
D03*
X36740D02*
D03*
X37724D02*
D03*
D32*
Y10814D02*
D03*
D33*
X34909Y13570D02*
D03*
X38571D02*
D03*
D34*
X42000Y15040D02*
D03*
X45410D02*
D03*
D35*
X42000Y14040D02*
D03*
Y13040D02*
D03*
Y12040D02*
D03*
X45410Y14040D02*
D03*
Y13040D02*
D03*
Y12040D02*
D03*
D36*
X8577Y20101D02*
D03*
X1490Y40180D02*
D03*
X12120D02*
D03*
D37*
X5033Y20101D02*
D03*
D38*
X17090Y37930D02*
D03*
X16090Y39930D02*
D03*
X15090Y37930D02*
D03*
D41*
X23881Y30233D02*
D03*
X23920Y26060D02*
D03*
D42*
X20236Y31643D02*
D03*
D43*
X19330Y29360D02*
D03*
X20236D02*
D03*
X21141D02*
D03*
D44*
X20400Y34220D02*
D03*
D45*
X21300Y37133D02*
D03*
X19500Y37133D02*
D03*
D46*
X23319Y33753D02*
D03*
X24219D02*
D03*
X23319Y34553D02*
D03*
X24219D02*
D03*
X23319Y35353D02*
D03*
X24219D02*
D03*
X31989Y34200D02*
D03*
X31089D02*
D03*
X31989Y34973D02*
D03*
X31089D02*
D03*
D47*
X29829Y37553D02*
D03*
Y37053D02*
D03*
Y36553D02*
D03*
Y36053D02*
D03*
Y35553D02*
D03*
Y35053D02*
D03*
Y34553D02*
D03*
Y34053D02*
D03*
X26109Y37553D02*
D03*
Y37053D02*
D03*
Y36553D02*
D03*
Y36053D02*
D03*
Y35553D02*
D03*
Y35053D02*
D03*
Y34553D02*
D03*
Y34053D02*
D03*
D48*
X36169Y35999D02*
D03*
X36543Y36983D02*
D03*
X36917Y35999D02*
D03*
D49*
X32302Y29930D02*
D03*
X31318D02*
D03*
D50*
X34535Y29917D02*
D03*
Y30783D02*
D03*
X33865D02*
D03*
Y29917D02*
D03*
D51*
X36241Y30652D02*
D03*
Y29904D02*
D03*
X36499Y21356D02*
D03*
Y20608D02*
D03*
D52*
X33651Y25412D02*
D03*
X33790Y25273D02*
D03*
X33929Y25134D02*
D03*
X34068Y24994D02*
D03*
X34208Y24855D02*
D03*
X34347Y24716D02*
D03*
X34486Y24577D02*
D03*
X34625Y24438D02*
D03*
X34764Y24298D02*
D03*
X34904Y24159D02*
D03*
X35043Y24020D02*
D03*
X35182Y23881D02*
D03*
X37509Y26208D02*
D03*
X37370Y26347D02*
D03*
X37231Y26486D02*
D03*
X37092Y26626D02*
D03*
X36952Y26765D02*
D03*
X36813Y26904D02*
D03*
X36674Y27043D02*
D03*
X36535Y27182D02*
D03*
X36396Y27322D02*
D03*
X36256Y27461D02*
D03*
X36117Y27600D02*
D03*
X35978Y27739D02*
D03*
D53*
Y23881D02*
D03*
X36117Y24020D02*
D03*
X36256Y24159D02*
D03*
X36396Y24298D02*
D03*
X36535Y24438D02*
D03*
X36674Y24577D02*
D03*
X36813Y24716D02*
D03*
X36952Y24855D02*
D03*
X37092Y24994D02*
D03*
X37231Y25134D02*
D03*
X37370Y25273D02*
D03*
X37509Y25412D02*
D03*
X35182Y27739D02*
D03*
X35043Y27600D02*
D03*
X34904Y27461D02*
D03*
X34764Y27322D02*
D03*
X34625Y27182D02*
D03*
X34486Y27043D02*
D03*
X34347Y26904D02*
D03*
X34208Y26765D02*
D03*
X34068Y26626D02*
D03*
X33929Y26486D02*
D03*
X33790Y26347D02*
D03*
X33651Y26208D02*
D03*
D54*
X29988Y26611D02*
D03*
X30736D02*
D03*
Y24951D02*
D03*
X29988D02*
D03*
X40752Y27159D02*
D03*
X40004D02*
D03*
D55*
X50410Y10162D02*
D03*
X50910D02*
D03*
X51410D02*
D03*
X51910D02*
D03*
X50410Y7938D02*
D03*
X50910D02*
D03*
X51410D02*
D03*
X51910D02*
D03*
%TF.MD5,7b0b109da918c1dc59bab15e3b985447*%
M02*
