%TF.GenerationSoftware,Altium Limited,Altium Designer,21.3.2 (30)*%
G04 Layer_Physical_Order=1*
G04 Layer_Color=255*
%FSLAX24Y24*%
%MOIN*%
%TF.SameCoordinates,B2232A1B-76E2-43D3-9B88-882A457EFEF9*%
%TF.FilePolarity,Positive*%
%TF.FileFunction,Copper,L1,Top,Signal*%
%TF.Part,Single*%
G01*
G75*
%TA.AperFunction,SMDPad,CuDef*%
%ADD10R,0.0500X0.0550*%
%ADD11O,0.0886X0.0630*%
%ADD12R,0.0500X0.0650*%
G04:AMPARAMS|DCode=13|XSize=52.8mil|YSize=129.5mil|CornerRadius=6.6mil|HoleSize=0mil|Usage=FLASHONLY|Rotation=180.000|XOffset=0mil|YOffset=0mil|HoleType=Round|Shape=RoundedRectangle|*
%AMROUNDEDRECTD13*
21,1,0.0528,0.1163,0,0,180.0*
21,1,0.0396,0.1295,0,0,180.0*
1,1,0.0132,-0.0198,0.0582*
1,1,0.0132,0.0198,0.0582*
1,1,0.0132,0.0198,-0.0582*
1,1,0.0132,-0.0198,-0.0582*
%
%ADD13ROUNDEDRECTD13*%
%ADD14R,0.0472X0.0315*%
%ADD15R,0.0550X0.0394*%
%ADD16R,0.0550X0.0500*%
%ADD17R,0.2516X0.3150*%
G04:AMPARAMS|DCode=18|XSize=41.7mil|YSize=148.8mil|CornerRadius=11.1mil|HoleSize=0mil|Usage=FLASHONLY|Rotation=0.000|XOffset=0mil|YOffset=0mil|HoleType=Round|Shape=RoundedRectangle|*
%AMROUNDEDRECTD18*
21,1,0.0417,0.1267,0,0,0.0*
21,1,0.0196,0.1488,0,0,0.0*
1,1,0.0221,0.0098,-0.0634*
1,1,0.0221,-0.0098,-0.0634*
1,1,0.0221,-0.0098,0.0634*
1,1,0.0221,0.0098,0.0634*
%
%ADD18ROUNDEDRECTD18*%
%ADD19R,0.0374X0.0354*%
%TA.AperFunction,Conductor*%
%ADD20C,0.0100*%
%ADD21C,0.0315*%
%ADD22C,0.0394*%
%ADD23C,0.0197*%
%TA.AperFunction,ComponentPad*%
%ADD24R,0.0787X0.0984*%
%ADD25C,0.1575*%
%ADD26O,0.0620X0.0900*%
%ADD27R,0.0620X0.0900*%
%ADD28O,0.0591X0.0512*%
%ADD29R,0.0591X0.0512*%
%ADD30O,0.1200X0.1000*%
%ADD31C,0.0650*%
%ADD32R,0.0650X0.0650*%
%ADD33O,0.1063X0.2126*%
%ADD34R,0.0900X0.0750*%
%ADD35O,0.0900X0.0750*%
%ADD36C,0.0709*%
%ADD37R,0.0709X0.0709*%
%ADD38C,0.0750*%
%TA.AperFunction,ViaPad*%
%ADD39C,0.0157*%
%ADD40C,0.1575*%
G36*
X56565Y-115D02*
X49150Y-115D01*
Y4620D01*
X45670Y8100D01*
X37840D01*
X32700Y13240D01*
X19370D01*
X16725Y15885D01*
Y25564D01*
X18516Y27355D01*
X29520D01*
X29520Y27355D01*
X29572Y27365D01*
X29616Y27394D01*
X30232Y28011D01*
X34383D01*
X34385Y28010D01*
X34444Y27985D01*
X34508D01*
X34568Y28010D01*
X34613Y28055D01*
X34638Y28114D01*
Y28179D01*
X34613Y28238D01*
X34568Y28283D01*
X34508Y28308D01*
X34444D01*
X34385Y28283D01*
X34383Y28282D01*
X30176D01*
X30176Y28282D01*
X30125Y28271D01*
X30081Y28242D01*
X30081Y28242D01*
X29464Y27625D01*
X18460D01*
X18408Y27615D01*
X18364Y27586D01*
X18364Y27586D01*
X16494Y25716D01*
X16465Y25672D01*
X16455Y25620D01*
X16455Y25620D01*
Y16221D01*
X16409Y16201D01*
X15910Y16700D01*
Y29180D01*
X9110Y35980D01*
X4420D01*
Y41415D01*
X56565D01*
X56565Y-115D01*
D02*
G37*
G36*
X15680Y16640D02*
Y13060D01*
X15010Y12390D01*
X11690D01*
X10970Y13060D01*
Y16640D01*
X11690Y17450D01*
X15010D01*
X15680Y16640D01*
D02*
G37*
G36*
X15140Y11190D02*
X15145Y10130D01*
X16100D01*
X18840Y7390D01*
Y4720D01*
X18010Y3890D01*
X12930D01*
X12710Y4110D01*
X12710Y7880D01*
X12240Y8350D01*
X10200D01*
X9570Y8980D01*
Y9100D01*
Y11190D01*
X10200Y11930D01*
X14400D01*
X15140Y11190D01*
D02*
G37*
G36*
X5810Y10720D02*
Y3590D01*
X5240Y3020D01*
X3800D01*
X3310Y3510D01*
X3290Y10150D01*
X4180Y11040D01*
X5490D01*
X5810Y10720D01*
D02*
G37*
G36*
X12433Y7547D02*
X12485Y4035D01*
X13220Y3300D01*
X23730D01*
X24135Y2895D01*
X24200Y2960D01*
X24800D01*
X24940Y2820D01*
Y2010D01*
X26340D01*
Y2800D01*
X26440Y2900D01*
X26650D01*
X26870Y2680D01*
Y1970D01*
X26530Y1630D01*
X24400D01*
X24170Y1860D01*
X10710D01*
X9740Y2830D01*
X9733D01*
X9661Y2909D01*
X9540Y3030D01*
Y3041D01*
X9130Y3490D01*
Y7547D01*
X9733Y8160D01*
X11820D01*
X12433Y7547D01*
D02*
G37*
G36*
X6850Y22200D02*
Y17950D01*
X8610Y16190D01*
Y3400D01*
X9590Y2420D01*
Y1350D01*
X9130Y890D01*
X7540D01*
X6500Y1930D01*
Y11930D01*
X3140Y15290D01*
X2320Y16090D01*
Y23220D01*
X2880Y23780D01*
X5270D01*
X6850Y22200D01*
D02*
G37*
G36*
X30280Y3820D02*
Y570D01*
X29780Y70D01*
X29290D01*
X28911Y450D01*
X28911Y2190D01*
X27700D01*
X27190Y2700D01*
Y3360D01*
X27490Y3660D01*
X28911Y3681D01*
Y3740D01*
X29250Y4220D01*
X29880D01*
X30280Y3820D01*
D02*
G37*
G36*
X28700Y1630D02*
Y520D01*
X28200Y20D01*
X21200D01*
X20090Y1270D01*
X27150D01*
X27770Y1890D01*
X28440D01*
X28700Y1630D01*
D02*
G37*
G36*
X33070Y11500D02*
Y10610D01*
X34140D01*
X38290Y6460D01*
X44820D01*
X47680Y3600D01*
Y470D01*
X47150Y-60D01*
X40590D01*
X37410Y3120D01*
Y4720D01*
X35220Y6910D01*
X33070D01*
Y6450D01*
X31460Y4840D01*
X29380D01*
X28690Y5530D01*
Y9940D01*
X28180Y10450D01*
X26130D01*
X25570Y9890D01*
X25570Y6630D01*
X25310Y6370D01*
X22710Y6370D01*
X22520Y6560D01*
Y11270D01*
X23640Y12390D01*
X32100D01*
X32140Y12430D01*
X33070Y11500D01*
D02*
G37*
G36*
X34890Y5640D02*
Y480D01*
X34310Y-60D01*
X31030D01*
X30490Y480D01*
Y3710D01*
X30940Y4160D01*
X31660D01*
X32080Y4580D01*
Y5060D01*
X33240Y6220D01*
X34310D01*
X34890Y5640D01*
D02*
G37*
%LPC*%
G36*
X12177Y40617D02*
X12062D01*
X11951Y40587D01*
X11852Y40530D01*
X11770Y40448D01*
X11713Y40349D01*
X11683Y40238D01*
Y40122D01*
X11713Y40011D01*
X11770Y39912D01*
X11852Y39830D01*
X11951Y39773D01*
X12062Y39743D01*
X12177D01*
X12289Y39773D01*
X12388Y39830D01*
X12470Y39912D01*
X12527Y40011D01*
X12557Y40122D01*
Y40238D01*
X12527Y40349D01*
X12470Y40448D01*
X12388Y40530D01*
X12289Y40587D01*
X12177Y40617D01*
D02*
G37*
G36*
X16150Y40388D02*
X16030D01*
X15913Y40356D01*
X15809Y40296D01*
X15724Y40211D01*
X15664Y40107D01*
X15632Y39990D01*
Y39870D01*
X15664Y39753D01*
X15724Y39649D01*
X15809Y39564D01*
X15913Y39504D01*
X16030Y39472D01*
X16150D01*
X16267Y39504D01*
X16371Y39564D01*
X16456Y39649D01*
X16516Y39753D01*
X16548Y39870D01*
Y39990D01*
X16516Y40107D01*
X16456Y40211D01*
X16371Y40296D01*
X16267Y40356D01*
X16150Y40388D01*
D02*
G37*
G36*
X36540Y40136D02*
X36437Y40123D01*
X36342Y40083D01*
X36260Y40020D01*
X36197Y39938D01*
X36157Y39843D01*
X36144Y39740D01*
Y39460D01*
X36157Y39357D01*
X36197Y39262D01*
X36260Y39180D01*
X36342Y39117D01*
X36437Y39077D01*
X36540Y39064D01*
X36643Y39077D01*
X36738Y39117D01*
X36820Y39180D01*
X36883Y39262D01*
X36923Y39357D01*
X36936Y39460D01*
Y39740D01*
X36923Y39843D01*
X36883Y39938D01*
X36820Y40020D01*
X36738Y40083D01*
X36643Y40123D01*
X36540Y40136D01*
D02*
G37*
G36*
X35540D02*
X35437Y40123D01*
X35342Y40083D01*
X35260Y40020D01*
X35197Y39938D01*
X35157Y39843D01*
X35144Y39740D01*
Y39460D01*
X35157Y39357D01*
X35197Y39262D01*
X35260Y39180D01*
X35342Y39117D01*
X35437Y39077D01*
X35540Y39064D01*
X35643Y39077D01*
X35738Y39117D01*
X35820Y39180D01*
X35883Y39262D01*
X35923Y39357D01*
X35936Y39460D01*
Y39740D01*
X35923Y39843D01*
X35883Y39938D01*
X35820Y40020D01*
X35738Y40083D01*
X35643Y40123D01*
X35540Y40136D01*
D02*
G37*
G36*
X34540D02*
X34437Y40123D01*
X34342Y40083D01*
X34260Y40020D01*
X34197Y39938D01*
X34157Y39843D01*
X34144Y39740D01*
Y39460D01*
X34157Y39357D01*
X34197Y39262D01*
X34260Y39180D01*
X34342Y39117D01*
X34437Y39077D01*
X34540Y39064D01*
X34643Y39077D01*
X34738Y39117D01*
X34820Y39180D01*
X34883Y39262D01*
X34923Y39357D01*
X34936Y39460D01*
Y39740D01*
X34923Y39843D01*
X34883Y39938D01*
X34820Y40020D01*
X34738Y40083D01*
X34643Y40123D01*
X34540Y40136D01*
D02*
G37*
G36*
X33540D02*
X33437Y40123D01*
X33342Y40083D01*
X33260Y40020D01*
X33197Y39938D01*
X33157Y39843D01*
X33144Y39740D01*
Y39460D01*
X33157Y39357D01*
X33197Y39262D01*
X33260Y39180D01*
X33342Y39117D01*
X33437Y39077D01*
X33540Y39064D01*
X33643Y39077D01*
X33738Y39117D01*
X33820Y39180D01*
X33883Y39262D01*
X33923Y39357D01*
X33936Y39460D01*
Y39740D01*
X33923Y39843D01*
X33883Y39938D01*
X33820Y40020D01*
X33738Y40083D01*
X33643Y40123D01*
X33540Y40136D01*
D02*
G37*
G36*
X32540D02*
X32437Y40123D01*
X32342Y40083D01*
X32260Y40020D01*
X32197Y39938D01*
X32157Y39843D01*
X32144Y39740D01*
Y39460D01*
X32157Y39357D01*
X32197Y39262D01*
X32260Y39180D01*
X32342Y39117D01*
X32437Y39077D01*
X32540Y39064D01*
X32643Y39077D01*
X32738Y39117D01*
X32820Y39180D01*
X32883Y39262D01*
X32923Y39357D01*
X32936Y39460D01*
Y39740D01*
X32923Y39843D01*
X32883Y39938D01*
X32820Y40020D01*
X32738Y40083D01*
X32643Y40123D01*
X32540Y40136D01*
D02*
G37*
G36*
X31540D02*
X31437Y40123D01*
X31342Y40083D01*
X31260Y40020D01*
X31197Y39938D01*
X31157Y39843D01*
X31144Y39740D01*
Y39460D01*
X31157Y39357D01*
X31197Y39262D01*
X31260Y39180D01*
X31342Y39117D01*
X31437Y39077D01*
X31540Y39064D01*
X31643Y39077D01*
X31738Y39117D01*
X31820Y39180D01*
X31883Y39262D01*
X31923Y39357D01*
X31936Y39460D01*
Y39740D01*
X31923Y39843D01*
X31883Y39938D01*
X31820Y40020D01*
X31738Y40083D01*
X31643Y40123D01*
X31540Y40136D01*
D02*
G37*
G36*
X26540D02*
X26437Y40123D01*
X26342Y40083D01*
X26260Y40020D01*
X26197Y39938D01*
X26157Y39843D01*
X26144Y39740D01*
Y39460D01*
X26157Y39357D01*
X26197Y39262D01*
X26260Y39180D01*
X26342Y39117D01*
X26437Y39077D01*
X26540Y39064D01*
X26643Y39077D01*
X26738Y39117D01*
X26820Y39180D01*
X26883Y39262D01*
X26923Y39357D01*
X26936Y39460D01*
Y39740D01*
X26923Y39843D01*
X26883Y39938D01*
X26820Y40020D01*
X26738Y40083D01*
X26643Y40123D01*
X26540Y40136D01*
D02*
G37*
G36*
X25540D02*
X25437Y40123D01*
X25342Y40083D01*
X25260Y40020D01*
X25197Y39938D01*
X25157Y39843D01*
X25144Y39740D01*
Y39460D01*
X25157Y39357D01*
X25197Y39262D01*
X25260Y39180D01*
X25342Y39117D01*
X25437Y39077D01*
X25540Y39064D01*
X25643Y39077D01*
X25738Y39117D01*
X25820Y39180D01*
X25883Y39262D01*
X25923Y39357D01*
X25936Y39460D01*
Y39740D01*
X25923Y39843D01*
X25883Y39938D01*
X25820Y40020D01*
X25738Y40083D01*
X25643Y40123D01*
X25540Y40136D01*
D02*
G37*
G36*
X24540D02*
X24437Y40123D01*
X24342Y40083D01*
X24260Y40020D01*
X24197Y39938D01*
X24157Y39843D01*
X24144Y39740D01*
Y39460D01*
X24157Y39357D01*
X24197Y39262D01*
X24260Y39180D01*
X24342Y39117D01*
X24437Y39077D01*
X24540Y39064D01*
X24643Y39077D01*
X24738Y39117D01*
X24820Y39180D01*
X24883Y39262D01*
X24923Y39357D01*
X24936Y39460D01*
Y39740D01*
X24923Y39843D01*
X24883Y39938D01*
X24820Y40020D01*
X24738Y40083D01*
X24643Y40123D01*
X24540Y40136D01*
D02*
G37*
G36*
X23540D02*
X23437Y40123D01*
X23342Y40083D01*
X23260Y40020D01*
X23197Y39938D01*
X23157Y39843D01*
X23144Y39740D01*
Y39460D01*
X23157Y39357D01*
X23197Y39262D01*
X23260Y39180D01*
X23342Y39117D01*
X23437Y39077D01*
X23540Y39064D01*
X23643Y39077D01*
X23738Y39117D01*
X23820Y39180D01*
X23883Y39262D01*
X23923Y39357D01*
X23936Y39460D01*
Y39740D01*
X23923Y39843D01*
X23883Y39938D01*
X23820Y40020D01*
X23738Y40083D01*
X23643Y40123D01*
X23540Y40136D01*
D02*
G37*
G36*
X22540D02*
X22437Y40123D01*
X22342Y40083D01*
X22260Y40020D01*
X22197Y39938D01*
X22157Y39843D01*
X22144Y39740D01*
Y39460D01*
X22157Y39357D01*
X22197Y39262D01*
X22260Y39180D01*
X22342Y39117D01*
X22437Y39077D01*
X22540Y39064D01*
X22643Y39077D01*
X22738Y39117D01*
X22820Y39180D01*
X22883Y39262D01*
X22923Y39357D01*
X22936Y39460D01*
Y39740D01*
X22923Y39843D01*
X22883Y39938D01*
X22820Y40020D01*
X22738Y40083D01*
X22643Y40123D01*
X22540Y40136D01*
D02*
G37*
G36*
X54876Y39370D02*
X54704D01*
X54536Y39337D01*
X54378Y39271D01*
X54235Y39176D01*
X54114Y39055D01*
X54019Y38912D01*
X53953Y38754D01*
X53920Y38586D01*
Y38414D01*
X53953Y38246D01*
X54019Y38088D01*
X54114Y37945D01*
X54235Y37824D01*
X54378Y37729D01*
X54536Y37663D01*
X54704Y37630D01*
X54876D01*
X55044Y37663D01*
X55202Y37729D01*
X55345Y37824D01*
X55466Y37945D01*
X55561Y38088D01*
X55627Y38246D01*
X55660Y38414D01*
Y38586D01*
X55627Y38754D01*
X55561Y38912D01*
X55466Y39055D01*
X55345Y39176D01*
X55202Y39271D01*
X55044Y39337D01*
X54876Y39370D01*
D02*
G37*
G36*
X19426D02*
X19254D01*
X19086Y39337D01*
X18928Y39271D01*
X18785Y39176D01*
X18664Y39055D01*
X18569Y38912D01*
X18503Y38754D01*
X18470Y38586D01*
Y38414D01*
X18503Y38246D01*
X18569Y38088D01*
X18664Y37945D01*
X18785Y37824D01*
X18928Y37729D01*
X19086Y37663D01*
X19254Y37630D01*
X19426D01*
X19594Y37663D01*
X19752Y37729D01*
X19895Y37824D01*
X20016Y37945D01*
X20111Y38088D01*
X20177Y38246D01*
X20210Y38414D01*
Y38586D01*
X20177Y38754D01*
X20111Y38912D01*
X20016Y39055D01*
X19895Y39176D01*
X19752Y39271D01*
X19594Y39337D01*
X19426Y39370D01*
D02*
G37*
G36*
X17150Y38388D02*
X17030D01*
X16913Y38356D01*
X16809Y38296D01*
X16724Y38211D01*
X16664Y38107D01*
X16632Y37990D01*
Y37870D01*
X16664Y37753D01*
X16724Y37649D01*
X16809Y37564D01*
X16913Y37504D01*
X17030Y37472D01*
X17150D01*
X17267Y37504D01*
X17371Y37564D01*
X17456Y37649D01*
X17516Y37753D01*
X17548Y37870D01*
Y37990D01*
X17516Y38107D01*
X17456Y38211D01*
X17371Y38296D01*
X17267Y38356D01*
X17150Y38388D01*
D02*
G37*
G36*
X28062Y33331D02*
X27998D01*
X27939Y33307D01*
X27937Y33305D01*
X25973D01*
X25971Y33307D01*
X25912Y33331D01*
X25848D01*
X25789Y33307D01*
X25743Y33261D01*
X25719Y33202D01*
Y33138D01*
X25743Y33079D01*
X25789Y33033D01*
X25848Y33009D01*
X25912D01*
X25971Y33033D01*
X25973Y33035D01*
X27937D01*
X27939Y33033D01*
X27998Y33009D01*
X28062D01*
X28121Y33033D01*
X28167Y33079D01*
X28191Y33138D01*
Y33202D01*
X28167Y33261D01*
X28121Y33307D01*
X28062Y33331D01*
D02*
G37*
G36*
X46490Y30195D02*
X46490Y30195D01*
X38313D01*
X38313Y30195D01*
X38261Y30185D01*
X38217Y30156D01*
X38217Y30156D01*
X36779Y28718D01*
X36777D01*
X36718Y28693D01*
X36672Y28648D01*
X36648Y28589D01*
Y28524D01*
X36672Y28465D01*
X36713Y28424D01*
X36722Y28408D01*
X36723Y28403D01*
X36714Y28356D01*
X36654Y28331D01*
X36609Y28286D01*
X36584Y28226D01*
Y28162D01*
X36609Y28103D01*
X36654Y28057D01*
X36714Y28033D01*
X36778D01*
X36837Y28057D01*
X36883Y28103D01*
X36901Y28147D01*
X36943Y28142D01*
X36952Y28139D01*
X36975Y28082D01*
X37021Y28036D01*
X37032Y28032D01*
X37041Y27983D01*
X37000Y27941D01*
X36998D01*
X36939Y27917D01*
X36893Y27871D01*
X36869Y27812D01*
Y27748D01*
X36893Y27689D01*
X36939Y27643D01*
X36998Y27619D01*
X37062D01*
X37121Y27643D01*
X37167Y27689D01*
X37191Y27748D01*
Y27750D01*
X37248Y27807D01*
X37300Y27788D01*
X37319Y27743D01*
X37358Y27704D01*
X37367Y27681D01*
X37374Y27649D01*
X37298Y27573D01*
X37296D01*
X37237Y27549D01*
X37191Y27503D01*
X37167Y27444D01*
Y27380D01*
X37191Y27320D01*
X37237Y27275D01*
X37296Y27250D01*
X37360D01*
X37420Y27275D01*
X37465Y27320D01*
X37490Y27380D01*
Y27382D01*
X37532Y27424D01*
X37595Y27417D01*
X37622Y27389D01*
X37682Y27365D01*
X37746D01*
X37805Y27389D01*
X37851Y27435D01*
X37875Y27494D01*
Y27496D01*
X38994Y28615D01*
X40024D01*
X40205Y28434D01*
Y19906D01*
X39744Y19445D01*
X36180D01*
X36180Y19445D01*
X36128Y19435D01*
X36084Y19406D01*
X36084Y19406D01*
X34784Y18106D01*
X34755Y18062D01*
X34745Y18010D01*
X34745Y18010D01*
Y15794D01*
X34745Y15794D01*
X34755Y15742D01*
X34784Y15698D01*
X37589Y12893D01*
Y11222D01*
X37317D01*
Y10407D01*
X38132D01*
Y11222D01*
X37860D01*
Y12950D01*
X37860Y12950D01*
X37849Y13001D01*
X37820Y13045D01*
X37820Y13045D01*
X35015Y15850D01*
Y17954D01*
X36236Y19175D01*
X36628D01*
X36647Y19129D01*
X35660Y18141D01*
X35631Y18098D01*
X35620Y18046D01*
X35620Y18046D01*
Y17410D01*
X35620Y17410D01*
X35620Y17410D01*
Y16908D01*
X35598Y16902D01*
X35506Y16849D01*
X35430Y16773D01*
X35376Y16680D01*
X35348Y16576D01*
Y16469D01*
X35376Y16365D01*
X35430Y16273D01*
X35506Y16197D01*
X35598Y16143D01*
X35702Y16115D01*
X35809D01*
X35913Y16143D01*
X36006Y16197D01*
X36082Y16273D01*
X36135Y16365D01*
X36163Y16469D01*
Y16576D01*
X36135Y16680D01*
X36082Y16773D01*
X36006Y16849D01*
X35913Y16902D01*
X35891Y16908D01*
Y17093D01*
X35937Y17102D01*
Y17102D01*
X36603D01*
Y17818D01*
X35937D01*
Y17818D01*
X35891Y17827D01*
Y17990D01*
X36856Y18955D01*
X38283D01*
X38303Y18905D01*
X37629Y18230D01*
X37599Y18186D01*
X37589Y18134D01*
X37589Y18134D01*
Y17440D01*
X37589Y17440D01*
X37589Y17440D01*
Y16908D01*
X37567Y16902D01*
X37474Y16849D01*
X37398Y16773D01*
X37345Y16680D01*
X37317Y16576D01*
Y16469D01*
X37345Y16365D01*
X37398Y16273D01*
X37474Y16197D01*
X37567Y16143D01*
X37671Y16115D01*
X37778D01*
X37882Y16143D01*
X37974Y16197D01*
X38050Y16273D01*
X38104Y16365D01*
X38132Y16469D01*
Y16576D01*
X38104Y16680D01*
X38050Y16773D01*
X37974Y16849D01*
X37882Y16902D01*
X37860Y16908D01*
Y17325D01*
X38567D01*
Y17102D01*
X39233D01*
Y17818D01*
X38567D01*
Y17595D01*
X37860D01*
Y18078D01*
X38486Y18705D01*
X40130D01*
X40130Y18705D01*
X40182Y18715D01*
X40226Y18744D01*
X40826Y19344D01*
X40826Y19344D01*
X40855Y19388D01*
X40865Y19440D01*
X40865Y19440D01*
Y28760D01*
X40855Y28812D01*
X40826Y28856D01*
X40826Y28856D01*
X40513Y29169D01*
X40532Y29215D01*
X44914D01*
X47678Y26451D01*
Y15194D01*
X47455D01*
Y14528D01*
X48171D01*
Y15194D01*
X47948D01*
Y26507D01*
X47938Y26559D01*
X47909Y26602D01*
X47909Y26602D01*
X45123Y29389D01*
X45142Y29435D01*
X45644D01*
X48686Y26392D01*
Y15194D01*
X48464D01*
Y14528D01*
X49179D01*
Y15194D01*
X48957D01*
Y26449D01*
X48957Y26449D01*
X48946Y26500D01*
X48917Y26544D01*
X48917Y26544D01*
X45837Y29625D01*
X45857Y29675D01*
X46184D01*
X49695Y26164D01*
Y15194D01*
X49472D01*
Y14528D01*
X50188D01*
Y15194D01*
X49965D01*
Y26220D01*
X49965Y26220D01*
X49955Y26272D01*
X49925Y26316D01*
X49925Y26316D01*
X46367Y29875D01*
X46387Y29925D01*
X46434D01*
X50703Y25656D01*
Y15194D01*
X50480D01*
Y14528D01*
X51196D01*
Y15194D01*
X50973D01*
Y25712D01*
X50973Y25712D01*
X50963Y25764D01*
X50934Y25808D01*
X50934Y25808D01*
X46586Y30156D01*
X46542Y30185D01*
X46490Y30195D01*
D02*
G37*
G36*
X16618Y30449D02*
X15862D01*
Y29771D01*
X16618D01*
Y30449D01*
D02*
G37*
G36*
X28930Y28502D02*
X25750D01*
X25677Y28492D01*
X25609Y28464D01*
X25551Y28419D01*
X25506Y28361D01*
X25478Y28293D01*
X25468Y28220D01*
X25478Y28147D01*
X25506Y28079D01*
X25551Y28021D01*
X25609Y27976D01*
X25677Y27948D01*
X25750Y27938D01*
X28930D01*
X29003Y27948D01*
X29071Y27976D01*
X29129Y28021D01*
X29174Y28079D01*
X29202Y28147D01*
X29212Y28220D01*
X29202Y28293D01*
X29174Y28361D01*
X29129Y28419D01*
X29071Y28464D01*
X29003Y28492D01*
X28930Y28502D01*
D02*
G37*
G36*
X39392Y24871D02*
X39328D01*
X39269Y24847D01*
X39223Y24801D01*
X39199Y24742D01*
Y24740D01*
X38680Y24222D01*
X38669Y24217D01*
X38623Y24171D01*
X38599Y24112D01*
Y24048D01*
X38623Y23989D01*
X38669Y23943D01*
X38728Y23919D01*
X38792D01*
X38851Y23943D01*
X38897Y23989D01*
X38921Y24048D01*
Y24080D01*
X39390Y24549D01*
X39392D01*
X39451Y24573D01*
X39497Y24619D01*
X39521Y24678D01*
Y24742D01*
X39497Y24801D01*
X39451Y24847D01*
X39392Y24871D01*
D02*
G37*
G36*
X33917Y27816D02*
X33852D01*
X33793Y27791D01*
X33748Y27746D01*
X33723Y27687D01*
Y27622D01*
X33748Y27563D01*
X33793Y27518D01*
X33852Y27493D01*
X33917D01*
X33969Y27515D01*
X34144D01*
X34305Y27354D01*
Y23814D01*
X34255Y23794D01*
X34231Y23817D01*
X34172Y23841D01*
X34108D01*
X34049Y23817D01*
X34047Y23815D01*
X22480D01*
X22480Y23815D01*
X22428Y23805D01*
X22384Y23776D01*
X22384Y23776D01*
X20659Y22050D01*
X20629Y22006D01*
X20619Y21954D01*
X20619Y21954D01*
Y15800D01*
X20249D01*
Y15320D01*
X20366D01*
Y14618D01*
X20201D01*
Y13902D01*
X20866D01*
Y14618D01*
X20735D01*
Y15320D01*
X20887D01*
Y15654D01*
X20889Y15667D01*
X20889Y15667D01*
Y21898D01*
X22536Y23545D01*
X34047D01*
X34049Y23543D01*
X34108Y23519D01*
X34172D01*
X34231Y23543D01*
X34255Y23566D01*
X34305Y23546D01*
Y22856D01*
X34074Y22625D01*
X33340D01*
X33340Y22625D01*
X33288Y22615D01*
X33244Y22586D01*
X33244Y22586D01*
X33028Y22369D01*
X32999Y22325D01*
X32988Y22274D01*
X32988Y22274D01*
Y15800D01*
X32805D01*
Y15320D01*
X32922D01*
Y14618D01*
X32756D01*
Y13902D01*
X33422D01*
Y14618D01*
X33291D01*
Y15320D01*
X33443D01*
Y15800D01*
X33259D01*
Y22218D01*
X33396Y22355D01*
X34130D01*
X34130Y22355D01*
X34182Y22365D01*
X34226Y22394D01*
X34536Y22704D01*
X34536Y22704D01*
X34565Y22748D01*
X34575Y22800D01*
Y27410D01*
X34565Y27462D01*
X34536Y27506D01*
X34536Y27506D01*
X34296Y27746D01*
X34252Y27775D01*
X34200Y27785D01*
X34200Y27785D01*
X33982D01*
X33976Y27791D01*
X33917Y27816D01*
D02*
G37*
G36*
X39312Y23511D02*
X39248D01*
X39189Y23487D01*
X39143Y23441D01*
X39119Y23382D01*
Y23380D01*
X39051Y23313D01*
X39001Y23333D01*
Y23372D01*
X38977Y23431D01*
X38931Y23477D01*
X38872Y23501D01*
X38808D01*
X38749Y23477D01*
X38703Y23431D01*
X38703Y23431D01*
X37907Y22635D01*
X37904D01*
X37845Y22610D01*
X37800Y22565D01*
X37775Y22506D01*
Y22441D01*
X37800Y22382D01*
X37845Y22337D01*
X37904Y22312D01*
X37969D01*
X37988Y22320D01*
X38016Y22278D01*
X37864Y22125D01*
X34123D01*
X34121Y22127D01*
X34062Y22151D01*
X33998D01*
X33939Y22127D01*
X33893Y22081D01*
X33869Y22022D01*
Y21958D01*
X33893Y21899D01*
X33939Y21853D01*
X33998Y21829D01*
X34062D01*
X34121Y21853D01*
X34123Y21855D01*
X37920D01*
X37920Y21855D01*
X37972Y21865D01*
X38016Y21894D01*
X39310Y23189D01*
X39312D01*
X39371Y23213D01*
X39417Y23259D01*
X39441Y23318D01*
Y23382D01*
X39417Y23441D01*
X39371Y23487D01*
X39312Y23511D01*
D02*
G37*
G36*
X34062Y23441D02*
X33998D01*
X33939Y23417D01*
X33937Y23415D01*
X26020D01*
X25968Y23405D01*
X25924Y23376D01*
X25924Y23376D01*
X24844Y22295D01*
X24814Y22251D01*
X24804Y22199D01*
X24804Y22199D01*
Y15800D01*
X24434D01*
Y15320D01*
X24551D01*
Y14618D01*
X24386D01*
Y13902D01*
X25051D01*
Y14618D01*
X24921D01*
Y15320D01*
X25072D01*
Y15654D01*
X25075Y15667D01*
X25075Y15667D01*
Y22143D01*
X26076Y23145D01*
X29833D01*
X29853Y23095D01*
X28843Y22084D01*
X28813Y22040D01*
X28803Y21988D01*
X28803Y21988D01*
Y15800D01*
X28620D01*
Y15320D01*
X28737D01*
Y14618D01*
X28571D01*
Y13902D01*
X29237D01*
Y14618D01*
X29106D01*
Y15320D01*
X29257D01*
Y15800D01*
X29074D01*
Y21932D01*
X30046Y22904D01*
X33144D01*
X33146Y22903D01*
X33205Y22878D01*
X33269D01*
X33328Y22903D01*
X33374Y22948D01*
X33398Y23008D01*
Y23072D01*
X33389Y23095D01*
X33422Y23145D01*
X33937D01*
X33939Y23143D01*
X33998Y23119D01*
X34062D01*
X34121Y23143D01*
X34167Y23189D01*
X34191Y23248D01*
Y23312D01*
X34167Y23371D01*
X34121Y23417D01*
X34062Y23441D01*
D02*
G37*
G36*
X19476Y19870D02*
X19304D01*
X19136Y19837D01*
X18978Y19771D01*
X18835Y19676D01*
X18714Y19555D01*
X18619Y19412D01*
X18553Y19254D01*
X18520Y19086D01*
Y18914D01*
X18553Y18746D01*
X18619Y18588D01*
X18714Y18445D01*
X18835Y18324D01*
X18978Y18229D01*
X19136Y18163D01*
X19304Y18130D01*
X19476D01*
X19644Y18163D01*
X19802Y18229D01*
X19945Y18324D01*
X20066Y18445D01*
X20161Y18588D01*
X20227Y18746D01*
X20260Y18914D01*
Y19086D01*
X20227Y19254D01*
X20161Y19412D01*
X20066Y19555D01*
X19945Y19676D01*
X19802Y19771D01*
X19644Y19837D01*
X19476Y19870D01*
D02*
G37*
G36*
X54876Y19820D02*
X54704D01*
X54536Y19787D01*
X54378Y19721D01*
X54235Y19626D01*
X54114Y19505D01*
X54019Y19362D01*
X53953Y19204D01*
X53920Y19036D01*
Y18864D01*
X53953Y18696D01*
X54019Y18538D01*
X54114Y18395D01*
X54235Y18274D01*
X54378Y18179D01*
X54536Y18113D01*
X54704Y18080D01*
X54876D01*
X55044Y18113D01*
X55202Y18179D01*
X55345Y18274D01*
X55466Y18395D01*
X55561Y18538D01*
X55627Y18696D01*
X55660Y18864D01*
Y19036D01*
X55627Y19204D01*
X55561Y19362D01*
X55466Y19505D01*
X55345Y19626D01*
X55202Y19721D01*
X55044Y19787D01*
X54876Y19820D01*
D02*
G37*
G36*
X45943Y15498D02*
X44877D01*
Y15322D01*
X42533D01*
Y15498D01*
X41467D01*
Y14582D01*
X42533D01*
Y14758D01*
X44877D01*
Y14582D01*
X45943D01*
Y15498D01*
D02*
G37*
G36*
X54736Y16240D02*
X54564D01*
X54396Y16207D01*
X54238Y16141D01*
X54095Y16046D01*
X53974Y15925D01*
X53879Y15782D01*
X53813Y15624D01*
X53780Y15456D01*
Y15284D01*
X53813Y15116D01*
X53879Y14958D01*
X53974Y14815D01*
X54095Y14694D01*
X54238Y14599D01*
X54396Y14533D01*
X54564Y14500D01*
X54736D01*
X54904Y14533D01*
X55062Y14599D01*
X55205Y14694D01*
X55326Y14815D01*
X55421Y14958D01*
X55487Y15116D01*
X55520Y15284D01*
Y15456D01*
X55487Y15624D01*
X55421Y15782D01*
X55326Y15925D01*
X55205Y16046D01*
X55062Y16141D01*
X54904Y16207D01*
X54736Y16240D01*
D02*
G37*
G36*
X45485Y14502D02*
X45335D01*
X45216Y14486D01*
X45104Y14440D01*
X45009Y14366D01*
X44935Y14271D01*
X44889Y14159D01*
X44873Y14040D01*
X44889Y13921D01*
X44935Y13809D01*
X45009Y13714D01*
X45104Y13640D01*
X45216Y13594D01*
X45335Y13578D01*
X45485D01*
X45604Y13594D01*
X45716Y13640D01*
X45811Y13714D01*
X45885Y13809D01*
X45931Y13921D01*
X45947Y14040D01*
X45931Y14159D01*
X45885Y14271D01*
X45811Y14366D01*
X45716Y14440D01*
X45604Y14486D01*
X45485Y14502D01*
D02*
G37*
G36*
X42075D02*
X41925D01*
X41806Y14486D01*
X41694Y14440D01*
X41599Y14366D01*
X41525Y14271D01*
X41479Y14159D01*
X41463Y14040D01*
X41479Y13921D01*
X41525Y13809D01*
X41599Y13714D01*
X41694Y13640D01*
X41806Y13594D01*
X41925Y13578D01*
X42075D01*
X42194Y13594D01*
X42306Y13640D01*
X42401Y13714D01*
X42475Y13809D01*
X42521Y13921D01*
X42537Y14040D01*
X42521Y14159D01*
X42475Y14271D01*
X42401Y14366D01*
X42306Y14440D01*
X42194Y14486D01*
X42075Y14502D01*
D02*
G37*
G36*
X51196Y14294D02*
X50480D01*
Y13628D01*
X50661D01*
Y13231D01*
X50495D01*
Y12672D01*
X51211D01*
Y13231D01*
X51030D01*
Y13628D01*
X51196D01*
Y14294D01*
D02*
G37*
G36*
X50188D02*
X49472D01*
Y13628D01*
X49653D01*
Y13231D01*
X49487D01*
Y12672D01*
X50202D01*
Y13231D01*
X50022D01*
Y13628D01*
X50188D01*
Y14294D01*
D02*
G37*
G36*
X49179D02*
X48464D01*
Y13628D01*
X48644D01*
Y13231D01*
X48479D01*
Y12672D01*
X49194D01*
Y13231D01*
X49014D01*
Y13628D01*
X49179D01*
Y14294D01*
D02*
G37*
G36*
X48171D02*
X47455D01*
Y13628D01*
X47636D01*
Y13231D01*
X47470D01*
Y12672D01*
X48186D01*
Y13231D01*
X48005D01*
Y13628D01*
X48171D01*
Y14294D01*
D02*
G37*
G36*
X45485Y13502D02*
X45335D01*
X45216Y13486D01*
X45104Y13440D01*
X45009Y13366D01*
X44935Y13271D01*
X44889Y13159D01*
X44873Y13040D01*
X44889Y12921D01*
X44935Y12809D01*
X45009Y12714D01*
X45104Y12640D01*
X45216Y12594D01*
X45335Y12578D01*
X45485D01*
X45604Y12594D01*
X45716Y12640D01*
X45811Y12714D01*
X45885Y12809D01*
X45931Y12921D01*
X45947Y13040D01*
X45931Y13159D01*
X45885Y13271D01*
X45811Y13366D01*
X45716Y13440D01*
X45604Y13486D01*
X45485Y13502D01*
D02*
G37*
G36*
X42075D02*
X41925D01*
X41806Y13486D01*
X41694Y13440D01*
X41599Y13366D01*
X41525Y13271D01*
X41479Y13159D01*
X41463Y13040D01*
X41479Y12921D01*
X41525Y12809D01*
X41599Y12714D01*
X41694Y12640D01*
X41806Y12594D01*
X41925Y12578D01*
X42075D01*
X42194Y12594D01*
X42306Y12640D01*
X42401Y12714D01*
X42475Y12809D01*
X42521Y12921D01*
X42537Y13040D01*
X42521Y13159D01*
X42475Y13271D01*
X42401Y13366D01*
X42306Y13440D01*
X42194Y13486D01*
X42075Y13502D01*
D02*
G37*
G36*
X40933Y11168D02*
X40267D01*
Y10452D01*
X40933D01*
Y11168D01*
D02*
G37*
G36*
X51026Y5195D02*
X50074D01*
Y4045D01*
X51026D01*
Y5195D01*
D02*
G37*
G36*
X55046Y2300D02*
X54874D01*
X54706Y2267D01*
X54548Y2201D01*
X54405Y2106D01*
X54284Y1985D01*
X54189Y1842D01*
X54123Y1684D01*
X54090Y1516D01*
Y1344D01*
X54123Y1176D01*
X54189Y1018D01*
X54284Y875D01*
X54405Y754D01*
X54548Y659D01*
X54706Y593D01*
X54874Y560D01*
X55046D01*
X55214Y593D01*
X55372Y659D01*
X55515Y754D01*
X55636Y875D01*
X55731Y1018D01*
X55797Y1176D01*
X55830Y1344D01*
Y1516D01*
X55797Y1684D01*
X55731Y1842D01*
X55636Y1985D01*
X55515Y2106D01*
X55372Y2201D01*
X55214Y2267D01*
X55046Y2300D01*
D02*
G37*
%LPD*%
D10*
X39800Y17460D02*
D03*
X38900D02*
D03*
X37170D02*
D03*
X36270D02*
D03*
X39700Y10810D02*
D03*
X40600D02*
D03*
X23819Y14260D02*
D03*
X24719D02*
D03*
X28004D02*
D03*
X28904D02*
D03*
X32189D02*
D03*
X33089D02*
D03*
X19633D02*
D03*
X20533D02*
D03*
D11*
X26323Y5700D02*
D03*
Y4700D02*
D03*
X22977D02*
D03*
Y5700D02*
D03*
D12*
X26320Y6740D02*
D03*
X25020D02*
D03*
X29500Y1330D02*
D03*
X28200D02*
D03*
X24450Y2590D02*
D03*
X25750D02*
D03*
X25750Y3420D02*
D03*
X24450D02*
D03*
D13*
X5394Y9520D02*
D03*
X7086D02*
D03*
D14*
X30368Y15560D02*
D03*
X33124D02*
D03*
X26183D02*
D03*
X28938D02*
D03*
X21997D02*
D03*
X24753D02*
D03*
X17812D02*
D03*
X20568D02*
D03*
D15*
X50853Y12051D02*
D03*
Y12951D02*
D03*
X49845Y12051D02*
D03*
Y12951D02*
D03*
X48836Y12051D02*
D03*
Y12951D02*
D03*
X47828Y12051D02*
D03*
Y12951D02*
D03*
D16*
X49830Y14861D02*
D03*
Y13961D02*
D03*
X47813Y14861D02*
D03*
Y13961D02*
D03*
X48821D02*
D03*
Y14861D02*
D03*
X50838Y13961D02*
D03*
Y14861D02*
D03*
D17*
X30510Y7199D02*
D03*
D18*
X31510Y2990D02*
D03*
X29510D02*
D03*
D19*
X26518Y2606D02*
D03*
X27502Y2980D02*
D03*
X26518Y3354D02*
D03*
D20*
X36746Y28194D02*
X36746D01*
X36809Y28556D02*
X38313Y30060D01*
X46490D01*
X36746Y28194D02*
X38362Y29810D01*
X46240D01*
X37030Y27780D02*
X38600Y29350D01*
X44970D01*
X38509Y29570D02*
X45700D01*
X37112Y28173D02*
X38509Y29570D01*
X38856Y28940D02*
X40240D01*
X38761Y29140D02*
X40350D01*
X38938Y28750D02*
X40080D01*
X35756Y17410D02*
Y18046D01*
X37714Y27526D02*
X38938Y28750D01*
X37456Y27834D02*
X38761Y29140D01*
X37328Y27412D02*
X38856Y28940D01*
X22480Y23680D02*
X34140D01*
X20754Y21954D02*
X22480Y23680D01*
X33889Y27650D02*
X34200D01*
X33884Y27654D02*
X33889Y27650D01*
X22750Y5700D02*
X22977D01*
X16590Y11860D02*
Y25620D01*
Y11860D02*
X22750Y5700D01*
X37724Y17440D02*
Y18134D01*
Y16523D02*
Y17440D01*
X37744Y17460D02*
X38900D01*
X37724Y17440D02*
X37744Y17460D01*
X35756Y16523D02*
Y17410D01*
X35806Y17460D01*
X36270D01*
X26320Y6740D02*
X26323Y6737D01*
X37724Y10814D02*
Y12950D01*
X34880Y15794D02*
X37724Y12950D01*
X40000Y19090D02*
X40540Y19630D01*
Y28640D01*
X36800Y19090D02*
X40000D01*
X39800Y19310D02*
X40340Y19850D01*
X36180Y19310D02*
X39800D01*
X40340Y19850D02*
Y28490D01*
X34880Y18010D02*
X36180Y19310D01*
X34880Y15794D02*
Y18010D01*
X35756Y18046D02*
X36800Y19090D01*
X40730Y19440D02*
Y28760D01*
X38430Y18840D02*
X40130D01*
X40730Y19440D01*
X37724Y18134D02*
X38430Y18840D01*
X40080Y28750D02*
X40340Y28490D01*
X40240Y28940D02*
X40540Y28640D01*
X40350Y29140D02*
X40730Y28760D01*
X45700Y29570D02*
X48821Y26449D01*
X44970Y29350D02*
X47813Y26507D01*
Y14861D02*
Y26507D01*
X48821Y14861D02*
Y26449D01*
X46240Y29810D02*
X49830Y26220D01*
Y14861D02*
Y26220D01*
X46490Y30060D02*
X50838Y25712D01*
Y14861D02*
Y25712D01*
X34200Y27650D02*
X34440Y27410D01*
Y22800D02*
Y27410D01*
X34130Y22490D02*
X34440Y22800D01*
X33340Y22490D02*
X34130D01*
X33124Y22274D02*
X33340Y22490D01*
X33124Y15560D02*
Y22274D01*
X34030Y21990D02*
X37920D01*
X28938Y15560D02*
Y21988D01*
X29990Y23040D02*
X33237D01*
X28938Y21988D02*
X29990Y23040D01*
X24939Y15667D02*
Y22199D01*
X26020Y23280D02*
X34030D01*
X24939Y22199D02*
X26020Y23280D01*
X24832Y15560D02*
X24939Y15667D01*
X24753Y15560D02*
X24832D01*
X20754Y15667D02*
Y21954D01*
X20647Y15560D02*
X20754Y15667D01*
X20568Y15560D02*
X20647D01*
X22860Y4700D02*
X22977D01*
X18460Y27490D02*
X29520D01*
X16590Y25620D02*
X18460Y27490D01*
X29520D02*
X30176Y28146D01*
X34476D01*
X25880Y33170D02*
X28030D01*
X38760Y24080D02*
Y24110D01*
X39360Y24710D01*
X37920Y21990D02*
X39280Y23350D01*
X37937Y22473D02*
X38800Y23337D01*
X38837D01*
X38840Y23340D01*
D21*
X26323Y5700D02*
Y6737D01*
X16060Y11500D02*
Y24144D01*
Y11500D02*
X22860Y4700D01*
D22*
X25750Y28220D02*
X28930D01*
X42000Y15040D02*
X45410D01*
D23*
X50838Y13961D02*
X50846Y13954D01*
Y12959D02*
Y13954D01*
Y12959D02*
X50853Y12951D01*
X49837Y12959D02*
Y13954D01*
Y12959D02*
X49845Y12951D01*
X49830Y13961D02*
X49837Y13954D01*
X48829Y12959D02*
X48836Y12951D01*
X48821Y13961D02*
X48829Y13954D01*
Y12959D02*
Y13954D01*
X47813Y13961D02*
X47821Y13954D01*
Y12959D02*
Y13954D01*
Y12959D02*
X47828Y12951D01*
X24760Y4700D02*
X26323D01*
X24450Y4390D02*
X24760Y4700D01*
X24450Y3420D02*
Y4390D01*
X25750Y3420D02*
X25816Y3354D01*
X25750Y3420D02*
X25750Y3420D01*
X25816Y3354D02*
X26518D01*
X25750Y2590D02*
Y3420D01*
Y2590D02*
X25750Y2590D01*
X33106Y14277D02*
Y15543D01*
X33124Y15560D01*
X33089Y14260D02*
X33106Y14277D01*
X28921D02*
Y15543D01*
X28938Y15560D01*
X28904Y14260D02*
X28921Y14277D01*
X24736Y15543D02*
X24753Y15560D01*
X24736Y14277D02*
Y15543D01*
X24719Y14260D02*
X24736Y14277D01*
X20533Y14260D02*
X20551Y14277D01*
Y15543D02*
X20568Y15560D01*
X20551Y14277D02*
Y15543D01*
D24*
X13440Y4480D02*
D03*
X11440D02*
D03*
X52550Y4620D02*
D03*
X50550D02*
D03*
X33920Y4480D02*
D03*
X35920D02*
D03*
X5150D02*
D03*
X7150D02*
D03*
D25*
X19340Y38500D02*
D03*
X19390Y19000D02*
D03*
X54790Y38500D02*
D03*
Y18950D02*
D03*
D26*
X36540Y39600D02*
D03*
X35540D02*
D03*
X34540D02*
D03*
X33540D02*
D03*
X32540D02*
D03*
X31540D02*
D03*
X30540D02*
D03*
X29540D02*
D03*
X28540D02*
D03*
X27540D02*
D03*
X26540D02*
D03*
X25540D02*
D03*
X24540D02*
D03*
X23540D02*
D03*
X22540D02*
D03*
D27*
X21540D02*
D03*
D28*
X16240Y29110D02*
D03*
X10750Y7840D02*
D03*
D29*
X16240Y30110D02*
D03*
X10750Y8840D02*
D03*
D30*
X13440Y15770D02*
D03*
Y7270D02*
D03*
Y9270D02*
D03*
Y13770D02*
D03*
D31*
X35756Y10814D02*
D03*
Y16523D02*
D03*
X36740D02*
D03*
X37724D02*
D03*
D32*
Y10814D02*
D03*
D33*
X34909Y13570D02*
D03*
X38571D02*
D03*
D34*
X42000Y15040D02*
D03*
X45410D02*
D03*
D35*
X42000Y14040D02*
D03*
Y13040D02*
D03*
Y12040D02*
D03*
X45410Y14040D02*
D03*
Y13040D02*
D03*
Y12040D02*
D03*
D36*
X8577Y20101D02*
D03*
X1490Y40180D02*
D03*
X12120D02*
D03*
D37*
X5033Y20101D02*
D03*
D38*
X17090Y37930D02*
D03*
X16090Y39930D02*
D03*
X15090Y37930D02*
D03*
D39*
X36809Y28556D02*
D03*
X37030Y27780D02*
D03*
X37112Y28173D02*
D03*
X36746Y28194D02*
D03*
X38379Y30271D02*
D03*
X37456Y27834D02*
D03*
X37714Y27526D02*
D03*
X34140Y23680D02*
D03*
X33884Y27654D02*
D03*
X56489Y41286D02*
D03*
X56096Y40499D02*
D03*
X56489Y39711D02*
D03*
X56096Y38924D02*
D03*
X56489Y38137D02*
D03*
X56096Y37349D02*
D03*
X56489Y36562D02*
D03*
X56096Y35774D02*
D03*
X56489Y34987D02*
D03*
X56096Y34200D02*
D03*
X56489Y33412D02*
D03*
X56096Y32625D02*
D03*
X56489Y31837D02*
D03*
X56096Y31050D02*
D03*
X56489Y30263D02*
D03*
X56096Y29475D02*
D03*
X56489Y28688D02*
D03*
X56096Y27900D02*
D03*
X56489Y27113D02*
D03*
X56096Y26326D02*
D03*
X56489Y25538D02*
D03*
X56096Y24751D02*
D03*
X56489Y23963D02*
D03*
X56096Y23176D02*
D03*
X56489Y22389D02*
D03*
X56096Y21601D02*
D03*
X56489Y20814D02*
D03*
X56096Y20026D02*
D03*
X56489Y19239D02*
D03*
X56096Y18452D02*
D03*
X56489Y17664D02*
D03*
X56096Y16877D02*
D03*
X56489Y16089D02*
D03*
X56096Y15302D02*
D03*
X56489Y14515D02*
D03*
X56096Y13727D02*
D03*
X56489Y12940D02*
D03*
X56096Y12152D02*
D03*
X56489Y11365D02*
D03*
X56096Y10577D02*
D03*
X56489Y9790D02*
D03*
X56096Y9003D02*
D03*
X56489Y8215D02*
D03*
X56096Y7428D02*
D03*
X56489Y6640D02*
D03*
X56096Y5853D02*
D03*
X56489Y5066D02*
D03*
X56096Y4278D02*
D03*
X56489Y3491D02*
D03*
X56096Y2703D02*
D03*
X56489Y1916D02*
D03*
X56096Y1129D02*
D03*
X56489Y341D02*
D03*
X55702Y41286D02*
D03*
X55308Y40499D02*
D03*
X55702Y39711D02*
D03*
Y38137D02*
D03*
X55308Y37349D02*
D03*
X55702Y36562D02*
D03*
X55308Y35774D02*
D03*
X55702Y34987D02*
D03*
X55308Y34200D02*
D03*
X55702Y33412D02*
D03*
X55308Y32625D02*
D03*
X55702Y31837D02*
D03*
X55308Y31050D02*
D03*
X55702Y30263D02*
D03*
X55308Y29475D02*
D03*
X55702Y28688D02*
D03*
X55308Y27900D02*
D03*
X55702Y27113D02*
D03*
X55308Y26326D02*
D03*
X55702Y25538D02*
D03*
X55308Y24751D02*
D03*
X55702Y23963D02*
D03*
X55308Y23176D02*
D03*
X55702Y22389D02*
D03*
X55308Y21601D02*
D03*
X55702Y20814D02*
D03*
X55308Y20026D02*
D03*
X55702Y19239D02*
D03*
Y17664D02*
D03*
X55308Y16877D02*
D03*
X55702Y16089D02*
D03*
Y14515D02*
D03*
X55308Y13727D02*
D03*
X55702Y12940D02*
D03*
X55308Y12152D02*
D03*
X55702Y11365D02*
D03*
X55308Y10577D02*
D03*
X55702Y9790D02*
D03*
X55308Y9003D02*
D03*
X55702Y8215D02*
D03*
X55308Y7428D02*
D03*
X55702Y6640D02*
D03*
X55308Y5853D02*
D03*
X55702Y5066D02*
D03*
X55308Y4278D02*
D03*
X55702Y3491D02*
D03*
X55308Y2703D02*
D03*
X55702Y341D02*
D03*
X54915Y41286D02*
D03*
X54521Y40499D02*
D03*
X54915Y39711D02*
D03*
X54521Y37349D02*
D03*
X54915Y36562D02*
D03*
X54521Y35774D02*
D03*
X54915Y34987D02*
D03*
X54521Y34200D02*
D03*
X54915Y33412D02*
D03*
X54521Y32625D02*
D03*
X54915Y31837D02*
D03*
X54521Y31050D02*
D03*
X54915Y30263D02*
D03*
X54521Y29475D02*
D03*
X54915Y28688D02*
D03*
X54521Y27900D02*
D03*
X54915Y27113D02*
D03*
X54521Y26326D02*
D03*
X54915Y25538D02*
D03*
X54521Y24751D02*
D03*
X54915Y23963D02*
D03*
X54521Y23176D02*
D03*
X54915Y22389D02*
D03*
X54521Y21601D02*
D03*
X54915Y20814D02*
D03*
X54521Y20026D02*
D03*
X54915Y17664D02*
D03*
X54521Y16877D02*
D03*
Y13727D02*
D03*
X54915Y12940D02*
D03*
X54521Y12152D02*
D03*
X54915Y11365D02*
D03*
X54521Y10577D02*
D03*
X54915Y9790D02*
D03*
X54521Y9003D02*
D03*
X54915Y8215D02*
D03*
X54521Y7428D02*
D03*
X54915Y6640D02*
D03*
X54521Y5853D02*
D03*
X54915Y5066D02*
D03*
X54521Y4278D02*
D03*
X54915Y3491D02*
D03*
X54521Y2703D02*
D03*
X54127Y41286D02*
D03*
X53734Y40499D02*
D03*
X54127Y39711D02*
D03*
X53734Y38924D02*
D03*
Y37349D02*
D03*
X54127Y36562D02*
D03*
X53734Y35774D02*
D03*
X54127Y34987D02*
D03*
X53734Y34200D02*
D03*
X54127Y33412D02*
D03*
X53734Y32625D02*
D03*
X54127Y31837D02*
D03*
X53734Y31050D02*
D03*
X54127Y30263D02*
D03*
X53734Y29475D02*
D03*
X54127Y28688D02*
D03*
X53734Y27900D02*
D03*
X54127Y27113D02*
D03*
X53734Y26326D02*
D03*
X54127Y25538D02*
D03*
X53734Y24751D02*
D03*
X54127Y23963D02*
D03*
X53734Y23176D02*
D03*
X54127Y22389D02*
D03*
X53734Y21601D02*
D03*
X54127Y20814D02*
D03*
X53734Y20026D02*
D03*
Y18452D02*
D03*
X54127Y17664D02*
D03*
X53734Y16877D02*
D03*
Y13727D02*
D03*
X54127Y12940D02*
D03*
X53734Y12152D02*
D03*
X54127Y11365D02*
D03*
X53734Y10577D02*
D03*
X54127Y9790D02*
D03*
X53734Y9003D02*
D03*
X54127Y8215D02*
D03*
X53734Y7428D02*
D03*
X54127Y6640D02*
D03*
X53734Y5853D02*
D03*
X54127Y5066D02*
D03*
X53734Y4278D02*
D03*
X54127Y3491D02*
D03*
X53734Y2703D02*
D03*
Y1129D02*
D03*
X54127Y341D02*
D03*
X53340Y41286D02*
D03*
X52946Y40499D02*
D03*
X53340Y39711D02*
D03*
X52946Y38924D02*
D03*
X53340Y38137D02*
D03*
X52946Y37349D02*
D03*
X53340Y36562D02*
D03*
X52946Y35774D02*
D03*
X53340Y34987D02*
D03*
X52946Y34200D02*
D03*
X53340Y33412D02*
D03*
X52946Y32625D02*
D03*
X53340Y31837D02*
D03*
X52946Y31050D02*
D03*
X53340Y30263D02*
D03*
X52946Y29475D02*
D03*
X53340Y28688D02*
D03*
X52946Y27900D02*
D03*
X53340Y27113D02*
D03*
X52946Y26326D02*
D03*
X53340Y25538D02*
D03*
X52946Y24751D02*
D03*
X53340Y23963D02*
D03*
X52946Y23176D02*
D03*
X53340Y22389D02*
D03*
X52946Y21601D02*
D03*
X53340Y20814D02*
D03*
X52946Y20026D02*
D03*
X53340Y19239D02*
D03*
X52946Y18452D02*
D03*
X53340Y17664D02*
D03*
X52946Y16877D02*
D03*
X53340Y16089D02*
D03*
X52946Y15302D02*
D03*
X53340Y14515D02*
D03*
X52946Y13727D02*
D03*
X53340Y12940D02*
D03*
X52946Y12152D02*
D03*
X53340Y11365D02*
D03*
X52946Y10577D02*
D03*
X53340Y9790D02*
D03*
X52946Y9003D02*
D03*
X53340Y8215D02*
D03*
X52946Y7428D02*
D03*
X53340Y6640D02*
D03*
X52946Y5853D02*
D03*
X53340Y5066D02*
D03*
Y3491D02*
D03*
X52946Y2703D02*
D03*
X53340Y1916D02*
D03*
X52946Y1129D02*
D03*
X53340Y341D02*
D03*
X52552Y41286D02*
D03*
X52159Y40499D02*
D03*
X52552Y39711D02*
D03*
X52159Y38924D02*
D03*
X52552Y38137D02*
D03*
X52159Y37349D02*
D03*
X52552Y36562D02*
D03*
X52159Y35774D02*
D03*
X52552Y34987D02*
D03*
X52159Y34200D02*
D03*
X52552Y33412D02*
D03*
X52159Y32625D02*
D03*
X52552Y31837D02*
D03*
X52159Y31050D02*
D03*
X52552Y30263D02*
D03*
X52159Y29475D02*
D03*
X52552Y28688D02*
D03*
X52159Y27900D02*
D03*
X52552Y27113D02*
D03*
X52159Y26326D02*
D03*
X52552Y25538D02*
D03*
X52159Y24751D02*
D03*
X52552Y23963D02*
D03*
X52159Y23176D02*
D03*
X52552Y22389D02*
D03*
X52159Y21601D02*
D03*
X52552Y20814D02*
D03*
X52159Y20026D02*
D03*
X52552Y19239D02*
D03*
X52159Y18452D02*
D03*
X52552Y17664D02*
D03*
X52159Y16877D02*
D03*
X52552Y16089D02*
D03*
X52159Y15302D02*
D03*
X52552Y14515D02*
D03*
X52159Y13727D02*
D03*
X52552Y12940D02*
D03*
X52159Y12152D02*
D03*
X52552Y11365D02*
D03*
X52159Y10577D02*
D03*
X52552Y9790D02*
D03*
X52159Y9003D02*
D03*
X52552Y8215D02*
D03*
X52159Y7428D02*
D03*
X52552Y6640D02*
D03*
X52159Y5853D02*
D03*
X52552Y3491D02*
D03*
X52159Y2703D02*
D03*
X52552Y1916D02*
D03*
X52159Y1129D02*
D03*
X52552Y341D02*
D03*
X51765Y41286D02*
D03*
X51371Y40499D02*
D03*
X51765Y39711D02*
D03*
X51371Y38924D02*
D03*
X51765Y38137D02*
D03*
X51371Y37349D02*
D03*
X51765Y36562D02*
D03*
X51371Y35774D02*
D03*
X51765Y34987D02*
D03*
X51371Y34200D02*
D03*
X51765Y33412D02*
D03*
X51371Y32625D02*
D03*
X51765Y31837D02*
D03*
X51371Y31050D02*
D03*
X51765Y30263D02*
D03*
X51371Y29475D02*
D03*
X51765Y28688D02*
D03*
X51371Y27900D02*
D03*
X51765Y27113D02*
D03*
X51371Y26326D02*
D03*
X51765Y25538D02*
D03*
X51371Y24751D02*
D03*
X51765Y23963D02*
D03*
X51371Y23176D02*
D03*
X51765Y22389D02*
D03*
X51371Y21601D02*
D03*
X51765Y20814D02*
D03*
Y19239D02*
D03*
Y17664D02*
D03*
Y16089D02*
D03*
Y14515D02*
D03*
Y12940D02*
D03*
Y11365D02*
D03*
X51371Y9003D02*
D03*
Y7428D02*
D03*
X51765Y6640D02*
D03*
X51371Y5853D02*
D03*
X51765Y5066D02*
D03*
X51371Y4278D02*
D03*
X51765Y3491D02*
D03*
X51371Y2703D02*
D03*
X51765Y1916D02*
D03*
X51371Y1129D02*
D03*
X51765Y341D02*
D03*
X50978Y41286D02*
D03*
X50584Y40499D02*
D03*
X50978Y39711D02*
D03*
X50584Y38924D02*
D03*
X50978Y38137D02*
D03*
X50584Y37349D02*
D03*
X50978Y36562D02*
D03*
X50584Y35774D02*
D03*
X50978Y34987D02*
D03*
X50584Y34200D02*
D03*
X50978Y33412D02*
D03*
X50584Y32625D02*
D03*
X50978Y31837D02*
D03*
X50584Y31050D02*
D03*
X50978Y30263D02*
D03*
X50584Y29475D02*
D03*
X50978Y28688D02*
D03*
X50584Y27900D02*
D03*
X50978Y27113D02*
D03*
X50584Y26326D02*
D03*
Y24751D02*
D03*
Y23176D02*
D03*
Y9003D02*
D03*
Y7428D02*
D03*
X50978Y3491D02*
D03*
X50584Y2703D02*
D03*
X50978Y1916D02*
D03*
X50584Y1129D02*
D03*
X50978Y341D02*
D03*
X50190Y41286D02*
D03*
X49797Y40499D02*
D03*
X50190Y39711D02*
D03*
X49797Y38924D02*
D03*
X50190Y38137D02*
D03*
X49797Y37349D02*
D03*
X50190Y36562D02*
D03*
X49797Y35774D02*
D03*
X50190Y34987D02*
D03*
X49797Y34200D02*
D03*
X50190Y33412D02*
D03*
X49797Y32625D02*
D03*
X50190Y31837D02*
D03*
X49797Y31050D02*
D03*
X50190Y30263D02*
D03*
X49797Y29475D02*
D03*
X50190Y28688D02*
D03*
X49797Y27900D02*
D03*
X50190Y27113D02*
D03*
Y25538D02*
D03*
Y23963D02*
D03*
Y22389D02*
D03*
Y19239D02*
D03*
Y17664D02*
D03*
Y16089D02*
D03*
Y11365D02*
D03*
X49797Y10577D02*
D03*
Y9003D02*
D03*
X50190Y6640D02*
D03*
X49797Y5853D02*
D03*
Y4278D02*
D03*
X50190Y3491D02*
D03*
X49797Y2703D02*
D03*
X50190Y1916D02*
D03*
X49797Y1129D02*
D03*
X50190Y341D02*
D03*
X49403Y41286D02*
D03*
X49009Y40499D02*
D03*
X49403Y39711D02*
D03*
X49009Y38924D02*
D03*
X49403Y38137D02*
D03*
X49009Y37349D02*
D03*
X49403Y36562D02*
D03*
X49009Y35774D02*
D03*
X49403Y34987D02*
D03*
X49009Y34200D02*
D03*
X49403Y33412D02*
D03*
X49009Y32625D02*
D03*
X49403Y31837D02*
D03*
X49009Y31050D02*
D03*
X49403Y30263D02*
D03*
X49009Y29475D02*
D03*
X49403Y28688D02*
D03*
X49009Y27900D02*
D03*
X49403Y25538D02*
D03*
Y23963D02*
D03*
Y19239D02*
D03*
Y17664D02*
D03*
Y16089D02*
D03*
Y14515D02*
D03*
Y12940D02*
D03*
Y11365D02*
D03*
X49009Y10577D02*
D03*
X49403Y9790D02*
D03*
X49009Y9003D02*
D03*
Y7428D02*
D03*
X49403Y6640D02*
D03*
X49009Y5853D02*
D03*
X49403Y5066D02*
D03*
Y3491D02*
D03*
Y1916D02*
D03*
Y341D02*
D03*
X48615Y41286D02*
D03*
X48222Y40499D02*
D03*
X48615Y39711D02*
D03*
X48222Y38924D02*
D03*
X48615Y38137D02*
D03*
X48222Y37349D02*
D03*
X48615Y36562D02*
D03*
X48222Y35774D02*
D03*
X48615Y34987D02*
D03*
X48222Y34200D02*
D03*
X48615Y33412D02*
D03*
X48222Y32625D02*
D03*
X48615Y31837D02*
D03*
X48222Y31050D02*
D03*
X48615Y30263D02*
D03*
X48222Y29475D02*
D03*
X48615Y28688D02*
D03*
Y27113D02*
D03*
X48222Y26326D02*
D03*
Y24751D02*
D03*
Y21601D02*
D03*
Y18452D02*
D03*
Y16877D02*
D03*
Y15302D02*
D03*
X48615Y11365D02*
D03*
X48222Y10577D02*
D03*
X48615Y9790D02*
D03*
Y8215D02*
D03*
X48222Y7428D02*
D03*
X48615Y6640D02*
D03*
X48222Y5853D02*
D03*
X47828Y41286D02*
D03*
X47434Y40499D02*
D03*
X47828Y39711D02*
D03*
X47434Y38924D02*
D03*
X47828Y38137D02*
D03*
X47434Y37349D02*
D03*
X47828Y36562D02*
D03*
X47434Y35774D02*
D03*
X47828Y34987D02*
D03*
X47434Y34200D02*
D03*
X47828Y33412D02*
D03*
X47434Y32625D02*
D03*
X47828Y31837D02*
D03*
X47434Y31050D02*
D03*
X47828Y30263D02*
D03*
X47434Y29475D02*
D03*
X47828Y27113D02*
D03*
X47434Y26326D02*
D03*
Y24751D02*
D03*
Y21601D02*
D03*
Y20026D02*
D03*
Y18452D02*
D03*
Y16877D02*
D03*
Y15302D02*
D03*
X47828Y11365D02*
D03*
X47434Y10577D02*
D03*
X47828Y9790D02*
D03*
Y8215D02*
D03*
X47434Y7428D02*
D03*
X47828Y6640D02*
D03*
X47041Y41286D02*
D03*
X46647Y40499D02*
D03*
X47041Y39711D02*
D03*
X46647Y38924D02*
D03*
X47041Y38137D02*
D03*
X46647Y37349D02*
D03*
X47041Y36562D02*
D03*
X46647Y35774D02*
D03*
X47041Y34987D02*
D03*
X46647Y34200D02*
D03*
X47041Y33412D02*
D03*
X46647Y32625D02*
D03*
X47041Y31837D02*
D03*
X46647Y31050D02*
D03*
X47041Y30263D02*
D03*
Y28688D02*
D03*
X46647Y26326D02*
D03*
X47041Y25538D02*
D03*
X46647Y24751D02*
D03*
Y23176D02*
D03*
X47041Y22389D02*
D03*
Y20814D02*
D03*
X46647Y20026D02*
D03*
X47041Y19239D02*
D03*
X46647Y18452D02*
D03*
X47041Y17664D02*
D03*
X46647Y16877D02*
D03*
X47041Y16089D02*
D03*
X46647Y15302D02*
D03*
Y13727D02*
D03*
Y12152D02*
D03*
X47041Y11365D02*
D03*
X46647Y10577D02*
D03*
X47041Y9790D02*
D03*
Y8215D02*
D03*
X46647Y7428D02*
D03*
X46253Y41286D02*
D03*
X45860Y40499D02*
D03*
X46253Y39711D02*
D03*
X45860Y38924D02*
D03*
X46253Y38137D02*
D03*
X45860Y37349D02*
D03*
X46253Y36562D02*
D03*
X45860Y35774D02*
D03*
X46253Y34987D02*
D03*
X45860Y34200D02*
D03*
X46253Y33412D02*
D03*
X45860Y32625D02*
D03*
X46253Y31837D02*
D03*
X45860Y31050D02*
D03*
X46253Y28688D02*
D03*
X45860Y27900D02*
D03*
X46253Y27113D02*
D03*
X45860Y26326D02*
D03*
X46253Y25538D02*
D03*
X45860Y24751D02*
D03*
Y23176D02*
D03*
Y21601D02*
D03*
Y20026D02*
D03*
X46253Y19239D02*
D03*
X45860Y18452D02*
D03*
X46253Y17664D02*
D03*
X45860Y16877D02*
D03*
X46253Y16089D02*
D03*
Y14515D02*
D03*
Y11365D02*
D03*
X45860Y10577D02*
D03*
X46253Y9790D02*
D03*
Y8215D02*
D03*
X45466Y41286D02*
D03*
X45072Y40499D02*
D03*
X45466Y39711D02*
D03*
X45072Y38924D02*
D03*
X45466Y38137D02*
D03*
X45072Y37349D02*
D03*
X45466Y36562D02*
D03*
X45072Y35774D02*
D03*
X45466Y34987D02*
D03*
X45072Y34200D02*
D03*
X45466Y33412D02*
D03*
X45072Y32625D02*
D03*
X45466Y31837D02*
D03*
X45072Y31050D02*
D03*
Y27900D02*
D03*
X45466Y27113D02*
D03*
X45072Y26326D02*
D03*
X45466Y25538D02*
D03*
X45072Y24751D02*
D03*
Y23176D02*
D03*
X45466Y22389D02*
D03*
X45072Y21601D02*
D03*
X45466Y20814D02*
D03*
X45072Y20026D02*
D03*
X45466Y19239D02*
D03*
X45072Y18452D02*
D03*
X45466Y17664D02*
D03*
X45072Y16877D02*
D03*
X45466Y16089D02*
D03*
Y11365D02*
D03*
X45072Y10577D02*
D03*
X45466Y9790D02*
D03*
X44678Y41286D02*
D03*
X44285Y40499D02*
D03*
X44678Y39711D02*
D03*
X44285Y38924D02*
D03*
X44678Y38137D02*
D03*
X44285Y37349D02*
D03*
X44678Y36562D02*
D03*
X44285Y35774D02*
D03*
X44678Y34987D02*
D03*
X44285Y34200D02*
D03*
X44678Y33412D02*
D03*
X44285Y32625D02*
D03*
X44678Y31837D02*
D03*
X44285Y31050D02*
D03*
X44678Y28688D02*
D03*
X44285Y27900D02*
D03*
X44678Y27113D02*
D03*
X44285Y26326D02*
D03*
X44678Y25538D02*
D03*
X44285Y24751D02*
D03*
Y23176D02*
D03*
Y21601D02*
D03*
X44678Y20814D02*
D03*
X44285Y20026D02*
D03*
X44678Y19239D02*
D03*
Y17664D02*
D03*
Y16089D02*
D03*
Y14515D02*
D03*
Y12940D02*
D03*
X44285Y12152D02*
D03*
X44678Y11365D02*
D03*
X44285Y10577D02*
D03*
X44678Y9790D02*
D03*
X43891Y41286D02*
D03*
X43497Y40499D02*
D03*
X43891Y39711D02*
D03*
X43497Y38924D02*
D03*
X43891Y38137D02*
D03*
X43497Y37349D02*
D03*
X43891Y36562D02*
D03*
X43497Y35774D02*
D03*
X43891Y34987D02*
D03*
X43497Y34200D02*
D03*
X43891Y33412D02*
D03*
X43497Y32625D02*
D03*
X43891Y31837D02*
D03*
X43497Y31050D02*
D03*
X43891Y28688D02*
D03*
X43497Y27900D02*
D03*
X43891Y27113D02*
D03*
X43497Y26326D02*
D03*
X43891Y25538D02*
D03*
X43497Y24751D02*
D03*
Y23176D02*
D03*
Y21601D02*
D03*
X43891Y20814D02*
D03*
X43497Y20026D02*
D03*
Y18452D02*
D03*
Y16877D02*
D03*
Y13727D02*
D03*
X43891Y12940D02*
D03*
X43497Y12152D02*
D03*
X43891Y11365D02*
D03*
X43497Y10577D02*
D03*
X43891Y9790D02*
D03*
X43104Y41286D02*
D03*
X42710Y40499D02*
D03*
X43104Y39711D02*
D03*
X42710Y38924D02*
D03*
X43104Y38137D02*
D03*
X42710Y37349D02*
D03*
X43104Y36562D02*
D03*
X42710Y35774D02*
D03*
X43104Y34987D02*
D03*
X42710Y34200D02*
D03*
X43104Y33412D02*
D03*
X42710Y32625D02*
D03*
X43104Y31837D02*
D03*
X42710Y31050D02*
D03*
X43104Y28688D02*
D03*
X42710Y27900D02*
D03*
X43104Y27113D02*
D03*
X42710Y26326D02*
D03*
X43104Y25538D02*
D03*
X42710Y24751D02*
D03*
Y23176D02*
D03*
Y21601D02*
D03*
X43104Y20814D02*
D03*
X42710Y18452D02*
D03*
X43104Y17664D02*
D03*
X42710Y16877D02*
D03*
X43104Y16089D02*
D03*
Y14515D02*
D03*
X42710Y13727D02*
D03*
Y12152D02*
D03*
X43104Y11365D02*
D03*
X42710Y10577D02*
D03*
X43104Y9790D02*
D03*
X42316Y41286D02*
D03*
X41923Y40499D02*
D03*
X42316Y39711D02*
D03*
X41923Y38924D02*
D03*
X42316Y38137D02*
D03*
X41923Y37349D02*
D03*
X42316Y36562D02*
D03*
X41923Y35774D02*
D03*
X42316Y34987D02*
D03*
X41923Y34200D02*
D03*
X42316Y33412D02*
D03*
X41923Y32625D02*
D03*
X42316Y31837D02*
D03*
X41923Y31050D02*
D03*
X42316Y28688D02*
D03*
X41923Y27900D02*
D03*
X42316Y27113D02*
D03*
X41923Y26326D02*
D03*
X42316Y25538D02*
D03*
X41923Y24751D02*
D03*
Y23176D02*
D03*
Y21601D02*
D03*
Y20026D02*
D03*
X42316Y19239D02*
D03*
Y11365D02*
D03*
X41923Y10577D02*
D03*
X42316Y9790D02*
D03*
X41529Y41286D02*
D03*
X41135Y40499D02*
D03*
X41529Y39711D02*
D03*
X41135Y38924D02*
D03*
X41529Y38137D02*
D03*
X41135Y37349D02*
D03*
X41529Y36562D02*
D03*
X41135Y35774D02*
D03*
X41529Y34987D02*
D03*
X41135Y34200D02*
D03*
X41529Y33412D02*
D03*
X41135Y32625D02*
D03*
X41529Y31837D02*
D03*
X41135Y31050D02*
D03*
X41529Y28688D02*
D03*
X41135Y27900D02*
D03*
X41529Y27113D02*
D03*
X41135Y26326D02*
D03*
X41529Y25538D02*
D03*
X41135Y24751D02*
D03*
Y23176D02*
D03*
Y18452D02*
D03*
X41529Y17664D02*
D03*
X41135Y16877D02*
D03*
X41529Y16089D02*
D03*
X41135Y13727D02*
D03*
Y12152D02*
D03*
X41529Y11365D02*
D03*
X41135Y10577D02*
D03*
X41529Y9790D02*
D03*
X40741Y41286D02*
D03*
X40348Y40499D02*
D03*
X40741Y39711D02*
D03*
X40348Y38924D02*
D03*
X40741Y38137D02*
D03*
X40348Y37349D02*
D03*
X40741Y36562D02*
D03*
X40348Y35774D02*
D03*
X40741Y34987D02*
D03*
X40348Y34200D02*
D03*
X40741Y33412D02*
D03*
X40348Y32625D02*
D03*
X40741Y31837D02*
D03*
X40348Y31050D02*
D03*
Y18452D02*
D03*
X40741Y17664D02*
D03*
X40348Y16877D02*
D03*
X40741Y16089D02*
D03*
X40348Y15302D02*
D03*
X40741Y14515D02*
D03*
Y12940D02*
D03*
Y11365D02*
D03*
X40348Y9003D02*
D03*
X39954Y41286D02*
D03*
X39560Y40499D02*
D03*
X39954Y39711D02*
D03*
X39560Y38924D02*
D03*
X39954Y38137D02*
D03*
X39560Y37349D02*
D03*
X39954Y36562D02*
D03*
X39560Y35774D02*
D03*
X39954Y34987D02*
D03*
X39560Y34200D02*
D03*
X39954Y33412D02*
D03*
X39560Y32625D02*
D03*
X39954Y31837D02*
D03*
X39560Y31050D02*
D03*
Y27900D02*
D03*
Y26326D02*
D03*
X39954Y25538D02*
D03*
X39560Y20026D02*
D03*
Y18452D02*
D03*
Y16877D02*
D03*
X39954Y16089D02*
D03*
X39560Y15302D02*
D03*
Y13727D02*
D03*
Y12152D02*
D03*
Y9003D02*
D03*
X39167Y41286D02*
D03*
X38773Y40499D02*
D03*
X39167Y39711D02*
D03*
X38773Y38924D02*
D03*
X39167Y38137D02*
D03*
X38773Y37349D02*
D03*
X39167Y36562D02*
D03*
X38773Y35774D02*
D03*
X39167Y34987D02*
D03*
X38773Y34200D02*
D03*
X39167Y33412D02*
D03*
X38773Y32625D02*
D03*
X39167Y31837D02*
D03*
X38773Y31050D02*
D03*
Y27900D02*
D03*
Y26326D02*
D03*
X39167Y25538D02*
D03*
Y20814D02*
D03*
X38773Y20026D02*
D03*
Y18452D02*
D03*
Y16877D02*
D03*
X39167Y16089D02*
D03*
X38773Y15302D02*
D03*
X39167Y14515D02*
D03*
X38773Y12152D02*
D03*
X39167Y11365D02*
D03*
X38773Y10577D02*
D03*
X39167Y9790D02*
D03*
X38773Y9003D02*
D03*
X38379Y41286D02*
D03*
X37986Y40499D02*
D03*
X38379Y39711D02*
D03*
X37986Y38924D02*
D03*
X38379Y38137D02*
D03*
X37986Y37349D02*
D03*
X38379Y36562D02*
D03*
X37986Y35774D02*
D03*
X38379Y34987D02*
D03*
X37986Y34200D02*
D03*
X38379Y33412D02*
D03*
X37986Y32625D02*
D03*
X38379Y31837D02*
D03*
X37986Y31050D02*
D03*
Y26326D02*
D03*
X38379Y25538D02*
D03*
Y23963D02*
D03*
Y20814D02*
D03*
X37986Y20026D02*
D03*
X38379Y16089D02*
D03*
X37986Y15302D02*
D03*
Y12152D02*
D03*
X38379Y11365D02*
D03*
Y9790D02*
D03*
X37986Y9003D02*
D03*
X37592Y41286D02*
D03*
X37198Y40499D02*
D03*
X37592Y39711D02*
D03*
X37198Y38924D02*
D03*
X37592Y38137D02*
D03*
X37198Y37349D02*
D03*
X37592Y36562D02*
D03*
Y34987D02*
D03*
X37198Y34200D02*
D03*
X37592Y33412D02*
D03*
X37198Y32625D02*
D03*
X37592Y31837D02*
D03*
X37198Y31050D02*
D03*
X37592Y30263D02*
D03*
X37198Y29475D02*
D03*
X37592Y27113D02*
D03*
Y22389D02*
D03*
Y20814D02*
D03*
X37198Y20026D02*
D03*
Y18452D02*
D03*
Y16877D02*
D03*
Y15302D02*
D03*
X37592Y14515D02*
D03*
X37198Y12152D02*
D03*
Y10577D02*
D03*
X37592Y9790D02*
D03*
X37198Y9003D02*
D03*
X36804Y41286D02*
D03*
X36411Y40499D02*
D03*
X36804Y36562D02*
D03*
Y34987D02*
D03*
Y33412D02*
D03*
X36411Y32625D02*
D03*
X36804Y31837D02*
D03*
X36411Y31050D02*
D03*
X36804Y30263D02*
D03*
Y23963D02*
D03*
Y22389D02*
D03*
X36411Y20026D02*
D03*
Y16877D02*
D03*
Y15302D02*
D03*
X36804Y14515D02*
D03*
X36411Y13727D02*
D03*
X36804Y12940D02*
D03*
X36411Y12152D02*
D03*
X36804Y11365D02*
D03*
X36411Y10577D02*
D03*
X36804Y9790D02*
D03*
X36017Y41286D02*
D03*
X35623Y40499D02*
D03*
X36017Y39711D02*
D03*
Y38137D02*
D03*
Y36562D02*
D03*
X35623Y35774D02*
D03*
X36017Y34987D02*
D03*
Y33412D02*
D03*
X35623Y32625D02*
D03*
X36017Y31837D02*
D03*
X35623Y29475D02*
D03*
Y27900D02*
D03*
Y23176D02*
D03*
X36017Y22389D02*
D03*
Y20814D02*
D03*
X35623Y20026D02*
D03*
Y18452D02*
D03*
X36017Y16089D02*
D03*
X35623Y13727D02*
D03*
X36017Y12940D02*
D03*
X35623Y12152D02*
D03*
X36017Y11365D02*
D03*
X35230Y41286D02*
D03*
X34836Y40499D02*
D03*
Y38924D02*
D03*
X35230Y38137D02*
D03*
X34836Y37349D02*
D03*
X35230Y36562D02*
D03*
Y34987D02*
D03*
X34836Y34200D02*
D03*
X35230Y33412D02*
D03*
X34836Y32625D02*
D03*
X35230Y31837D02*
D03*
X34836Y29475D02*
D03*
Y23176D02*
D03*
X35230Y22389D02*
D03*
Y20814D02*
D03*
X34836Y20026D02*
D03*
X35230Y19239D02*
D03*
X34836Y18452D02*
D03*
X35230Y17664D02*
D03*
Y16089D02*
D03*
X34836Y15302D02*
D03*
Y12152D02*
D03*
X35230Y11365D02*
D03*
X34442Y41286D02*
D03*
X34049Y40499D02*
D03*
Y38924D02*
D03*
Y37349D02*
D03*
X34442Y36562D02*
D03*
X34049Y35774D02*
D03*
Y34200D02*
D03*
X34442Y33412D02*
D03*
Y31837D02*
D03*
X34049Y29475D02*
D03*
X34442Y22389D02*
D03*
Y20814D02*
D03*
X34049Y20026D02*
D03*
X34442Y19239D02*
D03*
X34049Y18452D02*
D03*
X34442Y17664D02*
D03*
X34049Y16877D02*
D03*
X34442Y16089D02*
D03*
X34049Y15302D02*
D03*
Y13727D02*
D03*
Y12152D02*
D03*
X33655Y41286D02*
D03*
X33261Y40499D02*
D03*
Y38924D02*
D03*
Y35774D02*
D03*
Y34200D02*
D03*
X33655Y33412D02*
D03*
Y31837D02*
D03*
X33261Y24751D02*
D03*
X33655Y20814D02*
D03*
Y19239D02*
D03*
Y17664D02*
D03*
Y16089D02*
D03*
Y14515D02*
D03*
X33261Y13727D02*
D03*
X33655Y12940D02*
D03*
X32867Y41286D02*
D03*
X32474Y40499D02*
D03*
X32867Y38137D02*
D03*
Y36562D02*
D03*
X32474Y35774D02*
D03*
Y34200D02*
D03*
X32867Y33412D02*
D03*
Y31837D02*
D03*
Y27113D02*
D03*
Y22389D02*
D03*
Y20814D02*
D03*
X32474Y20026D02*
D03*
X32867Y19239D02*
D03*
X32474Y18452D02*
D03*
X32867Y17664D02*
D03*
X32474Y16877D02*
D03*
X32867Y16089D02*
D03*
X32474Y15302D02*
D03*
Y13727D02*
D03*
X32080Y41286D02*
D03*
X31686Y40499D02*
D03*
X32080Y38137D02*
D03*
X31686Y37349D02*
D03*
Y35774D02*
D03*
Y29475D02*
D03*
X32080Y28688D02*
D03*
X31686Y27900D02*
D03*
X32080Y27113D02*
D03*
Y23963D02*
D03*
Y20814D02*
D03*
X31686Y20026D02*
D03*
X32080Y19239D02*
D03*
X31686Y18452D02*
D03*
X32080Y17664D02*
D03*
X31686Y16877D02*
D03*
X32080Y16089D02*
D03*
X31686Y15302D02*
D03*
Y13727D02*
D03*
X31293Y41286D02*
D03*
X30899Y40499D02*
D03*
Y38924D02*
D03*
Y35774D02*
D03*
Y31050D02*
D03*
Y29475D02*
D03*
X31293Y28688D02*
D03*
X30899Y27900D02*
D03*
X31293Y27113D02*
D03*
Y23963D02*
D03*
Y20814D02*
D03*
X30899Y20026D02*
D03*
X31293Y19239D02*
D03*
X30899Y18452D02*
D03*
X31293Y17664D02*
D03*
X30899Y16877D02*
D03*
X31293Y16089D02*
D03*
X30899Y15302D02*
D03*
X31293Y14515D02*
D03*
X30505Y41286D02*
D03*
X30112Y40499D02*
D03*
Y38924D02*
D03*
X30505Y38137D02*
D03*
Y31837D02*
D03*
X30112Y31050D02*
D03*
X30505Y30263D02*
D03*
X30112Y29475D02*
D03*
X30505Y28688D02*
D03*
Y23963D02*
D03*
Y20814D02*
D03*
X30112Y20026D02*
D03*
X30505Y19239D02*
D03*
X30112Y18452D02*
D03*
X30505Y17664D02*
D03*
X30112Y16877D02*
D03*
X30505Y16089D02*
D03*
X29718Y41286D02*
D03*
X29324Y40499D02*
D03*
Y38924D02*
D03*
X29718Y38137D02*
D03*
X29324Y37349D02*
D03*
Y35774D02*
D03*
X29718Y31837D02*
D03*
X29324Y31050D02*
D03*
X29718Y30263D02*
D03*
X29324Y29475D02*
D03*
X29718Y28688D02*
D03*
X29324Y27900D02*
D03*
X29718Y27113D02*
D03*
X29324Y26326D02*
D03*
X29718Y25538D02*
D03*
X29324Y24751D02*
D03*
X29718Y23963D02*
D03*
Y20814D02*
D03*
X29324Y20026D02*
D03*
X29718Y19239D02*
D03*
X29324Y18452D02*
D03*
X29718Y17664D02*
D03*
X29324Y16877D02*
D03*
X29718Y16089D02*
D03*
X28930Y41286D02*
D03*
X28537Y40499D02*
D03*
Y38924D02*
D03*
X28930Y38137D02*
D03*
X28537Y37349D02*
D03*
X28930Y36562D02*
D03*
X28537Y35774D02*
D03*
Y32625D02*
D03*
X28930Y31837D02*
D03*
X28537Y31050D02*
D03*
X28930Y30263D02*
D03*
X28537Y29475D02*
D03*
X28930Y28688D02*
D03*
Y27113D02*
D03*
X28537Y26326D02*
D03*
X28930Y25538D02*
D03*
Y23963D02*
D03*
Y22389D02*
D03*
X28537Y20026D02*
D03*
Y18452D02*
D03*
Y16877D02*
D03*
X28143Y41286D02*
D03*
X27749Y40499D02*
D03*
Y38924D02*
D03*
X28143Y38137D02*
D03*
X27749Y37349D02*
D03*
X28143Y36562D02*
D03*
X27749Y35774D02*
D03*
Y32625D02*
D03*
Y31050D02*
D03*
Y29475D02*
D03*
Y26326D02*
D03*
X28143Y22389D02*
D03*
Y20814D02*
D03*
X27749Y20026D02*
D03*
X28143Y19239D02*
D03*
X27749Y18452D02*
D03*
X28143Y17664D02*
D03*
X27356Y41286D02*
D03*
X26962Y40499D02*
D03*
Y38924D02*
D03*
X27356Y38137D02*
D03*
X26962Y37349D02*
D03*
X27356Y36562D02*
D03*
X26962Y35774D02*
D03*
X27356Y34987D02*
D03*
X26962Y34200D02*
D03*
X27356Y23963D02*
D03*
Y22389D02*
D03*
Y20814D02*
D03*
X26962Y20026D02*
D03*
X27356Y19239D02*
D03*
X26962Y18452D02*
D03*
X26568Y41286D02*
D03*
X26175Y40499D02*
D03*
X26568Y38137D02*
D03*
Y33412D02*
D03*
X26175Y32625D02*
D03*
X26568Y31837D02*
D03*
X26175Y31050D02*
D03*
X26568Y30263D02*
D03*
X26175Y29475D02*
D03*
X26568Y28688D02*
D03*
Y27113D02*
D03*
X26175Y26326D02*
D03*
X26568Y25538D02*
D03*
X26175Y24751D02*
D03*
X26568Y23963D02*
D03*
X26175Y21601D02*
D03*
X26568Y20814D02*
D03*
X26175Y20026D02*
D03*
X26568Y19239D02*
D03*
X25781Y41286D02*
D03*
X25387Y40499D02*
D03*
Y38924D02*
D03*
X25781Y38137D02*
D03*
Y31837D02*
D03*
Y28688D02*
D03*
X25387Y27900D02*
D03*
Y23176D02*
D03*
X25781Y22389D02*
D03*
X25387Y21601D02*
D03*
X25781Y20814D02*
D03*
X25387Y20026D02*
D03*
X24993Y41286D02*
D03*
X24600Y40499D02*
D03*
Y35774D02*
D03*
Y34200D02*
D03*
X24993Y33412D02*
D03*
Y31837D02*
D03*
Y28688D02*
D03*
X24600Y27900D02*
D03*
X24993Y23963D02*
D03*
X24600Y23176D02*
D03*
Y21601D02*
D03*
X24206Y41286D02*
D03*
X23812Y40499D02*
D03*
Y38924D02*
D03*
X24206Y38137D02*
D03*
X23812Y37349D02*
D03*
X24206Y36562D02*
D03*
X23812Y35774D02*
D03*
Y34200D02*
D03*
X24206Y31837D02*
D03*
X23812Y27900D02*
D03*
X24206Y23963D02*
D03*
X23812Y23176D02*
D03*
X24206Y22389D02*
D03*
X23812Y21601D02*
D03*
X24206Y20814D02*
D03*
X23419Y41286D02*
D03*
X23025Y38924D02*
D03*
X23419Y38137D02*
D03*
Y31837D02*
D03*
Y28688D02*
D03*
Y23963D02*
D03*
X23025Y23176D02*
D03*
X23419Y22389D02*
D03*
X22631Y41286D02*
D03*
X22238Y40499D02*
D03*
X22631Y36562D02*
D03*
X22238Y35774D02*
D03*
X22631Y34987D02*
D03*
X22238Y34200D02*
D03*
X22631Y33412D02*
D03*
Y31837D02*
D03*
Y28688D02*
D03*
Y23963D02*
D03*
Y22389D02*
D03*
X21844Y41286D02*
D03*
X21450Y40499D02*
D03*
Y38924D02*
D03*
X21844Y38137D02*
D03*
Y36562D02*
D03*
X21450Y35774D02*
D03*
X21844Y34987D02*
D03*
Y33412D02*
D03*
Y31837D02*
D03*
X21450Y31050D02*
D03*
X21844Y28688D02*
D03*
X21450Y26326D02*
D03*
Y24751D02*
D03*
X21844Y23963D02*
D03*
X21056Y41286D02*
D03*
X20663Y40499D02*
D03*
X21056Y39711D02*
D03*
X20663Y37349D02*
D03*
X21056Y36562D02*
D03*
X20663Y35774D02*
D03*
X21056Y31837D02*
D03*
Y30263D02*
D03*
X20663Y29475D02*
D03*
X21056Y28688D02*
D03*
X20663Y26326D02*
D03*
X21056Y25538D02*
D03*
X20663Y24751D02*
D03*
X21056Y23963D02*
D03*
X20269Y41286D02*
D03*
X19875Y40499D02*
D03*
X20269Y38137D02*
D03*
Y36562D02*
D03*
X19875Y35774D02*
D03*
X20269Y30263D02*
D03*
X19875Y29475D02*
D03*
Y26326D02*
D03*
X20269Y25538D02*
D03*
X19482Y41286D02*
D03*
X19088Y40499D02*
D03*
Y34200D02*
D03*
Y31050D02*
D03*
X19482Y30263D02*
D03*
X19088Y26326D02*
D03*
X19482Y25538D02*
D03*
X18694Y41286D02*
D03*
X18300Y40499D02*
D03*
Y38924D02*
D03*
X18694Y34987D02*
D03*
X18300Y34200D02*
D03*
X18694Y33412D02*
D03*
X18300Y32625D02*
D03*
X18694Y28688D02*
D03*
X17907Y41286D02*
D03*
X17513Y40499D02*
D03*
X17907Y38137D02*
D03*
X17513Y37349D02*
D03*
Y34200D02*
D03*
X17907Y33412D02*
D03*
X17513Y32625D02*
D03*
X17907Y31837D02*
D03*
X17513Y31050D02*
D03*
X17907Y30263D02*
D03*
X17513Y29475D02*
D03*
X17907Y28688D02*
D03*
X17513Y27900D02*
D03*
X17119Y41286D02*
D03*
X16726Y40499D02*
D03*
X17119Y39711D02*
D03*
X16726Y38924D02*
D03*
Y37349D02*
D03*
X17119Y36562D02*
D03*
X16726Y29475D02*
D03*
X17119Y28688D02*
D03*
X16726Y27900D02*
D03*
X16332Y41286D02*
D03*
X15938Y38924D02*
D03*
X16332Y38137D02*
D03*
X15938Y37349D02*
D03*
X16332Y36562D02*
D03*
X15938Y35774D02*
D03*
Y29475D02*
D03*
X16332Y28688D02*
D03*
X15545Y41286D02*
D03*
X15151Y40499D02*
D03*
X15545Y39711D02*
D03*
X15151Y38924D02*
D03*
Y37349D02*
D03*
X15545Y36562D02*
D03*
X15151Y35774D02*
D03*
X15545Y34987D02*
D03*
X14757Y41286D02*
D03*
X14363Y40499D02*
D03*
X14757Y39711D02*
D03*
X14363Y38924D02*
D03*
Y37349D02*
D03*
X14757Y36562D02*
D03*
X14363Y35774D02*
D03*
Y31050D02*
D03*
X13970Y41286D02*
D03*
Y39711D02*
D03*
Y38137D02*
D03*
Y36562D02*
D03*
Y31837D02*
D03*
X13182Y41286D02*
D03*
X12789Y32625D02*
D03*
X12395Y41286D02*
D03*
Y33412D02*
D03*
X11608Y41286D02*
D03*
X11214Y40499D02*
D03*
Y35774D02*
D03*
Y34200D02*
D03*
X10820Y41286D02*
D03*
X10426Y40499D02*
D03*
Y38924D02*
D03*
Y37349D02*
D03*
X10820Y36562D02*
D03*
X10426Y35774D02*
D03*
X10820Y34987D02*
D03*
X10033Y41286D02*
D03*
X9639Y40499D02*
D03*
X10033Y39711D02*
D03*
X9639Y38924D02*
D03*
X10033Y38137D02*
D03*
X9639Y37349D02*
D03*
X10033Y36562D02*
D03*
X9639Y35774D02*
D03*
X9245Y41286D02*
D03*
X8852Y40499D02*
D03*
X9245Y39711D02*
D03*
X8852Y38924D02*
D03*
X9245Y38137D02*
D03*
X8852Y37349D02*
D03*
X9245Y36562D02*
D03*
X8458Y41286D02*
D03*
X8064Y40499D02*
D03*
X8458Y39711D02*
D03*
X8064Y38924D02*
D03*
X8458Y38137D02*
D03*
X8064Y37349D02*
D03*
X8458Y36562D02*
D03*
X7671Y41286D02*
D03*
X7277Y40499D02*
D03*
X7671Y39711D02*
D03*
X7277Y38924D02*
D03*
X7671Y38137D02*
D03*
X7277Y37349D02*
D03*
X7671Y36562D02*
D03*
X6883Y41286D02*
D03*
X6489Y40499D02*
D03*
X6883Y39711D02*
D03*
X6489Y38924D02*
D03*
X6883Y38137D02*
D03*
X6489Y37349D02*
D03*
X6883Y36562D02*
D03*
X6096Y41286D02*
D03*
X5702Y40499D02*
D03*
X6096Y39711D02*
D03*
X5702Y38924D02*
D03*
X6096Y38137D02*
D03*
X5702Y37349D02*
D03*
X6096Y36562D02*
D03*
X5308Y41286D02*
D03*
X4915Y40499D02*
D03*
X5308Y39711D02*
D03*
X4915Y38924D02*
D03*
X5308Y38137D02*
D03*
X4915Y37349D02*
D03*
X5308Y36562D02*
D03*
X4521Y41286D02*
D03*
Y39711D02*
D03*
Y38137D02*
D03*
Y36562D02*
D03*
X11804Y12940D02*
D03*
X11608Y13333D02*
D03*
X11804Y13727D02*
D03*
X11608Y14121D02*
D03*
X11804Y14515D02*
D03*
X11608Y14908D02*
D03*
X11804Y15302D02*
D03*
X11608Y15696D02*
D03*
X11804Y16089D02*
D03*
X12198Y12940D02*
D03*
X12001Y13333D02*
D03*
X12198Y13727D02*
D03*
X12001Y14121D02*
D03*
X12198Y14515D02*
D03*
X12001Y14908D02*
D03*
X12198Y15302D02*
D03*
X12001Y15696D02*
D03*
X12198Y16089D02*
D03*
X12001Y16483D02*
D03*
X12198Y16877D02*
D03*
X12395Y12546D02*
D03*
X12592Y12940D02*
D03*
X12395Y13333D02*
D03*
X12592Y13727D02*
D03*
X12395Y14121D02*
D03*
X12592Y14515D02*
D03*
X12395Y14908D02*
D03*
X12592Y15302D02*
D03*
X12395Y15696D02*
D03*
X12592Y16089D02*
D03*
X12395Y16483D02*
D03*
X12592Y16877D02*
D03*
X12789Y12546D02*
D03*
X12986Y12940D02*
D03*
X12789Y13333D02*
D03*
Y14121D02*
D03*
X12986Y14515D02*
D03*
X12789Y14908D02*
D03*
Y16483D02*
D03*
X12986Y16877D02*
D03*
X13182Y12546D02*
D03*
X13379Y12940D02*
D03*
Y14515D02*
D03*
X13182Y14908D02*
D03*
Y16483D02*
D03*
X13379Y16877D02*
D03*
X13576Y12546D02*
D03*
X44875Y5853D02*
D03*
X44678Y6247D02*
D03*
X45072Y1522D02*
D03*
Y2310D02*
D03*
Y3097D02*
D03*
Y3885D02*
D03*
Y4672D02*
D03*
Y5459D02*
D03*
X43301Y5853D02*
D03*
X43104Y6247D02*
D03*
X43497Y735D02*
D03*
X43694Y1129D02*
D03*
X43497Y1522D02*
D03*
X43694Y1916D02*
D03*
X43497Y2310D02*
D03*
X43694Y2703D02*
D03*
X43497Y3097D02*
D03*
X43694Y3491D02*
D03*
X43497Y3885D02*
D03*
X43694Y4278D02*
D03*
X43497Y4672D02*
D03*
X43694Y5066D02*
D03*
X43497Y5459D02*
D03*
X43694Y5853D02*
D03*
X43497Y6247D02*
D03*
X43891Y735D02*
D03*
X44088Y1129D02*
D03*
X43891Y1522D02*
D03*
X44088Y1916D02*
D03*
X43891Y2310D02*
D03*
X44088Y2703D02*
D03*
X43891Y3097D02*
D03*
X44088Y3491D02*
D03*
X43891Y3885D02*
D03*
X44088Y4278D02*
D03*
X43891Y4672D02*
D03*
X44088Y5066D02*
D03*
X43891Y5459D02*
D03*
X44088Y5853D02*
D03*
X43891Y6247D02*
D03*
X44285Y735D02*
D03*
X44482Y1129D02*
D03*
X44285Y1522D02*
D03*
X44482Y1916D02*
D03*
X44285Y2310D02*
D03*
X44482Y2703D02*
D03*
X44285Y3097D02*
D03*
X44482Y3491D02*
D03*
X44285Y3885D02*
D03*
X44482Y4278D02*
D03*
X44285Y4672D02*
D03*
X44482Y5066D02*
D03*
X44285Y5459D02*
D03*
X44482Y5853D02*
D03*
X44285Y6247D02*
D03*
X44875Y1129D02*
D03*
X44678Y1522D02*
D03*
X44875Y1916D02*
D03*
X44678Y2310D02*
D03*
X44875Y2703D02*
D03*
X44678Y3097D02*
D03*
X44875Y3491D02*
D03*
X44678Y3885D02*
D03*
X44875Y4278D02*
D03*
X44678Y4672D02*
D03*
X44875Y5066D02*
D03*
X44678Y5459D02*
D03*
X41726Y2703D02*
D03*
X41529Y3097D02*
D03*
X41726Y3491D02*
D03*
Y4278D02*
D03*
Y5066D02*
D03*
Y5853D02*
D03*
X41923Y735D02*
D03*
X42119Y1129D02*
D03*
X41923Y1522D02*
D03*
X42119Y1916D02*
D03*
X41923Y2310D02*
D03*
X42119Y2703D02*
D03*
X41923Y3097D02*
D03*
X42119Y3491D02*
D03*
X41923Y3885D02*
D03*
X42119Y4278D02*
D03*
X41923Y4672D02*
D03*
X42119Y5066D02*
D03*
X41923Y5459D02*
D03*
X42119Y5853D02*
D03*
X41923Y6247D02*
D03*
X42316Y735D02*
D03*
X42513Y1129D02*
D03*
X42316Y1522D02*
D03*
X42513Y1916D02*
D03*
X42316Y2310D02*
D03*
X42513Y2703D02*
D03*
X42316Y3097D02*
D03*
X42513Y3491D02*
D03*
X42316Y3885D02*
D03*
X42513Y4278D02*
D03*
X42316Y4672D02*
D03*
X42513Y5066D02*
D03*
X42316Y5459D02*
D03*
X42513Y5853D02*
D03*
X42316Y6247D02*
D03*
X42710Y735D02*
D03*
X42907Y1129D02*
D03*
X42710Y1522D02*
D03*
X42907Y1916D02*
D03*
X42710Y2310D02*
D03*
X42907Y2703D02*
D03*
X42710Y3097D02*
D03*
X42907Y3491D02*
D03*
X42710Y3885D02*
D03*
X42907Y4278D02*
D03*
X42710Y4672D02*
D03*
X42907Y5066D02*
D03*
X42710Y5459D02*
D03*
X42907Y5853D02*
D03*
X42710Y6247D02*
D03*
X43104Y735D02*
D03*
X43301Y1129D02*
D03*
X43104Y1522D02*
D03*
X43301Y1916D02*
D03*
X43104Y2310D02*
D03*
X43301Y2703D02*
D03*
X43104Y3097D02*
D03*
X43301Y3491D02*
D03*
X43104Y3885D02*
D03*
X43301Y4278D02*
D03*
X43104Y4672D02*
D03*
X43301Y5066D02*
D03*
X43104Y5459D02*
D03*
X24993Y7822D02*
D03*
X25190Y8215D02*
D03*
X24993Y8609D02*
D03*
X25190Y9003D02*
D03*
X25387Y735D02*
D03*
X25584Y1129D02*
D03*
X25387Y7822D02*
D03*
Y8609D02*
D03*
X25781Y735D02*
D03*
X25978Y1129D02*
D03*
X26175Y735D02*
D03*
X26371Y1129D02*
D03*
X26568Y735D02*
D03*
X26765Y1129D02*
D03*
X26962Y735D02*
D03*
X27159Y1129D02*
D03*
X27356Y735D02*
D03*
X27552Y1129D02*
D03*
X27749Y735D02*
D03*
Y1522D02*
D03*
X28143Y735D02*
D03*
X28537D02*
D03*
X28930Y5459D02*
D03*
Y6247D02*
D03*
Y7034D02*
D03*
Y7822D02*
D03*
X29521Y5066D02*
D03*
X29324Y5459D02*
D03*
X29915Y5066D02*
D03*
X29718Y5459D02*
D03*
X30308Y5066D02*
D03*
X30112Y5459D02*
D03*
X30702Y5066D02*
D03*
X30505Y5459D02*
D03*
X31096Y5066D02*
D03*
X30899Y5459D02*
D03*
X31489Y5066D02*
D03*
X31293Y5459D02*
D03*
X39167Y1522D02*
D03*
X39757Y1129D02*
D03*
X39560Y1522D02*
D03*
X39954Y735D02*
D03*
X40151Y1129D02*
D03*
X39954Y1522D02*
D03*
X40348Y735D02*
D03*
X40545Y1129D02*
D03*
X40348Y1522D02*
D03*
X40545Y1916D02*
D03*
X40741Y735D02*
D03*
X40938Y1129D02*
D03*
X40741Y1522D02*
D03*
X40938Y1916D02*
D03*
X40741Y2310D02*
D03*
X41135Y735D02*
D03*
X41332Y1129D02*
D03*
X41135Y1522D02*
D03*
X41332Y1916D02*
D03*
X41135Y2310D02*
D03*
X41332Y2703D02*
D03*
X41529Y735D02*
D03*
X41726Y1129D02*
D03*
X41529Y1522D02*
D03*
X41726Y1916D02*
D03*
X41529Y2310D02*
D03*
X15545Y13333D02*
D03*
Y14121D02*
D03*
Y14908D02*
D03*
Y15696D02*
D03*
Y16483D02*
D03*
X22041Y1129D02*
D03*
X22238Y735D02*
D03*
X22434Y1129D02*
D03*
X22631Y735D02*
D03*
X22828Y1129D02*
D03*
Y6640D02*
D03*
X22631Y7034D02*
D03*
X22828Y7428D02*
D03*
X22631Y7822D02*
D03*
X22828Y8215D02*
D03*
X22631Y8609D02*
D03*
X22828Y9003D02*
D03*
X23025Y735D02*
D03*
X23222Y1129D02*
D03*
Y6640D02*
D03*
X23025Y7034D02*
D03*
X23222Y7428D02*
D03*
X23025Y7822D02*
D03*
X23222Y8215D02*
D03*
X23025Y8609D02*
D03*
X23222Y9003D02*
D03*
X23419Y735D02*
D03*
X23615Y1129D02*
D03*
Y6640D02*
D03*
X23419Y7034D02*
D03*
X23615Y7428D02*
D03*
X23419Y7822D02*
D03*
X23615Y8215D02*
D03*
X23419Y8609D02*
D03*
X23615Y9003D02*
D03*
X23812Y735D02*
D03*
X24009Y1129D02*
D03*
Y6640D02*
D03*
X23812Y7034D02*
D03*
X24009Y7428D02*
D03*
X23812Y7822D02*
D03*
X24009Y8215D02*
D03*
X23812Y8609D02*
D03*
X24009Y9003D02*
D03*
X24206Y735D02*
D03*
X24403Y1129D02*
D03*
Y6640D02*
D03*
X24206Y7034D02*
D03*
X24403Y7428D02*
D03*
X24206Y7822D02*
D03*
X24403Y8215D02*
D03*
X24206Y8609D02*
D03*
X24403Y9003D02*
D03*
X24600Y735D02*
D03*
X24797Y1129D02*
D03*
X24600Y7034D02*
D03*
X24797Y7428D02*
D03*
X24600Y7822D02*
D03*
X24797Y8215D02*
D03*
X24600Y8609D02*
D03*
X24797Y9003D02*
D03*
X24993Y735D02*
D03*
X25190Y1129D02*
D03*
Y7428D02*
D03*
X13773Y12940D02*
D03*
Y14515D02*
D03*
X13576Y14908D02*
D03*
Y16483D02*
D03*
X13773Y16877D02*
D03*
X13970Y12546D02*
D03*
X14167Y12940D02*
D03*
Y14515D02*
D03*
X13970Y14908D02*
D03*
X14167Y15302D02*
D03*
Y16089D02*
D03*
X13970Y16483D02*
D03*
X14167Y16877D02*
D03*
X14363Y12546D02*
D03*
X14560Y12940D02*
D03*
X14363Y13333D02*
D03*
X14560Y13727D02*
D03*
X14363Y14121D02*
D03*
X14560Y14515D02*
D03*
X14363Y14908D02*
D03*
X14560Y15302D02*
D03*
X14363Y15696D02*
D03*
X14560Y16089D02*
D03*
X14363Y16483D02*
D03*
X14560Y16877D02*
D03*
X14757Y12546D02*
D03*
X14954Y12940D02*
D03*
X14757Y13333D02*
D03*
X14954Y13727D02*
D03*
X14757Y14121D02*
D03*
X14954Y14515D02*
D03*
X14757Y14908D02*
D03*
X14954Y15302D02*
D03*
X14757Y15696D02*
D03*
X14954Y16089D02*
D03*
X14757Y16483D02*
D03*
X14954Y16877D02*
D03*
X15348Y12940D02*
D03*
X15151Y13333D02*
D03*
X15348Y13727D02*
D03*
X15151Y14121D02*
D03*
X15348Y14515D02*
D03*
X15151Y14908D02*
D03*
X15348Y15302D02*
D03*
X15151Y15696D02*
D03*
X15348Y16089D02*
D03*
X15151Y16483D02*
D03*
X15348Y16877D02*
D03*
X37937Y22473D02*
D03*
X34030Y23280D02*
D03*
X33237Y23040D02*
D03*
X34476Y28146D02*
D03*
X38840Y23340D02*
D03*
X39280Y23350D02*
D03*
X39360Y24710D02*
D03*
X38760Y24080D02*
D03*
X25880Y33170D02*
D03*
X28030D02*
D03*
X34030Y21990D02*
D03*
X37328Y27412D02*
D03*
X25750Y28220D02*
D03*
X28930D02*
D03*
D40*
X54960Y1430D02*
D03*
X990Y1040D02*
D03*
X54650Y15370D02*
D03*
%TF.MD5,4f5df04e42ae3cd8e8ece6bdcc602c38*%
M02*
